<svg width="48" height="48" viewBox="0 0 48 48" fill="none" xmlns="http://www.w3.org/2000/svg">
<g clip-path="url(#clip0)">
<path d="M43.6688 39.3373C42.9866 39.3373 42.3413 39.4962 41.7671 39.7782L38.3921 36.4036C41.2672 33.0718 43.0082 28.7355 43.0082 24C43.0082 19.2645 41.2672 14.9279 38.3921 11.5964L41.7671 8.2218C42.3413 8.50342 42.9869 8.66272 43.6688 8.66272C46.0569 8.66272 48 6.7196 48 4.33118C48 1.94312 46.0569 0 43.6688 0C41.2804 0 39.3373 1.94312 39.3373 4.33118C39.3373 5.01343 39.4966 5.65869 39.7782 6.23291L36.4036 9.60791C33.0721 6.73279 28.7355 4.99182 24 4.99182C19.2645 4.99182 14.9282 6.73279 11.5964 9.60791L8.2218 6.23291C8.50378 5.65869 8.66272 5.01343 8.66272 4.33118C8.66272 1.94312 6.7196 0 4.33154 0C1.94312 0 0 1.94312 0 4.33118C0 6.7196 1.94312 8.66272 4.33118 8.66272C5.01343 8.66272 5.65869 8.50342 6.23328 8.2218L9.60791 11.5964C6.73279 14.9279 4.99182 19.2645 4.99182 24C4.99182 28.7355 6.73279 33.0718 9.60791 36.4036L6.23328 39.7782C5.65869 39.4962 5.01343 39.3373 4.33118 39.3373C1.94312 39.3373 0 41.2804 0 43.6685C0 46.0569 1.94312 47.9996 4.33118 47.9996C6.7196 47.9996 8.66272 46.0569 8.66272 43.6685C8.66272 42.9866 8.50342 42.3413 8.2218 41.7667L11.5964 38.3921C14.9279 41.2672 19.2645 43.0082 24 43.0082C28.7355 43.0082 33.0718 41.2672 36.4036 38.3921L39.7782 41.7667C39.4962 42.3413 39.3373 42.9866 39.3373 43.6685C39.3373 46.0569 41.2804 47.9996 43.6685 47.9996C46.0569 47.9996 47.9996 46.0569 47.9996 43.6685C47.9996 41.2804 46.0569 39.3373 43.6688 39.3373ZM24 40.1342C23.2698 40.1342 22.0272 39.0341 20.9279 35.933C20.458 34.6077 20.0768 33.0941 19.7922 31.4502C21.1567 31.5656 22.5663 31.6252 24 31.6252C25.4341 31.6252 26.8436 31.5656 28.2081 31.4502C27.9236 33.0941 27.5424 34.6077 27.0725 35.933C25.9728 39.0341 24.7302 40.1342 24 40.1342ZM24 28.8131C22.4227 28.8131 20.881 28.7377 19.4073 28.5927C19.2623 27.119 19.1873 25.5773 19.1873 24C19.1873 22.4227 19.2623 20.881 19.4073 19.4073C20.881 19.2623 22.4227 19.1869 24 19.1869C25.5773 19.1869 27.119 19.2623 28.5927 19.4073C28.7377 20.881 28.8131 22.4227 28.8131 24C28.8131 25.5769 28.7377 27.119 28.5927 28.5923C27.119 28.7377 25.5773 28.8131 24 28.8131ZM16.5498 28.2081C14.9062 27.9232 13.3923 27.542 12.067 27.0721C8.96594 25.9728 7.86584 24.7302 7.86584 24C7.86584 23.2701 8.96594 22.0272 12.067 20.9279C13.3923 20.458 14.9062 20.0768 16.5498 19.7919C16.4344 21.1567 16.3748 22.5663 16.3748 24C16.3748 25.4337 16.4344 26.8436 16.5498 28.2081ZM24 7.86584C24.7302 7.86584 25.9728 8.96594 27.0721 12.067C27.542 13.3923 27.9232 14.9059 28.2081 16.5498C26.8436 16.4344 25.4337 16.3748 24 16.3748C22.5663 16.3748 21.1567 16.4344 19.7919 16.5498C20.0768 14.9059 20.458 13.3923 20.9279 12.067C22.0272 8.96594 23.2698 7.86584 24 7.86584ZM31.4502 19.7919C33.0941 20.0768 34.6077 20.458 35.933 20.9279C39.0341 22.0272 40.1342 23.2698 40.1342 24C40.1342 24.7299 39.0341 25.9728 35.933 27.0721C34.6077 27.542 33.0941 27.9232 31.4502 28.2081C31.5656 26.8433 31.6252 25.4337 31.6252 24C31.6252 22.5663 31.5656 21.1564 31.4502 19.7919ZM43.6688 2.8125C44.5063 2.8125 45.1875 3.49402 45.1875 4.33118C45.1875 5.1687 44.506 5.85022 43.6688 5.85022C42.8313 5.85022 42.1498 5.1687 42.1498 4.33118C42.1498 3.49402 42.8313 2.8125 43.6688 2.8125ZM39.5486 19.4645C38.8151 19.0525 37.9325 18.653 36.8727 18.2772C35.1841 17.6785 33.2303 17.2112 31.1104 16.8896C30.7885 14.7697 30.3215 12.8156 29.7228 11.1273C29.347 10.0675 28.9475 9.18494 28.5355 8.45142C33.8254 9.99683 38.0032 14.1746 39.5486 19.4645ZM19.4645 8.45142C19.0529 9.18494 18.653 10.0675 18.2772 11.1273C17.6788 12.8159 17.2115 14.7697 16.89 16.8896C14.7697 17.2115 12.8159 17.6785 11.1273 18.2772C10.0675 18.653 9.18494 19.0525 8.45142 19.4645C9.99683 14.1746 14.1746 9.99683 19.4645 8.45142ZM4.33118 5.85022C3.49365 5.85022 2.8125 5.1687 2.8125 4.33118C2.8125 3.49402 3.49365 2.8125 4.33118 2.8125C5.16907 2.8125 5.85022 3.49402 5.85022 4.33118C5.85022 5.1687 5.16907 5.85022 4.33118 5.85022ZM4.33118 45.1875C3.49365 45.1875 2.8125 44.506 2.8125 43.6688C2.8125 42.8313 3.49365 42.1498 4.33118 42.1498C5.16907 42.1498 5.85022 42.8313 5.85022 43.6688C5.85022 44.506 5.16907 45.1875 4.33118 45.1875ZM8.45142 28.5355C9.18494 28.9475 10.0675 29.347 11.1273 29.7228C12.8159 30.3215 14.7697 30.7888 16.8896 31.1104C17.2115 33.2303 17.6785 35.1844 18.2772 36.8727C18.653 37.9325 19.0525 38.8151 19.4645 39.5486C14.1746 38.0032 9.99683 33.8254 8.45142 28.5355ZM28.5355 39.5486C28.9475 38.8151 29.347 37.9325 29.7228 36.8727C30.3215 35.1841 30.7888 33.2303 31.1104 31.1104C33.2303 30.7885 35.1844 30.3215 36.8727 29.7228C37.9325 29.347 38.8151 28.9475 39.5486 28.5355C38.0032 33.8254 33.8254 38.0032 28.5355 39.5486ZM43.6688 45.1875C42.8309 45.1875 42.1498 44.506 42.1498 43.6688C42.1498 42.8313 42.8313 42.1498 43.6688 42.1498C44.506 42.1498 45.1875 42.8313 45.1875 43.6688C45.1875 44.506 44.5063 45.1875 43.6688 45.1875Z" fill="#F20F38"/>
<path d="M22.5938 0H25.4062V2.8125H22.5938V0Z" fill="#F20F38"/>
<path d="M22.5938 45.1853H25.4062V47.9978H22.5938V45.1853Z" fill="#F20F38"/>
<path d="M45.1875 22.5938H48V25.4062H45.1875V22.5938Z" fill="#F20F38"/>
<path d="M0 22.5938H2.8125V25.4062H0V22.5938Z" fill="#F20F38"/>
</g>
<defs>
<clipPath id="clip0">
<rect width="48" height="48" fill="white"/>
</clipPath>
</defs>
</svg>
