<svg width="48" height="48" viewBox="0 0 48 48" fill="none" xmlns="http://www.w3.org/2000/svg">
<g clip-path="url(#clip0)">
<path d="M14.1562 22.594H19.7812V25.4065H14.1562V33.844H22.5938V31.0315H16.9688V28.219H22.5938V19.7815H14.1562V22.594Z" fill="#F20F38"/>
<path d="M25.4062 19.7815V28.219H31.0312V33.844H33.8438V19.7815H31.0312V25.4065H28.2188V19.7815H25.4062Z" fill="#F20F38"/>
<path d="M43.3126 22.9972V22.1252C43.3126 11.4763 34.649 2.81274 24 2.81274C13.351 2.81274 4.68741 11.4764 4.68741 22.1252V22.9972C1.95956 23.9648 0 26.57 0 29.6254C0 33.5026 3.15431 36.6569 7.03144 36.6569H10.3126V22.594H7.49991V22.1252C7.49991 13.0271 14.9018 5.62524 24 5.62524C33.0982 5.62524 40.5001 13.0272 40.5001 22.1252V22.594H37.6874V37.967C37.6874 40.3975 35.71 42.3749 33.2795 42.3749H24V45.1874H33.2795C37.2608 45.1874 40.4999 41.9484 40.4999 37.967V36.6568H40.9686C44.8457 36.6568 48 33.5025 48 29.6253C48 26.57 46.0404 23.9648 43.3126 22.9972ZM7.50009 33.8444H7.03144C4.70512 33.8444 2.8125 31.9517 2.8125 29.6254C2.8125 27.2991 4.70512 25.4065 7.03144 25.4065H7.50009V33.8444ZM40.9686 33.8444H40.4999V25.4065H40.9686C43.2949 25.4065 45.1875 27.2991 45.1875 29.6254C45.1875 31.9517 43.295 33.8444 40.9686 33.8444Z" fill="#F20F38"/>
</g>
<defs>
<clipPath id="clip0">
<rect width="48" height="48" fill="white"/>
</clipPath>
</defs>
</svg>
