<svg width="48" height="48" viewBox="0 0 48 48" fill="none" xmlns="http://www.w3.org/2000/svg">
<path d="M48 37.2656V1.875H0V37.2656H15.0941V43.2466H9.96973V46.0591H38.0303V43.2466H32.9059V37.2656H48ZM45.1879 28.8285H25.4062V4.68713H45.1879V28.8285ZM22.5938 4.68713V28.8285H2.81213V4.68713H22.5938ZM2.81213 31.6406H45.1879V34.4535H2.81213V31.6406ZM30.0938 43.2466H17.9062V37.2656H30.0938V43.2466Z" fill="#F20F38"/>
<path d="M19.7391 21.9902C19.7391 19.4202 18.3578 17.1676 16.2993 15.9335C16.8669 15.1776 17.2035 14.2394 17.2035 13.2235C17.2035 10.7303 15.175 8.7019 12.6819 8.7019C10.1887 8.7019 8.16064 10.7303 8.16064 13.2235C8.16064 14.2394 8.49719 15.1776 9.06482 15.9331C7.00598 17.1672 5.625 19.4202 5.625 21.9899V24.9082H19.7391V21.9902ZM10.9728 13.2235C10.9728 12.2809 11.7396 11.5144 12.6819 11.5144C13.6245 11.5144 14.3914 12.2812 14.3914 13.2235C14.3914 14.1661 13.6245 14.933 12.6819 14.933C11.7396 14.933 10.9728 14.1661 10.9728 13.2235ZM16.927 22.0961H8.43713V21.9902C8.43713 19.6494 10.3414 17.7451 12.6819 17.7451C15.0227 17.7451 16.927 19.6494 16.927 21.9902V22.0961Z" fill="#F20F38"/>
<path d="M42.3759 24.9086V21.9902C42.3759 19.4202 40.9949 17.1676 38.936 15.9335C39.5037 15.1776 39.8406 14.2394 39.8406 13.2235C39.8406 10.7303 37.8121 8.7019 35.319 8.7019C32.8258 8.7019 30.7974 10.7303 30.7974 13.2235C30.7974 14.2394 31.1343 15.1776 31.7015 15.9335C29.6431 17.1676 28.2617 19.4202 28.2617 21.9902V24.9086H42.3759ZM33.6095 13.2235C33.6095 12.2809 34.3763 11.5144 35.319 11.5144C36.2612 11.5144 37.0281 12.2812 37.0281 13.2235C37.0281 14.1661 36.2612 14.933 35.319 14.933C34.3763 14.933 33.6095 14.1661 33.6095 13.2235ZM31.0739 21.9902C31.0739 19.6494 32.9781 17.7451 35.319 17.7451C37.6594 17.7451 39.5637 19.6494 39.5637 21.9902V22.0961H31.0739V21.9902Z" fill="#F20F38"/>
</svg>
