<svg width="48" height="48" viewBox="0 0 48 48" fill="none" xmlns="http://www.w3.org/2000/svg">
<path d="M24.0388 0L1.59375 11.7715V36.2095L24.0388 48L46.4839 36.2095V11.7715L24.0388 0ZM43.6732 33.1095L25.444 24.1981V3.9104L43.6732 13.4711V33.1095ZM13.9589 31.567L21.0575 35.3602L13.6033 39.3439L6.1062 35.4056L13.9589 31.567ZM17.0728 30.0447L24.0388 26.6393L31.0049 30.0447L24.0388 33.7672L17.0728 30.0447ZM34.1188 31.567L41.9711 35.4056L34.474 39.3439L27.0201 35.3606L34.1188 31.567ZM22.6337 3.9104V24.1981L4.40405 33.1095V13.4711L22.6337 3.9104ZM16.6102 40.9233L24.0388 36.9536L31.467 40.9233L24.0388 44.8253L16.6102 40.9233Z" fill="#F20F38"/>
</svg>
