<svg width="48" height="48" viewBox="0 0 48 48" fill="none" xmlns="http://www.w3.org/2000/svg">
<path d="M24 48L14.3287 36.4164H19.7241V28.2759H11.5836V33.6713L0 24L11.5836 14.3287V19.7241H19.7241V11.5836H14.3287L24 0L33.6713 11.5836H28.2759V19.7241H36.4164V14.3287L48 24L36.4164 33.6713V28.2759H28.2759V36.4164H33.6713L24 48ZM20.3401 39.2285L24 43.6121L27.6599 39.2285H25.4637V25.4637H39.2285V27.6599L43.6121 24L39.2285 20.3401V22.5363H25.4637V8.77148H27.6599L24 4.38794L20.3401 8.77148H22.5363V22.5363H8.77148V20.3401L4.38794 24L8.77148 27.6599V25.4637H22.5363V39.2285H20.3401Z" fill="#F20F38"/>
</svg>
