<svg width="48" height="48" viewBox="0 0 48 48" fill="none" xmlns="http://www.w3.org/2000/svg">
<path d="M35.2412 13.6725L33.1578 7.42235V0H14.8304V7.43187L12.75 13.6728V34.3274L14.8304 40.568V47.9999H33.1578V40.5776L35.2412 34.3274V13.6725ZM17.2529 38.9395L16.1081 35.5055H31.8834L30.7386 38.9395H17.2529ZM15.5632 32.6923V15.3076H32.4283V32.6923H15.5632ZM16.1078 12.4944L17.2526 9.06004H30.7386L31.8834 12.4944H16.1078ZM30.3449 2.81286V6.24718H17.6433V2.81286H30.3449ZM17.6433 45.187V41.7527H30.3449V45.187H17.6433Z" fill="#F20F38"/>
<path d="M27.1978 23.2455C27.5387 22.6816 27.7354 22.0209 27.7354 21.3152C27.7354 19.252 26.057 17.5737 23.9938 17.5737C21.9305 17.5737 20.2522 19.252 20.2522 21.3152C20.2522 22.0209 20.4489 22.6816 20.7898 23.2455C19.318 24.2647 18.3516 25.9643 18.3516 27.8862V30.4262H29.636V27.8862C29.636 25.9643 28.6696 24.2647 27.1978 23.2455ZM23.0651 21.3152C23.0651 20.8033 23.4814 20.3865 23.9938 20.3865C24.5057 20.3865 24.9225 20.8033 24.9225 21.3152C24.9225 21.8272 24.5057 22.244 23.9938 22.244C23.4814 22.244 23.0651 21.8272 23.0651 21.3152ZM21.1776 27.6133C21.3153 26.1807 22.5256 25.0568 23.9938 25.0568C25.4615 25.0568 26.6719 26.1807 26.8099 27.6133H21.1776Z" fill="#F20F38"/>
</svg>
