<svg width="48" height="48" viewBox="0 0 48 48" fill="none" xmlns="http://www.w3.org/2000/svg">
<path d="M31.5256 25.5557C33.4109 24.345 34.9698 22.7018 36.0769 20.7667H38.929V6.98181H36.0769C34.9592 5.02881 33.3816 3.37207 31.4725 2.15808C29.2522 0.746338 26.6796 0 24.0333 0C21.3875 0 18.8152 0.746338 16.5945 2.15845C14.6854 3.37244 13.1078 5.02881 11.9901 6.98181H9.13806V20.7667H11.9901C13.0975 22.7014 14.6565 24.3446 16.5417 25.5553C9.07068 27.5947 3.5625 34.4396 3.5625 42.5479V48H44.5045V42.5479C44.5045 34.4396 38.9963 27.5947 31.5256 25.5557ZM24.0282 27.7485H24.0333H24.0385H26.5206L24.0333 33.1205C23.243 31.4139 22.2488 29.2661 21.546 27.7485H24.0282ZM11.9509 17.9539V9.79468H36.1161V17.9539H11.9509ZM18.104 4.53186C19.8724 3.40723 21.9229 2.81287 24.0333 2.81287C26.1442 2.81287 28.1946 3.40723 29.9634 4.53186C31.0067 5.19507 31.9248 6.0249 32.6873 6.98181H15.3801C16.1422 6.0249 17.0607 5.19507 18.104 4.53186ZM15.3801 20.7667H32.6873C31.9252 21.7236 31.0067 22.5535 29.9634 23.217C28.1964 24.3406 26.1478 24.9349 24.0388 24.9357H24.0282C21.9196 24.9349 19.871 24.3406 18.104 23.2167C17.0607 22.5535 16.1422 21.7236 15.3801 20.7667ZM41.6917 45.1871H6.37537V42.5479C6.37537 35.2815 11.6393 29.2214 18.5541 27.9811C19.7128 30.4834 22.7571 37.0587 22.7571 37.0587L24.0333 39.8152L29.5129 27.9807C36.4277 29.2214 41.6917 35.2815 41.6917 42.5479V45.1871Z" fill="#F20F38"/>
<path d="M16.1895 12.468H31.8783V15.2805H16.1895V12.468Z" fill="#F20F38"/>
</svg>
