<svg width="48" height="48" viewBox="0 0 48 48" fill="none" xmlns="http://www.w3.org/2000/svg">
<path d="M19.3228 18.163C19.9702 16.248 21.1688 14.5305 22.7622 13.2594C24.6251 11.7729 26.9641 10.9545 29.3481 10.9545H31.2909V9.42114H39.7321V11.6613C43.7651 13.2231 46.4996 17.1365 46.4996 21.531V22.3531H48V30.2278H46.4883C46.3506 33.134 44.8246 35.7532 42.3867 37.3048V47.9758H26.399V41.3719H24.6859C21.4255 41.3719 18.7734 38.7198 18.7734 35.4598V34.2166C16.9548 33.4285 15.679 31.6165 15.679 29.5115V23.0695C15.679 20.7583 17.217 18.8002 19.3228 18.163ZM29.3481 13.7681C26.3936 13.7681 23.7726 15.4171 22.4615 17.944H28.7893V22.3528H31.2909V13.7681H29.3481ZM28.7893 27.4142H45.1864V25.1667H28.7893V27.4142ZM34.1045 12.2347V22.3528H36.9185V12.2347H34.1045ZM43.686 21.531C43.686 18.6885 42.1282 16.1188 39.7321 14.7634V22.3528H43.686V21.531ZM24.6859 38.5583H29.2126V45.1619H39.5731V35.625L40.344 35.2343C42.2765 34.255 43.5227 32.3628 43.671 30.2278H28.7893V34.6366H21.587V35.4595C21.587 37.1682 22.9772 38.5583 24.6859 38.5583ZM18.4926 29.5111C18.4926 30.7859 19.5297 31.823 20.8044 31.823H25.9757V20.7576H20.8044C19.5297 20.7576 18.4926 21.7947 18.4926 23.0695V29.5111Z" fill="#F20F38"/>
<path d="M4.26978 4.27075C7.02368 1.51648 10.6854 0 14.5801 0V2.8136C11.4369 2.8136 8.48193 4.03748 6.2594 6.26001C4.03687 8.48254 2.81299 11.4375 2.81299 14.5807H-0.000610352C-0.000610352 10.6857 1.51587 7.02429 4.26978 4.27075Z" fill="#F20F38"/>
<path d="M14.5801 4.56921V7.38281C12.6575 7.38281 10.8499 8.13171 9.49011 9.49109C8.13074 10.8505 7.3822 12.6581 7.3822 14.5807H4.5686C4.5686 11.9066 5.61011 9.39258 7.50085 7.50146C9.39197 5.61072 11.906 4.56921 14.5801 4.56921Z" fill="#F20F38"/>
<path d="M14.5801 9.07324V11.8868C13.8605 11.8868 13.1841 12.167 12.675 12.676C12.1664 13.1847 11.8862 13.8611 11.8862 14.5807H9.07263C9.07263 13.1096 9.64539 11.7264 10.6858 10.6864C11.7258 9.64636 13.109 9.07324 14.5801 9.07324Z" fill="#F20F38"/>
</svg>
