<svg width="48" height="48" viewBox="0 0 48 48" fill="none" xmlns="http://www.w3.org/2000/svg">
<path d="M47.484 0L32.6199 5.34741H15.427L0.5625 0V42.9745L15.427 37.6271H32.6199L47.484 42.9745V0ZM44.6715 20.0808H34.2715V7.74207L44.6715 4.00085V20.0808ZM31.4586 8.15991V20.0808H16.5883V8.15991H31.4586ZM13.7754 7.74243V20.0808H3.37537V4.00085L13.7754 7.74243ZM3.37537 22.8937H13.7754V35.2321L3.37537 38.9736V22.8937ZM16.5883 34.8146V22.8937H31.4586V34.8146H16.5883ZM34.2715 35.2321V22.8937H44.6715V38.9733L34.2715 35.2321Z" fill="#F20F38"/>
<path d="M29.0979 40.8559C27.7209 40.2993 25.9196 39.9927 24.0266 39.9927C22.1337 39.9927 20.3326 40.2993 18.9553 40.8559C16.5522 41.8271 16.1934 43.2403 16.1934 43.9965C16.1934 44.7524 16.5522 46.1656 18.9553 47.1368C20.3326 47.6934 22.1337 47.9999 24.0266 47.9999C25.9196 47.9999 27.7209 47.6934 29.0979 47.1368C31.501 46.1656 31.8599 44.7524 31.8599 43.9965C31.8599 43.2403 31.501 41.8271 29.0979 40.8559ZM24.0266 45.1871C21.194 45.1871 19.5002 44.4217 19.0729 43.9962C19.5002 43.571 21.194 42.8052 24.0266 42.8052C26.8593 42.8052 28.553 43.571 28.9803 43.9962C28.553 44.4217 26.8593 45.1871 24.0266 45.1871Z" fill="#F20F38"/>
</svg>
