<svg width="705" height="821" viewBox="0 0 705 821" fill="none" xmlns="http://www.w3.org/2000/svg">
<rect width="705" height="821" fill="#F20F38"/>
<path d="M193.34 307L188.7 321H185.94L182.48 310.64L178.96 321H176.18L171.54 307H174.24L177.72 317.64L181.34 307H183.74L187.28 317.7L190.86 307H193.34ZM205.958 318.82V321H195.458V307H205.678V309.18H198.058V312.82H204.818V314.96H198.058V318.82H205.958ZM218.777 313.72C219.55 313.973 220.163 314.4 220.617 315C221.07 315.587 221.297 316.32 221.297 317.2C221.297 318.413 220.83 319.353 219.897 320.02C218.963 320.673 217.603 321 215.817 321H208.857V307H215.417C217.07 307 218.343 307.327 219.237 307.98C220.13 308.62 220.577 309.507 220.577 310.64C220.577 311.333 220.417 311.947 220.097 312.48C219.777 313.013 219.337 313.427 218.777 313.72ZM211.457 309.04V312.9H215.137C216.043 312.9 216.737 312.74 217.217 312.42C217.71 312.087 217.957 311.607 217.957 310.98C217.957 310.34 217.71 309.86 217.217 309.54C216.737 309.207 216.043 309.04 215.137 309.04H211.457ZM215.657 318.96C217.67 318.96 218.677 318.287 218.677 316.94C218.677 315.593 217.67 314.92 215.657 314.92H211.457V318.96H215.657Z" fill="white"/>
<path d="M243.25 274.25H150.75C145.225 274.25 140.75 269.775 140.75 264.25V189.25H253.25V264.25C253.25 269.775 248.775 274.25 243.25 274.25Z" fill="white"/>
<path d="M253.25 189.25H140.75V181.75C140.75 176.225 145.225 171.75 150.75 171.75H243.25C248.775 171.75 253.25 176.225 253.25 181.75V189.25Z" fill="white"/>
<path d="M170.75 206.75H188.25V224.25H170.75V206.75Z" fill="white"/>
<path d="M170.75 241.75H188.25V259.25H170.75V241.75Z" fill="white"/>
<path d="M205.75 206.75H223.25V224.25H205.75V206.75Z" fill="white"/>
<path d="M205.75 241.75H223.25V259.25H205.75V241.75Z" fill="white"/>
<path d="M162 171.75H150.75C145.225 171.75 140.75 176.225 140.75 181.75V189.25H152V181.75C152 176.225 156.475 171.75 162 171.75Z" fill="white"/>
<path d="M188.25 228H170.75C168.68 228 167 226.32 167 224.25V206.75C167 204.68 168.68 203 170.75 203H188.25C190.32 203 192 204.68 192 206.75V224.25C192 226.32 190.32 228 188.25 228ZM174.5 220.5H184.5V210.5H174.5V220.5Z" fill="#F20F38"/>
<path d="M188.25 263H170.75C168.68 263 167 261.32 167 259.25V241.75C167 239.68 168.68 238 170.75 238H188.25C190.32 238 192 239.68 192 241.75V259.25C192 261.32 190.32 263 188.25 263ZM174.5 255.5H184.5V245.5H174.5V255.5Z" fill="#F20F38"/>
<path d="M223.25 228H205.75C203.68 228 202 226.32 202 224.25V206.75C202 204.68 203.68 203 205.75 203H223.25C225.32 203 227 204.68 227 206.75V224.25C227 226.32 225.32 228 223.25 228ZM209.5 220.5H219.5V210.5H209.5V220.5Z" fill="#F20F38"/>
<path d="M243.25 278H150.75C143.165 278 137 271.835 137 264.25V181.75C137 174.165 143.165 168 150.75 168H243.25C250.835 168 257 174.165 257 181.75V264.25C257 271.835 250.835 278 243.25 278ZM150.75 175.5C147.305 175.5 144.5 178.305 144.5 181.75V264.25C144.5 267.695 147.305 270.5 150.75 270.5H243.25C246.695 270.5 249.5 267.695 249.5 264.25V181.75C249.5 178.305 246.695 175.5 243.25 175.5H150.75Z" fill="#F20F38"/>
<path d="M140.75 185.5H253.25V193H140.75V185.5Z" fill="#F20F38"/>
<path d="M223.25 263H205.75C203.68 263 202 261.32 202 259.25V241.75C202 239.68 203.68 238 205.75 238H223.25C225.32 238 227 239.68 227 241.75V259.25C227 261.32 225.32 263 223.25 263ZM209.5 255.5H219.5V245.5H209.5V255.5Z" fill="#F20F38"/>
<path d="M117 270.5H277V278H117V270.5Z" fill="#F20F38"/>
<path d="M472.4 211.936V236.815C472.4 240.123 469.78 242.766 466.446 242.766C463.133 242.766 459.929 240.102 459.929 236.815V211.936C459.929 208.691 463.133 206.027 466.446 206.027C469.715 206.027 472.4 208.691 472.4 211.936ZM474.739 245.666C474.739 249.19 477.597 252.025 481.147 252.025H485.456L485.521 265.152C485.521 273.08 497.473 273.016 497.473 265.152V252.025H505.527V265.152C505.527 273.037 517.544 273.059 517.544 265.152V252.025H521.918C525.425 252.025 528.283 249.19 528.283 245.666V207.123H474.739V245.666ZM528.435 205.039H474.5C474.5 195.844 480.043 187.852 488.271 183.684L484.135 176.1C483.529 175.047 485.066 174.381 485.586 175.283L489.787 182.932C497.343 179.602 506.025 179.774 513.235 182.932L517.414 175.305C517.956 174.381 519.471 175.068 518.865 176.121L514.729 183.684C522.892 187.852 528.435 195.844 528.435 205.039ZM491.475 193.115C491.475 191.891 490.479 190.859 489.202 190.859C487.968 190.859 486.993 191.891 486.993 193.115C486.993 194.34 487.989 195.371 489.202 195.371C490.479 195.371 491.475 194.34 491.475 193.115ZM516.028 193.115C516.028 191.891 515.033 190.859 513.82 190.859C512.543 190.859 511.547 191.891 511.547 193.115C511.547 194.34 512.543 195.371 513.82 195.371C515.033 195.371 516.028 194.34 516.028 193.115ZM536.554 206.027C533.285 206.027 530.6 208.627 530.6 211.936V236.815C530.6 240.123 533.285 242.766 536.554 242.766C539.889 242.766 543.072 240.102 543.072 236.815V211.936C543.072 208.627 539.867 206.027 536.554 206.027Z" fill="white"/>
<path d="M460.96 317.76H453.96L452.58 321H449.9L456.2 307H458.76L465.08 321H462.36L460.96 317.76ZM460.1 315.72L457.46 309.6L454.84 315.72H460.1ZM479.3 307V321H477.16L469.44 311.52V321H466.86V307H469L476.72 316.48V307H479.3ZM483.052 307H489.172C490.665 307 491.992 307.293 493.152 307.88C494.312 308.453 495.212 309.273 495.852 310.34C496.492 311.393 496.812 312.613 496.812 314C496.812 315.387 496.492 316.613 495.852 317.68C495.212 318.733 494.312 319.553 493.152 320.14C491.992 320.713 490.665 321 489.172 321H483.052V307ZM489.052 318.8C490.079 318.8 490.979 318.607 491.752 318.22C492.539 317.82 493.139 317.26 493.552 316.54C493.979 315.807 494.192 314.96 494.192 314C494.192 313.04 493.979 312.2 493.552 311.48C493.139 310.747 492.539 310.187 491.752 309.8C490.979 309.4 490.079 309.2 489.052 309.2H485.652V318.8H489.052ZM508.735 321L505.875 316.9C505.755 316.913 505.575 316.92 505.335 316.92H502.175V321H499.575V307H505.335C506.549 307 507.602 307.2 508.495 307.6C509.402 308 510.095 308.573 510.575 309.32C511.055 310.067 511.295 310.953 511.295 311.98C511.295 313.033 511.035 313.94 510.515 314.7C510.009 315.46 509.275 316.027 508.315 316.4L511.535 321H508.735ZM508.675 311.98C508.675 311.087 508.382 310.4 507.795 309.92C507.209 309.44 506.349 309.2 505.215 309.2H502.175V314.78H505.215C506.349 314.78 507.209 314.54 507.795 314.06C508.382 313.567 508.675 312.873 508.675 311.98ZM520.744 321.2C519.318 321.2 518.031 320.893 516.884 320.28C515.738 319.653 514.838 318.793 514.184 317.7C513.531 316.593 513.204 315.36 513.204 314C513.204 312.64 513.531 311.413 514.184 310.32C514.838 309.213 515.738 308.353 516.884 307.74C518.031 307.113 519.318 306.8 520.744 306.8C522.171 306.8 523.458 307.113 524.604 307.74C525.751 308.353 526.651 309.207 527.304 310.3C527.958 311.393 528.284 312.627 528.284 314C528.284 315.373 527.958 316.607 527.304 317.7C526.651 318.793 525.751 319.653 524.604 320.28C523.458 320.893 522.171 321.2 520.744 321.2ZM520.744 318.92C521.678 318.92 522.518 318.713 523.264 318.3C524.011 317.873 524.598 317.287 525.024 316.54C525.451 315.78 525.664 314.933 525.664 314C525.664 313.067 525.451 312.227 525.024 311.48C524.598 310.72 524.011 310.133 523.264 309.72C522.518 309.293 521.678 309.08 520.744 309.08C519.811 309.08 518.971 309.293 518.224 309.72C517.478 310.133 516.891 310.72 516.464 311.48C516.038 312.227 515.824 313.067 515.824 314C515.824 314.933 516.038 315.78 516.464 316.54C516.891 317.287 517.478 317.873 518.224 318.3C518.971 318.713 519.811 318.92 520.744 318.92ZM531.04 307H533.64V321H531.04V307ZM537.427 307H543.547C545.04 307 546.367 307.293 547.527 307.88C548.687 308.453 549.587 309.273 550.227 310.34C550.867 311.393 551.187 312.613 551.187 314C551.187 315.387 550.867 316.613 550.227 317.68C549.587 318.733 548.687 319.553 547.527 320.14C546.367 320.713 545.04 321 543.547 321H537.427V307ZM543.427 318.8C544.454 318.8 545.354 318.607 546.127 318.22C546.914 317.82 547.514 317.26 547.927 316.54C548.354 315.807 548.567 314.96 548.567 314C548.567 313.04 548.354 312.2 547.927 311.48C547.514 310.747 546.914 310.187 546.127 309.8C545.354 309.4 544.454 309.2 543.427 309.2H540.027V318.8H543.427Z" fill="white"/>
<g clip-path="url(#clip0)">
<path d="M241.385 581.723C239.722 585.566 237.753 589.104 235.471 592.356C232.361 596.79 229.815 599.859 227.853 601.563C224.811 604.361 221.552 605.794 218.062 605.875C215.556 605.875 212.535 605.162 209.018 603.716C205.489 602.276 202.246 601.563 199.281 601.563C196.171 601.563 192.836 602.276 189.269 603.716C185.696 605.162 182.818 605.916 180.617 605.99C177.27 606.133 173.934 604.659 170.605 601.563C168.479 599.71 165.821 596.532 162.637 592.03C159.22 587.223 156.411 581.649 154.21 575.293C151.854 568.428 150.672 561.781 150.672 555.346C150.672 547.974 152.265 541.616 155.455 536.288C157.963 532.008 161.299 528.632 165.474 526.154C169.649 523.675 174.16 522.412 179.018 522.332C181.676 522.332 185.162 523.154 189.494 524.77C193.814 526.391 196.588 527.214 197.804 527.214C198.713 527.214 201.794 526.252 207.018 524.336C211.958 522.558 216.127 521.822 219.542 522.112C228.796 522.859 235.749 526.507 240.373 533.08C232.096 538.095 228.002 545.119 228.084 554.13C228.158 561.149 230.704 566.989 235.709 571.627C237.976 573.779 240.509 575.443 243.327 576.624C242.716 578.396 242.071 580.093 241.385 581.723H241.385ZM220.16 498.2C220.16 503.702 218.15 508.838 214.144 513.592C209.31 519.244 203.462 522.51 197.121 521.995C197.04 521.335 196.993 520.64 196.993 519.91C196.993 514.629 199.293 508.977 203.375 504.356C205.414 502.016 208.006 500.071 211.15 498.519C214.287 496.99 217.254 496.144 220.045 496C220.126 496.735 220.16 497.471 220.16 498.2L220.16 498.2Z" fill="white"/>
</g>
<path d="M180.88 635H183.48V649H180.88V635ZM193.807 649.2C192.38 649.2 191.093 648.893 189.947 648.28C188.8 647.653 187.9 646.793 187.247 645.7C186.593 644.593 186.267 643.36 186.267 642C186.267 640.64 186.593 639.413 187.247 638.32C187.9 637.213 188.8 636.353 189.947 635.74C191.093 635.113 192.38 634.8 193.807 634.8C195.233 634.8 196.52 635.113 197.667 635.74C198.813 636.353 199.713 637.207 200.367 638.3C201.02 639.393 201.347 640.627 201.347 642C201.347 643.373 201.02 644.607 200.367 645.7C199.713 646.793 198.813 647.653 197.667 648.28C196.52 648.893 195.233 649.2 193.807 649.2ZM193.807 646.92C194.74 646.92 195.58 646.713 196.327 646.3C197.073 645.873 197.66 645.287 198.087 644.54C198.513 643.78 198.727 642.933 198.727 642C198.727 641.067 198.513 640.227 198.087 639.48C197.66 638.72 197.073 638.133 196.327 637.72C195.58 637.293 194.74 637.08 193.807 637.08C192.873 637.08 192.033 637.293 191.287 637.72C190.54 638.133 189.953 638.72 189.527 639.48C189.1 640.227 188.887 641.067 188.887 642C188.887 642.933 189.1 643.78 189.527 644.54C189.953 645.287 190.54 645.873 191.287 646.3C192.033 646.713 192.873 646.92 193.807 646.92ZM208.443 649.2C207.363 649.2 206.316 649.047 205.303 648.74C204.303 648.433 203.509 648.027 202.923 647.52L203.823 645.5C204.396 645.953 205.096 646.327 205.923 646.62C206.763 646.9 207.603 647.04 208.443 647.04C209.483 647.04 210.256 646.873 210.763 646.54C211.283 646.207 211.543 645.767 211.543 645.22C211.543 644.82 211.396 644.493 211.103 644.24C210.823 643.973 210.463 643.767 210.023 643.62C209.583 643.473 208.983 643.307 208.223 643.12C207.156 642.867 206.289 642.613 205.623 642.36C204.969 642.107 204.403 641.713 203.923 641.18C203.456 640.633 203.223 639.9 203.223 638.98C203.223 638.207 203.429 637.507 203.843 636.88C204.269 636.24 204.903 635.733 205.743 635.36C206.596 634.987 207.636 634.8 208.863 634.8C209.716 634.8 210.556 634.907 211.383 635.12C212.209 635.333 212.923 635.64 213.523 636.04L212.703 638.06C212.089 637.7 211.449 637.427 210.783 637.24C210.116 637.053 209.469 636.96 208.843 636.96C207.816 636.96 207.049 637.133 206.543 637.48C206.049 637.827 205.803 638.287 205.803 638.86C205.803 639.26 205.943 639.587 206.223 639.84C206.516 640.093 206.883 640.293 207.323 640.44C207.763 640.587 208.363 640.753 209.123 640.94C210.163 641.18 211.016 641.433 211.683 641.7C212.349 641.953 212.916 642.347 213.383 642.88C213.863 643.413 214.103 644.133 214.103 645.04C214.103 645.813 213.889 646.513 213.463 647.14C213.049 647.767 212.416 648.267 211.563 648.64C210.709 649.013 209.669 649.2 208.443 649.2Z" fill="white"/>
<g clip-path="url(#clip1)">
<path d="M524.596 539.641C523.749 541.597 522.747 543.398 521.586 545.054C520.002 547.311 518.706 548.874 517.707 549.741C516.159 551.166 514.499 551.895 512.723 551.936C511.447 551.936 509.909 551.573 508.118 550.837C506.322 550.104 504.671 549.741 503.162 549.741C501.578 549.741 499.88 550.104 498.064 550.837C496.245 551.573 494.78 551.957 493.66 551.995C491.956 552.068 490.258 551.317 488.563 549.741C487.481 548.798 486.127 547.18 484.506 544.888C482.767 542.441 481.337 539.603 480.216 536.367C479.017 532.873 478.415 529.489 478.415 526.212C478.415 522.459 479.226 519.223 480.85 516.51C482.127 514.331 483.825 512.613 485.951 511.351C488.076 510.089 490.373 509.446 492.846 509.405C494.199 509.405 495.974 509.824 498.179 510.647C500.378 511.472 501.79 511.891 502.41 511.891C502.872 511.891 504.441 511.401 507.1 510.425C509.615 509.52 511.737 509.146 513.476 509.293C518.188 509.674 521.727 511.531 524.081 514.877C519.868 517.43 517.783 521.006 517.825 525.593C517.863 529.167 519.159 532.14 521.706 534.501C522.861 535.597 524.15 536.444 525.585 537.045C525.274 537.947 524.945 538.811 524.596 539.641H524.596ZM513.791 497.12C513.791 499.921 512.768 502.536 510.728 504.956C508.267 507.833 505.29 509.496 502.062 509.234C502.021 508.898 501.997 508.544 501.997 508.173C501.997 505.484 503.167 502.607 505.246 500.254C506.284 499.063 507.603 498.072 509.204 497.282C510.801 496.504 512.311 496.073 513.732 496C513.773 496.374 513.791 496.749 513.791 497.12L513.791 497.12Z" fill="white"/>
</g>
<path d="M449.8 572.367V585.033C449.8 586.717 448.477 588.062 446.792 588.062C445.119 588.062 443.5 586.706 443.5 585.033V572.367C443.5 570.716 445.119 569.359 446.792 569.359C448.444 569.359 449.8 570.716 449.8 572.367ZM450.981 589.539C450.981 591.333 452.425 592.776 454.219 592.776H456.395L456.428 599.459C456.428 603.495 462.466 603.462 462.466 599.459V592.776H466.534V599.459C466.534 603.473 472.605 603.484 472.605 599.459V592.776H474.814C476.586 592.776 478.03 591.333 478.03 589.539V569.917H450.981V589.539ZM478.106 568.856H450.861C450.861 564.175 453.661 560.106 457.817 557.984L455.728 554.123C455.422 553.587 456.198 553.248 456.461 553.708L458.583 557.601C462.4 555.906 466.786 555.994 470.428 557.601L472.539 553.719C472.813 553.248 473.578 553.598 473.272 554.134L471.183 557.984C475.306 560.106 478.106 564.175 478.106 568.856ZM459.436 562.786C459.436 562.162 458.933 561.637 458.288 561.637C457.664 561.637 457.172 562.162 457.172 562.786C457.172 563.409 457.675 563.934 458.288 563.934C458.933 563.934 459.436 563.409 459.436 562.786ZM471.839 562.786C471.839 562.162 471.336 561.637 470.723 561.637C470.078 561.637 469.575 562.162 469.575 562.786C469.575 563.409 470.078 563.934 470.723 563.934C471.336 563.934 471.839 563.409 471.839 562.786ZM482.208 569.359C480.556 569.359 479.2 570.683 479.2 572.367V585.033C479.2 586.717 480.556 588.062 482.208 588.062C483.892 588.062 485.5 586.706 485.5 585.033V572.367C485.5 570.683 483.881 569.359 482.208 569.359Z" fill="white"/>
<path d="M514 560.248L534.081 557.481V576.884H514V560.248ZM514 595.752L534.081 598.519V579.356H514V595.752ZM536.291 598.814L563 602.5V579.356H536.291V598.814ZM536.291 557.186V576.884H563V553.5L536.291 557.186Z" fill="white"/>
<path d="M475.32 635V649H472.72V643H465.48V649H462.88V635H465.48V640.78H472.72V635H475.32ZM485.111 644.06V649H482.511V644.1L477.011 635H479.791L483.891 641.82L488.031 635H490.591L485.111 644.06ZM502.019 641.72C502.792 641.973 503.405 642.4 503.859 643C504.312 643.587 504.539 644.32 504.539 645.2C504.539 646.413 504.072 647.353 503.139 648.02C502.205 648.673 500.845 649 499.059 649H492.099V635H498.659C500.312 635 501.585 635.327 502.479 635.98C503.372 636.62 503.819 637.507 503.819 638.64C503.819 639.333 503.659 639.947 503.339 640.48C503.019 641.013 502.579 641.427 502.019 641.72ZM494.699 637.04V640.9H498.379C499.285 640.9 499.979 640.74 500.459 640.42C500.952 640.087 501.199 639.607 501.199 638.98C501.199 638.34 500.952 637.86 500.459 637.54C499.979 637.207 499.285 637.04 498.379 637.04H494.699ZM498.899 646.96C500.912 646.96 501.919 646.287 501.919 644.94C501.919 643.593 500.912 642.92 498.899 642.92H494.699V646.96H498.899ZM516.474 649L513.614 644.9C513.494 644.913 513.314 644.92 513.074 644.92H509.914V649H507.314V635H513.074C514.287 635 515.34 635.2 516.234 635.6C517.14 636 517.834 636.573 518.314 637.32C518.794 638.067 519.034 638.953 519.034 639.98C519.034 641.033 518.774 641.94 518.254 642.7C517.747 643.46 517.014 644.027 516.054 644.4L519.274 649H516.474ZM516.414 639.98C516.414 639.087 516.12 638.4 515.534 637.92C514.947 637.44 514.087 637.2 512.954 637.2H509.914V642.78H512.954C514.087 642.78 514.947 642.54 515.534 642.06C516.12 641.567 516.414 640.873 516.414 639.98ZM521.943 635H524.543V649H521.943V635ZM528.329 635H534.449C535.943 635 537.269 635.293 538.429 635.88C539.589 636.453 540.489 637.273 541.129 638.34C541.769 639.393 542.089 640.613 542.089 642C542.089 643.387 541.769 644.613 541.129 645.68C540.489 646.733 539.589 647.553 538.429 648.14C537.269 648.713 535.943 649 534.449 649H528.329V635ZM534.329 646.8C535.356 646.8 536.256 646.607 537.029 646.22C537.816 645.82 538.416 645.26 538.829 644.54C539.256 643.807 539.469 642.96 539.469 642C539.469 641.04 539.256 640.2 538.829 639.48C538.416 638.747 537.816 638.187 537.029 637.8C536.256 637.4 535.356 637.2 534.329 637.2H530.929V646.8H534.329Z" fill="white"/>
<defs>
<clipPath id="clip0">
<rect width="110" height="110" fill="white" transform="translate(142 496)"/>
</clipPath>
<clipPath id="clip1">
<rect width="56" height="56" fill="white" transform="translate(474 496)"/>
</clipPath>
</defs>
</svg>
