<svg width="705" height="821" viewBox="0 0 705 821" fill="none" xmlns="http://www.w3.org/2000/svg">
<rect width="705" height="821" fill="#F20F38"/>
<path d="M410.016 407.021H401.672C401.672 380.16 379.839 358.309 353 358.309C326.161 358.309 304.328 380.16 304.328 407.021H295.984C295.984 375.556 321.561 349.959 353 349.959C384.439 349.959 410.016 375.556 410.016 407.021Z" fill="white"/>
<path d="M304.328 365.268H290.422C288.119 365.268 286.25 363.398 286.25 361.093V347.175C286.25 344.871 288.119 343 290.422 343H304.328C306.631 343 308.5 344.871 308.5 347.175V361.093C308.5 363.398 306.631 365.268 304.328 365.268ZM294.594 356.918H300.156V351.351H294.594V356.918Z" fill="white"/>
<path d="M405.844 426.505C399.708 426.505 394.719 421.511 394.719 415.371C394.719 409.231 399.708 404.237 405.844 404.237C411.979 404.237 416.969 409.231 416.969 415.371C416.969 421.511 411.979 426.505 405.844 426.505ZM405.844 412.588C404.309 412.588 403.062 413.835 403.062 415.371C403.062 416.908 404.309 418.155 405.844 418.155C407.379 418.155 408.625 416.908 408.625 415.371C408.625 413.835 407.379 412.588 405.844 412.588Z" fill="white"/>
<path d="M305.719 349.959H400.282V358.309H305.719V349.959Z" fill="white"/>
<path d="M366.216 433.035L359.33 428.325L371.901 409.904L353 366.064L334.099 409.904L346.67 428.325L339.783 433.035L325.916 412.716C325.11 411.535 324.965 410.021 325.532 408.707L349.173 353.872C350.491 350.816 355.514 350.816 356.832 353.872L380.473 408.707C381.04 410.021 380.896 411.535 380.089 412.716L366.216 433.035Z" fill="white"/>
<path d="M373.053 477.126L367.585 436.064C367.496 435.373 366.901 434.856 366.206 434.856H339.789C339.094 434.856 338.504 435.373 338.41 436.064L332.942 477.12L324.67 476.018L330.138 434.956C330.789 430.14 334.933 426.505 339.789 426.505H366.206C371.062 426.505 375.211 430.14 375.851 434.956L381.324 476.018L373.053 477.126Z" fill="white"/>
<path d="M348.828 358.309H357.172V404.237H348.828V358.309Z" fill="white"/>
<path d="M300.156 426.505C294.021 426.505 289.031 421.511 289.031 415.371C289.031 409.231 294.021 404.237 300.156 404.237C306.292 404.237 311.281 409.231 311.281 415.371C311.281 421.511 306.292 426.505 300.156 426.505ZM300.156 412.588C298.621 412.588 297.375 413.835 297.375 415.371C297.375 416.908 298.621 418.155 300.156 418.155C301.691 418.155 302.938 416.908 302.938 415.371C302.938 413.835 301.691 412.588 300.156 412.588Z" fill="white"/>
<path d="M415.578 365.268H401.672C399.369 365.268 397.5 363.398 397.5 361.093V347.175C397.5 344.871 399.369 343 401.672 343H415.578C417.881 343 419.75 344.871 419.75 347.175V361.093C419.75 363.398 417.881 365.268 415.578 365.268ZM405.844 356.918H411.406V351.351H405.844V356.918Z" fill="white"/>
<path d="M264 469.65H442V478H264V469.65Z" fill="white"/>
</svg>
