<svg width="50" height="50" viewBox="0 0 50 50" fill="none" xmlns="http://www.w3.org/2000/svg">
<path d="M40.4297 2.73975H34.9292C33.4777 1.06338 31.3387 0 28.9551 0H21.0449C18.6613 0 16.5223 1.06338 15.0708 2.73975H9.57031C7.14717 2.73975 5.17578 4.71504 5.17578 7.14287V45.5969C5.17578 48.0247 7.14717 50 9.57031 50H40.4297C42.8528 50 44.8242 48.0247 44.8242 45.5969V7.14287C44.8242 4.71494 42.8528 2.73975 40.4297 2.73975ZM21.0449 2.93545H28.9551C31.2185 2.93545 33.0981 4.45059 33.7158 6.45791H16.2842C16.9008 4.4541 18.778 2.93545 21.0449 2.93545ZM41.8945 45.5969C41.8945 46.4062 41.2374 47.0646 40.4297 47.0646H9.57031C8.7626 47.0646 8.10547 46.4062 8.10547 45.5969V7.14287C8.10547 6.33359 8.7626 5.6752 9.57031 5.6752H13.4615C13.2501 6.38906 13.1348 7.14394 13.1348 7.92568C13.1348 8.73623 13.7906 9.39336 14.5996 9.39336H35.4004C36.2094 9.39336 36.8652 8.73623 36.8652 7.92568C36.8652 7.14394 36.7499 6.38906 36.5385 5.6752H40.4297C41.2374 5.6752 41.8945 6.33359 41.8945 7.14287V45.5969Z" fill="#F20F38"/>
<path d="M17.7793 29.1644L15.625 31.3228L15.0983 30.7951C14.5263 30.2219 13.5988 30.2219 13.0267 30.7951C12.4546 31.3683 12.4546 32.2975 13.0267 32.8707L14.5892 34.4362C15.1612 35.0094 16.0887 35.0095 16.6608 34.4362L19.8508 31.2399C20.4229 30.6668 20.4229 29.7375 19.8508 29.1643C19.2789 28.5912 18.3513 28.5912 17.7793 29.1644Z" fill="#F20F38"/>
<path d="M35.8398 30.3328H24.0234C23.2145 30.3328 22.5586 30.9899 22.5586 31.8004C22.5586 32.611 23.2145 33.2681 24.0234 33.2681H35.8398C36.6488 33.2681 37.3047 32.611 37.3047 31.8004C37.3047 30.9899 36.6488 30.3328 35.8398 30.3328Z" fill="#F20F38"/>
<path d="M17.7793 37.5792L15.625 39.7376L15.0983 39.2099C14.5263 38.6367 13.5988 38.6367 13.0267 39.2099C12.4546 39.783 12.4546 40.7123 13.0267 41.2855L14.5892 42.851C15.1612 43.4242 16.0887 43.4243 16.6608 42.851L19.8508 39.6547C20.4229 39.0816 20.4229 38.1523 19.8508 37.5791C19.2789 37.006 18.3513 37.006 17.7793 37.5792Z" fill="#F20F38"/>
<path d="M35.8398 38.7476H24.0234C23.2145 38.7476 22.5586 39.4047 22.5586 40.2152C22.5586 41.0258 23.2145 41.6829 24.0234 41.6829H35.8398C36.6488 41.6829 37.3047 41.0258 37.3047 40.2152C37.3047 39.4047 36.6488 38.7476 35.8398 38.7476Z" fill="#F20F38"/>
<path d="M27.7936 23.5427L32.3243 19.0032V19.1781C32.3243 19.9887 32.9801 20.6458 33.7891 20.6458C34.5981 20.6458 35.254 19.9887 35.254 19.1781C35.254 15.0265 35.2608 15.413 35.2372 15.249C35.1336 14.531 34.5191 13.992 33.7886 13.9922H30.0782C29.2692 13.9922 28.6133 14.6493 28.6133 15.4599C28.6133 16.2704 29.2692 16.9275 30.0782 16.9275H30.2527L26.7579 20.4292L22.3249 15.9876C21.7529 15.4144 20.8253 15.4144 20.2533 15.9876L14.9798 21.2714C14.4078 21.8445 14.4078 22.7738 14.9798 23.347C15.5518 23.9202 16.4793 23.9202 17.0514 23.347L21.2891 19.1011L25.7221 23.5427C26.294 24.1158 27.2216 24.1159 27.7936 23.5427Z" fill="#F20F38"/>
</svg>
