<svg width="55" height="55" viewBox="0 0 55 55" fill="none" xmlns="http://www.w3.org/2000/svg">
<path d="M33.8379 9.77539H20.9473C20.0574 9.77539 19.3359 10.4968 19.3359 11.3867C19.3359 12.2766 20.0574 12.998 20.9473 12.998H33.8379C34.7278 12.998 35.4492 12.2766 35.4492 11.3867C35.4492 10.4968 34.7278 9.77539 33.8379 9.77539Z" fill="#F20F38"/>
<path d="M33.8379 16.2207H20.9473C20.0574 16.2207 19.3359 16.9421 19.3359 17.832C19.3359 18.7219 20.0574 19.4434 20.9473 19.4434H33.8379C34.7278 19.4434 35.4492 18.7219 35.4492 17.832C35.4492 16.9421 34.7278 16.2207 33.8379 16.2207Z" fill="#F20F38"/>
<path d="M33.8379 22.666H8.05664C7.16676 22.666 6.44531 23.3875 6.44531 24.2773C6.44531 25.1672 7.16676 25.8887 8.05664 25.8887H33.8379C34.7278 25.8887 35.4492 25.1672 35.4492 24.2773C35.4492 23.3875 34.7278 22.666 33.8379 22.666Z" fill="#F20F38"/>
<path d="M27.9965 29.1113H8.05664C7.16676 29.1113 6.44531 29.8328 6.44531 30.7227C6.44531 31.6125 7.16676 32.334 8.05664 32.334H27.9965C28.8864 32.334 29.6078 31.6125 29.6078 30.7227C29.6078 29.8328 28.8864 29.1113 27.9965 29.1113Z" fill="#F20F38"/>
<path d="M42.002 29.1113V4.83398C42.002 2.16219 39.7358 0 37.0605 0H14.5017C14.0932 0 13.673 0.161563 13.3579 0.476738L0.467285 13.4748C0.171123 13.7733 0 14.1885 0 14.6094V50.166C0 52.8315 2.16853 55 4.83398 55C8.23346 55 9.36225 55 9.35741 55C14.2991 55 24.0232 55 42.002 55C49.1168 55 55 49.1419 55 42.002C55 34.8941 49.1691 29.1113 42.002 29.1113ZM12.8906 5.52438V12.998H5.47873L12.8906 5.52438ZM4.83398 51.7773C3.9455 51.7773 3.22266 51.0545 3.22266 50.166V16.2207H14.502C15.3918 16.2207 16.1133 15.4993 16.1133 14.6094V3.22266H37.0605C37.9761 3.22266 38.7793 3.97558 38.7793 4.83398V29.5125C35.3592 30.3809 32.4783 32.5982 30.7488 35.5566H8.05664C7.16676 35.5566 6.44531 36.2781 6.44531 37.168C6.44531 38.0578 7.16676 38.7793 8.05664 38.7793H29.4151C29.1468 39.8097 29.0039 40.8896 29.0039 42.002H8.05664C7.16676 42.002 6.44531 42.7234 6.44531 43.6133C6.44531 44.5032 7.16676 45.2246 8.05664 45.2246H29.4126C30.0639 47.7444 31.4721 50.0155 33.482 51.7773H4.83398ZM42.002 51.7773C36.7032 51.7773 32.2266 47.3008 32.2266 42.002C32.2266 36.671 36.6117 32.334 42.002 32.334C47.3922 32.334 51.7773 36.671 51.7773 42.002C51.7773 47.3008 47.3008 51.7773 42.002 51.7773Z" fill="#F20F38"/>
<path d="M48.0921 39.2608C47.4682 38.6263 46.4479 38.6178 45.8134 39.2419L40.3815 44.5848L38.181 42.4554C37.5416 41.8365 36.5215 41.8533 35.9026 42.4928C35.2838 43.1322 35.3005 44.1523 35.94 44.7712L39.2701 47.9938C39.8982 48.6017 40.8969 48.5981 41.5206 47.9847L48.0733 41.5394C48.7077 40.9154 48.7161 39.8952 48.0921 39.2608Z" fill="#F20F38"/>
</svg>
