<svg width="50" height="50" viewBox="0 0 50 50" fill="none" xmlns="http://www.w3.org/2000/svg">
<path d="M33.7891 0H16.2109C15.4018 0 14.7461 0.655746 14.7461 1.46484V12.207C14.7461 13.0161 15.4018 13.6719 16.2109 13.6719H33.7891C34.5982 13.6719 35.2539 13.0161 35.2539 12.207V1.46484C35.2539 0.655746 34.5982 0 33.7891 0ZM32.3242 10.7422H17.6758V2.92969H32.3242V10.7422Z" fill="#F20F38"/>
<path d="M33.7891 18.1641H16.2109C15.4018 18.1641 14.7461 18.8198 14.7461 19.6289V30.3711C14.7461 31.1802 15.4018 31.8359 16.2109 31.8359H33.7891C34.5982 31.8359 35.2539 31.1802 35.2539 30.3711V19.6289C35.2539 18.8198 34.5982 18.1641 33.7891 18.1641ZM32.3242 28.9062H17.6758V21.0938H32.3242V28.9062Z" fill="#F20F38"/>
<path d="M33.7891 36.3281H16.2109C15.4018 36.3281 14.7461 36.9839 14.7461 37.793V48.5352C14.7461 49.3443 15.4018 50 16.2109 50H33.7891C34.5982 50 35.2539 49.3443 35.2539 48.5352V37.793C35.2539 36.9839 34.5982 36.3281 33.7891 36.3281ZM32.3242 47.0703H17.6758V39.2578H32.3242V47.0703Z" fill="#F20F38"/>
<path d="M44.6289 7.61719H38.7695C37.9604 7.61719 37.3047 8.27293 37.3047 9.08203C37.3047 9.89113 37.9604 10.5469 38.7695 10.5469H44.6289C45.9751 10.5469 47.0703 11.6421 47.0703 12.9883V18.8477C47.0703 20.1939 45.9751 21.2891 44.6289 21.2891H42.3061L43.7115 19.8833C44.2837 19.3115 44.2837 18.3838 43.7115 17.812C43.1396 17.2398 42.2119 17.2398 41.6401 17.812L37.7338 21.7182C37.1616 22.29 37.1616 23.2174 37.7338 23.7896L41.6401 27.6958C41.9258 27.9819 42.3008 28.125 42.6758 28.125C43.0508 28.125 43.4258 27.9819 43.7115 27.6958C44.2837 27.124 44.2837 26.1963 43.7115 25.6245L42.3061 24.2188H44.6289C47.5906 24.2188 50 21.8094 50 18.8477V12.9883C50 10.0266 47.5906 7.61719 44.6289 7.61719Z" fill="#F20F38"/>
<path d="M5.37109 28.7109H11.2305C12.0396 28.7109 12.6953 28.0552 12.6953 27.2461C12.6953 26.437 12.0396 25.7812 11.2305 25.7812H5.37109C2.40936 25.7812 0 28.1906 0 31.1523V37.0117C0 39.9734 2.40936 42.3828 5.37109 42.3828H7.69386L6.28853 43.7885C5.71632 44.3604 5.71632 45.2881 6.28853 45.8599C6.57425 46.146 6.94923 46.2891 7.32422 46.2891C7.6992 46.2891 8.07419 46.146 8.35991 45.8599L12.2662 41.9537C12.8384 41.3818 12.8384 40.4541 12.2662 39.8823L8.35991 35.976C7.78809 35.4038 6.86035 35.4038 6.28853 35.976C5.71632 36.5479 5.71632 37.4752 6.28853 38.0474L7.69386 39.4531H5.37109C4.02489 39.4531 2.92969 38.3579 2.92969 37.0117V31.1523C2.92969 29.8061 4.02489 28.7109 5.37109 28.7109Z" fill="#F20F38"/>
</svg>
