<svg width="50" height="50" viewBox="0 0 50 50" fill="none" xmlns="http://www.w3.org/2000/svg">
<g clip-path="url(#clip0)">
<path d="M24.3452 11.9708L21.4155 13.4357C20.6919 13.7973 20.3985 14.6774 20.7606 15.401C21.1222 16.1243 22.0022 16.4176 22.7259 16.056L25.0002 14.9184L27.2749 16.056C27.9993 16.4184 28.879 16.1235 29.2402 15.401C29.6019 14.6774 29.3085 13.7973 28.5853 13.4357L25.6556 11.9708C25.2428 11.7644 24.7576 11.7644 24.3452 11.9708Z" fill="#F20F38"/>
<path d="M50 13.2831C50.0011 12.7284 49.6883 12.2207 49.1924 11.9716L25.6573 0.155151C25.2438 -0.0523682 24.7562 -0.0523682 24.3427 0.155151L0.807573 11.9716C0.311662 12.2207 -0.000761545 12.7284 1.39416e-06 13.2831C0.000764334 13.8381 0.315095 14.3447 0.811769 14.5923L9.95674 19.1455L0.812913 23.6876C0.315477 23.9348 0.000382864 24.4429 1.39416e-06 24.9987C1.39416e-06 25.5549 0.314332 26.063 0.81215 26.3106L9.95674 30.8642L0.813295 35.4064C0.315858 35.6532 0.00114581 36.1602 1.39416e-06 36.7152V36.7183C1.39416e-06 37.2722 0.312425 37.7787 0.807573 38.0275L24.3427 49.8439C24.5495 49.9476 24.7749 49.9995 25 49.9995C25.2251 49.9995 25.4505 49.9476 25.6573 49.8439L49.1924 38.0275C49.6876 37.7787 50 37.2722 50 36.7183C50 36.7171 50 36.7164 50 36.7152C49.9989 36.1602 49.6841 35.6532 49.1867 35.4064L40.0433 30.8642L49.1879 26.3106C49.6857 26.063 50 25.5549 50 24.9987C49.9996 24.4429 49.6845 23.9348 49.1867 23.6876L40.0433 19.1455L49.1879 14.5919C49.6849 14.3447 49.9992 13.8381 50 13.2831ZM45.2568 36.7251L25 46.8955L4.74358 36.7251L13.2454 32.5015L24.3473 38.0294C24.5529 38.132 24.7765 38.1831 25 38.1831C25.2239 38.1831 25.4475 38.132 25.6531 38.0294L36.7546 32.5015L45.2568 36.7251ZM45.2457 25.001L36.7531 29.2296L34.095 27.9094C33.3706 27.5493 32.4913 27.8449 32.1316 28.5693C31.7699 29.2968 32.0698 30.1745 32.7915 30.5331L33.4644 30.8673L25 35.0818L16.5356 30.8673L17.2085 30.5331C17.931 30.1741 18.2297 29.296 17.8688 28.5693C17.5091 27.8449 16.6298 27.5493 15.905 27.9094L13.2469 29.2296L4.75426 25.001L13.2454 20.7831L21.719 25.0022L21.4153 25.1544C20.6917 25.516 20.3983 26.3961 20.7603 27.1197C21.122 27.843 22.002 28.1363 22.7257 27.7747L25 26.6372L27.2747 27.7747C27.9991 28.1371 28.8788 27.8422 29.24 27.1197C29.6017 26.3961 29.3083 25.516 28.5851 25.1544L28.281 25.0022L36.7546 20.7831L45.2457 25.001ZM36.7531 17.5109L34.095 16.1906C33.3706 15.8305 32.4913 16.1261 32.1316 16.8506C31.7699 17.578 32.0698 18.4558 32.7915 18.8144L33.4644 19.1485L25 23.363L16.5356 19.1485L17.2085 18.8144C17.931 18.4554 18.2297 17.5773 17.8688 16.8506C17.5091 16.1261 16.6298 15.8305 15.905 16.1906L13.2469 17.5109L4.74053 13.2754L25 3.10353L45.2599 13.2754L36.7531 17.5109Z" fill="#F20F38"/>
</g>
<defs>
<clipPath id="clip0">
<rect width="50.0001" height="50" fill="white" transform="translate(0 -0.000488281)"/>
</clipPath>
</defs>
</svg>
