<svg width="50" height="50" viewBox="0 0 50 50" fill="none" xmlns="http://www.w3.org/2000/svg">
<path d="M1.46484 46.9727H48.5352C49.3443 46.9727 50 46.3169 50 45.5078C50 43.1267 50 6.97403 50 4.49219C50 3.68309 49.3443 3.02734 48.5352 3.02734H1.46484C0.655746 3.02734 0 3.68309 0 4.49219V45.5078C0 46.3169 0.655746 46.9727 1.46484 46.9727ZM2.92969 5.95703H47.0703V14.7461H2.92969V5.95703ZM2.92969 17.6758H47.0703V44.043H2.92969V17.6758Z" fill="#F20F38"/>
<path d="M32.3965 10.3516C32.3965 11.1607 31.7407 11.8164 30.9316 11.8164C30.1225 11.8164 29.4668 11.1607 29.4668 10.3516C29.4668 9.54247 30.1225 8.88672 30.9316 8.88672C31.7407 8.88672 32.3965 9.54247 32.3965 10.3516Z" fill="#F20F38"/>
<path d="M38.2559 10.3516C38.2559 11.1607 37.6001 11.8164 36.791 11.8164C35.9819 11.8164 35.3262 11.1607 35.3262 10.3516C35.3262 9.54247 35.9819 8.88672 36.791 8.88672C37.6001 8.88672 38.2559 9.54247 38.2559 10.3516Z" fill="#F20F38"/>
<path d="M44.1152 10.3516C44.1152 11.1607 43.4595 11.8164 42.6504 11.8164C41.8413 11.8164 41.1855 11.1607 41.1855 10.3516C41.1855 9.54247 41.8413 8.88672 42.6504 8.88672C43.4595 8.88672 44.1152 9.54247 44.1152 10.3516Z" fill="#F20F38"/>
<path d="M42.5781 20.6055C41.7301 20.6055 10.2997 20.6055 7.42188 20.6055C6.61278 20.6055 5.95703 21.2612 5.95703 22.0703V39.6484C5.95703 40.4575 6.61278 41.1133 7.42188 41.1133H42.5781C43.3872 41.1133 44.043 40.4575 44.043 39.6484C44.043 38.6826 44.043 23.1083 44.043 22.0703C44.043 21.2612 43.3872 20.6055 42.5781 20.6055ZM14.7461 38.1836H8.88672V23.5352H14.7461V38.1836ZM23.5352 38.1836H17.6758V29.3945H23.5352V38.1836ZM32.3242 38.1836H26.4648V29.3945H32.3242V38.1836ZM41.1133 38.1836H35.2539V29.3945H41.1133V38.1836ZM41.1133 26.4648H17.6758V23.5352H41.1133V26.4648Z" fill="#F20F38"/>
<path d="M22.0703 8.88672H7.42188C6.61278 8.88672 5.95703 9.54247 5.95703 10.3516C5.95703 11.1607 6.61278 11.8164 7.42188 11.8164H22.0703C22.8794 11.8164 23.5352 11.1607 23.5352 10.3516C23.5352 9.54247 22.8794 8.88672 22.0703 8.88672Z" fill="#F20F38"/>
</svg>
