<svg width="50" height="50" viewBox="0 0 50 50" fill="none" xmlns="http://www.w3.org/2000/svg">
<path d="M48.4375 7.32422C48.4375 3.2856 45.1519 0 41.1133 0H8.88672C4.8481 0 1.5625 3.2856 1.5625 7.32422V42.6758C1.5625 46.7144 4.8481 50 8.88672 50H41.1133C45.1519 50 48.4375 46.7144 48.4375 42.6758V7.32422ZM45.5078 42.6758C45.5078 45.0989 43.5364 47.0703 41.1133 47.0703H8.88672C6.46362 47.0703 4.49219 45.0989 4.49219 42.6758V7.32422C4.49219 4.90112 6.46362 2.92969 8.88672 2.92969H41.1133C43.5364 2.92969 45.5078 4.90112 45.5078 7.32422V42.6758Z" fill="#F20F38"/>
<path d="M22.0703 11.9705V7.32422C22.0703 6.51512 21.4146 5.85938 20.6055 5.85938C19.7964 5.85938 19.1406 6.51512 19.1406 7.32422V11.9705C17.4355 12.5755 16.2109 14.2036 16.2109 16.1133C16.2109 18.0229 17.4355 19.651 19.1406 20.256V42.6758C19.1406 43.4849 19.7964 44.1406 20.6055 44.1406C21.4146 44.1406 22.0703 43.4849 22.0703 42.6758V20.256C23.7755 19.651 25 18.0229 25 16.1133C25 14.2036 23.7755 12.5755 22.0703 11.9705ZM20.6059 17.5781C20.6055 17.5781 20.6055 17.5781 20.6055 17.5781H20.6051C19.7975 17.5781 19.1406 16.9209 19.1406 16.1133C19.1406 15.3057 19.7979 14.6484 20.6055 14.6484C21.413 14.6484 22.0703 15.3057 22.0703 16.1133C22.0703 16.9209 21.4134 17.5781 20.6059 17.5781Z" fill="#F20F38"/>
<path d="M30.8594 32.6736V7.32422C30.8594 6.51512 30.2036 5.85938 29.3945 5.85938C28.5854 5.85938 27.9297 6.51512 27.9297 7.32422V32.6736C26.2245 33.2787 25 34.9068 25 36.8164C25 38.726 26.2245 40.3542 27.9297 40.9592V42.6758C27.9297 43.4849 28.5854 44.1406 29.3945 44.1406C30.2036 44.1406 30.8594 43.4849 30.8594 42.6758V40.9592C32.5645 40.3542 33.7891 38.726 33.7891 36.8164C33.7891 34.9068 32.5645 33.2787 30.8594 32.6736ZM29.3945 38.2812C28.587 38.2812 27.9297 37.624 27.9297 36.8164C27.9297 36.0088 28.587 35.3516 29.3945 35.3516C30.2021 35.3516 30.8594 36.0088 30.8594 36.8164C30.8594 37.624 30.2021 38.2812 29.3945 38.2812Z" fill="#F20F38"/>
<path d="M39.6484 9.04083V7.32422C39.6484 6.51512 38.9927 5.85938 38.1836 5.85938C37.3745 5.85938 36.7188 6.51512 36.7188 7.32422V9.04083C35.0136 9.64584 33.7891 11.274 33.7891 13.1836C33.7891 15.0932 35.0136 16.7213 36.7188 17.3264V42.6758C36.7188 43.4849 37.3745 44.1406 38.1836 44.1406C38.9927 44.1406 39.6484 43.4849 39.6484 42.6758V17.3264C41.3536 16.7213 42.5781 15.0932 42.5781 13.1836C42.5781 11.274 41.3536 9.64584 39.6484 9.04083ZM38.1836 14.6484C37.376 14.6484 36.7188 13.9912 36.7188 13.1836C36.7188 12.376 37.376 11.7188 38.1836 11.7188C38.9912 11.7188 39.6484 12.376 39.6484 13.1836C39.6484 13.9912 38.9912 14.6484 38.1836 14.6484Z" fill="#F20F38"/>
<path d="M13.2812 23.8846V7.32422C13.2812 6.51512 12.6255 5.85938 11.8164 5.85938C11.0073 5.85938 10.3516 6.51512 10.3516 7.32422V23.8846C8.64639 24.4896 7.42188 26.1177 7.42188 28.0273C7.42188 29.937 8.64639 31.5651 10.3516 32.1701V42.6758C10.3516 43.4849 11.0073 44.1406 11.8164 44.1406C12.6255 44.1406 13.2812 43.4849 13.2812 42.6758V32.1701C14.9864 31.5651 16.2109 29.937 16.2109 28.0273C16.2109 26.1177 14.9864 24.4896 13.2812 23.8846ZM11.8164 29.4922C11.0088 29.4922 10.3516 28.8349 10.3516 28.0273C10.3516 27.2198 11.0085 26.5625 11.816 26.5625H11.8164H11.8168C12.6244 26.5625 13.2812 27.2198 13.2812 28.0273C13.2812 28.8349 12.624 29.4922 11.8164 29.4922Z" fill="#F20F38"/>
</svg>
