<svg width="135" height="36" viewBox="0 0 135 36" fill="none" xmlns="http://www.w3.org/2000/svg">
<path d="M22.8515 1.74702C21.1594 0.583361 18.9514 0.00012207 16.2274 0.00012207H5.6816C4.84654 0.00012207 4.38519 0.417901 4.29755 1.25265L0.0134471 28.154C-0.0310762 28.4182 0.0350034 28.6599 0.211082 28.8795C0.386153 29.0996 0.606352 29.209 0.870067 29.209H5.87924C6.75782 29.209 7.24073 28.7923 7.32937 27.9565L8.51558 20.7041C8.5589 20.3526 8.71342 20.0669 8.97713 19.8468C9.24065 19.6271 9.57024 19.4834 9.96571 19.4175C10.3612 19.3522 10.7341 19.3194 11.0862 19.3194C11.4374 19.3194 11.8546 19.3415 12.3387 19.3853C12.8216 19.4292 13.1295 19.4506 13.2614 19.4506C17.0401 19.4506 20.006 18.3855 22.1595 16.253C24.3119 14.1214 25.3893 11.1657 25.3893 7.38473C25.3893 4.79159 24.5428 2.91249 22.8515 1.74702ZM17.414 9.8245C17.1936 11.3632 16.6231 12.3737 15.7004 12.8574C14.7774 13.3417 13.4593 13.5825 11.7458 13.5825L9.57064 13.6484L10.6914 6.5933C10.7788 6.11023 11.0643 5.86838 11.548 5.86838H12.8007C14.5575 5.86838 15.8325 6.12171 16.6235 6.62635C17.414 7.1322 17.6777 8.19852 17.414 9.8245Z" fill="white"/>
<path d="M134.142 0.00012207H129.265C128.781 0.00012207 128.495 0.241964 128.408 0.725645L124.124 28.1542L124.058 28.286C124.058 28.5069 124.146 28.7147 124.322 28.9126C124.497 29.1101 124.717 29.209 124.981 29.209H129.331C130.165 29.209 130.626 28.7923 130.715 27.9565L134.999 0.988646V0.923148C134.999 0.307865 134.713 0.00012207 134.142 0.00012207Z" fill="white"/>
<path d="M75.2188 10.615C75.2188 10.3958 75.1303 10.1866 74.9557 9.98908C74.7794 9.79137 74.5814 9.69202 74.3624 9.69202H69.2871C68.8028 9.69202 68.4075 9.9129 68.1007 10.3512L61.1142 20.6375L58.2141 10.7472C57.9935 10.0445 57.5106 9.69202 56.7642 9.69202H51.8201C51.5999 9.69202 51.4023 9.79117 51.2276 9.98908C51.0513 10.1866 50.9639 10.396 50.9639 10.615C50.9639 10.7037 51.3924 11.9998 52.249 14.5052C53.1056 17.0113 54.0283 19.7147 55.0171 22.616C56.0059 25.5167 56.5218 27.056 56.5659 27.2307C52.9626 32.1542 51.1615 34.7917 51.1615 35.1427C51.1615 35.7147 51.4468 36 52.0183 36H57.0936C57.5767 36 57.972 35.7808 58.28 35.341L75.0874 11.0766C75.1749 10.9893 75.2188 10.8361 75.2188 10.615Z" fill="white"/>
<path d="M122.476 9.69211H117.467C116.851 9.69211 116.479 10.4176 116.347 11.8683C115.203 10.1107 113.117 9.23059 110.085 9.23059C106.921 9.23059 104.229 10.4176 102.011 12.7913C99.7917 15.165 98.6826 17.9568 98.6826 21.1652C98.6826 23.7592 99.4403 25.8249 100.956 27.3628C102.472 28.9023 104.504 29.6706 107.054 29.6706C108.327 29.6706 109.624 29.4064 110.942 28.8793C112.26 28.3519 113.292 27.649 114.04 26.7695C114.04 26.8136 113.995 27.0111 113.908 27.3626C113.82 27.7149 113.776 27.9791 113.776 28.1538C113.776 28.858 114.061 29.2086 114.633 29.2086H119.181C120.015 29.2086 120.499 28.7919 120.631 27.9561L123.333 10.7471C123.377 10.4833 123.311 10.2419 123.136 10.0218C122.959 9.80234 122.74 9.69211 122.476 9.69211ZM113.875 22.6816C112.755 23.7805 111.404 24.3297 109.822 24.3297C108.547 24.3297 107.515 23.9786 106.724 23.2749C105.933 22.5727 105.537 21.6056 105.537 20.3738C105.537 18.7484 106.086 17.3738 107.185 16.253C108.283 15.1321 109.646 14.5716 111.272 14.5716C112.501 14.5716 113.523 14.9344 114.336 15.6593C115.149 16.3848 115.556 17.3851 115.556 18.66C115.556 20.2422 114.995 21.5832 113.875 22.6816Z" fill="white"/>
<path d="M47.601 9.69211H42.5916C41.9756 9.69211 41.6029 10.4176 41.4709 11.8683C40.2845 10.1107 38.1971 9.23059 35.2092 9.23059C32.0455 9.23059 29.3537 10.4176 27.135 12.7913C24.9157 15.165 23.8066 17.9568 23.8066 21.1652C23.8066 23.7592 24.5647 25.8249 26.0808 27.3628C27.5968 28.9023 29.6285 29.6706 32.1774 29.6706C33.4072 29.6706 34.6822 29.4064 36.0002 28.8793C37.3183 28.3519 38.373 27.649 39.164 26.7695C38.9877 27.2969 38.9002 27.7586 38.9002 28.1538C38.9002 28.858 39.1857 29.2086 39.7571 29.2086H44.3049C45.1391 29.2086 45.623 28.7919 45.755 27.9561L48.4572 10.7471C48.5005 10.4833 48.4349 10.2419 48.2596 10.0218C48.0837 9.80234 47.8641 9.69211 47.601 9.69211ZM38.9994 22.7142C37.8786 23.7924 36.5048 24.3297 34.88 24.3297C33.605 24.3297 32.5834 23.9786 31.815 23.2749C31.0456 22.5727 30.6614 21.6056 30.6614 20.3738C30.6614 18.7484 31.2104 17.3738 32.3094 16.253C33.4072 15.1321 34.7694 14.5716 36.3959 14.5716C37.6256 14.5716 38.6472 14.9344 39.4609 15.6593C40.2732 16.3848 40.6802 17.3851 40.6802 18.66C40.6802 20.2863 40.1199 21.6384 38.9994 22.7142Z" fill="white"/>
<path d="M97.7265 1.74702C96.0346 0.583361 93.827 0.00012207 91.1026 0.00012207H80.6227C79.7433 0.00012207 79.2598 0.417901 79.1726 1.25265L74.8885 28.154C74.8439 28.4182 74.9098 28.6599 75.0861 28.8795C75.2606 29.0996 75.4814 29.209 75.7451 29.209H81.1495C81.6768 29.209 82.0281 28.9237 82.2042 28.3521L83.3908 20.7041C83.4343 20.3526 83.5882 20.0669 83.8522 19.8468C84.1159 19.6271 84.4451 19.4834 84.8409 19.4175C85.2362 19.3522 85.6091 19.3194 85.9615 19.3194C86.3126 19.3194 86.7298 19.3415 87.2134 19.3853C87.6967 19.4292 88.0051 19.4506 88.1361 19.4506C91.9153 19.4506 94.8808 18.3855 97.0343 16.253C99.1873 14.1214 100.264 11.1657 100.264 7.38473C100.264 4.79159 99.4178 2.91249 97.7265 1.74702ZM90.9706 12.5936C90.0038 13.2528 88.5537 13.5823 86.6207 13.5823L84.5113 13.6482L85.6321 6.5931C85.7191 6.11003 86.0046 5.86819 86.4887 5.86819H87.6747C88.6411 5.86819 89.4101 5.91212 89.9823 5.99979C90.5526 6.08826 91.1026 6.36235 91.6298 6.82386C92.1575 7.28537 92.4208 7.95607 92.4208 8.83496C92.4208 10.6814 91.9369 11.9338 90.9706 12.5936Z" fill="white"/>
</svg>
