<svg width="56" height="56" viewBox="0 0 56 56" fill="none" xmlns="http://www.w3.org/2000/svg">
<path d="M44.0141 20.5726C44.5407 20.5701 45.0509 20.3888 45.4609 20.0583C45.8709 19.7279 46.1565 19.2679 46.2707 18.7538C46.32 18.5318 46.4433 18.3333 46.6203 18.1906C46.7973 18.048 47.0176 17.9697 47.2449 17.9687H50.123C50.2793 18.4508 50.6025 18.8613 51.0345 19.1263C51.4665 19.3913 51.9789 19.4934 52.4795 19.4143C52.9801 19.3352 53.436 19.08 53.7652 18.6947C54.0944 18.3094 54.2753 17.8192 54.2753 17.3124C54.2753 16.8056 54.0944 16.3155 53.7652 15.9301C53.436 15.5448 52.9801 15.2896 52.4795 15.2105C51.9789 15.1314 51.4665 15.2335 51.0345 15.4986C50.6025 15.7636 50.2793 16.1741 50.123 16.6562H47.2449C46.7183 16.6586 46.2081 16.8399 45.798 17.1704C45.388 17.5008 45.1024 17.9609 44.9882 18.475C44.9389 18.6969 44.8156 18.8955 44.6386 19.0381C44.4616 19.1808 44.2414 19.259 44.0141 19.2601H41.7812V8.85938C41.7797 7.52548 41.2491 6.24665 40.3059 5.30344C39.3627 4.36023 38.0839 3.82966 36.75 3.82812H19.25C17.9161 3.82966 16.6372 4.36023 15.694 5.30344C14.7508 6.24665 14.2202 7.52548 14.2187 8.85938V19.2601H11.9858C11.7585 19.259 11.5383 19.1808 11.3613 19.0381C11.1843 18.8955 11.061 18.6969 11.0117 18.475C10.8975 17.9609 10.6119 17.5008 10.2019 17.1704C9.79182 16.8399 9.28163 16.6586 8.75499 16.6562H5.87689C5.7206 16.1741 5.39738 15.7636 4.96539 15.4986C4.5334 15.2335 4.021 15.1314 3.52041 15.2105C3.01982 15.2896 2.5639 15.5448 2.23469 15.9301C1.90549 16.3155 1.72461 16.8056 1.72461 17.3124C1.72461 17.8192 1.90549 18.3094 2.23469 18.6947C2.5639 19.08 3.01982 19.3352 3.52041 19.4143C4.021 19.4934 4.5334 19.3913 4.96539 19.1263C5.39738 18.8613 5.7206 18.4508 5.87689 17.9687H8.75499C8.98232 17.9697 9.20256 18.048 9.37957 18.1906C9.55659 18.3333 9.67986 18.5318 9.72919 18.7538C9.84341 19.2679 10.129 19.7279 10.539 20.0583C10.949 20.3888 11.4592 20.5701 11.9858 20.5726H14.2187V25.1269H13.9933C13.6868 25.1275 13.3871 25.037 13.1322 24.8669C12.8772 24.6969 12.6785 24.455 12.5612 24.1719C12.3445 23.6494 11.9776 23.2031 11.507 22.8894C11.0363 22.5757 10.4831 22.4088 9.91753 22.4098H9.38652C9.23022 21.9277 8.907 21.5172 8.47501 21.2522C8.04302 20.9872 7.53063 20.8851 7.03004 20.9642C6.52945 21.0433 6.07353 21.2985 5.74432 21.6838C5.41511 22.0691 5.23423 22.5593 5.23423 23.0661C5.23423 23.5729 5.41511 24.0631 5.74432 24.4484C6.07353 24.8337 6.52945 25.0889 7.03004 25.168C7.53063 25.2471 8.04302 25.145 8.47501 24.88C8.907 24.6149 9.23022 24.2044 9.38652 23.7223H9.91753C10.224 23.7218 10.5237 23.8122 10.7786 23.9822C11.0336 24.1522 11.2323 24.394 11.3497 24.6771C11.5663 25.1996 11.9332 25.646 12.4038 25.9598C12.8745 26.2735 13.4277 26.4405 13.9933 26.4394H14.2187V28.2147L11.5434 28.202C11.0019 28.2016 10.4704 28.3478 10.0052 28.6251C9.54009 28.9024 9.15871 29.3005 8.90155 29.777C8.7568 30.0454 8.54208 30.2696 8.28018 30.4257C8.01827 30.5819 7.71897 30.6642 7.41405 30.6639H6.36897C6.20525 30.1851 5.87605 29.7805 5.44059 29.5228C5.00513 29.265 4.492 29.1711 3.99349 29.258C3.49499 29.3449 3.04384 29.6067 2.7212 29.9965C2.39855 30.3864 2.2256 30.8785 2.23344 31.3844C2.24128 31.8904 2.42941 32.3769 2.76398 32.7566C3.09855 33.1362 3.5576 33.384 4.05855 33.4553C4.55951 33.5267 5.06948 33.4169 5.49675 33.1458C5.92401 32.8747 6.24051 32.4601 6.38931 31.9764H7.41438C7.95595 31.9768 8.4875 31.8305 8.95264 31.5531C9.41777 31.2757 9.79912 30.8775 10.0562 30.4009C10.2006 30.133 10.4148 29.9091 10.676 29.753C10.9373 29.5969 11.2359 29.5143 11.5402 29.5141L14.2187 29.5269V34.1817H13.9616C13.2415 34.1846 12.5415 34.419 11.9649 34.8504C11.3884 35.2817 10.9658 35.887 10.7597 36.577C10.6347 36.9956 10.3784 37.3629 10.0286 37.6247C9.67874 37.8864 9.254 38.0287 8.81711 38.0305H7.70247C7.54618 37.5484 7.22295 37.1379 6.79096 36.8728C6.35897 36.6078 5.84658 36.5057 5.34599 36.5848C4.8454 36.6639 4.38948 36.9191 4.06027 37.3044C3.73107 37.6897 3.55019 38.1799 3.55019 38.6867C3.55019 39.1935 3.73107 39.6837 4.06027 40.069C4.38948 40.4543 4.8454 40.7095 5.34599 40.7886C5.84658 40.8677 6.35897 40.7656 6.79096 40.5006C7.22295 40.2355 7.54618 39.8251 7.70247 39.343H8.81711C9.53716 39.34 10.2372 39.1056 10.8137 38.6742C11.3903 38.2429 11.8128 37.6376 12.019 36.9476C12.1439 36.529 12.4003 36.1617 12.7501 35.8999C13.0999 35.6381 13.5247 35.4959 13.9616 35.494H14.2187V47.1406C14.2202 48.4745 14.7508 49.7533 15.694 50.6966C16.6372 51.6398 17.9161 52.1703 19.25 52.1719H36.75C38.0839 52.1703 39.3627 51.6398 40.3059 50.6966C41.2491 49.7533 41.7797 48.4745 41.7812 47.1406V35.4946H42.0383C42.4753 35.4964 42.9 35.6387 43.2498 35.9004C43.5996 36.1622 43.856 36.5295 43.981 36.9482C44.1871 37.6381 44.6096 38.2435 45.1862 38.6748C45.7627 39.1061 46.4627 39.3406 47.1828 39.3435H48.2974C48.4537 39.8256 48.777 40.2361 49.2089 40.5011C49.6409 40.7661 50.1533 40.8683 50.6539 40.7892C51.1545 40.71 51.6104 40.4549 51.9396 40.0695C52.2688 39.6842 52.4497 39.1941 52.4497 38.6873C52.4497 38.1804 52.2688 37.6903 51.9396 37.305C51.6104 36.9196 51.1545 36.6645 50.6539 36.5853C50.1533 36.5062 49.6409 36.6084 49.2089 36.8734C48.777 37.1384 48.4537 37.5489 48.2974 38.031H47.1828C46.7459 38.0292 46.3212 37.8869 45.9714 37.6252C45.6215 37.3635 45.3652 36.9962 45.2402 36.5775C45.0341 35.8876 44.6115 35.2823 44.035 34.8509C43.4584 34.4196 42.7584 34.1851 42.0383 34.1822H41.7812V29.5273L44.4565 29.5145C44.7614 29.5143 45.0607 29.5966 45.3226 29.7527C45.5845 29.9088 45.7992 30.133 45.944 30.4013C46.2011 30.878 46.5825 31.2761 47.0476 31.5535C47.5127 31.8309 48.0443 31.9772 48.5859 31.9769H49.6109C49.7598 32.4622 50.0769 32.8785 50.5054 33.1507C50.9338 33.423 51.4454 33.5334 51.948 33.4621C52.4506 33.3907 52.9112 33.1423 53.247 32.7615C53.5827 32.3808 53.7715 31.8927 53.7794 31.3851C53.7872 30.8775 53.6137 30.3838 53.2899 29.9928C52.9661 29.6018 52.5134 29.3392 52.0133 29.2523C51.5131 29.1654 50.9984 29.2599 50.5617 29.5188C50.125 29.7777 49.7951 30.1839 49.6313 30.6644H48.5859C48.2809 30.6646 47.9816 30.5823 47.7197 30.4262C47.4578 30.27 47.2431 30.0458 47.0984 29.7775C46.8408 29.3005 46.4589 28.9022 45.9932 28.6249C45.5275 28.3476 44.9954 28.2016 44.4533 28.2025L41.7812 28.2147V26.4394H42.0066C42.5723 26.4405 43.1255 26.2735 43.5961 25.9598C44.0667 25.646 44.4336 25.1996 44.6502 24.6771C44.7676 24.394 44.9663 24.1522 45.2213 23.9822C45.4762 23.8122 45.7759 23.7218 46.0824 23.7223H46.6134C46.7697 24.2044 47.0929 24.6149 47.5249 24.88C47.9569 25.145 48.4693 25.2471 48.9699 25.168C49.4705 25.0889 49.9264 24.8337 50.2556 24.4484C50.5848 24.0631 50.7657 23.5729 50.7657 23.0661C50.7657 22.5593 50.5848 22.0691 50.2556 21.6838C49.9264 21.2985 49.4705 21.0433 48.9699 20.9642C48.4693 20.8851 47.9569 20.9872 47.5249 21.2522C47.0929 21.5172 46.7697 21.9277 46.6134 22.4098H46.0824C45.5168 22.4088 44.9636 22.5757 44.4929 22.8894C44.0223 23.2031 43.6554 23.6494 43.4387 24.1719C43.3213 24.4549 43.1226 24.6967 42.8676 24.8667C42.6127 25.0366 42.313 25.1271 42.0066 25.1265H41.7812V20.5721L44.0141 20.5726ZM52.1463 16.4969C52.3076 16.4969 52.4653 16.5447 52.5994 16.6344C52.7335 16.724 52.838 16.8513 52.8998 17.0003C52.9615 17.1494 52.9776 17.3133 52.9462 17.4715C52.9147 17.6297 52.837 17.775 52.723 17.8891C52.6089 18.0031 52.4636 18.0808 52.3054 18.1123C52.1472 18.1437 51.9833 18.1276 51.8343 18.0658C51.6853 18.0041 51.5579 17.8996 51.4683 17.7655C51.3787 17.6314 51.3308 17.4737 51.3308 17.3124C51.3311 17.0962 51.4171 16.8889 51.57 16.736C51.7228 16.5831 51.9301 16.4972 52.1463 16.4969ZM3.85356 18.1279C3.69227 18.1279 3.5346 18.0801 3.4005 17.9905C3.26639 17.9009 3.16186 17.7735 3.10014 17.6245C3.03842 17.4755 3.02227 17.3115 3.05373 17.1533C3.0852 16.9951 3.16287 16.8498 3.27692 16.7358C3.39097 16.6217 3.53628 16.5441 3.69447 16.5126C3.85266 16.4811 4.01663 16.4973 4.16564 16.559C4.31466 16.6207 4.44202 16.7252 4.53163 16.8594C4.62124 16.9935 4.66906 17.1511 4.66906 17.3124C4.6688 17.5286 4.5828 17.7359 4.42992 17.8888C4.27704 18.0417 4.06977 18.1277 3.85356 18.1279ZM7.36319 23.881C7.2019 23.881 7.04423 23.8332 6.91012 23.7436C6.77601 23.654 6.67149 23.5266 6.60977 23.3776C6.54804 23.2286 6.53189 23.0646 6.56336 22.9065C6.59482 22.7483 6.67249 22.603 6.78654 22.4889C6.90059 22.3749 7.0459 22.2972 7.20409 22.2657C7.36228 22.2343 7.52625 22.2504 7.67527 22.3121C7.82428 22.3738 7.95164 22.4784 8.04125 22.6125C8.13086 22.7466 8.17869 22.9043 8.17869 23.0655C8.17857 23.2818 8.09264 23.4893 7.93974 23.6423C7.78684 23.7953 7.57949 23.8813 7.36319 23.8816V23.881ZM4.35603 32.1645C4.19471 32.1645 4.03701 32.1167 3.90286 32.027C3.76872 31.9374 3.66416 31.8101 3.60242 31.661C3.54067 31.512 3.52451 31.348 3.55598 31.1898C3.58745 31.0315 3.66513 30.8862 3.7792 30.7721C3.89327 30.658 4.03861 30.5804 4.19683 30.5489C4.35506 30.5174 4.51906 30.5336 4.66809 30.5953C4.81713 30.6571 4.94451 30.7616 5.03412 30.8958C5.12374 31.0299 5.17155 31.1876 5.17153 31.349C5.1713 31.5652 5.08531 31.7725 4.93242 31.9253C4.77954 32.0782 4.57225 32.1642 4.35603 32.1645ZM5.67947 39.5035C5.51818 39.5035 5.36051 39.4557 5.2264 39.3661C5.09229 39.2765 4.98777 39.1491 4.92605 39.0001C4.86432 38.8511 4.84817 38.6871 4.87964 38.5289C4.91111 38.3707 4.98878 38.2254 5.10282 38.1114C5.21687 37.9973 5.36218 37.9197 5.52037 37.8882C5.67857 37.8567 5.84254 37.8729 5.99155 37.9346C6.14056 37.9963 6.26793 38.1008 6.35753 38.2349C6.44714 38.3691 6.49497 38.5267 6.49497 38.688C6.49462 38.9042 6.40853 39.1114 6.25559 39.2642C6.10265 39.417 5.89534 39.5029 5.67914 39.5031L5.67947 39.5035ZM50.3211 37.8725C50.4824 37.8725 50.6401 37.9203 50.7742 38.01C50.9083 38.0996 51.0128 38.2269 51.0745 38.3759C51.1362 38.525 51.1524 38.6889 51.1209 38.8471C51.0895 39.0053 51.0118 39.1506 50.8977 39.2647C50.7837 39.3787 50.6384 39.4564 50.4802 39.4878C50.322 39.5193 50.158 39.5032 50.009 39.4414C49.86 39.3797 49.7326 39.2752 49.643 39.1411C49.5534 39.007 49.5056 38.8493 49.5056 38.688C49.5057 38.4718 49.5916 38.2645 49.7445 38.1115C49.8973 37.9585 50.1045 37.8724 50.3208 37.8721L50.3211 37.8725ZM51.6445 30.5335C51.8058 30.5334 51.9636 30.5812 52.0977 30.6709C52.2318 30.7605 52.3364 30.8878 52.3981 31.0369C52.4599 31.1859 52.4761 31.3499 52.4446 31.5081C52.4131 31.6663 52.3355 31.8117 52.2214 31.9257C52.1073 32.0398 51.962 32.1175 51.8038 32.149C51.6456 32.1805 51.4816 32.1643 51.3325 32.1026C51.1835 32.0409 51.0561 31.9363 50.9665 31.8022C50.8769 31.6681 50.829 31.5104 50.829 31.3491C50.8292 31.1329 50.9151 30.9257 51.0678 30.7728C51.2206 30.6199 51.4277 30.5337 51.6439 30.5333L51.6445 30.5335ZM48.6374 22.2507C48.7987 22.2507 48.9563 22.2985 49.0904 22.3881C49.2246 22.4777 49.3291 22.6051 49.3908 22.7541C49.4525 22.9031 49.4687 23.0671 49.4372 23.2253C49.4057 23.3835 49.3281 23.5288 49.214 23.6428C49.1 23.7569 48.9547 23.8346 48.7965 23.866C48.6383 23.8975 48.4743 23.8814 48.3253 23.8196C48.1763 23.7579 48.0489 23.6534 47.9593 23.5193C47.8697 23.3852 47.8219 23.2275 47.8219 23.0662C47.8221 22.8501 47.908 22.6429 48.0607 22.49C48.2135 22.3371 48.4206 22.251 48.6367 22.2506L48.6374 22.2507ZM19.25 5.14062H36.75C37.7359 5.14173 38.6811 5.53387 39.3783 6.23104C40.0755 6.9282 40.4676 7.87344 40.4687 8.85938V10.3906H38.9375C38.7634 10.3906 38.5965 10.4598 38.4734 10.5828C38.3503 10.7059 38.2812 10.8728 38.2812 11.0469C38.2812 11.2209 38.3503 11.3878 38.4734 11.5109C38.5965 11.634 38.7634 11.7031 38.9375 11.7031H40.4687V42.9844H15.5312V11.7031H33.3593C33.5334 11.7031 33.7003 11.634 33.8234 11.5109C33.9464 11.3878 34.0156 11.2209 34.0156 11.0469C34.0156 10.8728 33.9464 10.7059 33.8234 10.5828C33.7003 10.4598 33.5334 10.3906 33.3593 10.3906H15.5312V8.85938C15.5323 7.87344 15.9245 6.9282 16.6216 6.23104C17.3188 5.53387 18.264 5.14173 19.25 5.14062ZM36.75 50.8594H19.25C18.264 50.8583 17.3188 50.4661 16.6216 49.769C15.9245 49.0718 15.5323 48.1266 15.5312 47.1406V44.2969H40.4687V47.1406C40.4676 48.1266 40.0755 49.0718 39.3783 49.769C38.6811 50.4661 37.7359 50.8583 36.75 50.8594Z" fill="#F20F38"/>
<path d="M35.5137 11.7031H36.7295C36.9035 11.7031 37.0705 11.634 37.1935 11.5109C37.3166 11.3878 37.3857 11.2209 37.3857 11.0469C37.3857 10.8728 37.3166 10.7059 37.1935 10.5828C37.0705 10.4598 36.9035 10.3906 36.7295 10.3906H35.5137C35.3396 10.3906 35.1727 10.4598 35.0496 10.5828C34.9266 10.7059 34.8574 10.8728 34.8574 11.0469C34.8574 11.2209 34.9266 11.3878 35.0496 11.5109C35.1727 11.634 35.3396 11.7031 35.5137 11.7031Z" fill="#F20F38"/>
<path d="M28 45.2813C27.5457 45.2812 27.1016 45.416 26.7239 45.6683C26.3462 45.9207 26.0518 46.2795 25.878 46.6992C25.7041 47.1189 25.6586 47.5807 25.7473 48.0262C25.8359 48.4718 26.0546 48.881 26.3759 49.2023C26.6971 49.5235 27.1064 49.7423 27.5519 49.8309C27.9975 49.9195 28.4593 49.874 28.879 49.7002C29.2987 49.5263 29.6574 49.2319 29.9098 48.8542C30.1622 48.4765 30.2969 48.0324 30.2969 47.5781C30.2962 46.9692 30.054 46.3853 29.6234 45.9547C29.1928 45.5241 28.609 45.2819 28 45.2813ZM28 48.5625C27.8053 48.5625 27.615 48.5048 27.4531 48.3966C27.2912 48.2884 27.1651 48.1347 27.0906 47.9548C27.0161 47.775 26.9966 47.577 27.0345 47.3861C27.0725 47.1951 27.1663 47.0197 27.3039 46.8821C27.4416 46.7444 27.617 46.6507 27.808 46.6127C27.9989 46.5747 28.1968 46.5942 28.3767 46.6687C28.5566 46.7432 28.7103 46.8694 28.8185 47.0312C28.9267 47.1931 28.9844 47.3834 28.9844 47.5781C28.9841 47.8391 28.8803 48.0893 28.6957 48.2738C28.5112 48.4584 28.261 48.5622 28 48.5625Z" fill="#F20F38"/>
</svg>
