<svg width="56" height="56" viewBox="0 0 56 56" fill="none" xmlns="http://www.w3.org/2000/svg">
<path d="M19.25 52.1719H36.75C38.0839 52.1704 39.3628 51.6398 40.306 50.6966C41.2492 49.7534 41.7797 48.4745 41.7812 47.1406V8.85938C41.7797 7.52547 41.2492 6.24662 40.306 5.30341C39.3628 4.36019 38.0839 3.82963 36.75 3.82812H19.25C17.9161 3.82963 16.6372 4.36019 15.694 5.30341C14.7508 6.24662 14.2203 7.52547 14.2188 8.85938V47.1406C14.2203 48.4745 14.7508 49.7534 15.694 50.6966C16.6372 51.6398 17.9161 52.1704 19.25 52.1719ZM19.25 5.14062H36.75C37.7359 5.14173 38.6812 5.53387 39.3783 6.23104C40.0755 6.9282 40.4676 7.87344 40.4688 8.85938V10.3906H38.9375C38.7635 10.3906 38.5965 10.4598 38.4735 10.5828C38.3504 10.7059 38.2812 10.8728 38.2812 11.0469C38.2812 11.2209 38.3504 11.3878 38.4735 11.5109C38.5965 11.634 38.7635 11.7031 38.9375 11.7031H40.4688V42.9844H15.5312V11.7031H33.3594C33.5334 11.7031 33.7003 11.634 33.8234 11.5109C33.9465 11.3878 34.0156 11.2209 34.0156 11.0469C34.0156 10.8728 33.9465 10.7059 33.8234 10.5828C33.7003 10.4598 33.5334 10.3906 33.3594 10.3906H15.5312V8.85938C15.5324 7.87344 15.9245 6.9282 16.6217 6.23104C17.3188 5.53387 18.2641 5.14173 19.25 5.14062ZM15.5312 44.2969H40.4688V47.1406C40.4676 48.1266 40.0755 49.0718 39.3783 49.769C38.6812 50.4661 37.7359 50.8583 36.75 50.8594H19.25C18.2641 50.8583 17.3188 50.4661 16.6217 49.769C15.9245 49.0718 15.5324 48.1266 15.5312 47.1406V44.2969Z" fill="#F20F38"/>
<path d="M35.5156 11.7031H36.7308C36.9048 11.7031 37.0717 11.634 37.1948 11.5109C37.3179 11.3878 37.387 11.2209 37.387 11.0469C37.387 10.8728 37.3179 10.7059 37.1948 10.5828C37.0717 10.4598 36.9048 10.3906 36.7308 10.3906H35.5156C35.3416 10.3906 35.1747 10.4598 35.0516 10.5828C34.9285 10.7059 34.8594 10.8728 34.8594 11.0469C34.8594 11.2209 34.9285 11.3878 35.0516 11.5109C35.1747 11.634 35.3416 11.7031 35.5156 11.7031Z" fill="#F20F38"/>
<path d="M28 49.875C28.4543 49.875 28.8984 49.7403 29.2761 49.4879C29.6538 49.2355 29.9482 48.8768 30.122 48.4571C30.2959 48.0374 30.3414 47.5756 30.2528 47.13C30.1641 46.6845 29.9454 46.2752 29.6241 45.954C29.3029 45.6328 28.8937 45.414 28.4481 45.3254C28.0026 45.2368 27.5407 45.2822 27.121 45.4561C26.7013 45.6299 26.3426 45.9243 26.0902 46.3021C25.8378 46.6798 25.7031 47.1239 25.7031 47.5781C25.7038 48.1871 25.946 48.7709 26.3766 49.2015C26.8072 49.6321 27.391 49.8743 28 49.875ZM28 46.5938C28.1947 46.5938 28.385 46.6515 28.5469 46.7597C28.7088 46.8678 28.8349 47.0216 28.9095 47.2014C28.984 47.3813 29.0034 47.5792 28.9655 47.7702C28.9275 47.9611 28.8337 48.1365 28.6961 48.2742C28.5584 48.4119 28.383 48.5056 28.192 48.5436C28.0011 48.5816 27.8032 48.5621 27.6233 48.4876C27.4434 48.4131 27.2897 48.2869 27.1815 48.125C27.0734 47.9631 27.0156 47.7728 27.0156 47.5781C27.0159 47.3171 27.1197 47.0669 27.3043 46.8824C27.4888 46.6978 27.739 46.594 28 46.5938Z" fill="#F20F38"/>
<path d="M20.0059 34.6719H26.7022C26.8763 34.6719 27.0432 34.6027 27.1663 34.4797C27.2893 34.3566 27.3585 34.1897 27.3585 34.0156C27.3585 33.8416 27.2893 33.6747 27.1663 33.5516C27.0432 33.4285 26.8763 33.3594 26.7022 33.3594H20.0059C19.8318 33.3594 19.6649 33.4285 19.5418 33.5516C19.4187 33.6747 19.3496 33.8416 19.3496 34.0156C19.3496 34.1897 19.4187 34.3566 19.5418 34.4797C19.6649 34.6027 19.8318 34.6719 20.0059 34.6719Z" fill="#F20F38"/>
<path d="M32.3755 34.6719C32.5495 34.6719 32.7165 34.6027 32.8395 34.4797C32.9626 34.3566 33.0317 34.1897 33.0317 34.0156C33.0317 33.8416 32.9626 33.6747 32.8395 33.5516C32.7165 33.4285 32.5495 33.3594 32.3755 33.3594H29.252C29.0779 33.3594 28.911 33.4285 28.7879 33.5516C28.6648 33.6747 28.5957 33.8416 28.5957 34.0156C28.5957 34.1897 28.6648 34.3566 28.7879 34.4797C28.911 34.6027 29.0779 34.6719 29.252 34.6719H32.3755Z" fill="#F20F38"/>
<path d="M35.9944 33.3594H35.1875C35.0135 33.3594 34.8465 33.4285 34.7235 33.5516C34.6004 33.6747 34.5312 33.8416 34.5312 34.0156C34.5312 34.1897 34.6004 34.3566 34.7235 34.4797C34.8465 34.6027 35.0135 34.6719 35.1875 34.6719H35.994C36.1681 34.6719 36.335 34.6027 36.4581 34.4797C36.5811 34.3566 36.6503 34.1897 36.6503 34.0156C36.6503 33.8416 36.5811 33.6747 36.4581 33.5516C36.335 33.4285 36.1681 33.3594 35.994 33.3594H35.9944Z" fill="#F20F38"/>
<path d="M21.2335 37.0781H20.0059C19.8318 37.0781 19.6649 37.1473 19.5418 37.2703C19.4187 37.3934 19.3496 37.5603 19.3496 37.7344C19.3496 37.9084 19.4187 38.0753 19.5418 38.1984C19.6649 38.3215 19.8318 38.3906 20.0059 38.3906H21.2335C21.4075 38.3906 21.5745 38.3215 21.6975 38.1984C21.8206 38.0753 21.8897 37.9084 21.8897 37.7344C21.8897 37.5603 21.8206 37.3934 21.6975 37.2703C21.5745 37.1473 21.4075 37.0781 21.2335 37.0781Z" fill="#F20F38"/>
<path d="M26.9067 37.0781H23.7832C23.6092 37.0781 23.4422 37.1473 23.3192 37.2703C23.1961 37.3934 23.127 37.5603 23.127 37.7344C23.127 37.9084 23.1961 38.0753 23.3192 38.1984C23.4422 38.3215 23.6092 38.3906 23.7832 38.3906H26.9067C27.0808 38.3906 27.2477 38.3215 27.3708 38.1984C27.4938 38.0753 27.563 37.9084 27.563 37.7344C27.563 37.5603 27.4938 37.3934 27.3708 37.2703C27.2477 37.1473 27.0808 37.0781 26.9067 37.0781Z" fill="#F20F38"/>
<path d="M35.9944 37.0781H29.7187C29.5447 37.0781 29.3778 37.1473 29.2547 37.2703C29.1316 37.3934 29.0625 37.5603 29.0625 37.7344C29.0625 37.9084 29.1316 38.0753 29.2547 38.1984C29.3778 38.3215 29.5447 38.3906 29.7187 38.3906H35.994C36.1681 38.3906 36.335 38.3215 36.4581 38.1984C36.5811 38.0753 36.6503 37.9084 36.6503 37.7344C36.6503 37.5603 36.5811 37.3934 36.4581 37.2703C36.335 37.1473 36.1681 37.0781 35.994 37.0781H35.9944Z" fill="#F20F38"/>
<path d="M21.4375 28.8841H29.7697C30.2337 28.8835 30.6785 28.699 31.0065 28.3709C31.3346 28.0429 31.5192 27.598 31.5197 27.1341V26.0561L35.3406 28.1531C35.4406 28.208 35.5531 28.2358 35.6671 28.2339C35.7811 28.232 35.8927 28.2005 35.9908 28.1424C36.0889 28.0842 36.1701 28.0015 36.2266 27.9025C36.283 27.8034 36.3126 27.6913 36.3125 27.5773V20.6757C36.3125 20.5617 36.2828 20.4497 36.2264 20.3506C36.1699 20.2516 36.0886 20.169 35.9905 20.1109C35.8924 20.0529 35.7809 20.0213 35.6669 20.0195C35.5529 20.0176 35.4404 20.0455 35.3405 20.1004L31.5197 22.1974V21.1187C31.5191 20.6547 31.3346 20.2099 31.0065 19.8818C30.6784 19.5538 30.2336 19.3692 29.7697 19.3687H21.4375C20.9735 19.3692 20.5287 19.5538 20.2007 19.8818C19.8726 20.2099 19.688 20.6547 19.6875 21.1187V27.1343C19.6881 27.5982 19.8726 28.043 20.2007 28.371C20.5288 28.699 20.9736 28.8835 21.4375 28.8841ZM35 21.7843V26.4687L31.5197 24.559V23.695L35 21.7843ZM21 21.1187C21 21.0026 21.0461 20.8913 21.1281 20.8093C21.2102 20.7272 21.3215 20.6812 21.4375 20.6812H29.7697C29.8857 20.6812 29.997 20.7272 30.079 20.8093C30.1611 20.8913 30.2072 21.0026 30.2072 21.1187V27.1343C30.2072 27.2503 30.1611 27.3616 30.079 27.4436C29.997 27.5257 29.8857 27.5718 29.7697 27.5718H21.4375C21.3215 27.5718 21.2102 27.5257 21.1281 27.4436C21.0461 27.3616 21 27.2503 21 27.1343V21.1187Z" fill="#F20F38"/>
</svg>
