<svg width="56" height="56" viewBox="0 0 56 56" fill="none" xmlns="http://www.w3.org/2000/svg">
<path d="M35.1855 11.7031H36.4015C36.5755 11.7031 36.7424 11.634 36.8655 11.5109C36.9886 11.3878 37.0577 11.2209 37.0577 11.0469C37.0577 10.8728 36.9886 10.7059 36.8655 10.5828C36.7424 10.4598 36.5755 10.3906 36.4015 10.3906H35.1855C35.0115 10.3906 34.8446 10.4598 34.7215 10.5828C34.5984 10.7059 34.5293 10.8728 34.5293 11.0469C34.5293 11.2209 34.5984 11.3878 34.7215 11.5109C34.8446 11.634 35.0115 11.7031 35.1855 11.7031Z" fill="#F20F38"/>
<path d="M27.6719 45.2813C27.2176 45.2812 26.7735 45.416 26.3958 45.6683C26.0181 45.9207 25.7237 46.2795 25.5498 46.6992C25.376 47.1189 25.3305 47.5807 25.4191 48.0262C25.5078 48.4718 25.7265 48.881 26.0477 49.2023C26.369 49.5235 26.7782 49.7423 27.2238 49.8309C27.6693 49.9195 28.1312 49.874 28.5509 49.7002C28.9706 49.5263 29.3293 49.2319 29.5817 48.8542C29.8341 48.4765 29.9688 48.0324 29.9688 47.5781C29.9681 46.9692 29.7259 46.3854 29.2953 45.9548C28.8647 45.5242 28.2808 45.2819 27.6719 45.2813ZM27.6719 48.5625C27.4772 48.5625 27.2869 48.5048 27.125 48.3966C26.9631 48.2884 26.8369 48.1347 26.7624 47.9548C26.6879 47.775 26.6684 47.577 26.7064 47.3861C26.7444 47.1951 26.8382 47.0197 26.9758 46.8821C27.1135 46.7444 27.2889 46.6507 27.4798 46.6127C27.6708 46.5747 27.8687 46.5942 28.0486 46.6687C28.2285 46.7432 28.3822 46.8694 28.4904 47.0312C28.5985 47.1931 28.6563 47.3834 28.6563 47.5781C28.656 47.8391 28.5522 48.0893 28.3676 48.2739C28.1831 48.4584 27.9329 48.5622 27.6719 48.5625Z" fill="#F20F38"/>
<path d="M48.0156 23.7344H41.4531V8.85938C41.4516 7.52548 40.921 6.24665 39.9778 5.30344C39.0346 4.36023 37.7558 3.82966 36.4219 3.82812H18.9219C17.588 3.82966 16.3091 4.36023 15.3659 5.30344C14.4227 6.24665 13.8922 7.52548 13.8906 8.85938V14.2188H7.98438C7.23042 14.2196 6.50759 14.5195 5.97447 15.0526C5.44134 15.5857 5.14146 16.3085 5.14062 17.0625V24.7188C5.14146 25.4727 5.44134 26.1955 5.97447 26.7287C6.50759 27.2618 7.23042 27.5617 7.98438 27.5625H13.8906V47.1406C13.8922 48.4745 14.4227 49.7533 15.3659 50.6966C16.3091 51.6398 17.588 52.1703 18.9219 52.1719H36.4219C37.7558 52.1703 39.0346 51.6398 39.9778 50.6966C40.921 49.7533 41.4516 48.4745 41.4531 47.1406V37.0781H48.0156C48.7696 37.0773 49.4924 36.7774 50.0255 36.2443C50.5587 35.7112 50.8585 34.9883 50.8594 34.2344V26.5781C50.8585 25.8242 50.5587 25.1013 50.0255 24.5682C49.4924 24.0351 48.7696 23.7352 48.0156 23.7344ZM6.45312 24.7188V17.0625C6.45356 16.6565 6.61503 16.2673 6.9021 15.9802C7.18917 15.6932 7.5784 15.5317 7.98438 15.5312H22.2031C22.6091 15.5317 22.9983 15.6932 23.2854 15.9802C23.5725 16.2673 23.7339 16.6565 23.7344 17.0625V24.7188C23.7339 25.1247 23.5725 25.514 23.2854 25.801C22.9983 26.0881 22.6091 26.2496 22.2031 26.25H20.9858C20.8117 26.25 20.6448 26.3191 20.5217 26.4422C20.3987 26.5653 20.3295 26.7322 20.3295 26.9062V28.8084L18.7695 26.5349C18.7092 26.4472 18.6284 26.3754 18.5341 26.3259C18.4398 26.2763 18.3349 26.2505 18.2284 26.2505H7.98438C7.5783 26.2501 7.18899 26.0886 6.9019 25.8014C6.61482 25.5142 6.45341 25.1248 6.45312 24.7188ZM36.4219 50.8594H18.9219C17.9359 50.8583 16.9907 50.4661 16.2935 49.769C15.5964 49.0718 15.2042 48.1266 15.2031 47.1406V44.2969H40.1406V47.1406C40.1395 48.1266 39.7474 49.0718 39.0502 49.769C38.3531 50.4661 37.4078 50.8583 36.4219 50.8594ZM40.1406 42.9844H15.2031V27.5625H17.8828L20.4446 31.296C20.5239 31.4115 20.638 31.4986 20.7704 31.5446C20.9027 31.5906 21.0463 31.593 21.1801 31.5515C21.3139 31.51 21.4309 31.4267 21.514 31.314C21.5971 31.2012 21.6419 31.0648 21.6419 30.9247V27.5625H22.2031C22.9571 27.5617 23.6799 27.2618 24.213 26.7287C24.7462 26.1955 25.046 25.4727 25.0469 24.7188V17.0625C25.046 16.3085 24.7462 15.5857 24.213 15.0526C23.6799 14.5195 22.9571 14.2196 22.2031 14.2188H15.2031V11.7031H33.0312C33.2053 11.7031 33.3722 11.634 33.4953 11.5109C33.6184 11.3878 33.6875 11.2209 33.6875 11.0469C33.6875 10.8728 33.6184 10.7059 33.4953 10.5828C33.3722 10.4598 33.2053 10.3906 33.0312 10.3906H15.2031V8.85938C15.2042 7.87344 15.5964 6.9282 16.2935 6.23104C16.9907 5.53387 17.9359 5.14173 18.9219 5.14062H36.4219C37.4078 5.14173 38.3531 5.53387 39.0502 6.23104C39.7474 6.9282 40.1395 7.87344 40.1406 8.85938V10.3906H38.6094C38.4353 10.3906 38.2684 10.4598 38.1453 10.5828C38.0223 10.7059 37.9531 10.8728 37.9531 11.0469C37.9531 11.2209 38.0223 11.3878 38.1453 11.5109C38.2684 11.634 38.4353 11.7031 38.6094 11.7031H40.1406V23.7344H33.7969C33.0429 23.7352 32.3201 24.0351 31.787 24.5682C31.2538 25.1013 30.954 25.8242 30.9531 26.5781V34.2344C30.954 34.9883 31.2538 35.7112 31.787 36.2443C32.3201 36.7774 33.0429 37.0773 33.7969 37.0781H34.358V40.4403C34.358 40.5804 34.4028 40.7168 34.4859 40.8296C34.569 40.9424 34.686 41.0256 34.8198 41.0671C34.9536 41.1086 35.0972 41.1062 35.2295 41.0602C35.3619 41.0143 35.476 40.9271 35.5553 40.8116L38.1172 37.0781H40.1406V42.9844ZM49.5469 34.2344C49.5464 34.6404 49.385 35.0296 49.0979 35.3167C48.8108 35.6037 48.4216 35.7652 48.0156 35.7656H37.7716C37.665 35.7656 37.5601 35.7916 37.4658 35.8412C37.3715 35.8909 37.2908 35.9627 37.2305 36.0505L35.6705 38.324V36.4219C35.6705 36.2478 35.6013 36.0809 35.4783 35.9578C35.3552 35.8348 35.1883 35.7656 35.0142 35.7656H33.7969C33.3909 35.7652 33.0017 35.6037 32.7146 35.3167C32.4275 35.0296 32.2661 34.6404 32.2656 34.2344V26.5781C32.2661 26.1721 32.4275 25.7829 32.7146 25.4958C33.0017 25.2088 33.3909 25.0473 33.7969 25.0469H48.0156C48.4216 25.0473 48.8108 25.2088 49.0979 25.4958C49.385 25.7829 49.5464 26.1721 49.5469 26.5781V34.2344Z" fill="#F20F38"/>
</svg>
