<svg width="42" height="48" viewBox="0 0 42 48" fill="none" xmlns="http://www.w3.org/2000/svg">
<path d="M40.8202 31.0025L35.7547 23.309V3.59447C35.7547 1.6125 34.1411 0 32.1577 0H9.9295C7.94462 0 6.32978 1.6125 6.32978 3.59447V16.8912C5.68093 17.2705 5.17009 17.8679 4.90534 18.6009C3.60765 19.251 2.78697 20.5635 2.78697 22.0347C2.78697 23.5084 3.62265 24.7901 4.84525 25.4343L1.17943 31.0021C0.514841 32.0104 0.113591 32.6189 0.439841 33.2246C0.751653 33.8036 1.483 33.8036 2.12828 33.8036H6.32987V44.4028C6.32987 46.3863 7.94472 48 9.92959 48H32.1579C34.1413 48 35.7549 46.3864 35.7549 44.4028V33.8276H39.8741C40.4845 33.8276 41.2442 33.8276 41.5598 33.2414C41.8907 32.6265 41.4647 31.9804 40.8202 31.0025ZM26.1934 1.40625V2.68828C26.1934 3.39525 25.6175 3.97031 24.9097 3.97031H17.1775C16.4696 3.97031 15.8938 3.39525 15.8938 2.68828V1.40625H26.1934ZM7.73603 3.59447C7.73603 2.38791 8.72003 1.40625 9.9295 1.40625H14.4875V2.68828C14.4875 4.17066 15.6943 5.37656 17.1775 5.37656H24.9097C26.3929 5.37656 27.5997 4.17066 27.5997 2.68828V1.40625H32.1577C33.3657 1.40625 34.3485 2.38791 34.3485 3.59447V21.1732L31.1145 16.2613C30.4749 15.29 29.5475 14.7331 28.5699 14.7331C28.5693 14.7331 28.5689 14.7331 28.5683 14.7331C27.591 14.7337 26.6646 15.2909 26.0273 16.2611L24.3904 18.7456L19.882 11.8979C19.1097 10.7244 17.9944 10.0511 16.822 10.0506C16.8215 10.0506 16.8212 10.0506 16.8206 10.0506C15.648 10.0506 14.5315 10.7237 13.7572 11.8979L11.1287 15.8923C10.3583 15.8991 9.62415 16.1481 9.01656 16.6036C8.68975 16.4971 8.34278 16.4418 7.9929 16.4418C7.90647 16.4418 7.82078 16.4452 7.73584 16.4517V3.59447H7.73603ZM12.3412 16.0928C12.3041 16.0797 12.267 16.0666 12.2293 16.0548C12.2732 16.061 12.3111 16.0729 12.3406 16.0923C12.3408 16.0924 12.3409 16.0926 12.3412 16.0928ZM4.19312 22.0348C4.19312 21.027 4.80128 20.1364 5.74243 19.7658C5.95534 19.682 6.11425 19.4997 6.16815 19.2773C6.37225 18.4358 7.12272 17.8481 7.99309 17.8481C8.28868 17.8481 8.5779 17.9155 8.82934 18.0431C9.09803 18.1794 9.4239 18.1294 9.63925 17.9186C10.0482 17.5184 10.5886 17.298 11.1609 17.298C12.3587 17.298 13.3331 18.2725 13.3331 19.4703C13.3331 19.8281 13.2433 20.1847 13.0735 20.5012C12.9197 20.7879 12.9827 21.1427 13.2257 21.3589C13.605 21.6964 13.8226 22.181 13.8226 22.6885C13.8226 23.6709 13.0212 24.4702 12.0361 24.4702H6.6339C5.28803 24.4702 4.19312 23.3777 4.19312 22.0348ZM34.3485 40.7738H22.4812C22.0928 40.7738 21.7781 41.0887 21.7781 41.477C21.7781 41.8653 22.0928 42.1801 22.4812 42.1801H34.3485V44.4028C34.3485 45.6109 33.3657 46.5938 32.1577 46.5938H9.9295C8.72003 46.5938 7.73603 45.611 7.73603 44.4028V42.1801H19.3852C19.7735 42.1801 20.0883 41.8653 20.0883 41.477C20.0883 41.0887 19.7735 40.7738 19.3852 40.7738H7.73603V33.8037H12.5122C12.9005 33.8037 13.2153 33.4889 13.2153 33.1006C13.2153 32.7123 12.9005 32.3975 12.5122 32.3975C12.5122 32.3975 2.00725 32.3971 1.95522 32.3962C2.0859 32.1821 6.25047 25.8573 6.25047 25.8573C6.37665 25.8698 6.50462 25.8764 6.634 25.8764H12.0362C13.7966 25.8764 15.2289 24.4463 15.2289 22.6885C15.2289 21.9576 14.9768 21.253 14.5247 20.691C14.666 20.3003 14.7395 19.886 14.7395 19.4703C14.7395 18.0128 13.8632 16.757 12.6104 16.1995L14.9319 12.6715C15.4485 11.8882 16.1192 11.4568 16.8209 11.4568H16.8216C17.5227 11.4571 18.1925 11.8883 18.7076 12.6711C18.7076 12.6711 31.5718 32.2101 31.6846 32.3963C31.6326 32.397 15.7445 32.4053 15.7445 32.4053C15.3562 32.4058 15.0322 32.7372 15.0329 33.1255C15.0334 33.5136 15.3482 33.8276 15.736 33.8276H15.7371H34.3485V40.7738ZM39.8739 32.4214H33.2568C33.1971 32.2208 33.1029 32.0481 33.0393 31.9313C32.9045 31.6823 25.2324 20.0241 25.2324 20.0241L27.2024 17.034C27.5811 16.4573 28.0667 16.1395 28.5693 16.1393H28.5701C29.0733 16.1393 29.56 16.4573 29.9402 17.0347L39.646 31.7761C39.7517 31.9365 39.9214 32.1939 40.0577 32.4198C40.0028 32.4208 39.9418 32.4214 39.8739 32.4214Z" fill="#F20F38"/>
</svg>
