<svg width="56" height="56" viewBox="0 0 56 56" fill="none" xmlns="http://www.w3.org/2000/svg">
<path d="M36.6382 4.02808H19.3613C18.0274 4.02961 16.7486 4.56018 15.8054 5.50339C14.8622 6.4466 14.3316 7.72543 14.3301 9.05933V46.9407C14.3316 48.2746 14.8622 49.5534 15.8054 50.4966C16.7486 51.4398 18.0274 51.9704 19.3613 51.9719H36.6382C37.9721 51.9704 39.2509 51.4398 40.1941 50.4966C41.1373 49.5534 41.6679 48.2746 41.6694 46.9407V9.05933C41.6679 7.72543 41.1373 6.4466 40.1941 5.50339C39.2509 4.56018 37.9721 4.02961 36.6382 4.02808ZM36.6382 50.6594H19.3613C18.3754 50.6583 17.4301 50.2662 16.733 49.569C16.0358 48.8719 15.6437 47.9266 15.6426 46.9407V44.1639H40.3569V46.9407C40.3558 47.9266 39.9637 48.8719 39.2665 49.569C38.5694 50.2662 37.6241 50.6583 36.6382 50.6594ZM40.3569 10.5347H37.3983C37.2243 10.5347 37.0574 10.6038 36.9343 10.7269C36.8112 10.85 36.7421 11.0169 36.7421 11.1909C36.7421 11.365 36.8112 11.5319 36.9343 11.655C37.0574 11.778 37.2243 11.8472 37.3983 11.8472H40.3569V42.8514H15.6426V11.8472H30.8554C31.0295 11.8472 31.1964 11.778 31.3195 11.655C31.4425 11.5319 31.5117 11.365 31.5117 11.1909C31.5117 11.0169 31.4425 10.85 31.3195 10.7269C31.1964 10.6038 31.0295 10.5347 30.8554 10.5347H15.6426V9.05933C15.6437 8.07339 16.0358 7.12815 16.733 6.43099C17.4301 5.73383 18.3754 5.34168 19.3613 5.34058H36.6382C37.6241 5.34168 38.5694 5.73383 39.2665 6.43099C39.9637 7.12815 40.3558 8.07339 40.3569 9.05933V10.5347Z" fill="#F20F38"/>
<path d="M33.5684 11.8472H34.7738C34.9478 11.8472 35.1148 11.778 35.2378 11.655C35.3609 11.5319 35.43 11.365 35.43 11.1909C35.43 11.0169 35.3609 10.8499 35.2378 10.7269C35.1148 10.6038 34.9478 10.5347 34.7738 10.5347H33.5684C33.3943 10.5347 33.2274 10.6038 33.1043 10.7269C32.9813 10.8499 32.9121 11.0169 32.9121 11.1909C32.9121 11.365 32.9813 11.5319 33.1043 11.655C33.2274 11.778 33.3943 11.8472 33.5684 11.8472Z" fill="#F20F38"/>
<path d="M27.9998 45.1287C27.5483 45.1287 27.1069 45.2626 26.7314 45.5134C26.356 45.7643 26.0634 46.1208 25.8906 46.538C25.7178 46.9551 25.6726 47.4141 25.7607 47.857C25.8487 48.2998 26.0662 48.7066 26.3854 49.0259C26.7047 49.3452 27.1115 49.5626 27.5543 49.6507C27.9972 49.7388 28.4562 49.6936 28.8734 49.5209C29.2905 49.3481 29.6471 49.0555 29.898 48.6801C30.1488 48.3047 30.2827 47.8633 30.2828 47.4117C30.282 46.8065 30.0412 46.2262 29.6133 45.7982C29.1853 45.3702 28.605 45.1294 27.9998 45.1287ZM27.9998 48.3821C27.8078 48.3821 27.6202 48.3252 27.4606 48.2186C27.301 48.1119 27.1766 47.9603 27.1032 47.783C27.0297 47.6057 27.0105 47.4105 27.048 47.2223C27.0854 47.034 27.1778 46.8611 27.3136 46.7254C27.4493 46.5896 27.6223 46.4972 27.8105 46.4598C27.9988 46.4224 28.1939 46.4416 28.3712 46.5151C28.5486 46.5885 28.7001 46.7129 28.8068 46.8725C28.9134 47.0322 28.9703 47.2198 28.9703 47.4117C28.9699 47.669 28.8676 47.9157 28.6857 48.0976C28.5037 48.2795 28.2571 48.3818 27.9998 48.3821Z" fill="#F20F38"/>
<path d="M34.2474 24.1413L34.2349 20.7429C34.2345 20.6357 34.2078 20.5301 34.1572 20.4356C34.1066 20.3411 34.0336 20.2604 33.9446 20.2006C33.8555 20.1408 33.7532 20.1037 33.6465 20.0926C33.5399 20.0815 33.4321 20.0968 33.3327 20.137L25.3766 23.3535L21.4604 23.3678C20.8576 23.3707 20.2807 23.6126 19.8561 24.0403C19.4314 24.4681 19.1938 25.0468 19.1953 25.6496L19.2063 28.5196C19.2081 28.9068 19.3089 29.2871 19.4991 29.6244C19.6893 29.9616 19.9625 30.2447 20.2929 30.4466L21.4397 34.2841C21.5729 34.7519 21.8548 35.1637 22.2427 35.4572C22.6306 35.7507 23.1036 35.9099 23.59 35.9109H23.5983C23.9424 35.9096 24.2816 35.8289 24.5894 35.675C24.8972 35.5212 25.1652 35.2983 25.3727 35.0237C25.5802 34.7492 25.7215 34.4305 25.7856 34.0924C25.8496 33.7543 25.8347 33.406 25.7421 33.0746L25.0981 30.7713L25.4043 30.7702L33.3834 33.9282C33.4832 33.9676 33.591 33.9821 33.6976 33.9702C33.8042 33.9583 33.9062 33.9205 33.9948 33.8601C34.0834 33.7996 34.1558 33.7184 34.2057 33.6235C34.2557 33.5286 34.2816 33.4229 34.2812 33.3157L34.268 29.7153C34.9635 29.65 35.6095 29.3268 36.0789 28.8094C36.5483 28.292 36.8071 27.6177 36.8046 26.919C36.802 26.2204 36.5382 25.548 36.065 25.0341C35.5918 24.5201 34.9434 24.2018 34.2474 24.1416V24.1413ZM21.4653 24.6803L24.8515 24.6679L24.8693 29.4595L21.483 29.4721H21.4794C21.2253 29.4717 20.9817 29.3708 20.8017 29.1914C20.6218 29.0121 20.52 28.7688 20.5186 28.5148L20.5077 25.6448C20.5072 25.39 20.6077 25.1454 20.7872 24.9646C20.9667 24.7838 21.2105 24.6816 21.4653 24.6803ZM24.4781 33.428C24.5163 33.5647 24.5225 33.7085 24.496 33.848C24.4696 33.9875 24.4112 34.119 24.3256 34.2323C24.24 34.3455 24.1294 34.4375 24.0023 34.501C23.8753 34.5645 23.7354 34.5978 23.5934 34.5983H23.5899C23.3887 34.5979 23.1932 34.5318 23.0329 34.4102C22.8727 34.2886 22.7564 34.1181 22.7019 33.9244C22.7009 33.9207 22.6998 33.917 22.6986 33.9135L21.7633 30.7838L23.7368 30.7765L24.4781 33.428ZM26.1825 29.6667L26.1634 24.4511L32.926 21.7168L32.937 24.7894V24.7906L32.9527 29.0746V29.0757L32.9648 32.3505L26.1825 29.6667ZM34.263 28.3914L34.2521 25.4648C34.5976 25.5226 34.9116 25.7007 35.1384 25.9677C35.3653 26.2346 35.4904 26.5732 35.4917 26.9235C35.4931 27.2738 35.3704 27.6133 35.1456 27.8819C34.9207 28.1506 34.6081 28.331 34.263 28.3914Z" fill="#F20F38"/>
</svg>
