<svg width="56" height="56" viewBox="0 0 56 56" fill="none" xmlns="http://www.w3.org/2000/svg">
<path d="M19.0858 40.3397V47.1406C19.0873 48.4745 19.6179 49.7533 20.5611 50.6966C21.5043 51.6398 22.7831 52.1703 24.117 52.1719H41.617C42.9509 52.1703 44.2298 51.6398 45.173 50.6966C46.1162 49.7533 46.6468 48.4745 46.6483 47.1406V8.85938C46.6468 7.52548 46.1162 6.24665 45.173 5.30344C44.2298 4.36023 42.9509 3.82966 41.617 3.82812H24.117C22.7831 3.82966 21.5043 4.36023 20.5611 5.30344C19.6179 6.24665 19.0873 7.52548 19.0858 8.85938V15.6603C16.3127 16.3242 13.8441 17.9028 12.0781 20.1415C10.312 22.3802 9.35156 25.1486 9.35156 28C9.35156 30.8514 10.312 33.6198 12.0781 35.8585C13.8441 38.0972 16.3127 39.6758 19.0858 40.3397ZM22.6952 39.1037V32.8076C24.2291 32.8953 25.7291 33.2942 27.1039 33.9802C26.1563 36.2062 24.65 37.9822 22.6952 39.1037ZM22.6952 31.4929V28.6562H28.2354C28.1923 30.0417 27.9648 31.4152 27.5591 32.7406C26.0376 32.0036 24.3836 31.5792 22.6952 31.4929ZM22.6952 27.3436V24.507C24.3836 24.4207 26.0376 23.9964 27.5591 23.2594C27.9648 24.5848 28.1923 25.9583 28.2354 27.3438L22.6952 27.3436ZM22.6952 23.1923V16.8961C24.65 18.0177 26.1563 19.7938 27.1039 22.0198C25.7291 22.7058 24.2291 23.1046 22.6952 23.1923ZM21.3827 16.896V23.193C19.8479 23.108 18.3458 22.7156 16.9656 22.0391C17.9125 19.8041 19.422 18.0208 21.3827 16.896ZM21.3827 24.5072V27.3438H15.8424C15.8854 25.9649 16.1108 24.5979 16.5127 23.2783C18.0389 24.0057 19.6941 24.4233 21.3827 24.5072ZM21.3827 28.6561V31.4926C19.6941 31.5765 18.0389 31.9942 16.5127 32.7216C16.1109 31.402 15.8854 30.035 15.8424 28.6562L21.3827 28.6561ZM21.3827 32.8069V39.1037C19.422 37.9789 17.9125 36.1958 16.9656 33.9606C18.3458 33.2842 19.8479 32.8918 21.3827 32.8069ZM18.9096 38.9375C17.0621 38.4061 15.3793 37.4156 14.0181 36.0582C14.5656 35.5153 15.1679 35.0307 15.8155 34.6122C16.5179 36.263 17.5741 37.7395 18.9096 38.9375ZM28.2502 34.6391C28.8911 35.0597 29.4872 35.5451 30.029 36.0875C28.6732 37.4299 27.0017 38.4099 25.1682 38.9375C26.4964 37.7462 27.548 36.2792 28.2502 34.6391ZM30.9093 35.1116C30.2492 34.4578 29.5184 33.8796 28.7304 33.3876C29.2278 31.8577 29.5035 30.2644 29.549 28.6562H33.3944C33.26 31.0147 32.3911 33.2718 30.9093 35.1116ZM29.549 27.3438C29.5036 25.7356 29.2279 24.1422 28.7306 22.6122C29.5185 22.1201 30.2492 21.5419 30.9092 20.8882C32.391 22.728 33.26 24.9853 33.3944 27.3438H29.549ZM28.2504 21.3609C27.5483 19.7208 26.4964 18.2538 25.1682 17.0625C27.0018 17.5899 28.6733 18.5698 30.0292 19.9119C29.4874 20.4546 28.8914 20.9401 28.2504 21.3609ZM15.8155 21.3881C15.1679 20.9697 14.5656 20.4852 14.0181 19.9423C15.3793 18.5848 17.0621 17.594 18.9096 17.0625C17.5741 18.2605 16.5179 19.7372 15.8155 21.3881ZM15.3385 22.6392C14.8469 24.1611 14.5744 25.7453 14.5291 27.344H10.6834C10.8167 25.0002 11.6757 22.7558 13.1413 20.9219C13.8072 21.5746 14.5442 22.1508 15.3385 22.6392ZM14.5288 28.6562C14.574 30.255 14.8466 31.8391 15.3382 33.361C14.5439 33.8495 13.8068 34.4255 13.1409 35.0782C11.6755 33.2443 10.8167 31 10.6834 28.6562H14.5288ZM41.617 50.8594H24.117C23.1311 50.8583 22.1859 50.4661 21.4887 49.769C20.7915 49.0718 20.3994 48.1266 20.3983 47.1406V44.2969H45.3358V47.1406C45.3347 48.1266 44.9425 49.0718 44.2454 49.769C43.5482 50.4661 42.603 50.8583 41.617 50.8594ZM20.3983 11.7031H38.2264C38.4005 11.7031 38.5674 11.634 38.6905 11.5109C38.8135 11.3878 38.8827 11.2209 38.8827 11.0469C38.8827 10.8728 38.8135 10.7059 38.6905 10.5828C38.5674 10.4598 38.4005 10.3906 38.2264 10.3906H20.3983V8.85938C20.3994 7.87344 20.7915 6.9282 21.4887 6.23104C22.1859 5.53387 23.1311 5.14173 24.117 5.14062H41.617C42.603 5.14173 43.5482 5.53387 44.2454 6.23104C44.9425 6.9282 45.3347 7.87344 45.3358 8.85938V10.3906H43.8045C43.6305 10.3906 43.4636 10.4598 43.3405 10.5828C43.2174 10.7059 43.1483 10.8728 43.1483 11.0469C43.1483 11.2209 43.2174 11.3878 43.3405 11.5109C43.4636 11.634 43.6305 11.7031 43.8045 11.7031H45.3358V42.9844H20.3983V40.5816C22.1875 40.8142 24.0058 40.6625 25.7317 40.1367C27.4576 39.6108 29.0516 38.7229 30.4071 37.5322C31.7627 36.3414 32.8487 34.8753 33.5927 33.2315C34.3366 31.5878 34.7214 29.8043 34.7214 28C34.7214 26.1957 34.3366 24.4122 33.5927 22.7685C32.8487 21.1247 31.7627 19.6586 30.4071 18.4678C29.0516 17.2771 27.4576 16.3892 25.7317 15.8633C24.0058 15.3375 22.1875 15.1858 20.3983 15.4184V11.7031Z" fill="#F20F38"/>
<path d="M40.3809 11.7031H41.5968C41.7708 11.7031 41.9378 11.634 42.0608 11.5109C42.1839 11.3878 42.253 11.2209 42.253 11.0469C42.253 10.8728 42.1839 10.7059 42.0608 10.5828C41.9378 10.4598 41.7708 10.3906 41.5968 10.3906H40.3809C40.2068 10.3906 40.0399 10.4598 39.9168 10.5828C39.7937 10.7059 39.7246 10.8728 39.7246 11.0469C39.7246 11.2209 39.7937 11.3878 39.9168 11.5109C40.0399 11.634 40.2068 11.7031 40.3809 11.7031Z" fill="#F20F38"/>
<path d="M32.8672 45.2812C32.4129 45.2812 31.9688 45.416 31.5911 45.6683C31.2134 45.9207 30.919 46.2795 30.7452 46.6992C30.5713 47.1189 30.5258 47.5807 30.6144 48.0262C30.7031 48.4718 30.9218 48.881 31.2431 49.2023C31.5643 49.5235 31.9735 49.7423 32.4191 49.8309C32.8646 49.9195 33.3265 49.874 33.7462 49.7002C34.1659 49.5263 34.5246 49.2319 34.777 48.8542C35.0294 48.4765 35.1641 48.0324 35.1641 47.5781C35.1634 46.9692 34.9212 46.3854 34.4906 45.9548C34.06 45.5242 33.4762 45.2819 32.8672 45.2812ZM32.8672 48.5625C32.6725 48.5625 32.4822 48.5048 32.3203 48.3966C32.1584 48.2884 32.0323 48.1347 31.9577 47.9548C31.8832 47.775 31.8637 47.577 31.9017 47.3861C31.9397 47.1951 32.0335 47.0197 32.1711 46.8821C32.3088 46.7444 32.4842 46.6507 32.6752 46.6127C32.8661 46.5747 33.064 46.5942 33.2439 46.6687C33.4238 46.7432 33.5775 46.8694 33.6857 47.0312C33.7938 47.1931 33.8516 47.3834 33.8516 47.5781C33.8513 47.8391 33.7475 48.0893 33.5629 48.2739C33.3784 48.4584 33.1282 48.5622 32.8672 48.5625Z" fill="#F20F38"/>
</svg>
