<svg width="56" height="56" viewBox="0 0 56 56" fill="none" xmlns="http://www.w3.org/2000/svg">
<path d="M13.4008 52.1719H30.9008C32.2347 52.1703 33.5136 51.6398 34.4568 50.6966C35.4 49.7533 35.9305 48.4745 35.9321 47.1406V44.47C36.7672 45.1922 37.7597 45.7088 38.8303 45.9786C39.9009 46.2483 41.0198 46.2636 42.0974 46.0233C43.175 45.783 44.1813 45.2937 45.0359 44.5947C45.8904 43.8956 46.5695 43.0062 47.0186 41.9976C47.4677 40.9891 47.6744 39.8893 47.6223 38.7865C47.5701 37.6837 47.2604 36.6084 46.7181 35.6468C46.1757 34.6851 45.4158 33.8638 44.499 33.2485C43.5823 32.6333 42.5342 32.2412 41.4388 32.1037C41.5594 31.4137 41.6201 30.7145 41.6203 30.0139C41.6203 29.8399 41.5512 29.673 41.4281 29.5499C41.3051 29.4268 41.1381 29.3577 40.9641 29.3577H35.9321V26.4751H45.2317C45.4057 26.4751 45.5727 26.406 45.6957 26.2829C45.8188 26.1598 45.8879 25.9929 45.8879 25.8188C45.8844 22.5969 44.6079 19.507 42.3364 17.222L42.3279 17.2134C40.5797 15.481 38.3513 14.3137 35.9316 13.8631V8.85938C35.9301 7.52548 35.3995 6.24665 34.4563 5.30344C33.5131 4.36023 32.2343 3.82966 30.9004 3.82812H13.4004C12.0665 3.82966 10.7877 4.36023 9.84445 5.30344C8.90124 6.24665 8.37067 7.52548 8.36914 8.85938V47.1406C8.37068 48.4746 8.9013 49.7535 9.84461 50.6967C10.7879 51.6399 12.0669 52.1705 13.4008 52.1719ZM46.3175 39.1198C46.3175 40.2564 45.9813 41.3676 45.3513 42.3135C44.7212 43.2594 43.8254 43.9978 42.7766 44.4358C41.7278 44.8737 40.5729 44.9916 39.4572 44.7746C38.3415 44.5576 37.315 44.0154 36.5068 43.2163C35.6986 42.4172 35.1449 41.3968 34.9153 40.2837C34.6857 39.1706 34.7905 38.0144 35.2166 36.9607C35.6427 35.907 36.3709 35.0029 37.3097 34.3622C38.2484 33.7215 39.3558 33.3728 40.4922 33.36H40.5045C40.5168 33.36 40.5294 33.36 40.5421 33.36H40.5571C40.6344 33.36 40.7111 33.3629 40.7878 33.3659L41.1205 33.4644C41.1279 33.4394 41.1342 33.4141 41.1414 33.3891C42.5599 33.5356 43.8739 34.2023 44.8298 35.2606C45.7857 36.3189 46.3157 37.6938 46.3175 39.1198ZM40.1125 32.0611C39.1427 32.122 38.1959 32.3821 37.3312 32.8252C36.4664 33.2683 35.7022 33.8848 35.0863 34.6363C34.4704 35.3878 34.016 36.2582 33.7514 37.1932C33.4868 38.1281 33.4177 39.1076 33.5485 40.0704C32.0904 40.6642 30.5205 40.9336 28.9478 40.8599C27.3752 40.7862 25.8374 40.3711 24.4412 39.6435C23.0451 38.9159 21.8239 37.8932 20.8626 36.6464C19.9013 35.3996 19.2228 33.9586 18.8742 32.4232C18.5257 30.8879 18.5153 29.2952 18.844 27.7555C19.1727 26.2158 19.8325 24.7661 20.7776 23.5069C21.7227 22.2478 22.9305 21.2094 24.3171 20.4638C25.7038 19.7182 27.236 19.2832 28.8076 19.1892V30.0139C28.8076 30.188 28.8768 30.3549 28.9998 30.478C29.1229 30.601 29.2898 30.6702 29.4639 30.6702H40.2882C40.2597 31.1371 40.2011 31.6017 40.1125 32.0611ZM34.3873 20.9769L39.0131 16.3516C39.6869 16.7293 40.3198 17.176 40.9015 17.6844L34.3873 24.1982V20.9769ZM34.3873 19.1207V14.9941C35.5436 15.0641 36.6811 15.3198 37.756 15.7516L34.3873 19.1207ZM40.3568 25.1626L43.7768 21.7425C44.2214 22.8324 44.4845 23.9877 44.5557 25.1626H40.3568ZM43.1726 20.4907L38.5006 25.1626H35.2792L41.8324 18.6093C42.343 19.1884 42.7921 19.819 43.1726 20.4907ZM13.4008 5.14062H30.9008C31.8868 5.14175 32.832 5.53391 33.5291 6.23107C34.2263 6.92822 34.6184 7.87345 34.6196 8.85938V10.3906H33.0883C32.9143 10.3906 32.7474 10.4598 32.6243 10.5828C32.5012 10.7059 32.4321 10.8728 32.4321 11.0469C32.4321 11.2209 32.5012 11.3878 32.6243 11.5109C32.7474 11.634 32.9143 11.7031 33.0883 11.7031H34.6196V13.6937C34.3251 13.6723 34.0289 13.6614 33.731 13.6609C33.557 13.6609 33.39 13.7301 33.267 13.8531C33.1439 13.9762 33.0748 14.1431 33.0748 14.3172V25.8188C33.0748 25.9929 33.1439 26.1598 33.267 26.2829C33.39 26.406 33.557 26.4751 33.731 26.4751H34.6196V29.3577H30.1201V18.5137C30.1201 18.3396 30.051 18.1727 29.9279 18.0496C29.8048 17.9266 29.6379 17.8574 29.4639 17.8574C27.8652 17.852 26.2814 18.1638 24.804 18.7747C23.3267 19.3857 21.9854 20.2838 20.8576 21.4168C18.893 23.3918 17.6654 25.9809 17.3796 28.7519C17.0939 31.523 17.7674 34.3081 19.2876 36.6424C20.8078 38.9768 23.0828 40.7189 25.7327 41.5781C28.3826 42.4373 31.247 42.3615 33.8477 41.3633C34.0359 41.9283 34.2953 42.467 34.6196 42.9664V42.9844H9.68208V11.7031H27.5102C27.6842 11.7031 27.8512 11.634 27.9742 11.5109C28.0973 11.3878 28.1665 11.2209 28.1665 11.0469C28.1665 10.8728 28.0973 10.7059 27.9742 10.5828C27.8512 10.4598 27.6842 10.3906 27.5102 10.3906H9.68208V8.85938C9.68318 7.87344 10.0753 6.9282 10.7725 6.23104C11.4697 5.53387 12.4149 5.14173 13.4008 5.14062ZM9.68208 44.2969H34.6196V47.1406C34.6184 48.1266 34.2263 49.0718 33.5291 49.7689C32.832 50.4661 31.8868 50.8582 30.9008 50.8594H13.4008C12.4149 50.8583 11.4697 50.4661 10.7725 49.769C10.0753 49.0718 9.68318 48.1266 9.68208 47.1406V44.2969Z" fill="#F20F38"/>
<path d="M29.6641 11.7031H30.8799C31.0539 11.7031 31.2208 11.634 31.3439 11.5109C31.467 11.3878 31.5361 11.2209 31.5361 11.0469C31.5361 10.8728 31.467 10.7059 31.3439 10.5828C31.2208 10.4598 31.0539 10.3906 30.8799 10.3906H29.6641C29.49 10.3906 29.3231 10.4598 29.2 10.5828C29.077 10.7059 29.0078 10.8728 29.0078 11.0469C29.0078 11.2209 29.077 11.3878 29.2 11.5109C29.3231 11.634 29.49 11.7031 29.6641 11.7031Z" fill="#F20F38"/>
<path d="M22.1523 49.875C22.6066 49.875 23.0507 49.7403 23.4284 49.4879C23.8061 49.2355 24.1005 48.8768 24.2744 48.4571C24.4482 48.0374 24.4937 47.5756 24.4051 47.13C24.3165 46.6845 24.0977 46.2752 23.7765 45.954C23.4553 45.6328 23.046 45.414 22.6004 45.3254C22.1549 45.2368 21.6931 45.2822 21.2734 45.4561C20.8537 45.6299 20.4949 45.9243 20.2426 46.3021C19.9902 46.6798 19.8555 47.1239 19.8555 47.5781C19.8561 48.1871 20.0983 48.7709 20.5289 49.2015C20.9595 49.6321 21.5434 49.8743 22.1523 49.875ZM22.1523 46.5938C22.347 46.5938 22.5374 46.6515 22.6992 46.7597C22.8611 46.8678 22.9873 47.0216 23.0618 47.2014C23.1363 47.3813 23.1558 47.5792 23.1178 47.7702C23.0798 47.9611 22.9861 48.1365 22.8484 48.2742C22.7107 48.4119 22.5353 48.5056 22.3444 48.5436C22.1534 48.5816 21.9555 48.5621 21.7756 48.4876C21.5958 48.4131 21.442 48.2869 21.3339 48.125C21.2257 47.9631 21.168 47.7728 21.168 47.5781C21.1683 47.3172 21.2721 47.067 21.4566 46.8824C21.6412 46.6979 21.8914 46.5941 22.1523 46.5938Z" fill="#F20F38"/>
<path d="M40.557 34.2435C40.3829 34.2435 40.216 34.3126 40.0929 34.4357C39.9699 34.5587 39.9007 34.7257 39.9007 34.8997V35.2417C39.3719 35.3992 38.9175 35.7417 38.6206 36.2067C38.3237 36.6717 38.2042 37.2281 38.2838 37.774C38.3635 38.32 38.6371 38.819 39.0545 39.1797C39.4719 39.5405 40.0053 39.7389 40.557 39.7387C40.818 39.7371 41.069 39.8394 41.2547 40.0229C41.4404 40.2064 41.5456 40.4562 41.5471 40.7173C41.5487 40.9783 41.4464 41.2293 41.2629 41.415C41.0794 41.6007 40.8296 41.7059 40.5686 41.7074C40.5646 41.7074 40.5608 41.7068 40.557 41.7068C40.5531 41.7068 40.5492 41.7068 40.5454 41.7074C40.2864 41.7042 40.0391 41.5991 39.857 41.4148C39.675 41.2306 39.5728 40.9821 39.5726 40.723C39.5726 40.549 39.5034 40.3821 39.3804 40.259C39.2573 40.1359 39.0904 40.0668 38.9163 40.0668C38.7423 40.0668 38.5754 40.1359 38.4523 40.259C38.3292 40.3821 38.2601 40.549 38.2601 40.723C38.2608 41.2174 38.4208 41.6984 38.7163 42.0947C39.0118 42.491 39.4271 42.7815 39.9007 42.9232V43.3398C39.9007 43.5139 39.9699 43.6808 40.0929 43.8039C40.216 43.927 40.3829 43.9961 40.557 43.9961C40.731 43.9961 40.8979 43.927 41.021 43.8039C41.1441 43.6808 41.2132 43.5139 41.2132 43.3398V42.9232C41.7412 42.765 42.1946 42.4222 42.4908 41.9574C42.787 41.4926 42.9062 40.9368 42.8266 40.3914C42.747 39.846 42.474 39.3474 42.0573 38.9866C41.6406 38.6258 41.1081 38.4269 40.557 38.4262C40.3623 38.4262 40.172 38.3684 40.0101 38.2603C39.8482 38.1521 39.722 37.9984 39.6475 37.8185C39.573 37.6386 39.5535 37.4407 39.5915 37.2498C39.6295 37.0588 39.7232 36.8834 39.8609 36.7457C39.9986 36.6081 40.174 36.5143 40.3649 36.4763C40.5559 36.4384 40.7538 36.4578 40.9337 36.5324C41.1135 36.6069 41.2673 36.733 41.3754 36.8949C41.4836 37.0568 41.5413 37.2471 41.5413 37.4418C41.5413 37.6158 41.6105 37.7828 41.7335 37.9058C41.8566 38.0289 42.0235 38.098 42.1976 38.098C42.3716 38.098 42.5386 38.0289 42.6616 37.9058C42.7847 37.7828 42.8538 37.6158 42.8538 37.4418C42.8531 36.9475 42.6931 36.4665 42.3976 36.0702C42.1021 35.674 41.6868 35.3834 41.2132 35.2417V34.8997C41.2132 34.7257 41.1441 34.5587 41.021 34.4357C40.8979 34.3126 40.731 34.2435 40.557 34.2435Z" fill="#F20F38"/>
</svg>
