<svg width="48" height="48" viewBox="0 0 48 48" fill="none" xmlns="http://www.w3.org/2000/svg">
<g clip-path="url(#clip0)">
<path d="M39.5313 38.8282C39.9197 38.8282 40.2344 38.5133 40.2344 38.125V3.80934C40.2344 1.70887 38.5256 0 36.425 0H11.5751C9.47459 0 7.76562 1.70887 7.76562 3.80934V44.1906C7.76562 46.291 9.47459 47.9999 11.5751 47.9999H36.425C38.5255 47.9999 40.2344 46.291 40.2344 44.1906V40.9374C40.2344 40.5491 39.9197 40.2343 39.5313 40.2343C39.1429 40.2343 38.8282 40.5491 38.8282 40.9374V44.1906C38.8282 45.5156 37.7502 46.5937 36.425 46.5937H11.5751C10.2499 46.5937 9.17188 45.5156 9.17188 44.1906V3.80934C9.17188 2.48428 10.2499 1.40625 11.5751 1.40625H36.425C37.7502 1.40625 38.8282 2.48428 38.8282 3.80934V38.125C38.8282 38.5133 39.1429 38.8282 39.5313 38.8282Z" fill="#F20F38"/>
<path d="M16.6085 32.3131C16.6476 32.3701 16.6951 32.4215 16.7501 32.4653C17.5894 33.3452 18.587 34.0728 19.6964 34.6026C19.7378 34.627 19.7809 34.6477 19.8258 34.663C21.0974 35.2481 22.5115 35.575 24.0005 35.575C25.4895 35.575 26.9035 35.2481 28.1752 34.663C28.2202 34.6476 28.2634 34.627 28.3048 34.6024C29.4142 34.0726 30.4117 33.3451 31.2509 32.4652C31.306 32.4214 31.3535 32.3701 31.3926 32.313C33.025 30.5295 34.0225 28.1557 34.0225 25.553C34.0225 25.16 33.9989 24.7724 33.9547 24.391C33.9536 24.3515 33.9488 24.312 33.941 24.2729C33.7806 23.02 33.3879 21.8387 32.8075 20.7737C32.7862 20.7215 32.7584 20.6727 32.7258 20.6276C31.313 18.1348 28.8633 16.3039 25.9667 15.7253C25.928 15.7141 25.8881 15.7068 25.8477 15.7024C25.2488 15.5903 24.6315 15.5311 24.0005 15.5311C23.3694 15.5311 22.7519 15.5903 22.1529 15.7025C22.1127 15.7069 22.0732 15.7141 22.0347 15.7252C19.138 16.3036 16.6881 18.1346 15.2752 20.6275C15.2425 20.6725 15.2148 20.7214 15.1934 20.7736C14.6131 21.8386 14.2205 23.0199 14.06 24.2728C14.0522 24.312 14.0473 24.3515 14.0463 24.3909C14.002 24.7723 13.9785 25.1599 13.9785 25.5529C13.9786 28.1558 14.976 30.5296 16.6085 32.3131ZM21.2179 20.5222L23.2974 21.0758V22.1396L21.0028 23.8067L19.9601 23.49L20.0755 21.3536C20.4218 21.0298 20.8045 20.7513 21.2179 20.5222ZM26.7831 20.5222C27.1965 20.7512 27.5792 21.0297 27.9254 21.3536L28.0408 23.4899L26.9981 23.8066L24.7036 22.1396V21.0758L26.7831 20.5222ZM31.0793 30.4583L30.4755 28.6001C30.7318 28.0565 30.9175 27.4849 31.0294 26.8944L32.6137 25.7432C32.5757 27.492 32.0138 29.1138 31.0793 30.4583ZM28.0107 33.1765L26.0926 31.7829L27.3775 30.2012L29.2789 29.4679L30.0106 31.7199C29.4196 32.296 28.7466 32.788 28.0107 33.1765ZM24.7071 31.258C24.2401 31.315 23.761 31.315 23.2939 31.258L21.9336 29.5837L22.5919 28.6549H25.4091L26.0674 29.5837L24.7071 31.258ZM17.9904 31.7199L18.7221 29.4679L20.6234 30.2012L21.9084 31.7829L19.9902 33.1765C19.2544 32.788 18.5814 32.296 17.9904 31.7199ZM19.5309 24.8293L20.5779 25.1473L21.4506 27.8333L20.7938 28.7598L18.7917 27.9876C18.5911 27.5593 18.4451 27.1095 18.3559 26.645L19.5309 24.8293ZM24.0005 23.367L26.0413 24.8497L25.2618 27.2486H22.7394L21.9597 24.8497L24.0005 23.367ZM28.4701 24.8293L29.6451 26.645C29.5558 27.1095 29.4099 27.5592 29.2091 27.9875L27.2071 28.7597L26.5503 27.8332L27.423 25.1472L28.4701 24.8293ZM32.4919 24.0936L30.5719 25.4886L29.4647 23.7777L29.3547 21.7428H31.7262C32.0884 22.4741 32.3497 23.2637 32.4919 24.0936ZM18.5363 23.7777L17.4292 25.4886L15.5092 24.0936C15.6514 23.2637 15.9127 22.4741 16.2748 21.7428H18.6463L18.5363 23.7777ZM16.9716 26.8944C17.0835 27.485 17.2691 28.0566 17.5255 28.6002L16.9217 30.4584C15.9872 29.1139 15.4253 27.4921 15.3872 25.7433L16.9716 26.8944ZM21.5191 33.804L23.1047 32.652C23.401 32.689 23.7011 32.7078 24.0005 32.7078C24.2998 32.7078 24.6 32.689 24.8963 32.6521L26.4819 33.8041C25.6957 34.041 24.8628 34.1689 24.0005 34.1689C23.1382 34.1688 22.3052 34.0408 21.5191 33.804ZM30.8525 20.3365H28.897C28.4589 19.925 27.9734 19.5718 27.4481 19.2826L26.8429 17.4198C28.4488 17.9828 29.839 19.0085 30.8525 20.3365ZM25.2364 17.0265L25.9698 19.2834L24.0005 19.8077L22.0312 19.2834L22.7646 17.0265C23.1684 16.9683 23.5809 16.9375 24.0005 16.9375C24.4201 16.9375 24.8327 16.9683 25.2364 17.0265ZM21.1581 17.4199L20.5528 19.2826C20.0275 19.5717 19.5421 19.925 19.104 20.3365H17.1485C18.162 19.0085 19.5521 17.9828 21.1581 17.4199Z" fill="#F20F38"/>
<path d="M37.1273 37.2281V7.66565C37.1273 6.86437 36.4754 6.21252 35.6742 6.21252H12.3242C11.5229 6.21252 10.8711 6.86437 10.8711 7.66565V10.286C10.8711 10.6743 11.1858 10.9891 11.5742 10.9891C11.9626 10.9891 12.2773 10.6743 12.2773 10.286V7.66565C12.2773 7.63977 12.2984 7.61877 12.3242 7.61877H35.6742C35.6999 7.61877 35.721 7.63977 35.721 7.66565V37.2281C35.721 37.254 35.6999 37.275 35.6742 37.275H12.3242C12.2984 37.275 12.2773 37.254 12.2773 37.2281V13.0985C12.2773 12.7101 11.9626 12.3953 11.5742 12.3953C11.1858 12.3953 10.8711 12.7101 10.8711 13.0985V37.2281C10.8711 38.0294 11.5229 38.6812 12.3242 38.6812H35.6742C36.4754 38.6812 37.1273 38.0294 37.1273 37.2281Z" fill="#F20F38"/>
<path d="M21.7441 42.6375C21.7441 43.8817 22.7563 44.8938 24.0003 44.8938C25.2445 44.8938 26.2565 43.8817 26.2565 42.6375C26.2565 41.3934 25.2444 40.3813 24.0003 40.3813C22.7563 40.3812 21.7441 41.3933 21.7441 42.6375ZM24.8503 42.6375C24.8503 43.1063 24.469 43.4875 24.0003 43.4875C23.5317 43.4875 23.1504 43.1063 23.1504 42.6375C23.1504 42.1688 23.5317 41.7876 24.0003 41.7876C24.469 41.7876 24.8503 42.1688 24.8503 42.6375Z" fill="#F20F38"/>
<path d="M27.9105 13.8312C28.7118 13.8312 29.3637 13.1794 29.3637 12.3781V10.7719C29.3637 9.9706 28.7118 9.31876 27.9105 9.31876H20.0918C19.2905 9.31876 18.6387 9.9706 18.6387 10.7719V12.3781C18.6387 13.1794 19.2905 13.8312 20.0918 13.8312H27.9105ZM20.0449 12.3781V10.7719C20.0449 10.746 20.066 10.725 20.0918 10.725H27.9105C27.9363 10.725 27.9574 10.746 27.9574 10.7719V12.3781C27.9574 12.404 27.9363 12.425 27.9105 12.425H20.0918C20.0659 12.425 20.0449 12.404 20.0449 12.3781Z" fill="#F20F38"/>
<path d="M27.1051 4.51247C27.4935 4.51247 27.8082 4.19765 27.8082 3.80934C27.8082 3.42103 27.4935 3.10622 27.1051 3.10622H20.8926C20.5042 3.10622 20.1895 3.42103 20.1895 3.80934C20.1895 4.19765 20.5042 4.51247 20.8926 4.51247H27.1051Z" fill="#F20F38"/>
<path d="M17.7879 4.51247C18.1763 4.51247 18.491 4.19765 18.491 3.80934C18.491 3.42103 18.1763 3.10622 17.7879 3.10622H14.6816C14.2932 3.10622 13.9785 3.42103 13.9785 3.80934C13.9785 4.19765 14.2932 4.51247 14.6816 4.51247H17.7879Z" fill="#F20F38"/>
</g>
<defs>
<clipPath id="clip0">
<rect width="48" height="48" fill="white"/>
</clipPath>
</defs>
</svg>
