<svg width="56" height="56" viewBox="0 0 56 56" fill="none" xmlns="http://www.w3.org/2000/svg">
<path d="M30.0039 25.2376C30.0039 28.3007 32.4384 30.7927 35.4308 30.7927C38.4232 30.7927 40.8577 28.3007 40.8577 25.2376C40.8577 22.1746 38.4233 19.6825 35.4308 19.6825C32.4383 19.6825 30.0039 22.1745 30.0039 25.2376ZM39.5452 25.2376C39.5452 27.5769 37.6995 29.4802 35.4308 29.4802C33.162 29.4802 31.3164 27.577 31.3164 25.2376C31.3164 22.8982 33.1621 20.995 35.4308 20.995C37.6994 20.995 39.5452 22.8982 39.5452 25.2376Z" fill="#F20F38"/>
<path d="M31.2129 3.82812H13.7129C12.379 3.82963 11.1001 4.36019 10.1569 5.30341C9.21371 6.24662 8.68315 7.52547 8.68164 8.85938V47.1406C8.68315 48.4745 9.21371 49.7534 10.1569 50.6966C11.1001 51.6398 12.379 52.1704 13.7129 52.1719H31.2129C32.5468 52.1703 33.8256 51.6398 34.7688 50.6966C35.712 49.7533 36.2426 48.4745 36.2441 47.1406V42.5782L43.8785 34.4462C45.0621 33.2129 45.9824 31.7518 46.5835 30.1516C47.1548 28.6112 47.3958 26.9678 47.2907 25.3282C47.0939 22.3347 45.8202 19.5136 43.705 17.3863C41.7165 15.3794 39.0634 14.168 36.2445 13.9798V8.85938C36.2429 7.52542 35.7123 6.24654 34.769 5.30332C33.8258 4.3601 32.5468 3.82957 31.2129 3.82812ZM13.7129 5.14062H31.2129C32.1988 5.14173 33.1441 5.53387 33.8412 6.23104C34.5384 6.9282 34.9305 7.87344 34.9316 8.85938V10.3906H33.4004C33.2263 10.3906 33.0594 10.4598 32.9364 10.5828C32.8133 10.7059 32.7441 10.8728 32.7441 11.0469C32.7441 11.2209 32.8133 11.3878 32.9364 11.5109C33.0594 11.634 33.2263 11.7031 33.4004 11.7031H34.9316V13.9626C32.0001 14.0787 29.2216 15.3021 27.1565 17.386C25.041 19.5134 23.7671 22.3346 23.5702 25.3283C23.4652 26.9679 23.7062 28.6113 24.2775 30.1517C24.8786 31.7518 25.7989 33.213 26.9824 34.4462L34.9316 42.9134V42.9844H9.99414V11.7031H27.8223C27.9963 11.7031 28.1632 11.634 28.2863 11.5109C28.4094 11.3878 28.4785 11.2209 28.4785 11.0469C28.4785 10.8728 28.4094 10.7059 28.2863 10.5828C28.1632 10.4598 27.9963 10.3906 27.8223 10.3906H9.99414V8.85938C9.99524 7.87344 10.3874 6.9282 11.0846 6.23104C11.7817 5.53387 12.727 5.14173 13.7129 5.14062ZM31.2129 50.8594H13.7129C12.727 50.8583 11.7817 50.4661 11.0846 49.769C10.3874 49.0718 9.99524 48.1266 9.99414 47.1406V44.2969H34.9316V47.1406C34.9305 48.1266 34.5384 49.0718 33.8412 49.769C33.1441 50.4661 32.1988 50.8583 31.2129 50.8594ZM45.9814 25.4161C46.0739 26.8731 45.859 28.3333 45.3507 29.7019C44.8101 31.1352 43.9838 32.4437 42.9219 33.5478L35.4305 41.5272L27.9392 33.5478C26.8774 32.4437 26.0511 31.1352 25.5105 29.7019C25.0022 28.3333 24.7872 26.8731 24.8796 25.4161C25.0555 22.7387 26.1945 20.2155 28.0863 18.3127C29.0497 17.3463 30.1944 16.5795 31.4547 16.0563C32.7151 15.5332 34.0662 15.2638 35.4308 15.2638C36.7954 15.2638 38.1466 15.5332 39.4069 16.0563C40.6672 16.5795 41.8119 17.3463 42.7754 18.3127C44.6669 20.2155 45.8057 22.7388 45.9814 25.4161Z" fill="#F20F38"/>
<path d="M29.9766 11.7031H31.1928C31.3669 11.7031 31.5338 11.634 31.6569 11.5109C31.7799 11.3878 31.8491 11.2209 31.8491 11.0469C31.8491 10.8728 31.7799 10.7059 31.6569 10.5828C31.5338 10.4598 31.3669 10.3906 31.1928 10.3906H29.9766C29.8025 10.3906 29.6356 10.4598 29.5125 10.5828C29.3895 10.7059 29.3203 10.8728 29.3203 11.0469C29.3203 11.2209 29.3895 11.3878 29.5125 11.5109C29.6356 11.634 29.8025 11.7031 29.9766 11.7031Z" fill="#F20F38"/>
<path d="M22.4629 45.2813C22.0086 45.2812 21.5645 45.416 21.1868 45.6683C20.8091 45.9207 20.5147 46.2795 20.3409 46.6992C20.167 47.1189 20.1215 47.5807 20.2102 48.0262C20.2988 48.4718 20.5175 48.881 20.8388 49.2023C21.16 49.5235 21.5692 49.7423 22.0148 49.8309C22.4603 49.9195 22.9222 49.874 23.3419 49.7002C23.7616 49.5263 24.1203 49.2319 24.3727 48.8542C24.6251 48.4765 24.7598 48.0324 24.7598 47.5781C24.7591 46.9692 24.5169 46.3854 24.0863 45.9548C23.6557 45.5242 23.0718 45.2819 22.4629 45.2813ZM22.4629 48.5625C22.2682 48.5625 22.0779 48.5048 21.916 48.3966C21.7541 48.2884 21.628 48.1347 21.5534 47.9548C21.4789 47.775 21.4594 47.577 21.4974 47.3861C21.5354 47.1951 21.6292 47.0197 21.7668 46.8821C21.9045 46.7444 22.0799 46.6507 22.2709 46.6127C22.4618 46.5747 22.6597 46.5942 22.8396 46.6687C23.0195 46.7432 23.1732 46.8694 23.2814 47.0312C23.3895 47.1931 23.4473 47.3834 23.4473 47.5781C23.447 47.8391 23.3432 48.0893 23.1586 48.2739C22.9741 48.4584 22.7239 48.5622 22.4629 48.5625Z" fill="#F20F38"/>
</svg>
