<svg width="52" height="52" viewBox="0 0 52 52" fill="none" xmlns="http://www.w3.org/2000/svg">
<path d="M37.398 0H14.6035C12.3871 0 10.584 1.80324 10.584 4.01954V47.9804C10.584 50.1968 12.3872 51.9999 14.6035 51.9999H37.398C39.6144 51.9999 41.4175 50.1967 41.4175 47.9804V4.01954C41.4175 1.80324 39.6144 0 37.398 0ZM39.8912 47.9805C39.8912 49.3551 38.7728 50.4736 37.398 50.4736H14.6035C13.2288 50.4736 12.1104 49.3551 12.1104 47.9805V45.4873H39.8912V47.9805ZM39.8912 4.88455H35.8716C35.45 4.88455 35.1084 5.22631 35.1084 5.64779C35.1084 6.06927 35.45 6.41103 35.8716 6.41103H39.8912V43.9609H12.1104V6.41093H32.1574C32.579 6.41093 32.9206 6.06917 32.9206 5.64769C32.9206 5.2262 32.579 4.88445 32.1574 4.88445H12.1104V4.01944C12.1104 2.64479 13.2288 1.52628 14.6035 1.52628H37.398C38.7728 1.52628 39.8912 2.64479 39.8912 4.01944V4.88455Z" fill="#F20F38"/>
<path d="M27.629 47.2173H24.3726C23.951 47.2173 23.6094 47.559 23.6094 47.9805C23.6094 48.402 23.951 48.7438 24.3726 48.7438H27.629C28.0506 48.7438 28.3923 48.402 28.3923 47.9805C28.3923 47.559 28.0506 47.2173 27.629 47.2173Z" fill="#F20F38"/>
<path d="M26.1033 2.44226H26.0015C25.5799 2.44226 25.2383 2.78402 25.2383 3.2055C25.2383 3.62699 25.5799 3.96874 26.0015 3.96874H26.1033C26.5249 3.96874 26.8665 3.62699 26.8665 3.2055C26.8665 2.78402 26.5249 2.44226 26.1033 2.44226Z" fill="#F20F38"/>
<path d="M29.3572 2.44226H29.2554C28.8338 2.44226 28.4922 2.78402 28.4922 3.2055C28.4922 3.62699 28.8338 3.96874 29.2554 3.96874H29.3572C29.7788 3.96874 30.1204 3.62699 30.1204 3.2055C30.1204 2.78402 29.7788 2.44226 29.3572 2.44226Z" fill="#F20F38"/>
<path d="M22.8455 2.44226H22.7437C22.3221 2.44226 21.9805 2.78402 21.9805 3.2055C21.9805 3.62699 22.3221 3.96874 22.7437 3.96874H22.8455C23.2671 3.96874 23.6087 3.62699 23.6087 3.2055C23.6087 2.78402 23.2671 2.44226 22.8455 2.44226Z" fill="#F20F38"/>
<path d="M24.3725 14.6537H15.4175C14.996 14.6537 14.6543 14.9954 14.6543 15.4169V24.3719C14.6543 24.7934 14.996 25.1351 15.4175 25.1351H24.3725C24.7941 25.1351 25.1357 24.7934 25.1357 24.3719V15.4169C25.1356 14.9953 24.7941 14.6537 24.3725 14.6537ZM23.6093 23.6087H16.1807V16.1801H23.6093V23.6087Z" fill="#F20F38"/>
<path d="M21.9294 17.0959H17.8589C17.4374 17.0959 17.0957 17.4377 17.0957 17.8592V21.9296C17.0957 22.3511 17.4374 22.6929 17.8589 22.6929H21.9294C22.351 22.6929 22.6926 22.3511 22.6926 21.9296V17.8592C22.6925 17.4376 22.351 17.0959 21.9294 17.0959ZM21.1661 21.1664H18.6221V18.6223H21.1661V21.1664Z" fill="#F20F38"/>
<path d="M24.3725 26.865H15.4175C14.996 26.865 14.6543 27.2067 14.6543 27.6282V36.5832C14.6543 37.0047 14.996 37.3464 15.4175 37.3464H24.3725C24.7941 37.3464 25.1357 37.0047 25.1357 36.5832V27.6282C25.1356 27.2066 24.7941 26.865 24.3725 26.865ZM23.6093 35.82H16.1807V28.3914H23.6093V35.82Z" fill="#F20F38"/>
<path d="M21.9294 29.3073H17.8589C17.4374 29.3073 17.0957 29.649 17.0957 30.0705V34.1409C17.0957 34.5624 17.4374 34.9042 17.8589 34.9042H21.9294C22.351 34.9042 22.6926 34.5624 22.6926 34.1409V30.0705C22.6925 29.6489 22.351 29.3073 21.9294 29.3073ZM21.1661 33.3777H18.6221V30.8336H21.1661V33.3777Z" fill="#F20F38"/>
<path d="M36.5835 26.865H27.6285C27.2069 26.865 26.8652 27.2067 26.8652 27.6282V36.5832C26.8652 37.0047 27.2069 37.3464 27.6285 37.3464H36.5835C37.005 37.3464 37.3467 37.0047 37.3467 36.5832V27.6282C37.3466 27.2066 37.005 26.865 36.5835 26.865ZM35.8202 35.82H28.3916V28.3914H35.8202V35.82Z" fill="#F20F38"/>
<path d="M34.1403 29.3073H30.0699C29.6483 29.3073 29.3066 29.649 29.3066 30.0705V34.1409C29.3066 34.5624 29.6483 34.9042 30.0699 34.9042H34.1403C34.5619 34.9042 34.9035 34.5624 34.9035 34.1409V30.0705C34.9034 29.6489 34.5619 29.3073 34.1403 29.3073ZM33.3771 33.3777H30.833V30.8336H33.3771V33.3777Z" fill="#F20F38"/>
<path d="M36.5817 20.3522H35.7676H33.2744V18.6223H34.9534C35.375 18.6223 35.7167 18.2806 35.7167 17.8591V15.4168C35.7167 14.9953 35.375 14.6536 34.9534 14.6536C34.5319 14.6536 34.1902 14.9953 34.1902 15.4168V17.0958H32.5112C32.0896 17.0958 31.7479 17.4376 31.7479 17.8591V20.3522H30.832V17.8591C30.832 17.4376 30.4904 17.0958 30.0688 17.0958H27.6265C27.2049 17.0958 26.8633 17.4376 26.8633 17.8591C26.8633 18.2806 27.2049 18.6223 27.6265 18.6223H29.3056V21.1155C29.3056 21.537 29.6472 21.8787 30.0688 21.8787H35.0042V23.6086H31.6461V23.5578C31.6461 23.1363 31.3044 22.7945 30.8828 22.7945C30.4612 22.7945 30.1196 23.1363 30.1196 23.5578V24.3719C30.1196 24.7934 30.4612 25.1351 30.8828 25.1351H35.7674C36.189 25.1351 36.5306 24.7934 36.5306 24.3719V21.8787H36.5815C37.0031 21.8787 37.3447 21.537 37.3447 21.1155C37.3447 20.694 37.0033 20.3522 36.5817 20.3522Z" fill="#F20F38"/>
<path d="M28.4426 23.6086H27.6285C27.2069 23.6086 26.8652 23.9504 26.8652 24.3719C26.8652 24.7934 27.2069 25.1351 27.6285 25.1351H28.4426C28.8642 25.1351 29.2058 24.7934 29.2058 24.3719C29.2058 23.9504 28.8642 23.6086 28.4426 23.6086Z" fill="#F20F38"/>
<path d="M27.6285 20.3522C27.2069 20.3522 26.8652 20.6939 26.8652 21.1154V21.9295C26.8652 22.351 27.2069 22.6928 27.6285 22.6928C28.0501 22.6928 28.3917 22.351 28.3917 21.9295V21.1154C28.3917 20.6939 28.0501 20.3522 27.6285 20.3522Z" fill="#F20F38"/>
<path d="M28.4426 14.6537H27.6285C27.2069 14.6537 26.8652 14.9954 26.8652 15.4169C26.8652 15.8384 27.2069 16.1802 27.6285 16.1802H28.4426C28.8642 16.1802 29.2058 15.8384 29.2058 15.4169C29.2058 14.9953 28.8642 14.6537 28.4426 14.6537Z" fill="#F20F38"/>
<path d="M30.9861 14.6537H30.8843C30.4627 14.6537 30.1211 14.9954 30.1211 15.4169C30.1211 15.8384 30.4627 16.1802 30.8843 16.1802H30.9861C31.4077 16.1802 31.7493 15.8384 31.7493 15.4169C31.7493 14.9953 31.4077 14.6537 30.9861 14.6537Z" fill="#F20F38"/>
</svg>
