<svg width="50" height="50" viewBox="0 0 50 50" fill="none" xmlns="http://www.w3.org/2000/svg">
<g clip-path="url(#clip0)">
<path d="M48.7117 5.42989L44.569 1.28675C42.8558 -0.426432 40.0676 -0.426432 38.3544 1.28675C36.8782 2.76304 26.5766 13.0646 25 14.6412L15.9336 5.57485C15.7901 5.43104 15.6192 5.32041 15.4216 5.24259L1.9897 0.0965632C1.4503 -0.110193 0.838804 0.0198876 0.43025 0.428823C0.0213146 0.837759 -0.108767 1.44887 0.09799 1.98865L5.24402 15.4206C5.24516 15.4233 5.24631 15.4259 5.24745 15.4286C5.31535 15.6025 5.42407 15.7803 5.5759 15.9325L14.6423 24.9989C12.7117 26.9295 2.77438 36.8668 1.28818 38.353C-0.429201 40.0704 -0.429583 42.8502 1.28818 44.5675L5.43094 48.7107C7.14412 50.4239 9.93228 50.4242 11.6458 48.7107L25 35.3566L38.3544 48.7107C40.0676 50.4239 42.8558 50.4242 44.569 48.7107L48.7121 44.5679C50.4295 42.8502 50.4299 40.0708 48.7121 38.353L35.3576 24.9989L48.7121 11.6444C50.4295 9.92704 50.4295 7.14765 48.7117 5.42989ZM4.00844 4.00739L12.2661 7.17092L7.17196 12.2647L4.00844 4.00739ZM9.57408 46.6393C9.00302 47.2104 8.07376 47.2104 7.5027 46.6393L3.35956 42.4962C2.78697 41.9236 2.78697 40.9974 3.35956 40.4248L4.2232 39.5611L7.33027 42.6686C7.9021 43.2404 8.82983 43.2404 9.40166 42.6686C9.97386 42.0964 9.97386 41.169 9.40166 40.5968L6.29458 37.4897L8.36596 35.418L9.40204 36.4541C9.97386 37.0259 10.9012 37.0259 11.4734 36.4541C12.0456 35.8819 12.0456 34.9545 11.4734 34.3823L10.4377 33.3466L12.5091 31.2752L15.6166 34.3827C16.1884 34.9545 17.1157 34.9545 17.6879 34.3827C18.2601 33.8105 18.2601 32.8831 17.6879 32.3109L14.5805 29.2038L16.7137 27.0703L22.9286 33.2852L9.57408 46.6393ZM8.68335 14.8964L10.7547 12.8251L38.3216 40.3916L36.2503 42.4634L8.68335 14.8964ZM46.6404 40.4248C47.2129 40.9974 47.2129 41.9236 46.6404 42.4962L42.4976 46.6393C41.9265 47.2104 40.9973 47.2104 40.4258 46.6393L38.3216 44.5347C38.8832 43.9732 43.8964 38.9599 44.5362 38.3202L46.6404 40.4248ZM42.4648 36.2488L40.393 38.3202L12.8265 10.7537L14.8979 8.68192L42.4648 36.2488ZM46.6404 9.57303L33.2862 22.9271L27.0717 16.7126L29.0813 14.7027L32.1888 17.8101C32.7606 18.3823 33.6883 18.3823 34.2601 17.8101C34.8323 17.2379 34.8323 16.3106 34.2601 15.7387L31.1531 12.6313L33.2244 10.5599L34.2601 11.5956C34.8323 12.1674 35.7597 12.1674 36.3319 11.5956C36.9037 11.0234 36.9037 10.096 36.3319 9.52382L35.2962 8.48813L37.3676 6.41675L40.4747 9.52382C41.0469 10.096 41.9742 10.096 42.5464 9.52382C43.1182 8.952 43.1182 8.02465 42.5464 7.45244L39.439 4.34537L40.4258 3.35813C40.9973 2.78707 41.9265 2.78707 42.4976 3.35813L46.6407 7.50127C47.2129 8.07386 47.2129 9.00045 46.6404 9.57303Z" fill="#F20F38"/>
</g>
<defs>
<clipPath id="clip0">
<rect width="50.0002" height="50" fill="white"/>
</clipPath>
</defs>
</svg>
