<svg width="67" height="50" viewBox="0 0 67 50" fill="none" xmlns="http://www.w3.org/2000/svg">
<path d="M40.3053 18.6887H24.6022C23.8652 18.6887 23.2287 18.1793 23.0695 17.4634L20.9758 8.06997C20.8732 7.60447 20.9842 7.12019 21.2836 6.74863C21.5809 6.38124 22.031 6.16415 22.5084 6.16415H41.7646L43.5045 0L46.5279 0.847493L41.817 17.5469C41.6265 18.2211 41.0088 18.6887 40.3053 18.6887ZM25.8626 15.5575H39.116L40.8832 9.29528H24.4682L25.8626 15.5575Z" fill="#F20F38"/>
<path d="M29.3125 24.9512C30.4688 24.9512 31.4062 24.0166 31.4062 22.8638C31.4062 21.7109 30.4688 20.7764 29.3125 20.7764C28.1562 20.7764 27.2188 21.7109 27.2188 22.8638C27.2188 24.0166 28.1562 24.9512 29.3125 24.9512Z" fill="#F20F38"/>
<path d="M37.6875 24.9512C38.8438 24.9512 39.7812 24.0166 39.7812 22.8638C39.7812 21.7109 38.8438 20.7764 37.6875 20.7764C36.5312 20.7764 35.5938 21.7109 35.5938 22.8638C35.5938 24.0166 36.5312 24.9512 37.6875 24.9512Z" fill="#F20F38"/>
<path d="M54.9609 43.7376H12.0391C10.0186 43.7376 8.375 42.099 8.375 40.0846V11.9045C8.375 9.89009 10.0186 8.25146 12.0391 8.25146H16.75V11.3826H12.0391C11.7501 11.3826 11.5156 11.6164 11.5156 11.9045V40.0846C11.5156 40.3727 11.7501 40.6065 12.0391 40.6065H54.9609C55.2499 40.6065 55.4844 40.3727 55.4844 40.0846V11.9045C55.4844 11.6164 55.2499 11.3826 54.9609 11.3826H48.1562V8.25146H54.9609C56.9814 8.25146 58.625 9.89009 58.625 11.9045V40.0846C58.625 42.099 56.9814 43.7376 54.9609 43.7376Z" fill="#F20F38"/>
<path d="M9.94531 33.3008H57.0547V36.4319H9.94531V33.3008Z" fill="#F20F38"/>
<path d="M40.3048 50.0001H26.6955C26.0611 50.0001 25.4874 49.6181 25.2445 49.0337C25.0016 48.4492 25.1356 47.7749 25.5858 47.3282C27.7654 45.1552 28.2344 41.999 28.2386 41.9698L31.352 42.3769C31.3352 42.5 31.0442 44.6021 29.7942 46.869H37.1705C35.9331 44.6146 35.6253 42.5105 35.6086 42.3873L38.7178 41.9531C38.722 41.9844 39.1805 44.9966 41.1968 47.1466C41.6072 47.4305 41.8752 47.9002 41.8752 48.4346C41.8752 49.2988 41.1717 50.0001 40.3048 50.0001Z" fill="#F20F38"/>
<path d="M0 46.8687H67V49.9998H0V46.8687Z" fill="#F20F38"/>
</svg>
