<svg width="56" height="56" viewBox="0 0 56 56" fill="none" xmlns="http://www.w3.org/2000/svg">
<path d="M44.016 20.5726C44.5427 20.5701 45.0528 20.3888 45.4629 20.0583C45.8729 19.7279 46.1584 19.2679 46.2727 18.7538C46.322 18.5318 46.4453 18.3333 46.6223 18.1906C46.7993 18.048 47.0195 17.9697 47.2469 17.9687H50.125C50.2813 18.4508 50.6045 18.8613 51.0365 19.1263C51.4685 19.3913 51.9809 19.4934 52.4814 19.4143C52.982 19.3352 53.438 19.08 53.7672 18.6947C54.0964 18.3094 54.2773 17.8192 54.2773 17.3124C54.2773 16.8056 54.0964 16.3155 53.7672 15.9301C53.438 15.5448 52.982 15.2896 52.4814 15.2105C51.9809 15.1314 51.4685 15.2335 51.0365 15.4986C50.6045 15.7636 50.2813 16.1741 50.125 16.6562H47.2469C46.7202 16.6586 46.21 16.8399 45.8 17.1704C45.3899 17.5008 45.1044 17.9609 44.9901 18.475C44.9408 18.6969 44.8176 18.8955 44.6406 19.0381C44.4636 19.1808 44.2434 19.259 44.016 19.2601H41.7832V8.85938C41.7816 7.52548 41.2511 6.24665 40.3078 5.30344C39.3646 4.36023 38.0858 3.82966 36.7519 3.82812H19.2519C17.918 3.82966 16.6392 4.36023 15.696 5.30344C14.7528 6.24665 14.2222 7.52548 14.2207 8.85938V19.2601H11.9878C11.7604 19.259 11.5402 19.1808 11.3632 19.0381C11.1862 18.8955 11.063 18.6969 11.0137 18.475C10.8994 17.9609 10.6139 17.5008 10.2038 17.1704C9.79378 16.8399 9.28358 16.6586 8.75694 16.6562H5.87885C5.72255 16.1741 5.39933 15.7636 4.96734 15.4986C4.53535 15.2335 4.02296 15.1314 3.52236 15.2105C3.02177 15.2896 2.56585 15.5448 2.23665 15.9301C1.90744 16.3155 1.72656 16.8056 1.72656 17.3124C1.72656 17.8192 1.90744 18.3094 2.23665 18.6947C2.56585 19.08 3.02177 19.3352 3.52236 19.4143C4.02296 19.4934 4.53535 19.3913 4.96734 19.1263C5.39933 18.8613 5.72255 18.4508 5.87885 17.9687H8.75694C8.98428 17.9697 9.20451 18.048 9.38153 18.1906C9.55854 18.3333 9.68182 18.5318 9.73114 18.7538C9.84537 19.2679 10.1309 19.7279 10.5409 20.0583C10.951 20.3888 11.4611 20.5701 11.9878 20.5726H14.2207V25.1269H13.9952C13.6888 25.1275 13.3891 25.037 13.1341 24.8669C12.8792 24.6969 12.6805 24.455 12.5632 24.1719C12.3465 23.6494 11.9796 23.2031 11.5089 22.8894C11.0383 22.5757 10.4851 22.4088 9.91949 22.4098H9.38847C9.23218 21.9277 8.90895 21.5172 8.47696 21.2522C8.04497 20.9872 7.53258 20.8851 7.03199 20.9642C6.5314 21.0433 6.07548 21.2985 5.74627 21.6838C5.41707 22.0691 5.23619 22.5593 5.23619 23.0661C5.23619 23.5729 5.41707 24.0631 5.74627 24.4484C6.07548 24.8337 6.5314 25.0889 7.03199 25.168C7.53258 25.2471 8.04497 25.145 8.47696 24.88C8.90895 24.6149 9.23218 24.2044 9.38847 23.7223H9.91949C10.2259 23.7218 10.5256 23.8122 10.7806 23.9822C11.0355 24.1522 11.2343 24.394 11.3516 24.6771C11.5682 25.1996 11.9351 25.646 12.4058 25.9598C12.8764 26.2735 13.4296 26.4405 13.9952 26.4394H14.2207V28.2147L11.5453 28.202C11.0038 28.2016 10.4723 28.3478 10.0072 28.6251C9.54205 28.9024 9.16066 29.3005 8.9035 29.777C8.75875 30.0454 8.54403 30.2696 8.28213 30.4257C8.02023 30.5819 7.72092 30.6642 7.416 30.6639H6.37092C6.2072 30.1851 5.878 29.7805 5.44254 29.5228C5.00708 29.265 4.49395 29.1711 3.99545 29.258C3.49694 29.3449 3.04579 29.6067 2.72315 29.9965C2.40051 30.3864 2.22755 30.8785 2.23539 31.3844C2.24324 31.8904 2.43136 32.3769 2.76593 32.7566C3.1005 33.1362 3.55955 33.384 4.0605 33.4553C4.56146 33.5267 5.07144 33.4169 5.4987 33.1458C5.92596 32.8747 6.24246 32.4601 6.39127 31.9764H7.41633C7.9579 31.9768 8.48946 31.8305 8.95459 31.5531C9.41972 31.2757 9.80107 30.8775 10.0582 30.4009C10.2026 30.133 10.4167 29.9091 10.678 29.753C10.9392 29.5969 11.2378 29.5143 11.5422 29.5141L14.2207 29.5269V34.1817H13.9635C13.2435 34.1846 12.5435 34.419 11.9669 34.8504C11.3903 35.2817 10.9678 35.887 10.7617 36.577C10.6367 36.9956 10.3803 37.3629 10.0305 37.6247C9.68069 37.8864 9.25596 38.0287 8.81906 38.0305H7.70442C7.54813 37.5484 7.22491 37.1379 6.79292 36.8728C6.36093 36.6078 5.84853 36.5057 5.34794 36.5848C4.84735 36.6639 4.39143 36.9191 4.06223 37.3044C3.73302 37.6897 3.55214 38.1799 3.55214 38.6867C3.55214 39.1935 3.73302 39.6837 4.06223 40.069C4.39143 40.4543 4.84735 40.7095 5.34794 40.7886C5.84853 40.8677 6.36093 40.7656 6.79292 40.5006C7.22491 40.2355 7.54813 39.8251 7.70442 39.343H8.81906C9.53911 39.34 10.2391 39.1056 10.8157 38.6742C11.3923 38.2429 11.8148 37.6376 12.0209 36.9476C12.1459 36.529 12.4022 36.1617 12.7521 35.8999C13.1019 35.6381 13.5266 35.4959 13.9635 35.494H14.2207V47.1406C14.2222 48.4745 14.7528 49.7533 15.696 50.6966C16.6392 51.6398 17.918 52.1703 19.2519 52.1719H36.7519C38.0858 52.1703 39.3646 51.6398 40.3078 50.6966C41.2511 49.7533 41.7816 48.4745 41.7832 47.1406V35.4946H42.0403C42.4772 35.4964 42.9019 35.6387 43.2518 35.9004C43.6016 36.1622 43.8579 36.5295 43.9829 36.9482C44.189 37.6381 44.6116 38.2435 45.1881 38.6748C45.7647 39.1061 46.4647 39.3406 47.1847 39.3435H48.2994C48.4557 39.8256 48.7789 40.2361 49.2109 40.5011C49.6429 40.7661 50.1553 40.8683 50.6559 40.7892C51.1565 40.71 51.6124 40.4549 51.9416 40.0695C52.2708 39.6842 52.4517 39.1941 52.4517 38.6873C52.4517 38.1804 52.2708 37.6903 51.9416 37.305C51.6124 36.9196 51.1565 36.6645 50.6559 36.5853C50.1553 36.5062 49.6429 36.6084 49.2109 36.8734C48.7789 37.1384 48.4557 37.5489 48.2994 38.031H47.1847C46.7479 38.0292 46.3231 37.8869 45.9733 37.6252C45.6235 37.3635 45.3671 36.9962 45.2421 36.5775C45.036 35.8876 44.6135 35.2823 44.0369 34.8509C43.4604 34.4196 42.7603 34.1851 42.0403 34.1822H41.7832V29.5273L44.4585 29.5145C44.7634 29.5143 45.0627 29.5966 45.3246 29.7527C45.5865 29.9088 45.8012 30.133 45.946 30.4013C46.2031 30.878 46.5844 31.2761 47.0496 31.5535C47.5147 31.8309 48.0462 31.9772 48.5878 31.9769H49.6129C49.7617 32.4622 50.0789 32.8785 50.5073 33.1507C50.9358 33.423 51.4474 33.5334 51.95 33.4621C52.4526 33.3907 52.9132 33.1423 53.2489 32.7615C53.5847 32.3808 53.7734 31.8927 53.7813 31.3851C53.7892 30.8775 53.6156 30.3838 53.2918 29.9928C52.9681 29.6018 52.5154 29.3392 52.0152 29.2523C51.5151 29.1654 51.0003 29.2599 50.5636 29.5188C50.127 29.7777 49.797 30.1839 49.6332 30.6644H48.5878C48.2829 30.6646 47.9836 30.5823 47.7217 30.4262C47.4598 30.27 47.2451 30.0458 47.1003 29.7775C46.8428 29.3005 46.4609 28.9022 45.9952 28.6249C45.5295 28.3476 44.9973 28.2016 44.4553 28.2025L41.7832 28.2147V26.4394H42.0086C42.5742 26.4405 43.1274 26.2735 43.598 25.9598C44.0687 25.646 44.4356 25.1996 44.6522 24.6771C44.7695 24.394 44.9683 24.1522 45.2232 23.9822C45.4782 23.8122 45.7779 23.7218 46.0843 23.7223H46.6153C46.7716 24.2044 47.0949 24.6149 47.5268 24.88C47.9588 25.145 48.4712 25.2471 48.9718 25.168C49.4724 25.0889 49.9283 24.8337 50.2575 24.4484C50.5868 24.0631 50.7676 23.5729 50.7676 23.0661C50.7676 22.5593 50.5868 22.0691 50.2575 21.6838C49.9283 21.2985 49.4724 21.0433 48.9718 20.9642C48.4712 20.8851 47.9588 20.9872 47.5268 21.2522C47.0949 21.5172 46.7716 21.9277 46.6153 22.4098H46.0843C45.5187 22.4088 44.9655 22.5757 44.4949 22.8894C44.0242 23.2031 43.6573 23.6494 43.4406 24.1719C43.3233 24.4549 43.1245 24.6967 42.8696 24.8667C42.6146 25.0366 42.315 25.1271 42.0086 25.1265H41.7832V20.5721L44.016 20.5726ZM52.1483 16.4969C52.3096 16.4969 52.4673 16.5447 52.6014 16.6344C52.7355 16.724 52.84 16.8513 52.9017 17.0003C52.9634 17.1494 52.9796 17.3133 52.9481 17.4715C52.9167 17.6297 52.839 17.775 52.7249 17.8891C52.6109 18.0031 52.4656 18.0808 52.3074 18.1123C52.1492 18.1437 51.9852 18.1276 51.8362 18.0658C51.6872 18.0041 51.5598 17.8996 51.4702 17.7655C51.3806 17.6314 51.3328 17.4737 51.3328 17.3124C51.333 17.0962 51.419 16.8889 51.5719 16.736C51.7248 16.5831 51.9321 16.4972 52.1483 16.4969ZM3.85552 18.1279C3.69423 18.1279 3.53656 18.0801 3.40245 17.9905C3.26834 17.9009 3.16382 17.7735 3.10209 17.6245C3.04037 17.4755 3.02422 17.3115 3.05569 17.1533C3.08715 16.9951 3.16482 16.8498 3.27887 16.7358C3.39292 16.6217 3.53823 16.5441 3.69642 16.5126C3.85461 16.4811 4.01858 16.4973 4.1676 16.559C4.31661 16.6207 4.44397 16.7252 4.53358 16.8594C4.62319 16.9935 4.67102 17.1511 4.67102 17.3124C4.67076 17.5286 4.58475 17.7359 4.43187 17.8888C4.279 18.0417 4.07172 18.1277 3.85552 18.1279ZM7.36514 23.881C7.20385 23.881 7.04618 23.8332 6.91207 23.7436C6.77797 23.654 6.67344 23.5266 6.61172 23.3776C6.54999 23.2286 6.53385 23.0646 6.56531 22.9065C6.59678 22.7483 6.67445 22.603 6.7885 22.4889C6.90255 22.3749 7.04785 22.2972 7.20605 22.2657C7.36424 22.2343 7.52821 22.2504 7.67722 22.3121C7.82623 22.3738 7.9536 22.4784 8.04321 22.6125C8.13281 22.7466 8.18064 22.9043 8.18064 23.0655C8.18053 23.2818 8.09459 23.4893 7.94169 23.6423C7.7888 23.7953 7.58144 23.8813 7.36514 23.8816V23.881ZM4.35799 32.1645C4.19666 32.1645 4.03896 32.1167 3.90482 32.027C3.77067 31.9374 3.66612 31.8101 3.60437 31.661C3.54263 31.512 3.52647 31.348 3.55793 31.1898C3.5894 31.0315 3.66708 30.8862 3.78115 30.7721C3.89523 30.658 4.04056 30.5804 4.19879 30.5489C4.35701 30.5174 4.52101 30.5336 4.67005 30.5953C4.81908 30.6571 4.94646 30.7616 5.03608 30.8958C5.12569 31.0299 5.17351 31.1876 5.17349 31.349C5.17325 31.5652 5.08726 31.7725 4.93438 31.9253C4.78149 32.0782 4.5742 32.1642 4.35799 32.1645ZM5.68142 39.5035C5.52013 39.5035 5.36246 39.4557 5.22836 39.3661C5.09425 39.2765 4.98972 39.1491 4.928 39.0001C4.86628 38.8511 4.85013 38.6871 4.88159 38.5289C4.91306 38.3707 4.99073 38.2254 5.10478 38.1114C5.21883 37.9973 5.36414 37.9197 5.52233 37.8882C5.68052 37.8567 5.84449 37.8729 5.9935 37.9346C6.14251 37.9963 6.26988 38.1008 6.35949 38.2349C6.4491 38.3691 6.49692 38.5267 6.49692 38.688C6.49658 38.9042 6.41049 39.1114 6.25754 39.2642C6.1046 39.417 5.89729 39.5029 5.6811 39.5031L5.68142 39.5035ZM50.323 37.8725C50.4843 37.8725 50.642 37.9203 50.7761 38.01C50.9102 38.0996 51.0147 38.2269 51.0765 38.3759C51.1382 38.525 51.1543 38.6889 51.1229 38.8471C51.0914 39.0053 51.0137 39.1506 50.8997 39.2647C50.7856 39.3787 50.6403 39.4564 50.4821 39.4878C50.324 39.5193 50.16 39.5032 50.011 39.4414C49.862 39.3797 49.7346 39.2752 49.645 39.1411C49.5554 39.007 49.5075 38.8493 49.5075 38.688C49.5077 38.4718 49.5936 38.2645 49.7464 38.1115C49.8992 37.9585 50.1065 37.8724 50.3227 37.8721L50.323 37.8725ZM51.6465 30.5335C51.8078 30.5334 51.9655 30.5812 52.0996 30.6709C52.2338 30.7605 52.3383 30.8878 52.4001 31.0369C52.4618 31.1859 52.478 31.3499 52.4465 31.5081C52.4151 31.6663 52.3374 31.8117 52.2234 31.9257C52.1093 32.0398 51.964 32.1175 51.8058 32.149C51.6475 32.1805 51.4835 32.1643 51.3345 32.1026C51.1855 32.0409 51.0581 31.9363 50.9684 31.8022C50.8788 31.6681 50.831 31.5104 50.831 31.3491C50.8312 31.1329 50.917 30.9257 51.0698 30.7728C51.2225 30.6199 51.4297 30.5337 51.6458 30.5333L51.6465 30.5335ZM48.6393 22.2507C48.8006 22.2507 48.9583 22.2985 49.0924 22.3881C49.2265 22.4777 49.331 22.6051 49.3928 22.7541C49.4545 22.9031 49.4706 23.0671 49.4392 23.2253C49.4077 23.3835 49.33 23.5288 49.216 23.6428C49.1019 23.7569 48.9566 23.8346 48.7984 23.866C48.6402 23.8975 48.4763 23.8814 48.3273 23.8196C48.1782 23.7579 48.0509 23.6534 47.9613 23.5193C47.8717 23.3852 47.8238 23.2275 47.8238 23.0662C47.8241 22.8501 47.91 22.6429 48.0627 22.49C48.2154 22.3371 48.4226 22.251 48.6387 22.2506L48.6393 22.2507ZM19.2519 5.14062H36.7519C37.7378 5.14173 38.6831 5.53387 39.3802 6.23104C40.0774 6.9282 40.4696 7.87344 40.4707 8.85938V10.3906H38.9394C38.7654 10.3906 38.5984 10.4598 38.4754 10.5828C38.3523 10.7059 38.2832 10.8728 38.2832 11.0469C38.2832 11.2209 38.3523 11.3878 38.4754 11.5109C38.5984 11.634 38.7654 11.7031 38.9394 11.7031H40.4707V42.9844H15.5332V11.7031H33.3613C33.5353 11.7031 33.7022 11.634 33.8253 11.5109C33.9484 11.3878 34.0175 11.2209 34.0175 11.0469C34.0175 10.8728 33.9484 10.7059 33.8253 10.5828C33.7022 10.4598 33.5353 10.3906 33.3613 10.3906H15.5332V8.85938C15.5343 7.87344 15.9264 6.9282 16.6236 6.23104C17.3207 5.53387 18.266 5.14173 19.2519 5.14062ZM36.7519 50.8594H19.2519C18.266 50.8583 17.3207 50.4661 16.6236 49.769C15.9264 49.0718 15.5343 48.1266 15.5332 47.1406V44.2969H40.4707V47.1406C40.4696 48.1266 40.0774 49.0718 39.3802 49.769C38.6831 50.4661 37.7378 50.8583 36.7519 50.8594Z" fill="#F20F38"/>
<path d="M35.5156 11.7031H36.7314C36.9055 11.7031 37.0724 11.634 37.1955 11.5109C37.3185 11.3878 37.3877 11.2209 37.3877 11.0469C37.3877 10.8728 37.3185 10.7059 37.1955 10.5828C37.0724 10.4598 36.9055 10.3906 36.7314 10.3906H35.5156C35.3416 10.3906 35.1747 10.4598 35.0516 10.5828C34.9285 10.7059 34.8594 10.8728 34.8594 11.0469C34.8594 11.2209 34.9285 11.3878 35.0516 11.5109C35.1747 11.634 35.3416 11.7031 35.5156 11.7031Z" fill="#F20F38"/>
<path d="M28 45.2813C27.5457 45.2812 27.1016 45.416 26.7239 45.6683C26.3462 45.9207 26.0518 46.2795 25.878 46.6992C25.7041 47.1189 25.6586 47.5807 25.7473 48.0262C25.8359 48.4718 26.0546 48.881 26.3759 49.2023C26.6971 49.5235 27.1064 49.7423 27.5519 49.8309C27.9975 49.9195 28.4593 49.874 28.879 49.7002C29.2987 49.5263 29.6574 49.2319 29.9098 48.8542C30.1622 48.4765 30.2969 48.0324 30.2969 47.5781C30.2962 46.9692 30.054 46.3853 29.6234 45.9547C29.1928 45.5241 28.609 45.2819 28 45.2813ZM28 48.5625C27.8053 48.5625 27.615 48.5048 27.4531 48.3966C27.2912 48.2884 27.1651 48.1347 27.0906 47.9548C27.0161 47.775 26.9966 47.577 27.0345 47.3861C27.0725 47.1951 27.1663 47.0197 27.3039 46.8821C27.4416 46.7444 27.617 46.6507 27.808 46.6127C27.9989 46.5747 28.1968 46.5942 28.3767 46.6687C28.5566 46.7432 28.7103 46.8694 28.8185 47.0312C28.9267 47.1931 28.9844 47.3834 28.9844 47.5781C28.9841 47.8391 28.8803 48.0893 28.6957 48.2738C28.5112 48.4584 28.261 48.5622 28 48.5625Z" fill="#F20F38"/>
</svg>
