<svg width="56" height="56" viewBox="0 0 56 56" fill="none" xmlns="http://www.w3.org/2000/svg">
<path d="M50.2908 31.9874C49.8853 31.1645 49.178 30.5296 48.3163 30.215C48.4627 29.4514 48.6081 28.4212 48.588 27.7431C48.5245 25.6028 46.6108 23.6691 43.1991 22.2978C42.0189 21.8328 40.8036 21.4624 39.5646 21.1903C40.2646 21.0407 40.9266 20.8695 41.5396 20.6769C44.3964 19.78 45.9064 18.5222 45.9064 17.0414C45.9064 15.5606 44.3964 14.3032 41.5396 13.4058C39.9542 12.9294 38.328 12.6013 36.6819 12.4258C36.7445 12.3988 36.8082 12.3724 36.8695 12.3446C38.945 11.4023 40.088 10.0769 40.088 8.61241C40.088 7.14787 38.945 5.82247 36.8696 4.88031C34.9864 4.025 32.4997 3.55469 29.8672 3.55469C27.2348 3.55469 24.7485 4.025 22.8649 4.88031C20.7893 5.82247 19.6464 7.14787 19.6464 8.61241C19.6464 10.0769 20.7893 11.4023 22.8649 12.3446C23.3702 12.5716 23.89 12.7649 24.4208 12.9232C23.7725 13.0654 23.157 13.2261 22.5848 13.4058C19.7281 14.3026 18.218 15.5605 18.218 17.0414C18.218 18.5223 19.7281 19.7795 22.5848 20.6769C23.0276 20.816 23.4967 20.9435 23.9861 21.0604C22.1822 21.3856 20.4107 21.8702 18.6924 22.5086C14.8643 23.9703 12.7558 25.9458 12.7557 28.0716C12.7557 31.1292 14.455 33.2428 17.8066 34.3535C18.2686 34.5066 18.7569 34.6372 19.2627 34.7524C16.3185 35.3603 13.6292 36.2508 11.3888 37.3774C7.42107 39.3728 5.32293 41.889 5.48098 44.4624C5.63891 47.0327 8.01946 49.253 12.1841 50.717C15.4075 51.8498 19.4348 52.4451 23.7499 52.4451C24.7233 52.4451 25.7102 52.4148 26.7064 52.3535L26.7603 52.3503C34.7922 51.8569 41.7286 51.4306 44.9087 47.7618C46.2649 46.1965 46.8353 44.1909 46.653 41.6368C46.6934 41.4543 46.7114 41.2676 46.7066 41.0808C47.4326 41.163 48.1663 41.0182 48.8066 40.6663C49.447 40.3144 49.9625 39.7727 50.2824 39.1158C50.4877 38.6931 50.5607 38.2183 50.4918 37.7535C50.4229 37.2886 50.2153 36.8554 49.8962 36.5105C49.5728 36.1605 49.3947 35.8168 49.3947 35.543C49.3947 35.2915 49.5861 34.9369 49.9197 34.5708C50.2314 34.2259 50.4332 33.7959 50.4993 33.3357C50.5654 32.8755 50.4928 32.4061 50.2908 31.9874ZM21.1776 8.61241C21.1776 6.94444 24.7463 5.08594 29.8672 5.08594C34.9882 5.08594 38.5567 6.94444 38.5567 8.61241C38.5567 10.2804 34.9881 12.1389 29.8672 12.1389C24.7464 12.1389 21.1776 10.2804 21.1776 8.61241ZM19.7493 17.0414C19.7493 15.6784 24.5459 13.6986 32.0622 13.6986C39.5784 13.6986 44.3752 15.6783 44.3752 17.0414C44.3752 18.3572 39.9047 20.2476 32.8327 20.3773C32.3068 20.362 31.7764 20.3567 31.2415 20.3614C31.1122 20.3625 30.9828 20.3644 30.8535 20.3669C24.0358 20.1688 19.7493 18.3297 19.7493 17.0414ZM18.2879 32.9C15.5581 31.9952 14.2868 30.4609 14.2868 28.0716C14.2868 26.6677 16.1379 25.1229 19.2384 23.9392C22.4394 22.7172 26.6527 21.9786 30.8555 21.8977C31.2548 21.9091 31.657 21.915 32.0622 21.9155C32.3186 21.9155 32.5737 21.9125 32.8278 21.908C41.3085 22.1561 46.9757 25.0376 47.0575 27.7882C47.0732 28.3187 46.9384 29.2906 46.7989 30.0009C46.772 30.003 46.7451 30.0055 46.7182 30.0081C46.7264 29.7037 46.6741 29.4006 46.5645 29.1164C46.4549 28.8323 46.29 28.5727 46.0794 28.3526C46.0555 28.3274 46.031 28.3024 46.0045 28.2761C45.9781 28.2497 45.9533 28.2267 45.9272 28.2028C45.501 27.8074 44.9382 27.5925 44.357 27.6031C44.4196 26.8831 44.2639 26.1609 43.91 25.5308C43.5562 24.9006 43.0207 24.3916 42.3734 24.0703C41.9547 23.8683 41.4853 23.7957 41.0251 23.8618C40.565 23.9279 40.135 24.1297 39.7901 24.4414C39.424 24.7752 39.0697 24.9664 38.8178 24.9664C38.5444 24.9664 38.2006 24.7882 37.8503 24.4649C37.5053 24.1457 37.0721 23.938 36.6072 23.8691C36.1422 23.8002 35.6674 23.8733 35.2446 24.0787C34.5969 24.3962 34.0613 24.9035 33.7092 25.5331C33.3571 26.1626 33.2052 26.8846 33.2737 27.6026C32.6807 27.5922 32.1078 27.817 31.6802 28.228C31.6535 28.2531 31.6273 28.2789 31.6037 28.303C31.578 28.3291 31.5529 28.3556 31.5293 28.3816C31.1215 28.8235 30.9022 29.4071 30.9182 30.0082C30.1921 29.9366 29.4613 30.0876 28.823 30.4412C28.1847 30.7948 27.6692 31.3343 27.3448 31.9879C27.1975 32.2932 27.1184 32.6268 27.113 32.9657C27.1075 33.3045 27.176 33.6405 27.3134 33.9503C24.1216 33.9092 20.7339 33.7106 18.2879 32.9ZM41.9884 41.6417L42.1659 41.9972C42.1971 42.0661 42.2301 42.1339 42.2666 42.1992L42.7142 43.0951C42.8882 43.5698 42.881 44.092 42.694 44.5618C42.507 45.0316 42.1534 45.4159 41.7007 45.6412C41.5582 45.7097 41.3985 45.7342 41.242 45.7115C41.0855 45.6889 40.9394 45.6201 40.8221 45.514C40.1491 44.9002 39.4749 44.5889 38.8183 44.5889C38.1488 44.5889 37.4549 44.9028 36.8119 45.4967C36.6954 45.6064 36.5485 45.6783 36.3904 45.7032C36.2324 45.7281 36.0705 45.7048 35.9259 45.6363C35.4722 45.4137 35.1179 45.0299 34.9323 44.5599C34.7467 44.0898 34.7432 43.5674 34.9224 43.095L37.1404 38.6531C37.4343 38.8122 37.7494 38.9284 38.0761 38.9983L38.0817 40.1377C38.0827 40.3401 38.1638 40.5339 38.3072 40.6767C38.4507 40.8195 38.6449 40.8997 38.8474 40.8997H38.8512C38.9517 40.8992 39.0512 40.8789 39.1439 40.84C39.2366 40.801 39.3208 40.7442 39.3915 40.6728C39.4623 40.6013 39.5182 40.5166 39.5563 40.4235C39.5943 40.3305 39.6136 40.2308 39.6131 40.1302L39.6075 38.9873C39.9171 38.9165 40.2156 38.8042 40.495 38.6532L41.7965 41.2596L41.7926 41.2617L41.9884 41.6417ZM28.8479 33.5392C28.7417 33.422 28.6729 33.2758 28.6502 33.1193C28.6276 32.9628 28.6521 32.8031 28.7206 32.6606C28.946 32.208 29.3302 31.8543 29.8 31.6673C30.2697 31.4803 30.792 31.4731 31.2667 31.6471L35.7085 33.8657C35.5503 34.1582 35.4345 34.4716 35.3644 34.7967L34.2207 34.8071C34.0176 34.808 33.8232 34.8895 33.6803 35.0337C33.5373 35.1779 33.4575 35.373 33.4584 35.5761C33.4593 35.7791 33.5409 35.9735 33.6851 36.1165C33.8293 36.2594 34.0244 36.3392 34.2275 36.3383H34.2337L35.3725 36.3274C35.4431 36.6388 35.5559 36.9391 35.7077 37.22L31.2659 39.4384C30.7935 39.6177 30.2711 39.6143 29.8011 39.4287C29.3311 39.2431 28.9472 38.8888 28.7247 38.4351C28.6561 38.2906 28.6328 38.1287 28.6576 37.9706C28.6825 37.8126 28.7545 37.6657 28.8641 37.5492C29.4581 36.9062 29.772 36.2123 29.772 35.5428C29.7723 34.8863 29.461 34.2125 28.8473 33.5392H28.8479ZM33.1198 30.8438C33.1009 30.834 33.0815 30.8251 33.0619 30.8171C32.9156 30.7593 32.7853 30.6671 32.6822 30.5484C32.579 30.4297 32.5059 30.2878 32.4691 30.1349C32.4392 30.0079 32.4412 29.8755 32.4749 29.7494C32.5086 29.6234 32.5729 29.5076 32.6622 29.4125C32.6726 29.401 32.6832 29.3896 32.6965 29.376C32.7075 29.3651 32.7184 29.3542 32.7307 29.3427C32.8151 29.2577 32.9198 29.1955 33.0349 29.1618C33.1499 29.1282 33.2716 29.1243 33.3886 29.1505C33.5437 29.1879 33.6875 29.2622 33.8076 29.3672C33.9278 29.4722 34.0207 29.6048 34.0785 29.7535C34.0876 29.7754 34.0979 29.7973 34.1089 29.818L34.3228 30.22L35.1499 31.8758L33.8119 31.2075L33.816 31.1998L33.1198 30.8438ZM32.4574 40.95C32.4942 40.7971 32.5673 40.6552 32.6704 40.5365C32.7736 40.4177 32.9038 40.3256 33.0501 40.2678C33.0698 40.2597 33.0891 40.2508 33.1081 40.2411L33.8042 39.8851L33.8031 39.8832L35.1501 39.2103L34.4645 40.5836L34.4619 40.5822L34.0972 41.2672C34.0859 41.2882 34.0757 41.3097 34.0666 41.3317C34.0088 41.4804 33.9159 41.6129 33.7958 41.7179C33.6757 41.8229 33.5319 41.8973 33.3769 41.9347C33.2599 41.9609 33.1382 41.957 33.0232 41.9234C32.9081 41.8899 32.8035 41.8277 32.719 41.7428C32.7069 41.7313 32.695 41.7196 32.684 41.7083C32.6729 41.697 32.6602 41.6837 32.6495 41.6719C32.5604 41.5767 32.4963 41.461 32.4628 41.3351C32.4293 41.2091 32.4274 41.0768 32.4574 40.95ZM36.8149 35.543C36.8149 35.147 36.9324 34.7598 37.1525 34.4304C37.3725 34.1011 37.6853 33.8444 38.0512 33.6928C38.4172 33.5413 38.8199 33.5016 39.2083 33.5789C39.5968 33.6562 39.9537 33.8469 40.2337 34.127C40.5138 34.4071 40.7045 34.7639 40.7818 35.1524C40.8591 35.5409 40.8194 35.9436 40.6678 36.3095C40.5162 36.6754 40.2595 36.9882 39.9301 37.2082C39.6008 37.4283 39.2136 37.5457 38.8175 37.5457C38.2866 37.5451 37.7775 37.3339 37.4021 36.9585C37.0267 36.583 36.8155 36.074 36.8149 35.543ZM40.4949 32.4333C40.2009 32.2742 39.8858 32.1579 39.5589 32.088L39.5536 30.9487C39.5526 30.7463 39.4715 30.5525 39.3281 30.4097C39.1846 30.2669 38.9904 30.1867 38.788 30.1867H38.7841C38.5811 30.1877 38.3868 30.2693 38.2439 30.4136C38.101 30.5578 38.0213 30.7529 38.0222 30.956L38.0276 32.0992C37.718 32.17 37.4194 32.2824 37.14 32.4333L35.818 29.7864L35.825 29.7827L35.6828 29.5159L34.9212 27.9914C34.7419 27.5189 34.7455 26.9965 34.9311 26.5264C35.1167 26.0564 35.4711 25.6725 35.9249 25.45C36.0694 25.3814 36.2313 25.358 36.3894 25.3829C36.5474 25.4078 36.6943 25.4799 36.8108 25.5896C37.4539 26.1835 38.1478 26.4974 38.8172 26.4974C39.4734 26.4974 40.148 26.1861 40.8211 25.5723C40.9383 25.4661 41.0845 25.3973 41.241 25.3747C41.3975 25.352 41.5572 25.3766 41.6996 25.4452C42.1523 25.6705 42.5059 26.0548 42.6929 26.5246C42.8799 26.9943 42.8871 27.5165 42.7131 27.9912L40.4949 32.4333ZM43.1626 30.5192L43.1672 30.5216L43.5208 29.8315C43.5318 29.8101 43.5417 29.7882 43.5505 29.7659C43.606 29.6163 43.6969 29.4824 43.8153 29.3756C43.9338 29.2688 44.0763 29.1922 44.2308 29.1524C44.3477 29.1241 44.4699 29.1258 44.5859 29.1575C44.7019 29.1891 44.8081 29.2496 44.8945 29.3333C44.9067 29.3442 44.9188 29.356 44.9293 29.3661C44.9414 29.378 44.9535 29.3903 44.9651 29.4027C45.0556 29.4959 45.1215 29.61 45.1571 29.7348C45.1927 29.8597 45.1968 29.9914 45.1691 30.1183C45.1348 30.2718 45.0639 30.4147 44.9626 30.535C44.8613 30.6553 44.7324 30.7495 44.587 30.8094C44.5675 30.8178 44.5483 30.827 44.5295 30.837L44.0098 31.1131L42.4853 31.8747L43.1626 30.5192ZM43.7512 46.7595C40.9924 49.9423 34.3534 50.3503 26.666 50.8226L26.612 50.8259C21.3967 51.1465 16.4529 50.5948 12.6915 49.2728C9.19634 48.0445 7.1251 46.2571 7.00927 44.3691C6.89268 42.4736 8.73969 40.424 12.0765 38.746C15.664 36.9413 20.4918 35.771 25.6746 35.4469C26.5248 35.4737 27.3824 35.4849 28.2361 35.4885C28.238 35.5067 28.241 35.5257 28.241 35.5432C28.241 35.8166 28.063 36.1605 27.7396 36.5107C27.4204 36.8557 27.2129 37.289 27.144 37.7539C27.0751 38.2187 27.148 38.6936 27.3534 39.1163C27.6717 39.7696 28.1835 40.309 28.8192 40.661C29.4549 41.0131 30.1837 41.1608 30.9063 41.084C30.8926 41.683 31.1122 42.2639 31.5188 42.704C31.5429 42.7303 31.5672 42.7562 31.5901 42.7794C31.6155 42.8054 31.6413 42.8307 31.6674 42.8554C32.0845 43.2568 32.6405 43.4816 33.2194 43.483C33.2376 43.483 33.2561 43.482 33.274 43.4816C33.2049 44.2 33.3565 44.9225 33.7085 45.5525C34.0606 46.1826 34.5964 46.6903 35.2445 47.0079C35.6673 47.2133 36.1422 47.2863 36.6071 47.2174C37.072 47.1485 37.5053 46.9409 37.8503 46.6217C38.2003 46.2983 38.5441 46.1203 38.8178 46.1203C39.0694 46.1203 39.4239 46.3117 39.7899 46.6453C40.2204 47.0349 40.7806 47.2502 41.3612 47.249C41.7119 47.2496 42.0581 47.17 42.3734 47.0164C43.021 46.6949 43.5567 46.1857 43.9105 45.5552C44.2644 44.9247 44.4199 44.2022 44.3569 43.4819C44.3678 43.4819 44.3788 43.4829 44.3897 43.4829C44.6372 43.4822 44.8829 43.4401 45.1164 43.3581C44.9896 44.728 44.5389 45.8509 43.7514 46.7595H43.7512ZM44.9543 41.6797C44.9426 41.6921 44.9308 41.7044 44.9176 41.7173C44.9066 41.7282 44.8957 41.7391 44.8822 41.7507C44.7959 41.8345 44.6898 41.8951 44.5738 41.9267C44.4577 41.9584 44.3355 41.9602 44.2186 41.9319C44.0896 41.8995 43.9687 41.8407 43.8635 41.7593C43.7583 41.6779 43.6711 41.5757 43.6073 41.4589L43.5508 41.3457C43.5468 41.3364 43.5418 41.3278 43.538 41.3183C43.5292 41.2964 43.5193 41.2747 43.5085 41.2532L43.3563 40.9565L42.4851 39.2109L43.8549 39.8951L44.5179 40.2474C44.5367 40.2574 44.5559 40.2666 44.5755 40.2749C44.721 40.3349 44.8498 40.429 44.9511 40.5494C45.0525 40.6697 45.1233 40.8127 45.1576 40.9662C45.1853 41.0926 45.1813 41.2239 45.146 41.3484C45.1106 41.4729 45.045 41.5867 44.9551 41.6797H44.9543ZM48.7702 37.5494C48.8799 37.6659 48.9519 37.8128 48.9768 37.9708C49.0017 38.1289 48.9783 38.2908 48.9097 38.4354C48.6873 38.8891 48.3034 39.2435 47.8334 39.4291C47.3633 39.6147 46.8409 39.6181 46.3684 39.4388L44.5587 38.5349L44.5452 38.5277L41.9275 37.2203C42.0855 36.9285 42.2012 36.6157 42.2711 36.2913L43.4167 36.2789C43.6198 36.2778 43.8141 36.1962 43.9569 36.0518C44.0997 35.9075 44.1794 35.7123 44.1783 35.5093C44.1772 35.3062 44.0955 35.1119 43.9512 34.9691C43.8068 34.8262 43.6117 34.7466 43.4086 34.7477H43.4001L42.2632 34.7599C42.1926 34.4479 42.0796 34.1469 41.9275 33.8655L44.5555 32.553L44.5576 32.5568L44.7107 32.4753L46.3691 31.647C46.8438 31.4731 47.366 31.4803 47.8357 31.6673C48.3054 31.8542 48.6897 32.2078 48.9151 32.6604C48.9837 32.8028 49.0083 32.9625 48.9856 33.1191C48.963 33.2756 48.8942 33.4218 48.788 33.539C48.1742 34.212 47.8629 34.8861 47.8629 35.5429C47.8631 36.2125 48.177 36.9064 48.7709 37.5494H48.7702Z" fill="#F20F38"/>
</svg>
