<svg width="36" height="36" viewBox="0 0 36 36" fill="none" xmlns="http://www.w3.org/2000/svg">
<circle cx="18" cy="18" r="17.5" stroke="#1A191D"/>
<g clip-path="url(#clip0)">
<path d="M12.7882 14.4642H8.57129V27.4285H12.7882V14.4642Z" fill="#1A191D"/>
<path d="M24.2748 14.6163C24.23 14.6021 24.1876 14.5868 24.1404 14.5738C24.0839 14.5609 24.0273 14.5503 23.9695 14.5408C23.7456 14.4961 23.5005 14.4642 23.2129 14.4642C20.7544 14.4642 19.1951 16.2521 18.6813 16.9428V14.4642H14.4644V27.4285H18.6813V20.3571C18.6813 20.3571 21.8681 15.9186 23.2129 19.1785C23.2129 22.0884 23.2129 27.4285 23.2129 27.4285H27.4286V18.68C27.4286 16.7212 26.0862 15.0889 24.2748 14.6163Z" fill="#1A191D"/>
<path d="M10.6338 12.6964C11.7729 12.6964 12.6963 11.773 12.6963 10.6339C12.6963 9.49482 11.7729 8.57141 10.6338 8.57141C9.4947 8.57141 8.57129 9.49482 8.57129 10.6339C8.57129 11.773 9.4947 12.6964 10.6338 12.6964Z" fill="#1A191D"/>
</g>
<defs>
<clipPath id="clip0">
<rect width="18.8571" height="18.8571" fill="white" transform="translate(8.57129 8.57141)"/>
</clipPath>
</defs>
</svg>
