<svg width="32" height="32" viewBox="0 0 32 32" fill="none" xmlns="http://www.w3.org/2000/svg">
<circle cx="16" cy="16" r="15.5" stroke="white"/>
<g clip-path="url(#clip0)">
<path d="M11.3675 12.8571H7.61914V24.3809H11.3675V12.8571Z" fill="white"/>
<path d="M21.5778 12.9923C21.538 12.9797 21.5003 12.9661 21.4584 12.9546C21.4081 12.943 21.3578 12.9336 21.3065 12.9252C21.1074 12.8854 20.8895 12.8571 20.6339 12.8571C18.4486 12.8571 17.0626 14.4464 16.6058 15.0603V12.8571H12.8574V24.3809H16.6058V18.0952C16.6058 18.0952 19.4386 14.1499 20.6339 17.0476C20.6339 19.6342 20.6339 24.3809 20.6339 24.3809H24.3812V16.6045C24.3812 14.8633 23.188 13.4124 21.5778 12.9923Z" fill="white"/>
<path d="M9.45247 11.2857C10.465 11.2857 11.2858 10.4649 11.2858 9.45237C11.2858 8.43985 10.465 7.61903 9.45247 7.61903C8.43995 7.61903 7.61914 8.43985 7.61914 9.45237C7.61914 10.4649 8.43995 11.2857 9.45247 11.2857Z" fill="white"/>
</g>
<defs>
<clipPath id="clip0">
<rect width="16.7619" height="16.7619" fill="white" transform="translate(7.61914 7.61903)"/>
</clipPath>
</defs>
</svg>
