<svg width="56" height="56" viewBox="0 0 56 56" fill="none" xmlns="http://www.w3.org/2000/svg">
<path d="M42.8294 51.0355H42.0781C41.8751 51.0355 41.6803 51.1161 41.5367 51.2597C41.3932 51.4033 41.3125 51.598 41.3125 51.8011C41.3125 52.0042 41.3932 52.1989 41.5367 52.3425C41.6803 52.4861 41.8751 52.5667 42.0781 52.5667H42.8294C43.0325 52.5667 43.2272 52.4861 43.3708 52.3425C43.5144 52.1989 43.595 52.0042 43.595 51.8011C43.595 51.598 43.5144 51.4033 43.3708 51.2597C43.2272 51.1161 43.0325 51.0355 42.8294 51.0355Z" fill="#F20F38"/>
<path d="M32.4427 4.10484H24.6274C24.273 3.16849 23.6419 2.36221 22.8181 1.79322C21.9943 1.22422 21.0168 0.919462 20.0156 0.919462C19.0144 0.919462 18.037 1.22422 17.2132 1.79322C16.3894 2.36221 15.7583 3.16849 15.4038 4.10484H7.58855C6.33058 4.10626 5.12455 4.60661 4.23504 5.49613C3.34552 6.38564 2.84517 7.59168 2.84375 8.84964V42.2724C2.84517 43.5304 3.34552 44.7364 4.23504 45.626C5.12455 46.5155 6.33058 47.0158 7.58855 47.0172H28.4237C27.8635 47.7895 27.5621 48.7192 27.5625 49.6732V54.315C27.5625 54.518 27.6432 54.7128 27.7867 54.8563C27.9303 54.9999 28.1251 55.0806 28.3281 55.0806H52.3906C52.5937 55.0806 52.7884 54.9999 52.932 54.8563C53.0756 54.7128 53.1562 54.518 53.1562 54.315V49.6732C53.1566 48.7272 52.8603 47.8049 52.3091 47.0361C51.7579 46.2673 50.9795 45.6907 50.0835 45.3873L48.9405 44.9999L50.3145 44.8315C50.4194 44.8186 50.5206 44.784 50.6116 44.7301C50.7025 44.6761 50.7813 44.6039 50.843 44.5179C50.9047 44.432 50.9478 44.3342 50.9698 44.2307C50.9918 44.1273 50.9921 44.0204 50.9707 43.9168L49.1625 35.1494C49.5754 34.8519 49.89 34.438 50.0661 33.9606C50.2422 33.4831 50.2717 32.964 50.1508 32.4697C50.0767 32.158 49.9319 31.8675 49.7275 31.6208C49.5231 31.374 49.2647 31.1776 48.9722 31.0467L48.9832 28.0968C48.9928 26.6853 48.6558 25.293 48.0019 24.042C47.348 22.7911 46.3971 21.7197 45.2326 20.9219C44.0681 20.1241 42.7257 19.6243 41.323 19.4663C39.9203 19.3083 38.5003 19.4969 37.1875 20.0156V8.84964C37.1861 7.59168 36.6857 6.38564 35.7962 5.49613C34.9067 4.60661 33.7007 4.10626 32.4427 4.10484ZM15.9764 5.63609C16.151 5.63608 16.3203 5.57643 16.4563 5.46702C16.5923 5.35762 16.6868 5.20502 16.7242 5.03453C17.0531 3.53751 18.4373 2.45066 20.0156 2.45066C21.5939 2.45066 22.9782 3.53751 23.307 5.03475C23.3444 5.20524 23.439 5.35784 23.575 5.46724C23.711 5.57665 23.8803 5.6363 24.0548 5.63631H26.7878V7.0723C26.7868 7.92427 26.448 8.74108 25.8456 9.34352C25.2431 9.94597 24.4263 10.2849 23.5744 10.2858H16.4569C15.6049 10.2849 14.7881 9.94597 14.1857 9.34352C13.5833 8.74108 13.2444 7.92427 13.2435 7.0723V5.63609H15.9764ZM4.375 42.2724V8.84964C4.37598 7.99766 4.71487 7.18085 5.31731 6.57841C5.91976 5.97596 6.73656 5.63708 7.58855 5.63609H11.712V7.0723C11.7134 8.33024 12.2137 9.53626 13.1032 10.4258C13.9927 11.3153 15.1987 11.8156 16.4567 11.8171H23.5741C24.8321 11.8156 26.0381 11.3153 26.9276 10.4258C27.8171 9.53626 28.3174 8.33024 28.3188 7.0723V5.63609H32.4423C33.2943 5.63696 34.1112 5.9758 34.7138 6.57825C35.3163 7.18071 35.6553 7.99758 35.6562 8.84964V20.807C34.4487 21.5898 33.4561 22.6622 32.7687 23.9265C32.0813 25.1908 31.7209 26.6069 31.7203 28.046L31.7282 30.7381C31.7282 30.7441 31.7282 30.7501 31.7282 30.756L31.7348 31.0519C31.445 31.1836 31.1891 31.3798 30.9868 31.6255C30.7845 31.8713 30.641 32.16 30.5674 32.4697C30.4364 33.0051 30.4821 33.5685 30.6978 34.0757C30.9135 34.5829 31.2875 35.0067 31.7639 35.2838L29.478 43.8747C29.4518 43.973 29.4454 44.0756 29.4593 44.1765C29.4733 44.2773 29.5071 44.3743 29.559 44.4619C29.6108 44.5495 29.6796 44.6259 29.7614 44.6865C29.8431 44.7472 29.9361 44.791 30.0349 44.8153C30.5389 44.9292 31.0487 45.0154 31.5621 45.0737L30.6354 45.3878C30.5466 45.4179 30.4596 45.4513 30.3737 45.4862H7.58855C6.73653 45.4852 5.91969 45.1463 5.31724 44.5438C4.71479 43.9413 4.37593 43.1245 4.375 42.2724ZM43.0311 27.8359C43.4576 28.5763 44.0176 29.2314 44.6826 29.7679C43.8687 29.4186 43.1124 28.9479 42.4396 28.3719C42.6381 28.2052 42.8353 28.0265 43.0311 27.8359ZM41.1647 29.2869C42.9125 30.8948 45.1616 31.8504 47.5323 31.9925C47.5921 32.1032 47.6783 32.1973 47.7833 32.2667C47.8882 32.3361 48.0086 32.3785 48.1339 32.3902C48.2579 32.398 48.3761 32.4453 48.4714 32.525C48.5666 32.6048 48.6338 32.713 48.6632 32.8337C48.6964 32.9693 48.7014 33.1103 48.6779 33.2479C48.6544 33.3855 48.603 33.5169 48.5268 33.6338C48.4506 33.7508 48.3513 33.8509 48.2349 33.928C48.1185 34.0051 47.9876 34.0575 47.8501 34.082C47.6719 34.1155 47.5111 34.2104 47.3955 34.3501C47.2799 34.4898 47.2168 34.6655 47.2172 34.8469C47.2032 36.5741 46.556 38.2363 45.3984 39.5183C44.2151 40.8262 42.6687 41.5463 41.0441 41.5463H39.6747C38.05 41.5463 36.5037 40.8262 35.3204 39.5183C34.1608 38.2333 33.5136 36.5672 33.5016 34.8365C33.5017 34.6562 33.4382 34.4817 33.3223 34.3437C33.2064 34.2056 33.0455 34.1129 32.868 34.0818C32.6317 34.0405 32.4176 33.9171 32.2635 33.7334C32.1094 33.5496 32.0252 33.3173 32.0258 33.0775C32.0257 32.9953 32.0355 32.9133 32.055 32.8334C32.0844 32.7127 32.1516 32.6046 32.2469 32.5248C32.3421 32.445 32.4604 32.3978 32.5843 32.39C32.6987 32.3794 32.8091 32.3432 32.9076 32.2841C33.006 32.2251 33.0899 32.1446 33.1531 32.0487C33.5846 32.1462 34.0365 32.0951 34.4353 31.9036C34.8341 31.7121 35.1566 31.3915 35.3503 30.9937C35.3754 30.9385 35.4123 30.8895 35.4584 30.8501C36.6798 30.7824 38.9047 30.6565 41.1647 29.2871V29.2869ZM32.6141 38.044C32.9897 38.9622 33.5211 39.8085 34.1849 40.5457C34.8239 41.2584 35.587 41.8492 36.4371 42.2892V43.4208L35.8683 43.6137C35.593 43.6107 35.3182 43.6011 35.0514 43.5907L35.0121 43.5892L34.9313 42.0759C34.9233 41.9264 34.8717 41.7825 34.7827 41.6621C34.6938 41.5416 34.5715 41.4499 34.431 41.3982C34.2905 41.3465 34.1379 41.3372 33.9921 41.3714C33.8463 41.4055 33.7138 41.4817 33.6108 41.5904L31.7515 43.5534C31.534 43.5268 31.3392 43.4988 31.1699 43.4723L32.6141 38.044ZM33.497 43.9369L33.5204 44.3751C33.5204 44.386 33.5227 44.397 33.5237 44.4079L32.8267 44.644L33.497 43.9369ZM36.9985 44.8474L39.5862 47.4281V48.9939L35.7553 45.2687L36.9985 44.8474ZM41.1175 47.443L43.7206 44.8474L44.9637 45.2687L41.1175 49.0087V47.443ZM42.7504 43.652L40.3594 46.0368L37.9683 43.6524V42.8655C38.5262 43.006 39.0993 43.0773 39.6746 43.078H41.0438C41.6192 43.0773 42.1922 43.006 42.7501 42.8655L42.7504 43.652ZM29.0938 49.6732C29.0935 49.0473 29.2896 48.4371 29.6543 47.9284C30.019 47.4198 30.534 47.0382 31.1268 46.8375L34.1266 45.8209L39.5862 51.13V53.5493H29.0938V49.6732ZM51.625 49.6732V53.5493H41.1175V51.1446L46.5921 45.8209L49.592 46.8375C50.1849 47.0383 50.6998 47.4198 51.0645 47.9285C51.4292 48.4371 51.6252 49.0473 51.625 49.6732ZM46.1106 44.0409L46.4693 43.6008L47.4634 44.4993L46.1106 44.0409ZM48.6355 43.4941L46.8981 41.9239C46.8211 41.8542 46.7307 41.801 46.6324 41.7674C46.5342 41.7338 46.4301 41.7205 46.3265 41.7284C46.223 41.7363 46.1221 41.7652 46.0301 41.8133C45.938 41.8614 45.8568 41.9277 45.7912 42.0082L44.5629 43.5158L44.2817 43.4205V42.2893C45.1317 41.8493 45.8948 41.2586 46.5337 40.546C47.2342 39.7679 47.787 38.8688 48.1651 37.8925L49.3036 43.4127L48.6355 43.4941ZM45.388 23.0386C46.0502 23.7012 46.5738 24.4891 46.9282 25.3563C47.2825 26.2235 47.4606 27.1526 47.4519 28.0894L47.4463 29.6225C45.8969 29.0209 44.6806 27.9237 44.1271 26.6012C44.5307 26.0755 44.8962 25.5216 45.2209 24.9437C45.2703 24.8562 45.3021 24.7598 45.3143 24.66C45.3265 24.5601 45.3189 24.4589 45.2919 24.362C45.265 24.2652 45.2193 24.1745 45.1573 24.0953C45.0954 24.0161 45.0184 23.9499 44.9309 23.9005C44.7541 23.8006 44.5448 23.775 44.3492 23.8294C44.1535 23.8838 43.9875 24.0137 43.8876 24.1905C41.1716 28.9978 37.2531 29.2167 35.3699 29.3218L35.3416 29.3234C34.78 29.3548 34.2547 29.7402 33.9708 30.3297C33.9281 30.4156 33.8574 30.4845 33.7703 30.5248C33.6893 30.5632 33.5984 30.5756 33.5101 30.5604C33.4218 30.5451 33.3404 30.503 33.2769 30.4397L33.2582 30.421L33.2512 28.044C33.252 26.8451 33.5563 25.666 34.1358 24.6165C34.7153 23.567 35.5511 22.6813 36.5653 22.042C36.7382 22.0091 36.8944 21.9175 37.0076 21.7827C38.3536 21.0625 39.8961 20.7957 41.4058 21.022C42.9156 21.2483 44.3121 21.9556 45.3878 23.0389L45.388 23.0386Z" fill="#F20F38"/>
<path d="M26.1073 22.4733L18.1229 30.2683L13.9294 26.174C13.7842 26.0321 13.5885 25.9538 13.3854 25.9562C13.1824 25.9586 12.9886 26.0416 12.8467 26.1869C12.7049 26.3322 12.6265 26.5279 12.629 26.7309C12.6314 26.934 12.7144 27.1277 12.8596 27.2696L17.5883 31.8862C17.7313 32.0258 17.9232 32.104 18.1231 32.104C18.323 32.104 18.5149 32.0258 18.6579 31.8862L27.1771 23.5689C27.3223 23.427 27.4053 23.2333 27.4077 23.0302C27.4102 22.8272 27.3318 22.6315 27.19 22.4862C27.0481 22.3409 26.8543 22.2579 26.6513 22.2555C26.4482 22.2531 26.2525 22.3314 26.1073 22.4733Z" fill="#F20F38"/>
</svg>
