<svg width="48" height="48" viewBox="0 0 48 48" fill="none" xmlns="http://www.w3.org/2000/svg">
<g clip-path="url(#clip0)">
<path d="M39.5313 38.8282C39.9197 38.8282 40.2344 38.5133 40.2344 38.125V3.80934C40.2344 1.70887 38.5256 0 36.425 0H11.5751C9.47459 0 7.76562 1.70887 7.76562 3.80934V44.1906C7.76562 46.291 9.47459 47.9999 11.5751 47.9999H36.425C38.5255 47.9999 40.2344 46.291 40.2344 44.1906V40.9374C40.2344 40.5491 39.9197 40.2343 39.5313 40.2343C39.1429 40.2343 38.8282 40.5491 38.8282 40.9374V44.1906C38.8282 45.5156 37.7502 46.5937 36.425 46.5937H11.5751C10.2499 46.5937 9.17188 45.5156 9.17188 44.1906V3.80934C9.17188 2.48428 10.2499 1.40625 11.5751 1.40625H36.425C37.7502 1.40625 38.8282 2.48428 38.8282 3.80934V38.125C38.8282 38.5133 39.1429 38.8282 39.5313 38.8282Z" fill="#F20F38"/>
<path d="M16.6065 32.3131C16.6456 32.3701 16.6932 32.4215 16.7482 32.4653C17.5874 33.3452 18.585 34.0728 19.6945 34.6026C19.7358 34.6271 19.7789 34.6477 19.8238 34.6631C21.0955 35.2482 22.5095 35.5751 23.9985 35.5751C25.4876 35.5751 26.9016 35.2482 28.1732 34.6631C28.2182 34.6476 28.2614 34.627 28.3029 34.6024C29.4122 34.0726 30.4097 33.3451 31.249 32.4652C31.304 32.4214 31.3515 32.3701 31.3906 32.313C33.023 30.5295 34.0205 28.1557 34.0205 25.553C34.0205 25.16 33.997 24.7724 33.9527 24.3911C33.9517 24.3515 33.9468 24.312 33.939 24.2729C33.7786 23.0201 33.3859 21.8387 32.8056 20.7737C32.7842 20.7215 32.7565 20.6728 32.7238 20.6277C31.311 18.1348 28.8613 16.3039 25.9647 15.7253C25.926 15.7141 25.8862 15.7068 25.8458 15.7024C25.2468 15.5904 24.6296 15.5311 23.9985 15.5311C23.3674 15.5311 22.75 15.5904 22.1509 15.7025C22.1108 15.7069 22.0712 15.7141 22.0328 15.7252C19.136 16.3036 16.6861 18.1347 15.2732 20.6276C15.2406 20.6726 15.2128 20.7214 15.1915 20.7736C14.6112 21.8386 14.2185 23.02 14.058 24.2729C14.0503 24.312 14.0454 24.3515 14.0443 24.391C14.0001 24.7724 13.9766 25.1599 13.9766 25.5529C13.9767 28.1558 14.9741 30.5296 16.6065 32.3131ZM21.2159 20.5222L23.2954 21.0758V22.1397L21.0009 23.8067L19.9582 23.49L20.0736 21.3537C20.4198 21.0299 20.8025 20.7513 21.2159 20.5222ZM26.7811 20.5222C27.1946 20.7512 27.5772 21.0298 27.9235 21.3537L28.0389 23.4899L26.9962 23.8066L24.7017 22.1397V21.0758L26.7811 20.5222ZM31.0773 30.4583L30.4736 28.6002C30.7299 28.0565 30.9155 27.4849 31.0274 26.8944L32.6117 25.7432C32.5737 27.492 32.0118 29.1138 31.0773 30.4583ZM28.0088 33.1766L26.0907 31.7829L27.3756 30.2012L29.2769 29.4679L30.0087 31.7199C29.4177 32.296 28.7446 32.788 28.0088 33.1766ZM24.7051 31.2581C24.2382 31.315 23.7591 31.315 23.2919 31.2581L21.9316 29.5837L22.5899 28.6549H25.4071L26.0654 29.5837L24.7051 31.2581ZM17.9884 31.7199L18.7201 29.4679L20.6215 30.2012L21.9064 31.7829L19.9883 33.1766C19.2524 32.788 18.5794 32.296 17.9884 31.7199ZM19.5289 24.8294L20.5759 25.1474L21.4486 27.8333L20.7918 28.7598L18.7898 27.9876C18.5892 27.5594 18.4432 27.1095 18.3539 26.645L19.5289 24.8294ZM23.9985 23.367L26.0394 24.8497L25.2598 27.2487H22.7374L21.9578 24.8497L23.9985 23.367ZM28.4682 24.8294L29.6431 26.645C29.5539 27.1095 29.4079 27.5593 29.2072 27.9875L27.2052 28.7597L26.5483 27.8332L27.4211 25.1473L28.4682 24.8294ZM32.4899 24.0936L30.5699 25.4886L29.4627 23.7778L29.3528 21.7428H31.7243C32.0864 22.4742 32.3477 23.2637 32.4899 24.0936ZM18.5343 23.7778L17.4272 25.4886L15.5072 24.0936C15.6494 23.2637 15.9107 22.4742 16.2729 21.7428H18.6444L18.5343 23.7778ZM16.9696 26.8944C17.0816 27.485 17.2672 28.0566 17.5235 28.6003L16.9197 30.4584C15.9852 29.1139 15.4233 27.4921 15.3852 25.7433L16.9696 26.8944ZM21.5172 33.804L23.1027 32.652C23.3991 32.689 23.6992 32.7078 23.9985 32.7078C24.2979 32.7078 24.5981 32.6891 24.8943 32.6521L26.4799 33.8041C25.6937 34.041 24.8608 34.1689 23.9985 34.1689C23.1362 34.1688 22.3032 34.0409 21.5172 33.804ZM30.8505 20.3366H28.8951C28.4569 19.925 27.9715 19.5718 27.4462 19.2826L26.8409 17.4198C28.4469 17.9828 29.837 19.0085 30.8505 20.3366ZM25.2344 17.0265L25.9678 19.2835L23.9985 19.8077L22.0292 19.2835L22.7626 17.0265C23.1664 16.9683 23.5789 16.9376 23.9985 16.9376C24.4182 16.9376 24.8308 16.9683 25.2344 17.0265ZM21.1561 17.4199L20.5509 19.2826C20.0256 19.5718 19.5402 19.925 19.1021 20.3366H17.1465C18.1601 19.0085 19.5502 17.9828 21.1561 17.4199Z" fill="#F20F38"/>
<path d="M37.1273 37.2281V7.66565C37.1273 6.86437 36.4754 6.21252 35.6742 6.21252H12.3242C11.5229 6.21252 10.8711 6.86437 10.8711 7.66565V10.286C10.8711 10.6743 11.1858 10.9891 11.5742 10.9891C11.9626 10.9891 12.2773 10.6743 12.2773 10.286V7.66565C12.2773 7.63977 12.2984 7.61877 12.3242 7.61877H35.6742C35.6999 7.61877 35.721 7.63977 35.721 7.66565V37.2281C35.721 37.254 35.6999 37.275 35.6742 37.275H12.3242C12.2984 37.275 12.2773 37.254 12.2773 37.2281V13.0985C12.2773 12.7101 11.9626 12.3953 11.5742 12.3953C11.1858 12.3953 10.8711 12.7101 10.8711 13.0985V37.2281C10.8711 38.0294 11.5229 38.6812 12.3242 38.6812H35.6742C36.4754 38.6812 37.1273 38.0294 37.1273 37.2281Z" fill="#F20F38"/>
<path d="M21.7422 42.6375C21.7422 43.8817 22.7543 44.8938 23.9984 44.8938C25.2425 44.8938 26.2545 43.8817 26.2545 42.6375C26.2545 41.3935 25.2424 40.3813 23.9984 40.3813C22.7543 40.3813 21.7422 41.3934 21.7422 42.6375ZM24.8483 42.6375C24.8483 43.1063 24.467 43.4876 23.9984 43.4876C23.5297 43.4876 23.1484 43.1063 23.1484 42.6375C23.1484 42.1689 23.5297 41.7876 23.9984 41.7876C24.467 41.7876 24.8483 42.1689 24.8483 42.6375Z" fill="#F20F38"/>
<path d="M27.9086 13.8312C28.7099 13.8312 29.3617 13.1794 29.3617 12.3781V10.7719C29.3617 9.97057 28.7099 9.31873 27.9086 9.31873H20.0898C19.2886 9.31873 18.6367 9.97057 18.6367 10.7719V12.3781C18.6367 13.1794 19.2886 13.8312 20.0898 13.8312H27.9086ZM20.043 12.3781V10.7719C20.043 10.746 20.0641 10.725 20.0898 10.725H27.9086C27.9344 10.725 27.9555 10.746 27.9555 10.7719V12.3781C27.9555 12.4039 27.9344 12.4249 27.9086 12.4249H20.0898C20.064 12.4249 20.043 12.4039 20.043 12.3781Z" fill="#F20F38"/>
<path d="M27.1071 4.51245C27.4955 4.51245 27.8102 4.19764 27.8102 3.80933C27.8102 3.42101 27.4955 3.1062 27.1071 3.1062H20.8945C20.5061 3.1062 20.1914 3.42101 20.1914 3.80933C20.1914 4.19764 20.5061 4.51245 20.8945 4.51245H27.1071Z" fill="#F20F38"/>
<path d="M17.7859 4.51245C18.1743 4.51245 18.489 4.19764 18.489 3.80933C18.489 3.42101 18.1743 3.1062 17.7859 3.1062H14.6797C14.2913 3.1062 13.9766 3.42101 13.9766 3.80933C13.9766 4.19764 14.2913 4.51245 14.6797 4.51245H17.7859Z" fill="#F20F38"/>
</g>
<defs>
<clipPath id="clip0">
<rect width="48" height="48" fill="white"/>
</clipPath>
</defs>
</svg>
