<svg width="56" height="56" viewBox="0 0 56 56" fill="none" xmlns="http://www.w3.org/2000/svg">
<path d="M41.2698 39.7242L36.4719 44.5221L33.9859 42.0115C33.9252 41.9502 33.8531 41.9015 33.7737 41.8682C33.6942 41.8348 33.6089 41.8174 33.5228 41.817C33.4366 41.8166 33.3512 41.8331 33.2714 41.8657C33.1916 41.8983 33.119 41.9463 33.0578 42.0069C32.9965 42.0676 32.9478 42.1397 32.9145 42.2192C32.8811 42.2986 32.8637 42.3839 32.8633 42.4701C32.8629 42.5562 32.8794 42.6417 32.912 42.7214C32.9446 42.8012 32.9926 42.8738 33.0532 42.935L36.0033 45.9141C36.0641 45.9755 36.1365 46.0243 36.2163 46.0577C36.296 46.0911 36.3816 46.1083 36.468 46.1086H36.4697C36.6437 46.1085 36.8106 46.0394 36.9336 45.9164L42.1978 40.6523C42.2601 40.5917 42.3097 40.5193 42.3438 40.4393C42.3779 40.3593 42.3957 40.2734 42.3963 40.1865C42.3969 40.0995 42.3802 40.0133 42.3472 39.9329C42.3143 39.8525 42.2656 39.7794 42.2041 39.7179C42.1427 39.6565 42.0696 39.6078 41.9892 39.5748C41.9088 39.5418 41.8226 39.5251 41.7357 39.5257C41.6487 39.5263 41.5628 39.5442 41.4828 39.5782C41.4029 39.6123 41.3304 39.6619 41.2698 39.7242Z" fill="#F20F38"/>
<path d="M37.625 31.2266C36.5142 31.226 35.4091 31.3855 34.3438 31.7003V6.61719C34.3422 5.28329 33.8116 4.00446 32.8684 3.06125C31.9252 2.11804 30.6464 1.58747 29.3125 1.58594H11.8125C10.4786 1.58747 9.19977 2.11804 8.25656 3.06125C7.31335 4.00446 6.78278 5.28329 6.78125 6.61719V44.8984C6.78278 46.2323 7.31335 47.5112 8.25656 48.4544C9.19977 49.3976 10.4786 49.9282 11.8125 49.9297H28.4734C29.6805 51.4835 31.2633 52.7044 33.0727 53.4775C34.8821 54.2506 36.8584 54.5503 38.8157 54.3486C40.7729 54.1468 42.6466 53.4502 44.2602 52.3242C45.8738 51.1983 47.1742 49.6802 48.039 47.9128C48.9038 46.1454 49.3045 44.187 49.2033 42.222C49.1021 40.257 48.5024 38.3501 47.4606 36.6809C46.4189 35.0117 44.9694 33.6352 43.2486 32.681C41.5279 31.7267 39.5926 31.2262 37.625 31.2266ZM11.8125 2.89844H29.3125C30.2984 2.89954 31.2437 3.29169 31.9408 3.98885C32.638 4.68601 33.0301 5.63125 33.0312 6.61719V8.14844H31.5C31.326 8.14844 31.159 8.21758 31.036 8.34065C30.9129 8.46372 30.8438 8.63064 30.8438 8.80469C30.8438 8.97874 30.9129 9.14566 31.036 9.26873C31.159 9.3918 31.326 9.46094 31.5 9.46094H33.0312V32.1765C31.8379 32.694 30.7398 33.4081 29.7828 34.2891H28.3062C28.1322 34.2891 27.9653 34.3582 27.8422 34.4813C27.7191 34.6043 27.65 34.7713 27.65 34.9453C27.65 35.1194 27.7191 35.2863 27.8422 35.4094C27.9653 35.5324 28.1322 35.6016 28.3062 35.6016H28.5598C27.3658 37.0949 26.5612 38.8612 26.2182 40.7422H8.09375V9.46094H25.9219C26.0959 9.46094 26.2628 9.3918 26.3859 9.26873C26.509 9.14566 26.5781 8.97874 26.5781 8.80469C26.5781 8.63064 26.509 8.46372 26.3859 8.34065C26.2628 8.21758 26.0959 8.14844 25.9219 8.14844H8.09375V6.61719C8.09485 5.63125 8.487 4.68601 9.18416 3.98885C9.88132 3.29169 10.8266 2.89954 11.8125 2.89844ZM11.8125 48.6172C10.8266 48.6161 9.88132 48.2239 9.18416 47.5268C8.487 46.8296 8.09485 45.8844 8.09375 44.8984V42.0547H26.0572C26.0405 42.3079 26.0312 42.563 26.0312 42.8203C26.0289 44.8562 26.5658 46.8563 27.5875 48.6172H11.8125ZM37.625 53.1016C36.0033 53.1013 34.4046 52.7172 32.9598 51.9805C31.515 51.2438 30.2652 50.1756 29.3125 48.8632V48.6172H29.1384C27.7869 46.6433 27.1674 44.2593 27.3871 41.8771C27.6068 39.495 28.6518 37.2645 30.3415 35.571C30.4361 35.5409 30.5226 35.4897 30.5946 35.4212C30.6666 35.3528 30.7222 35.269 30.7571 35.1761C31.9974 34.0619 33.49 33.266 35.1063 32.8572C36.7227 32.4484 38.4142 32.4389 40.035 32.8295C41.6559 33.2202 43.1573 33.9992 44.41 35.0994C45.6627 36.1996 46.6289 37.588 47.2254 39.1449C47.8219 40.7018 48.0307 42.3804 47.8339 44.036C47.6371 45.6915 47.0405 47.2744 46.0956 48.648C45.1508 50.0217 43.8859 51.1448 42.4102 51.9207C40.9345 52.6966 39.2922 53.1018 37.625 53.1016Z" fill="#F20F38"/>
<path d="M28.0742 9.46094H29.2901C29.4642 9.46094 29.6311 9.3918 29.7542 9.26873C29.8773 9.14566 29.9464 8.97874 29.9464 8.80469C29.9464 8.63064 29.8773 8.46372 29.7542 8.34065C29.6311 8.21758 29.4642 8.14844 29.2901 8.14844H28.0742C27.9002 8.14844 27.7333 8.21758 27.6102 8.34065C27.4871 8.46372 27.418 8.63064 27.418 8.80469C27.418 8.97874 27.4871 9.14566 27.6102 9.26873C27.7333 9.3918 27.9002 9.46094 28.0742 9.46094Z" fill="#F20F38"/>
<path d="M20.5625 43.0391C20.1082 43.0391 19.6641 43.1738 19.2864 43.4262C18.9087 43.6785 18.6143 44.0373 18.4405 44.457C18.2666 44.8767 18.2211 45.3385 18.3098 45.784C18.3984 46.2296 18.6171 46.6389 18.9384 46.9601C19.2596 47.2813 19.6689 47.5001 20.1144 47.5887C20.56 47.6773 21.0218 47.6318 21.4415 47.458C21.8612 47.2841 22.2199 46.9897 22.4723 46.612C22.7247 46.2343 22.8594 45.7902 22.8594 45.3359C22.8587 44.727 22.6165 44.1432 22.1859 43.7126C21.7553 43.282 21.1715 43.0398 20.5625 43.0391ZM20.5625 46.3203C20.3678 46.3203 20.1775 46.2626 20.0156 46.1544C19.8537 46.0463 19.7276 45.8925 19.6531 45.7126C19.5786 45.5328 19.5591 45.3349 19.597 45.1439C19.635 44.953 19.7288 44.7776 19.8664 44.6399C20.0041 44.5022 20.1795 44.4085 20.3705 44.3705C20.5614 44.3325 20.7593 44.352 20.9392 44.4265C21.1191 44.501 21.2728 44.6272 21.381 44.7891C21.4891 44.9509 21.5469 45.1413 21.5469 45.3359C21.5466 45.5969 21.4428 45.8471 21.2582 46.0317C21.0737 46.2162 20.8235 46.32 20.5625 46.3203Z" fill="#F20F38"/>
<path d="M10.9844 17.2266H14.6594C14.8334 17.2266 15.0003 17.1574 15.1234 17.0344C15.2465 16.9113 15.3156 16.7444 15.3156 16.5703C15.3156 16.3963 15.2465 16.2293 15.1234 16.1063C15.0003 15.9832 14.8334 15.9141 14.6594 15.9141H10.9844C10.8103 15.9141 10.6434 15.9832 10.5203 16.1063C10.3973 16.2293 10.3281 16.3963 10.3281 16.5703C10.3281 16.7444 10.3973 16.9113 10.5203 17.0344C10.6434 17.1574 10.8103 17.2266 10.9844 17.2266Z" fill="#F20F38"/>
<path d="M17.6719 17.2266H20.0344C20.2084 17.2266 20.3753 17.1574 20.4984 17.0344C20.6215 16.9113 20.6906 16.7444 20.6906 16.5703C20.6906 16.3963 20.6215 16.2293 20.4984 16.1063C20.3753 15.9832 20.2084 15.9141 20.0344 15.9141H17.6719C17.4978 15.9141 17.3309 15.9832 17.2078 16.1063C17.0848 16.2293 17.0156 16.3963 17.0156 16.5703C17.0156 16.7444 17.0848 16.9113 17.2078 17.0344C17.3309 17.1574 17.4978 17.2266 17.6719 17.2266Z" fill="#F20F38"/>
<path d="M23.1875 16.5703C23.1875 16.7444 23.2566 16.9113 23.3797 17.0344C23.5028 17.1574 23.6697 17.2266 23.8438 17.2266H30.1438C30.3178 17.2266 30.4847 17.1574 30.6078 17.0344C30.7309 16.9113 30.8 16.7444 30.8 16.5703C30.8 16.3963 30.7309 16.2293 30.6078 16.1063C30.4847 15.9832 30.3178 15.9141 30.1438 15.9141H23.8438C23.6697 15.9141 23.5028 15.9832 23.3797 16.1063C23.2566 16.2293 23.1875 16.3963 23.1875 16.5703Z" fill="#F20F38"/>
<path d="M10.9844 23.3516H17.2844C17.4584 23.3516 17.6253 23.2824 17.7484 23.1594C17.8715 23.0363 17.9406 22.8694 17.9406 22.6953C17.9406 22.5213 17.8715 22.3543 17.7484 22.2313C17.6253 22.1082 17.4584 22.0391 17.2844 22.0391H10.9844C10.8103 22.0391 10.6434 22.1082 10.5203 22.2313C10.3973 22.3543 10.3281 22.5213 10.3281 22.6953C10.3281 22.8694 10.3973 23.0363 10.5203 23.1594C10.6434 23.2824 10.8103 23.3516 10.9844 23.3516Z" fill="#F20F38"/>
<path d="M23.9719 23.3516C24.1459 23.3516 24.3128 23.2824 24.4359 23.1594C24.559 23.0363 24.6281 22.8694 24.6281 22.6953C24.6281 22.5213 24.559 22.3543 24.4359 22.2313C24.3128 22.1082 24.1459 22.0391 23.9719 22.0391H20.2969C20.1228 22.0391 19.9559 22.1082 19.8328 22.2313C19.7098 22.3543 19.6406 22.5213 19.6406 22.6953C19.6406 22.8694 19.7098 23.0363 19.8328 23.1594C19.9559 23.2824 20.1228 23.3516 20.2969 23.3516H23.9719Z" fill="#F20F38"/>
<path d="M30.1438 22.0391H27.7813C27.6072 22.0391 27.4403 22.1082 27.3172 22.2313C27.1941 22.3543 27.125 22.5213 27.125 22.6953C27.125 22.8694 27.1941 23.0363 27.3172 23.1594C27.4403 23.2824 27.6072 23.3516 27.7813 23.3516H30.1438C30.3178 23.3516 30.4847 23.2824 30.6078 23.1594C30.7309 23.0363 30.8 22.8694 30.8 22.6953C30.8 22.5213 30.7309 22.3543 30.6078 22.2313C30.4847 22.1082 30.3178 22.0391 30.1438 22.0391Z" fill="#F20F38"/>
<path d="M12.5594 28.1641H10.9844C10.8103 28.1641 10.6434 28.2332 10.5203 28.3563C10.3973 28.4793 10.3281 28.6463 10.3281 28.8203C10.3281 28.9944 10.3973 29.1613 10.5203 29.2844C10.6434 29.4074 10.8103 29.4766 10.9844 29.4766H12.5594C12.7334 29.4766 12.9003 29.4074 13.0234 29.2844C13.1465 29.1613 13.2156 28.9944 13.2156 28.8203C13.2156 28.6463 13.1465 28.4793 13.0234 28.3563C12.9003 28.2332 12.7334 28.1641 12.5594 28.1641Z" fill="#F20F38"/>
<path d="M19.2531 28.1641H15.5781C15.4041 28.1641 15.2372 28.2332 15.1141 28.3563C14.991 28.4793 14.9219 28.6463 14.9219 28.8203C14.9219 28.9944 14.991 29.1613 15.1141 29.2844C15.2372 29.4074 15.4041 29.4766 15.5781 29.4766H19.2531C19.4272 29.4766 19.5941 29.4074 19.7172 29.2844C19.8402 29.1613 19.9094 28.9944 19.9094 28.8203C19.9094 28.6463 19.8402 28.4793 19.7172 28.3563C19.5941 28.2332 19.4272 28.1641 19.2531 28.1641Z" fill="#F20F38"/>
<path d="M30.1422 28.1641H23.0547C22.8806 28.1641 22.7137 28.2332 22.5906 28.3563C22.4676 28.4793 22.3984 28.6463 22.3984 28.8203C22.3984 28.9944 22.4676 29.1613 22.5906 29.2844C22.7137 29.4074 22.8806 29.4766 23.0547 29.4766H30.1422C30.3162 29.4766 30.4832 29.4074 30.6062 29.2844C30.7293 29.1613 30.7985 28.9944 30.7985 28.8203C30.7985 28.6463 30.7293 28.4793 30.6062 28.3563C30.4832 28.2332 30.3162 28.1641 30.1422 28.1641Z" fill="#F20F38"/>
<path d="M12.5594 34.2891H10.9844C10.8103 34.2891 10.6434 34.3582 10.5203 34.4813C10.3973 34.6043 10.3281 34.7713 10.3281 34.9453C10.3281 35.1194 10.3973 35.2863 10.5203 35.4094C10.6434 35.5324 10.8103 35.6016 10.9844 35.6016H12.5594C12.7334 35.6016 12.9003 35.5324 13.0234 35.4094C13.1465 35.2863 13.2156 35.1194 13.2156 34.9453C13.2156 34.7713 13.1465 34.6043 13.0234 34.4813C12.9003 34.3582 12.7334 34.2891 12.5594 34.2891Z" fill="#F20F38"/>
<path d="M24.5031 34.2891H15.5781C15.4041 34.2891 15.2372 34.3582 15.1141 34.4813C14.991 34.6043 14.9219 34.7713 14.9219 34.9453C14.9219 35.1194 14.991 35.2863 15.1141 35.4094C15.2372 35.5324 15.4041 35.6016 15.5781 35.6016H24.5031C24.6772 35.6016 24.8441 35.5324 24.9672 35.4094C25.0902 35.2863 25.1594 35.1194 25.1594 34.9453C25.1594 34.7713 25.0902 34.6043 24.9672 34.4813C24.8441 34.3582 24.6772 34.2891 24.5031 34.2891Z" fill="#F20F38"/>
</svg>
