<svg width="56" height="56" viewBox="0 0 56 56" fill="none" xmlns="http://www.w3.org/2000/svg">
<path d="M36.6401 4.02808H19.3633C18.0294 4.02961 16.7506 4.56018 15.8073 5.50339C14.8641 6.4466 14.3336 7.72543 14.332 9.05933V46.9407C14.3336 48.2746 14.8641 49.5534 15.8073 50.4966C16.7506 51.4398 18.0294 51.9704 19.3633 51.972H36.6401C37.974 51.9704 39.2528 51.4399 40.196 50.4967C41.1392 49.5535 41.6698 48.2746 41.6713 46.9407V9.05933C41.6698 7.72542 41.1392 6.44657 40.196 5.50336C39.2528 4.56014 37.974 4.02958 36.6401 4.02808ZM36.6401 50.6595H19.3633C18.3773 50.6584 17.4321 50.2662 16.7349 49.569C16.0378 48.8719 15.6456 47.9266 15.6445 46.9407V44.1639H40.3588V46.9407C40.3577 47.9266 39.9656 48.8719 39.2684 49.5691C38.5713 50.2662 37.626 50.6584 36.6401 50.6595ZM40.3588 10.5347H37.4003C37.2263 10.5347 37.0594 10.6038 36.9363 10.7269C36.8132 10.85 36.7441 11.0169 36.7441 11.1909C36.7441 11.365 36.8132 11.5319 36.9363 11.655C37.0594 11.778 37.2263 11.8472 37.4003 11.8472H40.3588V42.8514H15.6445V11.8472H30.8574C31.0314 11.8472 31.1984 11.778 31.3214 11.655C31.4445 11.5319 31.5136 11.365 31.5136 11.1909C31.5136 11.0169 31.4445 10.85 31.3214 10.7269C31.1984 10.6038 31.0314 10.5347 30.8574 10.5347H15.6445V9.05933C15.6456 8.07339 16.0378 7.12815 16.7349 6.43099C17.4321 5.73383 18.3773 5.34168 19.3633 5.34058H36.6401C37.626 5.34165 38.5713 5.73379 39.2684 6.43096C39.9656 7.12813 40.3577 8.07338 40.3588 9.05933V10.5347Z" fill="#F20F38"/>
<path d="M34.7756 10.5347H33.5703C33.3963 10.5347 33.2293 10.6038 33.1063 10.7269C32.9832 10.8499 32.9141 11.0169 32.9141 11.1909C32.9141 11.365 32.9832 11.5319 33.1063 11.655C33.2293 11.778 33.3963 11.8472 33.5703 11.8472H34.7756C34.9497 11.8472 35.1166 11.778 35.2397 11.655C35.3627 11.5319 35.4319 11.365 35.4319 11.1909C35.4319 11.0169 35.3627 10.8499 35.2397 10.7269C35.1166 10.6038 34.9497 10.5347 34.7756 10.5347Z" fill="#F20F38"/>
<path d="M28.0018 45.1287C27.5503 45.1286 27.1089 45.2625 26.7335 45.5134C26.358 45.7642 26.0654 46.1207 25.8926 46.5379C25.7198 46.955 25.6745 47.4141 25.7626 47.8569C25.8507 48.2998 26.0681 48.7066 26.3873 49.0259C26.7066 49.3452 27.1134 49.5626 27.5562 49.6507C27.9991 49.7388 28.4581 49.6937 28.8753 49.5209C29.2925 49.3481 29.649 49.0555 29.8999 48.6801C30.1508 48.3047 30.2847 47.8633 30.2847 47.4118C30.284 46.8065 30.0432 46.2263 29.6153 45.7983C29.1873 45.3703 28.6071 45.1295 28.0018 45.1287ZM28.0018 48.3821C27.8099 48.3821 27.6222 48.3252 27.4626 48.2186C27.303 48.112 27.1786 47.9604 27.1051 47.7831C27.0317 47.6057 27.0124 47.4106 27.0499 47.2223C27.0873 47.0341 27.1798 46.8611 27.3155 46.7254C27.4512 46.5897 27.6242 46.4972 27.8124 46.4598C28.0007 46.4224 28.1958 46.4416 28.3732 46.5151C28.5505 46.5885 28.7021 46.7129 28.8087 46.8725C28.9153 47.0322 28.9722 47.2198 28.9722 47.4118C28.9719 47.669 28.8696 47.9156 28.6876 48.0976C28.5057 48.2795 28.2591 48.3818 28.0018 48.3821Z" fill="#F20F38"/>
<path d="M34.835 22.7396L28.2145 19.2117C28.1183 19.1604 28.0109 19.1339 27.902 19.1345C27.793 19.1352 27.686 19.163 27.5905 19.2154L21.1533 22.7432C21.0501 22.7998 20.964 22.8831 20.9041 22.9843C20.8441 23.0856 20.8125 23.2011 20.8125 23.3188V27.3894C20.8144 29.3067 21.3748 31.1819 22.4253 32.7859C23.4757 34.3899 24.9706 35.6531 26.7274 36.4212L27.6208 36.8107C27.7031 36.8466 27.792 36.8652 27.8819 36.8654C27.9717 36.8655 28.0607 36.8472 28.1431 36.8116L29.1489 36.3774C30.9368 35.6262 32.4632 34.3638 33.5366 32.7485C34.61 31.1333 35.1826 29.2371 35.1826 27.2977V23.3188C35.1826 23.1998 35.1503 23.083 35.0891 22.981C35.0278 22.879 34.94 22.7956 34.835 22.7396ZM33.8701 27.2977C33.8697 28.9795 33.3728 30.6237 32.4415 32.0241C31.5102 33.4244 30.1862 34.5187 28.6354 35.1694L28.6309 35.1713L27.8843 35.4938L27.2531 35.2188C25.7302 34.5529 24.4342 33.4579 23.5235 32.0675C22.6128 30.6771 22.1269 29.0516 22.125 27.3895V23.7075L27.9101 20.5369L33.8699 23.7127L33.8701 27.2977Z" fill="#F20F38"/>
<path d="M25.7267 26.9632C25.6708 26.8974 25.6025 26.8433 25.5257 26.804C25.4488 26.7647 25.365 26.7409 25.2789 26.734C25.1929 26.7271 25.1064 26.7372 25.0242 26.7639C24.9421 26.7905 24.8661 26.833 24.8004 26.8891C24.7348 26.9451 24.6809 27.0135 24.6417 27.0905C24.6026 27.1674 24.579 27.2513 24.5723 27.3373C24.5656 27.4234 24.576 27.5099 24.6028 27.592C24.6296 27.674 24.6723 27.75 24.7285 27.8155L26.4696 29.8543C26.5808 29.9846 26.7386 30.0662 26.9093 30.0817C27.0799 30.0972 27.2498 30.0454 27.3827 29.9372L31.4376 26.6385C31.5044 26.5841 31.5599 26.5171 31.6009 26.4413C31.6418 26.3654 31.6674 26.2823 31.6763 26.1965C31.6851 26.1108 31.6769 26.0242 31.6523 25.9416C31.6276 25.859 31.5869 25.7821 31.5325 25.7153C31.4781 25.6484 31.4111 25.5929 31.3353 25.552C31.2595 25.511 31.1763 25.4854 31.0906 25.4766C31.0048 25.4678 30.9182 25.4759 30.8356 25.5006C30.7531 25.5253 30.6761 25.5659 30.6093 25.6203L27.0515 28.5147L25.7267 26.9632Z" fill="#F20F38"/>
</svg>
