<svg width="56" height="56" viewBox="0 0 56 56" fill="none" xmlns="http://www.w3.org/2000/svg">
<path d="M34.125 42C34.821 41.9992 35.4882 41.7224 35.9803 41.2303C36.4724 40.7382 36.7492 40.071 36.75 39.375V15.75C36.7492 15.054 36.4724 14.3868 35.9803 13.8947C35.4882 13.4026 34.821 13.1258 34.125 13.125H4.375C3.67904 13.1258 3.0118 13.4026 2.51968 13.8947C2.02757 14.3868 1.75076 15.054 1.75 15.75V39.375C1.75076 40.071 2.02757 40.7382 2.51968 41.2303C3.0118 41.7224 3.67904 41.9992 4.375 42H16.625V43.75H13.125C12.661 43.7505 12.2162 43.9351 11.8881 44.2631C11.5601 44.5912 11.3755 45.036 11.375 45.5V47.25C11.3755 47.714 11.5601 48.1588 11.8881 48.4869C12.2162 48.8149 12.661 48.9995 13.125 49H25.375C25.839 48.9995 26.2838 48.8149 26.6119 48.4869C26.9399 48.1588 27.1245 47.714 27.125 47.25V45.5C27.1245 45.036 26.9399 44.5912 26.6119 44.2631C26.2838 43.9351 25.839 43.7505 25.375 43.75H21.875V42H34.125ZM4.375 14.875H34.125C34.357 14.8752 34.5794 14.9675 34.7435 15.1315C34.9075 15.2956 34.9998 15.518 35 15.75V33.25H3.5V15.75C3.50023 15.518 3.59249 15.2956 3.75654 15.1315C3.92058 14.9675 4.14301 14.8752 4.375 14.875ZM4.375 40.25C4.14301 40.2498 3.92058 40.1575 3.75654 39.9935C3.59249 39.8294 3.50023 39.607 3.5 39.375V35H35V39.375C34.9998 39.607 34.9075 39.8294 34.7435 39.9935C34.5794 40.1575 34.357 40.2498 34.125 40.25H4.375ZM25.375 45.5V47.25H13.125V45.5H25.375ZM20.125 43.75H18.375V42H20.125V43.75Z" fill="#F20F38"/>
<path d="M19.25 38.5C19.7332 38.5 20.125 38.1082 20.125 37.625C20.125 37.1418 19.7332 36.75 19.25 36.75C18.7668 36.75 18.375 37.1418 18.375 37.625C18.375 38.1082 18.7668 38.5 19.25 38.5Z" fill="#F20F38"/>
<path d="M51.625 7H34.125C33.429 7.00076 32.7618 7.27757 32.2697 7.76968C31.7776 8.2618 31.5008 8.92904 31.5 9.625V11.375H33.25V9.625C33.2502 9.39301 33.3425 9.17058 33.5065 9.00654C33.6706 8.84249 33.893 8.75023 34.125 8.75H51.625C51.857 8.75023 52.0794 8.84249 52.2435 9.00654C52.4075 9.17058 52.4998 9.39301 52.5 9.625V15.75H38.5V17.5H52.5V46.375C52.4998 46.607 52.4075 46.8294 52.2435 46.9935C52.0794 47.1575 51.857 47.2498 51.625 47.25H34.125C33.893 47.2498 33.6706 47.1575 33.5065 46.9935C33.3425 46.8294 33.2502 46.607 33.25 46.375V43.75H31.5V46.375C31.5008 47.071 31.7776 47.7382 32.2697 48.2303C32.7618 48.7224 33.429 48.9992 34.125 49H51.625C52.321 48.9992 52.9882 48.7224 53.4803 48.2303C53.9724 47.7382 54.2492 47.071 54.25 46.375V9.625C54.2492 8.92904 53.9724 8.2618 53.4803 7.76968C52.9882 7.27757 52.321 7.00076 51.625 7Z" fill="#F20F38"/>
<path d="M49.875 13.125C50.3582 13.125 50.75 12.7332 50.75 12.25C50.75 11.7668 50.3582 11.375 49.875 11.375C49.3918 11.375 49 11.7668 49 12.25C49 12.7332 49.3918 13.125 49.875 13.125Z" fill="#F20F38"/>
</svg>
