<svg width="48" height="48" viewBox="0 0 48 48" fill="none" xmlns="http://www.w3.org/2000/svg">
<path d="M24.8005 3.46477C24.6683 3.14311 24.3583 2.93536 24.0105 2.93536C24.0102 2.93536 24.0098 2.93536 24.0096 2.93536C23.6614 2.93574 23.3513 3.14424 23.2197 3.46646C23.2177 3.47161 23.2156 3.47686 23.2136 3.48211L20.7103 10.0547C20.572 10.4176 20.7543 10.8239 21.1171 10.9621C21.1995 10.9935 21.2841 11.0083 21.3673 11.0083C21.6505 11.0083 21.9176 10.8358 22.0245 10.5552L22.4755 9.37111H25.5269L25.9731 10.5532C26.1101 10.9166 26.516 11.1 26.8792 10.9628C27.2424 10.8257 27.4258 10.42 27.2887 10.0567L24.8081 3.4838C24.8056 3.47743 24.8032 3.47105 24.8005 3.46477ZM23.011 7.96496L24.0082 5.34699L24.9962 7.96496H23.011Z" fill="#F20F38"/>
<path d="M21.9648 19.9637C21.5764 19.9637 21.2617 20.2786 21.2617 20.6669V27.3334C21.2617 27.5205 21.3363 27.6997 21.4687 27.8317C21.6005 27.963 21.7789 28.0366 21.9648 28.0366H21.9679C21.9681 28.0366 23.7487 28.0287 24.2394 28.0287C25.6165 28.0287 26.737 26.9083 26.737 25.5311C26.737 24.7036 26.3322 23.9692 25.7104 23.5144C25.9792 23.1453 26.1383 22.6914 26.1383 22.2009C26.1383 20.9673 25.1348 19.9637 23.9012 19.9637H21.9648ZM24.2394 26.6223C23.9522 26.6223 23.2242 26.6251 22.6679 26.6273V24.4418C22.8398 24.4412 23.0249 24.4404 23.2013 24.4398H24.2394C24.8412 24.4398 25.3308 24.9293 25.3308 25.5311C25.3308 26.1329 24.8412 26.6223 24.2394 26.6223ZM24.7321 22.2008C24.7321 22.659 24.3593 23.0316 23.9012 23.0316C23.7588 23.0316 23.4909 23.0324 23.1985 23.0334H22.6679V21.3699H23.9012C24.3594 21.37 24.7321 21.7427 24.7321 22.2008Z" fill="#F20F38"/>
<path d="M24.6184 38.3983C25.1456 38.3983 25.6539 38.5535 26.0885 38.8471C26.4103 39.0645 26.8474 38.98 27.0648 38.6581C27.2821 38.3364 27.1975 37.8993 26.8757 37.6819C26.2077 37.2307 25.4272 36.9922 24.6184 36.9922C22.3928 36.9922 20.582 38.8029 20.582 41.0286C20.582 43.2543 22.3927 45.065 24.6184 45.065C25.5042 45.065 26.2985 44.7746 26.9155 44.2251C27.0362 44.1176 27.1511 43.9991 27.257 43.8728C27.5067 43.5753 27.4679 43.1318 27.1703 42.8822C26.8728 42.6326 26.4295 42.6715 26.1798 42.9689C26.1175 43.0432 26.0504 43.1126 25.9803 43.175C25.6198 43.496 25.1617 43.6587 24.6185 43.6587C23.1682 43.6587 21.9884 42.4789 21.9884 41.0286C21.9884 39.5783 23.1681 38.3983 24.6184 38.3983Z" fill="#F20F38"/>
<path d="M45.3003 8.96803C43.5593 7.22709 41.2446 6.26841 38.7826 6.26841H33.4163V3.71344C33.4163 1.66584 31.7504 0 29.7029 0H28.0379C27.6495 0 27.3348 0.314812 27.3348 0.703125C27.3348 1.09144 27.6495 1.40625 28.0379 1.40625H29.7029C30.9751 1.40625 32.0101 2.44125 32.0101 3.71344V10.23C32.0101 11.5022 30.9751 12.5372 29.7029 12.5372H24.0038C24.0026 12.5372 24.0015 12.537 24.0002 12.537C23.9989 12.537 23.9977 12.5372 23.9965 12.5372H18.2981C17.026 12.5372 15.991 11.5022 15.991 10.23V3.71344C15.991 2.44125 17.026 1.40625 18.2981 1.40625H25.2254C25.6138 1.40625 25.9285 1.09144 25.9285 0.703125C25.9285 0.314812 25.6138 0 25.2254 0H18.2981C16.2505 0 14.5848 1.66584 14.5848 3.71344V10.23C14.5848 12.2776 16.2506 13.9434 18.2981 13.9434H23.2971V17.0287H18.2979C16.2503 17.0287 14.5846 18.6945 14.5846 20.742V23.297H9.21741C6.75525 23.297 4.44056 24.2558 2.69963 25.9967C0.958781 27.7376 0 30.0523 0 32.5145C0 37.5969 4.13484 41.7319 9.21741 41.7319H11.5477L10.3406 42.9389C10.066 43.2135 10.066 43.6586 10.3406 43.9332C10.478 44.0706 10.6579 44.1392 10.8379 44.1392C11.0178 44.1392 11.1978 44.0706 11.3351 43.9332L13.7425 41.5259C13.8743 41.3941 13.9484 41.2152 13.9484 41.0288C13.9484 40.8423 13.8743 40.6634 13.7425 40.5316L11.3351 38.1243C11.0604 37.8497 10.6153 37.8497 10.3407 38.1243C10.0661 38.3989 10.0661 38.8441 10.3407 39.1186L11.5478 40.3256H9.21741C4.91034 40.3256 1.40625 36.8215 1.40625 32.5145C1.40625 30.428 2.21869 28.4664 3.69403 26.9911C5.16928 25.5157 7.13091 24.7033 9.21741 24.7033H14.5845V27.2583C14.5845 29.3058 16.2503 30.9716 18.2978 30.9716H23.297V34.0576H18.2981C16.8963 34.0576 15.6287 34.8334 14.99 36.0821C14.8132 36.4279 14.9501 36.8515 15.2959 37.0283C15.6416 37.2052 16.0652 37.0683 16.2421 36.7225C16.6391 35.9462 17.427 35.4639 18.2982 35.4639H29.7029C30.9751 35.4639 32.0101 36.4985 32.0101 37.7702V44.2868C32.0101 45.5589 30.9751 46.5939 29.7029 46.5939H18.2981C17.026 46.5939 15.991 45.5589 15.991 44.2868V39.1764C15.991 38.7881 15.6763 38.4733 15.2879 38.4733C14.8995 38.4733 14.5848 38.7881 14.5848 39.1764V44.2868C14.5848 46.3343 16.2506 48.0002 18.2981 48.0002H29.7028C31.7504 48.0002 33.4163 46.3343 33.4163 44.2868V37.7702C33.4163 35.7232 31.7503 34.0577 29.7028 34.0577H24.7033V30.9717H29.7025C31.75 30.9717 33.4158 29.3059 33.4158 27.2584V20.7422C33.4158 18.6947 31.7499 17.0288 29.7025 17.0288H24.7033V13.9434H29.7028C31.7504 13.9434 33.4163 12.2776 33.4163 10.23V7.67466H38.7825C40.869 7.67466 42.8306 8.48719 44.3059 9.96244C45.7813 11.4378 46.5938 13.3994 46.5938 15.4858C46.5938 19.7929 43.0897 23.297 38.7826 23.297H36.4523L37.6595 22.0899C37.9341 21.8153 37.9341 21.3702 37.6595 21.0956C37.3849 20.8211 36.9398 20.821 36.6651 21.0956L34.2577 23.5029C34.1258 23.6348 34.0518 23.8136 34.0518 24.0001C34.0518 24.1866 34.1258 24.3654 34.2577 24.4972L36.6651 26.9046C36.8024 27.0419 36.9824 27.1105 37.1623 27.1105C37.3422 27.1105 37.5222 27.0419 37.6596 26.9046C37.9342 26.63 37.9342 26.1848 37.6596 25.9103L36.4524 24.7032H38.7827C43.8652 24.7032 48.0001 20.5683 48.0001 15.4858C48 13.0238 47.0412 10.7091 45.3003 8.96803ZM32.0096 20.742V27.2582C32.0096 28.5303 30.9747 29.5653 29.7026 29.5653H18.2979C17.0258 29.5653 15.9908 28.5303 15.9908 27.2582V20.742C15.9908 19.4699 17.0258 18.4349 18.2979 18.4349H29.7025C30.9746 18.4349 32.0096 19.4699 32.0096 20.742Z" fill="#F20F38"/>
</svg>
