<svg width="56" height="56" viewBox="0 0 56 56" fill="none" xmlns="http://www.w3.org/2000/svg">
<path d="M19.25 52.1719H36.75C38.0839 52.1703 39.3627 51.6398 40.3059 50.6966C41.2491 49.7533 41.7797 48.4745 41.7812 47.1406V8.85938C41.7797 7.52548 41.2491 6.24665 40.3059 5.30344C39.3627 4.36023 38.0839 3.82966 36.75 3.82812H19.25C17.9161 3.82966 16.6373 4.36023 15.6941 5.30344C14.7509 6.24665 14.2203 7.52548 14.2188 8.85938V47.1406C14.2203 48.4745 14.7509 49.7533 15.6941 50.6966C16.6373 51.6398 17.9161 52.1703 19.25 52.1719ZM19.25 5.14062H36.75C37.7359 5.14173 38.6812 5.53387 39.3783 6.23104C40.0755 6.9282 40.4676 7.87344 40.4688 8.85938V10.3906H38.9375C38.7635 10.3906 38.5965 10.4598 38.4735 10.5828C38.3504 10.7059 38.2812 10.8728 38.2812 11.0469C38.2812 11.2209 38.3504 11.3878 38.4735 11.5109C38.5965 11.634 38.7635 11.7031 38.9375 11.7031H40.4688V42.9844H15.5312V11.7031H33.3594C33.5334 11.7031 33.7003 11.634 33.8234 11.5109C33.9465 11.3878 34.0156 11.2209 34.0156 11.0469C34.0156 10.8728 33.9465 10.7059 33.8234 10.5828C33.7003 10.4598 33.5334 10.3906 33.3594 10.3906H15.5312V8.85938C15.5324 7.87344 15.9245 6.9282 16.6217 6.23104C17.3188 5.53387 18.2641 5.14173 19.25 5.14062ZM15.5312 44.2969H40.4688V47.1406C40.4676 48.1266 40.0755 49.0718 39.3783 49.769C38.6812 50.4661 37.7359 50.8583 36.75 50.8594H19.25C18.2641 50.8583 17.3188 50.4661 16.6217 49.769C15.9245 49.0718 15.5324 48.1266 15.5312 47.1406V44.2969Z" fill="#F20F38"/>
<path d="M35.5117 11.7031H36.7276C36.9017 11.7031 37.0686 11.634 37.1917 11.5109C37.3148 11.3878 37.3839 11.2209 37.3839 11.0469C37.3839 10.8728 37.3148 10.7059 37.1917 10.5828C37.0686 10.4598 36.9017 10.3906 36.7276 10.3906H35.5117C35.3377 10.3906 35.1708 10.4598 35.0477 10.5828C34.9246 10.7059 34.8555 10.8728 34.8555 11.0469C34.8555 11.2209 34.9246 11.3878 35.0477 11.5109C35.1708 11.634 35.3377 11.7031 35.5117 11.7031Z" fill="#F20F38"/>
<path d="M28 49.875C28.4543 49.875 28.8984 49.7403 29.2761 49.4879C29.6538 49.2355 29.9482 48.8768 30.122 48.4571C30.2959 48.0374 30.3414 47.5756 30.2528 47.13C30.1641 46.6845 29.9454 46.2752 29.6241 45.954C29.3029 45.6328 28.8937 45.414 28.4481 45.3254C28.0026 45.2368 27.5407 45.2822 27.121 45.4561C26.7013 45.6299 26.3426 45.9243 26.0902 46.3021C25.8378 46.6798 25.7031 47.1239 25.7031 47.5781C25.7038 48.1871 25.946 48.7709 26.3766 49.2015C26.8072 49.6321 27.391 49.8743 28 49.875ZM28 46.5938C28.1947 46.5938 28.385 46.6515 28.5469 46.7597C28.7088 46.8678 28.8349 47.0216 28.9095 47.2014C28.984 47.3813 29.0034 47.5792 28.9655 47.7702C28.9275 47.9611 28.8337 48.1365 28.6961 48.2742C28.5584 48.4119 28.383 48.5056 28.192 48.5436C28.0011 48.5816 27.8032 48.5621 27.6233 48.4876C27.4434 48.4131 27.2897 48.2869 27.1815 48.125C27.0734 47.9631 27.0156 47.7728 27.0156 47.5781C27.0159 47.3171 27.1197 47.0669 27.3043 46.8824C27.4888 46.6978 27.739 46.594 28 46.5938Z" fill="#F20F38"/>
<path d="M18.4219 19.4688H22.0969C22.2709 19.4688 22.4378 19.3996 22.5609 19.2765C22.684 19.1535 22.7531 18.9865 22.7531 18.8125C22.7531 18.6385 22.684 18.4715 22.5609 18.3485C22.4378 18.2254 22.2709 18.1562 22.0969 18.1562H18.4219C18.2478 18.1562 18.0809 18.2254 17.9578 18.3485C17.8348 18.4715 17.7656 18.6385 17.7656 18.8125C17.7656 18.9865 17.8348 19.1535 17.9578 19.2765C18.0809 19.3996 18.2478 19.4688 18.4219 19.4688Z" fill="#F20F38"/>
<path d="M25.1094 19.4688H27.4719C27.6459 19.4688 27.8128 19.3996 27.9359 19.2765C28.059 19.1535 28.1281 18.9865 28.1281 18.8125C28.1281 18.6385 28.059 18.4715 27.9359 18.3485C27.8128 18.2254 27.6459 18.1562 27.4719 18.1562H25.1094C24.9353 18.1562 24.7684 18.2254 24.6453 18.3485C24.5223 18.4715 24.4531 18.6385 24.4531 18.8125C24.4531 18.9865 24.5223 19.1535 24.6453 19.2765C24.7684 19.3996 24.9353 19.4688 25.1094 19.4688Z" fill="#F20F38"/>
<path d="M30.625 18.8125C30.625 18.9865 30.6941 19.1535 30.8172 19.2765C30.9403 19.3996 31.1072 19.4688 31.2812 19.4688H37.5812C37.7553 19.4688 37.9222 19.3996 38.0453 19.2765C38.1684 19.1535 38.2375 18.9865 38.2375 18.8125C38.2375 18.6385 38.1684 18.4715 38.0453 18.3485C37.9222 18.2254 37.7553 18.1562 37.5812 18.1562H31.2812C31.1072 18.1562 30.9403 18.2254 30.8172 18.3485C30.6941 18.4715 30.625 18.6385 30.625 18.8125Z" fill="#F20F38"/>
<path d="M18.4219 25.5938H24.7219C24.8959 25.5938 25.0628 25.5246 25.1859 25.4015C25.309 25.2785 25.3781 25.1115 25.3781 24.9375C25.3781 24.7635 25.309 24.5965 25.1859 24.4735C25.0628 24.3504 24.8959 24.2812 24.7219 24.2812H18.4219C18.2478 24.2812 18.0809 24.3504 17.9578 24.4735C17.8348 24.5965 17.7656 24.7635 17.7656 24.9375C17.7656 25.1115 17.8348 25.2785 17.9578 25.4015C18.0809 25.5246 18.2478 25.5938 18.4219 25.5938Z" fill="#F20F38"/>
<path d="M31.4094 25.5938C31.5834 25.5938 31.7503 25.5246 31.8734 25.4015C31.9965 25.2785 32.0656 25.1115 32.0656 24.9375C32.0656 24.7635 31.9965 24.5965 31.8734 24.4735C31.7503 24.3504 31.5834 24.2812 31.4094 24.2812H27.7344C27.5603 24.2812 27.3934 24.3504 27.2703 24.4735C27.1473 24.5965 27.0781 24.7635 27.0781 24.9375C27.0781 25.1115 27.1473 25.2785 27.2703 25.4015C27.3934 25.5246 27.5603 25.5938 27.7344 25.5938H31.4094Z" fill="#F20F38"/>
<path d="M37.5812 24.2812H35.2187C35.0447 24.2812 34.8778 24.3504 34.7547 24.4735C34.6316 24.5965 34.5625 24.7635 34.5625 24.9375C34.5625 25.1115 34.6316 25.2785 34.7547 25.4015C34.8778 25.5246 35.0447 25.5938 35.2187 25.5938H37.5812C37.7553 25.5938 37.9222 25.5246 38.0453 25.4015C38.1684 25.2785 38.2375 25.1115 38.2375 24.9375C38.2375 24.7635 38.1684 24.5965 38.0453 24.4735C37.9222 24.3504 37.7553 24.2812 37.5812 24.2812Z" fill="#F20F38"/>
<path d="M19.9969 30.4062H18.4219C18.2478 30.4062 18.0809 30.4754 17.9578 30.5985C17.8348 30.7215 17.7656 30.8885 17.7656 31.0625C17.7656 31.2365 17.8348 31.4035 17.9578 31.5265C18.0809 31.6496 18.2478 31.7188 18.4219 31.7188H19.9969C20.1709 31.7188 20.3378 31.6496 20.4609 31.5265C20.584 31.4035 20.6531 31.2365 20.6531 31.0625C20.6531 30.8885 20.584 30.7215 20.4609 30.5985C20.3378 30.4754 20.1709 30.4062 19.9969 30.4062Z" fill="#F20F38"/>
<path d="M26.6906 30.4062H23.0156C22.8416 30.4062 22.6747 30.4754 22.5516 30.5985C22.4285 30.7215 22.3594 30.8885 22.3594 31.0625C22.3594 31.2365 22.4285 31.4035 22.5516 31.5265C22.6747 31.6496 22.8416 31.7188 23.0156 31.7188H26.6906C26.8647 31.7188 27.0316 31.6496 27.1547 31.5265C27.2777 31.4035 27.3469 31.2365 27.3469 31.0625C27.3469 30.8885 27.2777 30.7215 27.1547 30.5985C27.0316 30.4754 26.8647 30.4062 26.6906 30.4062Z" fill="#F20F38"/>
<path d="M37.5797 30.4062H30.4922C30.3181 30.4062 30.1512 30.4754 30.0282 30.5985C29.9051 30.7215 29.8359 30.8885 29.8359 31.0625C29.8359 31.2365 29.9051 31.4035 30.0282 31.5265C30.1512 31.6496 30.3181 31.7188 30.4922 31.7188H37.5797C37.7537 31.7188 37.9207 31.6496 38.0437 31.5265C38.1668 31.4035 38.2359 31.2365 38.2359 31.0625C38.2359 30.8885 38.1668 30.7215 38.0437 30.5985C37.9207 30.4754 37.7537 30.4062 37.5797 30.4062Z" fill="#F20F38"/>
<path d="M19.9969 36.5312H18.4219C18.2478 36.5312 18.0809 36.6004 17.9578 36.7235C17.8348 36.8465 17.7656 37.0135 17.7656 37.1875C17.7656 37.3615 17.8348 37.5285 17.9578 37.6515C18.0809 37.7746 18.2478 37.8438 18.4219 37.8438H19.9969C20.1709 37.8438 20.3378 37.7746 20.4609 37.6515C20.584 37.5285 20.6531 37.3615 20.6531 37.1875C20.6531 37.0135 20.584 36.8465 20.4609 36.7235C20.3378 36.6004 20.1709 36.5312 19.9969 36.5312Z" fill="#F20F38"/>
<path d="M31.9406 36.5312H23.0156C22.8416 36.5312 22.6747 36.6004 22.5516 36.7235C22.4285 36.8465 22.3594 37.0135 22.3594 37.1875C22.3594 37.3615 22.4285 37.5285 22.5516 37.6515C22.6747 37.7746 22.8416 37.8438 23.0156 37.8438H31.9406C32.1147 37.8438 32.2816 37.7746 32.4047 37.6515C32.5277 37.5285 32.5969 37.3615 32.5969 37.1875C32.5969 37.0135 32.5277 36.8465 32.4047 36.7235C32.2816 36.6004 32.1147 36.5312 31.9406 36.5312Z" fill="#F20F38"/>
<path d="M37.5797 36.5312H35.7422C35.5681 36.5312 35.4012 36.6004 35.2782 36.7235C35.1551 36.8465 35.0859 37.0135 35.0859 37.1875C35.0859 37.3615 35.1551 37.5285 35.2782 37.6515C35.4012 37.7746 35.5681 37.8438 35.7422 37.8438H37.5797C37.7537 37.8438 37.9207 37.7746 38.0437 37.6515C38.1668 37.5285 38.2359 37.3615 38.2359 37.1875C38.2359 37.0135 38.1668 36.8465 38.0437 36.7235C37.9207 36.6004 37.7537 36.5312 37.5797 36.5312Z" fill="#F20F38"/>
</svg>
