<svg width="56" height="56" viewBox="0 0 56 56" fill="none" xmlns="http://www.w3.org/2000/svg">
<path d="M17.2031 52.1719H34.7031C36.037 52.1703 37.3159 51.6398 38.2591 50.6966C39.2023 49.7533 39.7328 48.4745 39.7344 47.1406V36.9632H40.9839C41.7378 36.9623 42.4607 36.6625 42.9938 36.1293C43.5269 35.5962 43.8268 34.8734 43.8276 34.1194V21.3429C43.8276 21.2566 43.8106 21.1712 43.7776 21.0915C43.7445 21.0117 43.6961 20.9393 43.635 20.8784L39.7344 16.9859V8.85938C39.7328 7.52548 39.2023 6.24665 38.2591 5.30344C37.3159 4.36023 36.037 3.82966 34.7031 3.82812H17.2031C15.8692 3.82963 14.5904 4.36019 13.6472 5.30341C12.7039 6.24662 12.1734 7.52547 12.1719 8.85938V47.1406C12.1734 48.4745 12.7039 49.7534 13.6472 50.6966C14.5904 51.6398 15.8692 52.1704 17.2031 52.1719ZM40.9839 35.6507H37.4589V25.2195C37.459 25.1332 37.4419 25.0477 37.4089 24.968C37.3758 24.8883 37.3274 24.8159 37.2663 24.755L31.7404 19.24C31.7391 19.2387 31.7374 19.2378 31.7361 19.2364C31.6751 19.1733 31.6021 19.1231 31.5212 19.0888C31.4404 19.0545 31.3536 19.0368 31.2658 19.0368C31.2483 19.0368 31.2312 19.038 31.2142 19.0395C31.1968 19.038 31.1794 19.0368 31.1619 19.0368H28.3213V18.0039C28.3218 17.5979 28.4833 17.2087 28.7703 16.9217C29.0574 16.6346 29.4466 16.4731 29.8526 16.4726H36.9772V19.167C36.9781 19.9209 37.278 20.6438 37.8111 21.1769C38.3442 21.71 39.067 22.0099 39.821 22.0107H42.5151V34.1194C42.5147 34.5254 42.3532 34.9146 42.0662 35.2017C41.7791 35.4888 41.3899 35.6502 40.9839 35.6507ZM30.6086 20.3491V23.0433C30.6094 23.7973 30.9093 24.5201 31.4424 25.0533C31.9755 25.5864 32.6984 25.8863 33.4523 25.8871H36.1464V37.9961C36.146 38.4021 35.9845 38.7913 35.6974 39.0784C35.4104 39.3654 35.0212 39.5269 34.6152 39.5274H23.4839C23.0779 39.5269 22.6887 39.3654 22.4017 39.0783C22.1146 38.7913 21.9531 38.4021 21.9526 37.9961V21.8806C21.9531 21.4746 22.1146 21.0854 22.4016 20.7983C22.6887 20.5113 23.0779 20.3498 23.4839 20.3493L30.6086 20.3491ZM35.2276 24.5746H33.4523C33.0463 24.5741 32.6571 24.4127 32.3701 24.1256C32.083 23.8385 31.9215 23.4493 31.9211 23.0433V21.2751L35.2276 24.5746ZM38.4213 17.5301V17.5914H38.4828L41.5958 20.6977H39.821C39.415 20.6972 39.0258 20.5357 38.7388 20.2487C38.4517 19.9616 38.2902 19.5724 38.2897 19.1664V17.3985L38.4213 17.5301ZM17.2031 5.14062H34.7031C35.6891 5.14175 36.6343 5.53391 37.3314 6.23107C38.0286 6.92822 38.4207 7.87345 38.4219 8.85938V10.3906H36.8906C36.7166 10.3906 36.5497 10.4598 36.4266 10.5828C36.3035 10.7059 36.2344 10.8728 36.2344 11.0469C36.2344 11.2209 36.3035 11.3878 36.4266 11.5109C36.5497 11.634 36.7166 11.7031 36.8906 11.7031H38.4219V15.6761L38.1085 15.3635C38.1072 15.362 38.1056 15.3612 38.1043 15.3598C38.0433 15.2966 37.9702 15.2464 37.8894 15.2121C37.8086 15.1778 37.7217 15.1602 37.6339 15.1601C37.6164 15.1601 37.5994 15.1615 37.5823 15.1628C37.5649 15.1615 37.5475 15.1601 37.53 15.1601H29.8526C29.0986 15.161 28.3758 15.4609 27.8427 15.994C27.3096 16.5271 27.0097 17.2499 27.0088 18.0039V19.0368H23.4839C22.7299 19.0377 22.0071 19.3375 21.474 19.8707C20.9408 20.4038 20.641 21.1266 20.6401 21.8806V37.9961C20.641 38.7501 20.9409 39.4729 21.474 40.006C22.0071 40.5391 22.7299 40.839 23.4839 40.8399H34.6152C35.3691 40.839 36.092 40.5391 36.6251 40.006C37.1582 39.4729 37.4581 38.7501 37.4589 37.9961V36.9632H38.4214V42.9844H13.4839V11.7031H31.3121C31.4861 11.7031 31.653 11.634 31.7761 11.5109C31.8992 11.3878 31.9683 11.2209 31.9683 11.0469C31.9683 10.8728 31.8992 10.7059 31.7761 10.5828C31.653 10.4598 31.4861 10.3906 31.3121 10.3906H13.4839V8.85938C13.485 7.87336 13.8772 6.92806 14.5745 6.23088C15.2718 5.53371 16.2171 5.14161 17.2031 5.14062ZM13.4844 44.2969H38.4219V47.1406C38.4207 48.1266 38.0286 49.0718 37.3314 49.7689C36.6343 50.4661 35.6891 50.8582 34.7031 50.8594H17.2031C16.2172 50.8583 15.2719 50.4661 14.5748 49.769C13.8776 49.0718 13.4855 48.1266 13.4844 47.1406V44.2969Z" fill="#F20F38"/>
<path d="M33.4688 11.7031H34.6848C34.8588 11.7031 35.0258 11.634 35.1488 11.5109C35.2719 11.3878 35.341 11.2209 35.341 11.0469C35.341 10.8728 35.2719 10.7059 35.1488 10.5828C35.0258 10.4598 34.8588 10.3906 34.6848 10.3906H33.4688C33.2947 10.3906 33.1278 10.4598 33.0047 10.5828C32.8816 10.7059 32.8125 10.8728 32.8125 11.0469C32.8125 11.2209 32.8816 11.3878 33.0047 11.5109C33.1278 11.634 33.2947 11.7031 33.4688 11.7031Z" fill="#F20F38"/>
<path d="M25.9531 49.875C26.4074 49.875 26.8515 49.7403 27.2292 49.4879C27.6069 49.2355 27.9013 48.8768 28.0752 48.4571C28.249 48.0374 28.2945 47.5756 28.2059 47.13C28.1172 46.6845 27.8985 46.2752 27.5773 45.954C27.256 45.6328 26.8468 45.414 26.4012 45.3254C25.9557 45.2368 25.4938 45.2822 25.0741 45.4561C24.6544 45.6299 24.2957 45.9243 24.0433 46.3021C23.791 46.6798 23.6562 47.1239 23.6562 47.5781C23.6569 48.1871 23.8992 48.7709 24.3298 49.2015C24.7604 49.6321 25.3442 49.8743 25.9531 49.875ZM25.9531 46.5938C26.1478 46.5938 26.3381 46.6515 26.5 46.7597C26.6619 46.8678 26.7881 47.0216 26.8626 47.2014C26.9371 47.3813 26.9566 47.5792 26.9186 47.7702C26.8806 47.9611 26.7868 48.1365 26.6492 48.2742C26.5115 48.4119 26.3361 48.5056 26.1452 48.5436C25.9542 48.5816 25.7563 48.5621 25.5764 48.4876C25.3965 48.4131 25.2428 48.2869 25.1346 48.125C25.0265 47.9631 24.9687 47.7728 24.9687 47.5781C24.9691 47.3172 25.0729 47.067 25.2574 46.8824C25.442 46.6979 25.6921 46.5941 25.9531 46.5938Z" fill="#F20F38"/>
<path d="M24.9453 29.2274H34.27C34.444 29.2274 34.6109 29.1583 34.734 29.0352C34.8571 28.9121 34.9262 28.7452 34.9262 28.5712C34.9262 28.3971 34.8571 28.2302 34.734 28.1071C34.6109 27.9841 34.444 27.9149 34.27 27.9149H24.9453C24.7713 27.9149 24.6043 27.9841 24.4813 28.1071C24.3582 28.2302 24.2891 28.3971 24.2891 28.5712C24.2891 28.7452 24.3582 28.9121 24.4813 29.0352C24.6043 29.1583 24.7713 29.2274 24.9453 29.2274Z" fill="#F20F38"/>
<path d="M32.2627 31.743H30.875C30.701 31.743 30.534 31.8122 30.411 31.9353C30.2879 32.0583 30.2188 32.2252 30.2188 32.3993C30.2188 32.5733 30.2879 32.7403 30.411 32.8633C30.534 32.9864 30.701 33.0555 30.875 33.0555H32.2627C32.4368 33.0555 32.6037 32.9864 32.7268 32.8633C32.8499 32.7403 32.919 32.5733 32.919 32.3993C32.919 32.2252 32.8499 32.0583 32.7268 31.9353C32.6037 31.8122 32.4368 31.743 32.2627 31.743Z" fill="#F20F38"/>
<path d="M24.9453 33.0555H28.2954C28.4694 33.0555 28.6363 32.9864 28.7594 32.8633C28.8825 32.7403 28.9516 32.5733 28.9516 32.3993C28.9516 32.2252 28.8825 32.0583 28.7594 31.9353C28.6363 31.8122 28.4694 31.743 28.2954 31.743H24.9453C24.7713 31.743 24.6043 31.8122 24.4813 31.9353C24.3582 32.0583 24.2891 32.2252 24.2891 32.3993C24.2891 32.5733 24.3582 32.7403 24.4813 32.8633C24.6043 32.9864 24.7713 33.0555 24.9453 33.0555Z" fill="#F20F38"/>
</svg>
