<svg width="48" height="40" viewBox="0 0 48 40" fill="none" xmlns="http://www.w3.org/2000/svg">
<path d="M7.8806 4.29852C5.73134 4.29852 4 6.02987 4 8.17912C4 10.3284 5.73134 12.0597 7.8806 12.0597C9.97015 12.0597 11.7612 10.3284 11.7612 8.17912C11.7612 6.02987 10.0298 4.29852 7.8806 4.29852ZM7.82089 10.5075C6.56716 10.5075 5.49254 9.49256 5.49254 8.17912C5.49254 6.86569 6.56716 5.85076 7.82089 5.85076C9.13433 5.85076 10.1493 6.92539 10.1493 8.17912C10.1493 9.49256 9.07463 10.5075 7.82089 10.5075Z" fill="#F20F38"/>
<path d="M42.3277 6.20892C40.7158 6.20892 39.4023 7.52236 39.4023 9.1343C39.4023 10.7462 40.7158 12.0597 42.3277 12.0597C43.9397 12.0597 45.2531 10.7462 45.2531 9.1343C45.2531 7.52236 43.9397 6.20892 42.3277 6.20892ZM42.3277 10.5074C41.5516 10.5074 40.9546 9.91042 40.9546 9.1343C40.9546 8.35818 41.5516 7.76116 42.3277 7.76116C43.1038 7.76116 43.7008 8.35818 43.7008 9.1343C43.7008 9.91042 43.1038 10.5074 42.3277 10.5074Z" fill="#F20F38"/>
<path d="M48 9.19404C48 6.02986 45.4328 3.52239 42.3284 3.52239C39.2239 3.52239 36.6567 6.02986 36.6567 9.19404C36.6567 12 40.0597 16.7761 41.3134 18.3881L22.9851 36.7164C22.0896 37.6119 20.8955 38.0896 19.5821 38.0896C18.3284 38.0896 17.1343 37.6119 16.1791 36.7164C14.3284 34.8657 14.3284 31.8209 16.1791 29.9702L31.8209 14.2687C34.2687 11.8209 34.2687 7.8209 31.8209 5.31344C29.3731 2.86568 25.3731 2.86568 22.8657 5.31344L12.8955 15.3433C14.3881 12.7761 15.6418 10.0896 15.6418 8.17911C15.6418 3.8806 12.1194 0.358215 7.8209 0.358215C3.52239 0.358215 0 3.8806 0 8.17911C0 12.7761 6.92537 21.6119 7.22388 21.9702L7.8209 22.7463L8.35821 22.0896L24 6.38807C24.8955 5.49254 26.0896 5.01493 27.403 5.01493C28.6567 5.01493 29.8507 5.49254 30.806 6.38807C31.7015 7.28359 32.1791 8.47762 32.1791 9.79105C32.1791 11.0448 31.7015 12.2388 30.806 13.194L15.1642 28.8358C12.7164 31.2836 12.7164 35.2836 15.1642 37.791C16.3582 38.9851 17.9701 39.6418 19.6418 39.6418C21.3134 39.6418 22.9254 38.9851 24.1194 37.791L42.3284 19.5821L42.3881 19.6418L42.6866 19.2836L42.9254 19.0448L42.8657 18.9851L42.9851 18.8657C43.5224 18.209 48 12.2388 48 9.19404ZM7.8209 20.2388C5.67164 17.3134 1.55224 11.2836 1.55224 8.17911C1.55224 4.71642 4.35821 1.91045 7.8209 1.91045C11.2836 1.91045 14.0896 4.71642 14.0896 8.17911C14.0896 11.1045 9.97015 17.2537 7.8209 20.2388ZM42.3284 17.0746C40.7761 14.9851 38.209 11.1045 38.209 9.13433C38.209 6.86568 40.0597 5.01493 42.3284 5.01493C44.597 5.01493 46.4478 6.86568 46.4478 9.13433C46.4478 11.0448 43.8806 14.9851 42.3284 17.0746Z" fill="#F20F38"/>
</svg>
