<svg width="56" height="56" viewBox="0 0 56 56" fill="none" xmlns="http://www.w3.org/2000/svg">
<path d="M42.1279 27.4872H29.5078C29.3338 27.4872 29.1668 27.5563 29.0438 27.6794C28.9207 27.8025 28.8516 27.9694 28.8516 28.1434C28.8516 28.3175 28.9207 28.4844 29.0438 28.6075C29.1668 28.7306 29.3338 28.7997 29.5078 28.7997H42.1279C42.302 28.7997 42.4689 28.7306 42.592 28.6075C42.715 28.4844 42.7842 28.3175 42.7842 28.1434C42.7842 27.9694 42.715 27.8025 42.592 27.6794C42.4689 27.5563 42.302 27.4872 42.1279 27.4872Z" fill="#F20F38"/>
<path d="M36.8077 31.6941H29.5078C29.3338 31.6941 29.1668 31.7632 29.0438 31.8863C28.9207 32.0094 28.8516 32.1763 28.8516 32.3503C28.8516 32.5244 28.9207 32.6913 29.0438 32.8144C29.1668 32.9375 29.3338 33.0066 29.5078 33.0066H36.8077C36.9818 33.0066 37.1487 32.9375 37.2718 32.8144C37.3948 32.6913 37.464 32.5244 37.464 32.3503C37.464 32.1763 37.3948 32.0094 37.2718 31.8863C37.1487 31.7632 36.9818 31.6941 36.8077 31.6941Z" fill="#F20F38"/>
<path d="M31.1172 3.82812H13.6172C12.2833 3.82966 11.0045 4.36023 10.0613 5.30344C9.11804 6.24665 8.58747 7.52548 8.58594 8.85938V47.1406C8.58747 48.4745 9.11804 49.7533 10.0613 50.6966C11.0045 51.6398 12.2833 52.1703 13.6172 52.1719H31.1172C32.4511 52.1703 33.7299 51.6398 34.6731 50.6966C35.6163 49.7533 36.1469 48.4745 36.1484 47.1406V39.861H44.5703C45.3243 39.8601 46.0471 39.5602 46.5802 39.0271C47.1133 38.494 47.4132 37.7712 47.4141 37.0172V18.6759C47.4132 17.9219 47.1133 17.1991 46.5802 16.666C46.0471 16.1329 45.3243 15.833 44.5703 15.8321H41.5247V14.6078C41.5247 14.4337 41.4555 14.2668 41.3324 14.1438C41.2094 14.0207 41.0425 13.9515 40.8684 13.9515C40.6944 13.9515 40.5274 14.0207 40.4044 14.1438C40.2813 14.2668 40.2122 14.4337 40.2122 14.6078V15.8321H36.1484V8.85938C36.1469 7.52548 35.6163 6.24665 34.6731 5.30344C33.7299 4.36023 32.4511 3.82966 31.1172 3.82812ZM31.1172 50.8594H13.6172C12.6313 50.8583 11.686 50.4661 10.9888 49.769C10.2917 49.0718 9.89954 48.1266 9.89844 47.1406V44.2969H34.8359V47.1406C34.8348 48.1266 34.4427 49.0718 33.7455 49.769C33.0484 50.4661 32.1031 50.8583 31.1172 50.8594ZM34.8359 42.9844H9.89844V11.7031H27.7266C27.9006 11.7031 28.0675 11.634 28.1906 11.5109C28.3137 11.3878 28.3828 11.2209 28.3828 11.0469C28.3828 10.8728 28.3137 10.7059 28.1906 10.5828C28.0675 10.4598 27.9006 10.3906 27.7266 10.3906H9.89844V8.85938C9.89954 7.87344 10.2917 6.9282 10.9888 6.23104C11.686 5.53387 12.6313 5.14173 13.6172 5.14062H31.1172C32.1031 5.14173 33.0484 5.53387 33.7455 6.23104C34.4427 6.9282 34.8348 7.87344 34.8359 8.85938V10.3906H33.3047C33.1306 10.3906 32.9637 10.4598 32.8406 10.5828C32.7176 10.7059 32.6484 10.8728 32.6484 11.0469C32.6484 11.2209 32.7176 11.3878 32.8406 11.5109C32.9637 11.634 33.1306 11.7031 33.3047 11.7031H34.8359V15.8321H31.4285V14.6078C31.4285 14.4337 31.3593 14.2668 31.2363 14.1438C31.1132 14.0207 30.9463 13.9515 30.7722 13.9515C30.5982 13.9515 30.4313 14.0207 30.3082 14.1438C30.1851 14.2668 30.116 14.4337 30.116 14.6078V15.8321H27.0703C26.3164 15.833 25.5935 16.1329 25.0604 16.666C24.5273 17.1991 24.2274 17.9219 24.2266 18.6759V37.0172C24.2274 37.7712 24.5273 38.494 25.0604 39.0271C25.5935 39.5602 26.3164 39.8601 27.0703 39.861H34.8359V42.9844ZM44.5703 38.5485H27.0703C26.6643 38.548 26.2751 38.3866 25.988 38.0995C25.701 37.8124 25.5395 37.4232 25.5391 37.0172V21.9453H46.1016V37.0172C46.1011 37.4232 45.9397 37.8124 45.6526 38.0995C45.3655 38.3866 44.9763 38.548 44.5703 38.5485ZM40.8684 19.025C41.0425 19.025 41.2094 18.9559 41.3324 18.8328C41.4555 18.7097 41.5247 18.5428 41.5247 18.3688V17.1446H44.5703C44.9763 17.1451 45.3655 17.3065 45.6526 17.5936C45.9397 17.8807 46.1011 18.2699 46.1016 18.6759V20.6328H25.5391V18.6759C25.5395 18.2699 25.701 17.8807 25.988 17.5936C26.2751 17.3065 26.6643 17.1451 27.0703 17.1446H30.116V18.3691C30.116 18.5431 30.1851 18.7101 30.3082 18.8331C30.4313 18.9562 30.5982 19.0253 30.7722 19.0253C30.9463 19.0253 31.1132 18.9562 31.2363 18.8331C31.3593 18.7101 31.4285 18.5431 31.4285 18.3691V17.1446H40.2122V18.3691C40.2122 18.5431 40.2813 18.7101 40.4044 18.8331C40.5274 18.9562 40.6944 19.0253 40.8684 19.0253V19.025Z" fill="#F20F38"/>
<path d="M29.8789 11.7031H31.0948C31.2689 11.7031 31.4358 11.634 31.5589 11.5109C31.6819 11.3878 31.7511 11.2209 31.7511 11.0469C31.7511 10.8728 31.6819 10.7059 31.5589 10.5828C31.4358 10.4598 31.2689 10.3906 31.0948 10.3906H29.8789C29.7049 10.3906 29.5379 10.4598 29.4149 10.5828C29.2918 10.7059 29.2227 10.8728 29.2227 11.0469C29.2227 11.2209 29.2918 11.3878 29.4149 11.5109C29.5379 11.634 29.7049 11.7031 29.8789 11.7031Z" fill="#F20F38"/>
<path d="M22.3672 45.2813C21.9129 45.2812 21.4688 45.416 21.0911 45.6683C20.7134 45.9207 20.419 46.2795 20.2452 46.6992C20.0713 47.1189 20.0258 47.5807 20.1144 48.0262C20.2031 48.4718 20.4218 48.881 20.7431 49.2023C21.0643 49.5235 21.4735 49.7423 21.9191 49.8309C22.3646 49.9195 22.8265 49.874 23.2462 49.7002C23.6659 49.5263 24.0246 49.2319 24.277 48.8542C24.5294 48.4765 24.6641 48.0324 24.6641 47.5781C24.6634 46.9692 24.4212 46.3854 23.9906 45.9548C23.56 45.5242 22.9761 45.2819 22.3672 45.2813ZM22.3672 48.5625C22.1725 48.5625 21.9822 48.5048 21.8203 48.3966C21.6584 48.2884 21.5323 48.1347 21.4577 47.9548C21.3832 47.775 21.3637 47.577 21.4017 47.3861C21.4397 47.1951 21.5335 47.0197 21.6711 46.8821C21.8088 46.7444 21.9842 46.6507 22.1751 46.6127C22.3661 46.5747 22.564 46.5942 22.7439 46.6687C22.9238 46.7432 23.0775 46.8694 23.1857 47.0312C23.2938 47.1931 23.3516 47.3834 23.3516 47.5781C23.3513 47.8391 23.2475 48.0893 23.0629 48.2739C22.8784 48.4584 22.6282 48.5622 22.3672 48.5625Z" fill="#F20F38"/>
</svg>
