<svg width="56" height="56" viewBox="0 0 56 56" fill="none" xmlns="http://www.w3.org/2000/svg">
<path d="M14.8906 52.1719H32.3906C33.7245 52.1703 35.0034 51.6398 35.9466 50.6966C36.8898 49.7533 37.4203 48.4745 37.4219 47.1406V40.25H43.5152C44.2111 40.2492 44.8783 39.9724 45.3704 39.4803C45.8625 38.9882 46.1393 38.3209 46.1402 37.625V22.0938C46.1402 22.0076 46.1232 21.9222 46.0902 21.8426C46.0573 21.763 46.0089 21.6906 45.948 21.6297L39.1667 14.8484C39.1058 14.7875 39.0334 14.7392 38.9538 14.7062C38.8742 14.6732 38.7888 14.6562 38.7027 14.6562H37.4219V8.85938C37.4203 7.52548 36.8898 6.24665 35.9466 5.30344C35.0034 4.36023 33.7245 3.82966 32.3906 3.82812H14.8906C13.5567 3.82966 12.2779 4.36023 11.3347 5.30344C10.3915 6.24665 9.86091 7.52548 9.85938 8.85938V47.1406C9.86091 48.4745 10.3915 49.7533 11.3347 50.6966C12.2779 51.6398 13.5567 52.1703 14.8906 52.1719ZM43.5152 38.9375H29.9527C29.6047 38.9371 29.2711 38.7987 29.025 38.5527C28.7789 38.3066 28.6405 37.973 28.6402 37.625V17.2812C28.6405 16.9333 28.7789 16.5996 29.025 16.3536C29.2711 16.1075 29.6047 15.9691 29.9527 15.9688H38.0464V20.125C38.0472 20.8209 38.324 21.4882 38.8161 21.9803C39.3083 22.4724 39.9755 22.7492 40.6714 22.75H44.8277V37.625C44.8273 37.973 44.6889 38.3066 44.4428 38.5527C44.1968 38.7987 43.8631 38.9371 43.5152 38.9375ZM39.3589 16.8968L43.8996 21.4375H40.6714C40.3234 21.4371 39.9898 21.2987 39.7437 21.0527C39.4977 20.8066 39.3593 20.473 39.3589 20.125V16.8968ZM14.8906 5.14062H32.3906C33.3766 5.14173 34.3218 5.53387 35.019 6.23104C35.7161 6.9282 36.1083 7.87344 36.1094 8.85938V10.3906H34.5781C34.4041 10.3906 34.2372 10.4598 34.1141 10.5828C33.991 10.7059 33.9219 10.8728 33.9219 11.0469C33.9219 11.2209 33.991 11.3878 34.1141 11.5109C34.2372 11.634 34.4041 11.7031 34.5781 11.7031H36.1094V14.6562H29.9527C29.2567 14.6571 28.5895 14.9339 28.0974 15.426C27.6053 15.9181 27.3285 16.5853 27.3277 17.2812V37.625C27.3285 38.3209 27.6053 38.9882 28.0974 39.4803C28.5895 39.9724 29.2567 40.2492 29.9527 40.25H36.1094V42.9844H11.1719V11.7031H29C29.174 11.7031 29.341 11.634 29.464 11.5109C29.5871 11.3878 29.6562 11.2209 29.6562 11.0469C29.6562 10.8728 29.5871 10.7059 29.464 10.5828C29.341 10.4598 29.174 10.3906 29 10.3906H11.1719V8.85938C11.173 7.87344 11.5651 6.9282 12.2623 6.23104C12.9594 5.53387 13.9047 5.14173 14.8906 5.14062ZM11.1719 44.2969H36.1094V47.1406C36.1083 48.1266 35.7161 49.0718 35.019 49.769C34.3218 50.4661 33.3766 50.8583 32.3906 50.8594H14.8906C13.9047 50.8583 12.9594 50.4661 12.2623 49.769C11.5651 49.0718 11.173 48.1266 11.1719 47.1406V44.2969Z" fill="#F20F38"/>
<path d="M31.1523 11.7031H32.3682C32.5422 11.7031 32.7091 11.634 32.8322 11.5109C32.9553 11.3878 33.0244 11.2209 33.0244 11.0469C33.0244 10.8728 32.9553 10.7059 32.8322 10.5828C32.7091 10.4598 32.5422 10.3906 32.3682 10.3906H31.1523C30.9783 10.3906 30.8114 10.4598 30.6883 10.5828C30.5652 10.7059 30.4961 10.8728 30.4961 11.0469C30.4961 11.2209 30.5652 11.3878 30.6883 11.5109C30.8114 11.634 30.9783 11.7031 31.1523 11.7031Z" fill="#F20F38"/>
<path d="M23.6406 49.875C24.0949 49.875 24.539 49.7403 24.9167 49.4879C25.2944 49.2355 25.5888 48.8768 25.7627 48.4571C25.9365 48.0374 25.982 47.5756 25.8934 47.13C25.8047 46.6845 25.586 46.2752 25.2648 45.954C24.9435 45.6328 24.5343 45.414 24.0887 45.3254C23.6432 45.2368 23.1813 45.2822 22.7616 45.4561C22.3419 45.6299 21.9832 45.9243 21.7308 46.3021C21.4785 46.6798 21.3438 47.1239 21.3438 47.5781C21.3444 48.1871 21.5866 48.7709 22.0172 49.2015C22.4478 49.6321 23.0317 49.8743 23.6406 49.875ZM23.6406 46.5938C23.8353 46.5938 24.0256 46.6515 24.1875 46.7597C24.3494 46.8678 24.4756 47.0216 24.5501 47.2014C24.6246 47.3813 24.6441 47.5792 24.6061 47.7702C24.5681 47.9611 24.4743 48.1365 24.3367 48.2742C24.199 48.4119 24.0236 48.5056 23.8327 48.5436C23.6417 48.5816 23.4438 48.5621 23.2639 48.4876C23.084 48.4131 22.9303 48.2869 22.8221 48.125C22.714 47.9631 22.6562 47.7728 22.6562 47.5781C22.6566 47.3172 22.7604 47.067 22.9449 46.8824C23.1295 46.6979 23.3797 46.5941 23.6406 46.5938Z" fill="#F20F38"/>
<path d="M37.7893 23.75H35.6797C35.5056 23.75 35.3387 23.8192 35.2156 23.9422C35.0926 24.0653 35.0234 24.2322 35.0234 24.4063V34.9531C35.0234 35.1271 35.0926 35.294 35.2156 35.4171C35.3387 35.5402 35.5056 35.6093 35.6797 35.6093H37.7893C37.9634 35.6093 38.1303 35.5402 38.2533 35.4171C38.3764 35.294 38.4456 35.1271 38.4456 34.9531V24.4063C38.4456 24.2322 38.3764 24.0653 38.2533 23.9422C38.1303 23.8192 37.9634 23.75 37.7893 23.75ZM37.1331 34.2968H36.3362V25.0625H37.1331V34.2968Z" fill="#F20F38"/>
<path d="M33.5703 27.9687H31.4609C31.2869 27.9687 31.12 28.0379 30.9969 28.1609C30.8738 28.284 30.8047 28.4509 30.8047 28.625V34.9531C30.8047 35.1272 30.8738 35.2941 30.9969 35.4171C31.12 35.5402 31.2869 35.6094 31.4609 35.6094H33.5703C33.7444 35.6094 33.9113 35.5402 34.0344 35.4171C34.1575 35.2941 34.2266 35.1272 34.2266 34.9531V28.625C34.2266 28.4509 34.1575 28.284 34.0344 28.1609C33.9113 28.0379 33.7444 27.9687 33.5703 27.9687ZM32.9141 34.2969H32.1172V29.2812H32.9141V34.2969Z" fill="#F20F38"/>
<path d="M42.0077 26.5625H39.8984C39.7244 26.5625 39.5575 26.6316 39.4344 26.7547C39.3113 26.8778 39.2422 27.0447 39.2422 27.2187V34.9531C39.2422 35.1271 39.3113 35.294 39.4344 35.4171C39.5575 35.5402 39.7244 35.6093 39.8984 35.6093H42.0077C42.1818 35.6093 42.3487 35.5402 42.4718 35.4171C42.5948 35.294 42.664 35.1271 42.664 34.9531V27.2187C42.664 27.0447 42.5948 26.8778 42.4718 26.7547C42.3487 26.6316 42.1818 26.5625 42.0077 26.5625ZM41.3515 34.2968H40.5547V27.875H41.3515V34.2968Z" fill="#F20F38"/>
</svg>
