<svg width="56" height="56" viewBox="0 0 56 56" fill="none" xmlns="http://www.w3.org/2000/svg">
<path d="M30.918 11.7031H32.1339C32.3079 11.7031 32.4749 11.634 32.5979 11.5109C32.721 11.3878 32.7901 11.2209 32.7901 11.0469C32.7901 10.8728 32.721 10.7059 32.5979 10.5828C32.4749 10.4598 32.3079 10.3906 32.1339 10.3906H30.918C30.7439 10.3906 30.577 10.4598 30.4539 10.5828C30.3309 10.7059 30.2617 10.8728 30.2617 11.0469C30.2617 11.2209 30.3309 11.3878 30.4539 11.5109C30.577 11.634 30.7439 11.7031 30.918 11.7031Z" fill="#F20F38"/>
<path d="M23.4063 45.2813C22.952 45.2812 22.5079 45.416 22.1302 45.6683C21.7525 45.9207 21.4581 46.2795 21.2842 46.6992C21.1104 47.1189 21.0649 47.5807 21.1535 48.0262C21.2421 48.4718 21.4609 48.881 21.7821 49.2023C22.1033 49.5235 22.5126 49.7423 22.9582 49.8309C23.4037 49.9195 23.8655 49.874 24.2852 49.7002C24.7049 49.5263 25.0636 49.2319 25.316 48.8542C25.5684 48.4765 25.7031 48.0324 25.7031 47.5781C25.7024 46.9692 25.4602 46.3854 25.0296 45.9548C24.599 45.5242 24.0152 45.2819 23.4063 45.2813ZM23.4063 48.5625C23.2116 48.5625 23.0212 48.5048 22.8594 48.3966C22.6975 48.2884 22.5713 48.1347 22.4968 47.9548C22.4223 47.775 22.4028 47.577 22.4408 47.3861C22.4788 47.1951 22.5725 47.0197 22.7102 46.8821C22.8479 46.7444 23.0233 46.6507 23.2142 46.6127C23.4052 46.5747 23.6031 46.5942 23.783 46.6687C23.9628 46.7432 24.1166 46.8694 24.2247 47.0312C24.3329 47.1931 24.3906 47.3834 24.3906 47.5781C24.3903 47.8391 24.2865 48.0893 24.102 48.2739C23.9174 48.4584 23.6672 48.5622 23.4063 48.5625Z" fill="#F20F38"/>
<path d="M22.5 23.4186C22.0457 23.4186 21.6016 23.5533 21.2239 23.8057C20.8462 24.0581 20.5518 24.4168 20.378 24.8365C20.2041 25.2562 20.1586 25.718 20.2473 26.1636C20.3359 26.6091 20.5546 27.0184 20.8759 27.3396C21.1971 27.6608 21.6064 27.8796 22.0519 27.9682C22.4975 28.0568 22.9593 28.0113 23.379 27.8375C23.7987 27.6636 24.1574 27.3692 24.4098 26.9915C24.6622 26.6138 24.7969 26.1697 24.7969 25.7155C24.7962 25.1065 24.554 24.5227 24.1234 24.0921C23.6928 23.6615 23.109 23.4193 22.5 23.4186ZM22.5 26.6998C22.3053 26.6998 22.115 26.6421 21.9531 26.5339C21.7912 26.4258 21.6651 26.272 21.5906 26.0922C21.5161 25.9123 21.4966 25.7144 21.5345 25.5234C21.5725 25.3325 21.6663 25.1571 21.8039 25.0194C21.9416 24.8817 22.117 24.788 22.308 24.75C22.4989 24.712 22.6968 24.7315 22.8767 24.806C23.0566 24.8805 23.2103 25.0067 23.3185 25.1686C23.4266 25.3304 23.4844 25.5208 23.4844 25.7155C23.4841 25.9764 23.3803 26.2266 23.1957 26.4112C23.0112 26.5957 22.761 26.6995 22.5 26.6998Z" fill="#F20F38"/>
<path d="M30.3008 23.4186C29.8465 23.4186 29.4024 23.5533 29.0247 23.8057C28.647 24.0581 28.3526 24.4168 28.1787 24.8365C28.0049 25.2562 27.9594 25.718 28.048 26.1636C28.1367 26.6091 28.3554 27.0184 28.6766 27.3396C28.9979 27.6608 29.4071 27.8796 29.8527 27.9682C30.2982 28.0568 30.7601 28.0113 31.1798 27.8375C31.5995 27.6636 31.9582 27.3692 32.2106 26.9915C32.463 26.6138 32.5977 26.1697 32.5977 25.7155C32.597 25.1065 32.3548 24.5227 31.9242 24.0921C31.4936 23.6615 30.9097 23.4193 30.3008 23.4186ZM30.3008 26.6998C30.1061 26.6998 29.9158 26.6421 29.7539 26.5339C29.592 26.4258 29.4658 26.272 29.3913 26.0922C29.3168 25.9123 29.2973 25.7144 29.3353 25.5234C29.3733 25.3325 29.4671 25.1571 29.6047 25.0194C29.7424 24.8817 29.9178 24.788 30.1087 24.75C30.2997 24.712 30.4976 24.7315 30.6775 24.806C30.8574 24.8805 31.0111 25.0067 31.1193 25.1686C31.2274 25.3304 31.2852 25.5208 31.2852 25.7155C31.2849 25.9764 31.1811 26.2266 30.9965 26.4112C30.812 26.5957 30.5618 26.6995 30.3008 26.6998Z" fill="#F20F38"/>
<path d="M38.0977 23.4186C37.6434 23.4186 37.1993 23.5533 36.8216 23.8057C36.4439 24.0581 36.1495 24.4168 35.9756 24.8365C35.8018 25.2562 35.7563 25.718 35.8449 26.1636C35.9335 26.6091 36.1523 27.0184 36.4735 27.3396C36.7947 27.6608 37.204 27.8796 37.6496 27.9682C38.0951 28.0568 38.5569 28.0113 38.9766 27.8375C39.3963 27.6636 39.755 27.3692 40.0074 26.9915C40.2598 26.6138 40.3945 26.1697 40.3945 25.7155C40.3938 25.1065 40.1516 24.5227 39.721 24.0921C39.2904 23.6615 38.7066 23.4193 38.0977 23.4186ZM38.0977 26.6998C37.903 26.6998 37.7126 26.6421 37.5508 26.5339C37.3889 26.4258 37.2627 26.272 37.1882 26.0922C37.1137 25.9123 37.0942 25.7144 37.1322 25.5234C37.1702 25.3325 37.2639 25.1571 37.4016 25.0194C37.5393 24.8817 37.7147 24.788 37.9056 24.75C38.0966 24.712 38.2945 24.7315 38.4744 24.806C38.6542 24.8805 38.808 25.0067 38.9161 25.1686C39.0243 25.3304 39.082 25.5208 39.082 25.7155C39.0817 25.9764 38.9779 26.2266 38.7934 26.4112C38.6088 26.5957 38.3586 26.6995 38.0977 26.6998Z" fill="#F20F38"/>
<path d="M43.363 16.3777H37.1875V8.85938C37.186 7.52548 36.6554 6.24665 35.7122 5.30344C34.769 4.36023 33.4902 3.82966 32.1562 3.82812H14.6562C13.3224 3.82966 12.0435 4.36023 11.1003 5.30344C10.1571 6.24665 9.62653 7.52548 9.625 8.85938V47.1406C9.62653 48.4745 10.1571 49.7533 11.1003 50.6966C12.0435 51.6398 13.3224 52.1703 14.6562 52.1719H32.1562C33.4902 52.1703 34.769 51.6398 35.7122 50.6966C36.6554 49.7533 37.186 48.4745 37.1875 47.1406V35.1165H43.363C44.1616 35.1156 44.9272 34.7979 45.4918 34.2332C46.0565 33.6686 46.3741 32.903 46.375 32.1044V19.3898C46.3741 18.5912 46.0565 17.8256 45.4918 17.261C44.9272 16.6963 44.1616 16.3786 43.363 16.3777ZM32.1562 50.8594H14.6562C13.6703 50.8583 12.7251 50.4661 12.0279 49.769C11.3307 49.0718 10.9386 48.1266 10.9375 47.1406V44.2969H35.875V47.1406C35.8739 48.1266 35.4818 49.0718 34.7846 49.769C34.0874 50.4661 33.1422 50.8583 32.1562 50.8594ZM35.875 42.9844H10.9375V11.7031H28.7656C28.9397 11.7031 29.1066 11.634 29.2297 11.5109C29.3527 11.3878 29.4219 11.2209 29.4219 11.0469C29.4219 10.8728 29.3527 10.7059 29.2297 10.5828C29.1066 10.4598 28.9397 10.3906 28.7656 10.3906H10.9375V8.85938C10.9386 7.87344 11.3307 6.9282 12.0279 6.23104C12.7251 5.53387 13.6703 5.14173 14.6562 5.14062H32.1562C33.1422 5.14173 34.0874 5.53387 34.7846 6.23104C35.4818 6.9282 35.8739 7.87344 35.875 8.85938V10.3906H34.3438C34.1697 10.3906 34.0028 10.4598 33.8797 10.5828C33.7566 10.7059 33.6875 10.8728 33.6875 11.0469C33.6875 11.2209 33.7566 11.3878 33.8797 11.5109C34.0028 11.634 34.1697 11.7031 34.3438 11.7031H35.875V16.3777H17.4495C16.6509 16.3786 15.8853 16.6963 15.3207 17.261C14.756 17.8256 14.4384 18.5912 14.4375 19.3898V32.1044C14.4384 32.903 14.756 33.6686 15.3207 34.2332C15.8853 34.7979 16.6509 35.1156 17.4495 35.1165H25.9304L28.3711 39.1562C28.3737 39.1606 28.3764 39.1649 28.3791 39.169C28.4672 39.3083 28.5891 39.423 28.7335 39.5023C28.8779 39.5816 29.0401 39.623 29.2049 39.6226C29.3696 39.623 29.5318 39.5816 29.6762 39.5024C29.8206 39.4231 29.9426 39.3085 30.0307 39.1693C30.0335 39.165 30.0361 39.1606 30.0389 39.1562L32.4795 35.1168H35.875V42.9844ZM45.0625 32.1044C45.062 32.555 44.8828 32.987 44.5642 33.3056C44.2456 33.6242 43.8136 33.8034 43.363 33.804H36.6157C36.5597 33.796 36.5028 33.796 36.4468 33.804H32.1094C31.9964 33.804 31.8854 33.8332 31.787 33.8888C31.6886 33.9444 31.6062 34.0244 31.5478 34.1212L29.2051 37.9985L26.8625 34.1208C26.8041 34.0241 26.7217 33.944 26.6233 33.8885C26.5249 33.8329 26.4138 33.8037 26.3008 33.8037H17.4495C16.9989 33.8031 16.567 33.6239 16.2484 33.3054C15.9299 32.9868 15.7506 32.5549 15.75 32.1044V19.3898C15.7505 18.9392 15.9297 18.5072 16.2483 18.1886C16.5669 17.87 16.9989 17.6908 17.4495 17.6902H36.4438C36.5018 17.6989 36.5607 17.6989 36.6187 17.6902H43.3633C43.8138 17.6908 44.2457 17.8701 44.5642 18.1887C44.8828 18.5073 45.062 18.9392 45.0625 19.3898V32.1044Z" fill="#F20F38"/>
</svg>
