<svg width="48" height="48" viewBox="0 0 48 48" fill="none" xmlns="http://www.w3.org/2000/svg">
<path d="M26.0305 7.81901H27.2378C27.5975 7.81901 27.8894 7.52715 27.8894 7.16742C27.8894 6.80769 27.5975 6.51583 27.2378 6.51583H26.0305C25.6703 6.51583 25.3789 6.80769 25.3789 7.16742C25.3789 7.52715 25.6703 7.81901 26.0305 7.81901Z" fill="#F20F38"/>
<path d="M18.5696 45.7195C19.8291 45.7195 20.8501 44.6984 20.8501 43.4389C20.8501 42.1794 19.8291 41.1584 18.5696 41.1584C17.3101 41.1584 16.2891 42.1794 16.2891 43.4389C16.2903 44.698 17.3106 45.7182 18.5696 45.7195ZM18.5696 42.4615C19.1092 42.4615 19.547 42.8993 19.547 43.4389C19.547 43.9785 19.1092 44.4163 18.5696 44.4163C18.03 44.4163 17.5922 43.9785 17.5922 43.4389C17.5927 42.8993 18.03 42.462 18.5696 42.4615Z" fill="#F20F38"/>
<path d="M32.2532 12.5074V4.99548C32.2503 2.2377 30.0155 0.00296946 27.2578 0H9.88219C7.12442 0.00296946 4.88969 2.2377 4.88672 4.99548V43.0045C4.88969 45.7623 7.12442 47.997 9.88219 48H27.2578C30.0155 47.997 32.2503 45.7623 32.2532 43.0045V35.4926C38.3453 35.1439 43.107 30.1022 43.107 24C43.107 17.8978 38.3453 12.8561 32.2532 12.5074ZM30.9501 43.0045C30.9479 45.0428 29.2961 46.6947 27.2578 46.6968H9.88219C7.84387 46.6947 6.19201 45.0428 6.18989 43.0045V40.181H30.9501V43.0045ZM30.9501 38.8778H6.18989V7.819H23.8912C24.251 7.819 24.5428 7.52715 24.5428 7.16742C24.5428 6.80769 24.251 6.51584 23.8912 6.51584H6.18989V4.99548C6.19201 2.95715 7.84387 1.30529 9.88219 1.30317H27.2578C29.2961 1.30529 30.9479 2.95715 30.9501 4.99548V6.51584H29.4297C29.07 6.51584 28.7781 6.80769 28.7781 7.16742C28.7781 7.52715 29.07 7.819 29.4297 7.819H30.9501V12.5074C24.858 12.8561 20.0963 17.8978 20.0963 24C20.0963 30.1022 24.858 35.1439 30.9501 35.4926V38.8778ZM31.6017 34.2081C25.9639 34.2081 21.3935 29.6377 21.3935 24C21.3935 18.3623 25.9639 13.7919 31.6017 13.7919C37.2394 13.7919 41.8098 18.3623 41.8098 24C41.8034 29.6352 37.2368 34.2018 31.6017 34.2081Z" fill="#F20F38"/>
<path d="M8.18674 13.3032H11.8358C12.1955 13.3032 12.4874 13.0113 12.4874 12.6516C12.4874 12.2919 12.1955 12 11.8358 12H8.18674C7.82701 12 7.53516 12.2919 7.53516 12.6516C7.53516 13.0113 7.82701 13.3032 8.18674 13.3032Z" fill="#F20F38"/>
<path d="M14.8352 13.3032H17.1806C17.5408 13.3032 17.8322 13.0113 17.8322 12.6516C17.8322 12.2919 17.5408 12 17.1806 12H14.8352C14.475 12 14.1836 12.2919 14.1836 12.6516C14.1836 13.0113 14.475 13.3032 14.8352 13.3032Z" fill="#F20F38"/>
<path d="M20.9602 13.3032H25.0436C25.4033 13.3032 25.6952 13.0113 25.6952 12.6516C25.6952 12.2919 25.4033 12 25.0436 12H20.9602C20.6004 12 20.3086 12.2919 20.3086 12.6516C20.3086 13.0113 20.6004 13.3032 20.9602 13.3032Z" fill="#F20F38"/>
<path d="M8.18674 19.3846H14.4421C14.8018 19.3846 15.0937 19.0928 15.0937 18.733C15.0937 18.3733 14.8018 18.0815 14.4421 18.0815H8.18674C7.82701 18.0815 7.53516 18.3733 7.53516 18.733C7.53516 19.0928 7.82701 19.3846 8.18674 19.3846Z" fill="#F20F38"/>
<path d="M16.7891 18.733C16.7891 19.0928 17.0805 19.3846 17.4406 19.3846H19.5689C19.9291 19.3846 20.2205 19.0928 20.2205 18.733C20.2205 18.3733 19.9291 18.0815 19.5689 18.0815H17.4406C17.0805 18.0815 16.7891 18.3733 16.7891 18.733Z" fill="#F20F38"/>
<path d="M8.18674 25.4661H9.7508C10.1105 25.4661 10.4024 25.1742 10.4024 24.8145C10.4024 24.4548 10.1105 24.1629 9.7508 24.1629H8.18674C7.82701 24.1629 7.53516 24.4548 7.53516 24.8145C7.53516 25.1742 7.82701 25.4661 8.18674 25.4661Z" fill="#F20F38"/>
<path d="M18.0272 24.8145C18.0272 24.4548 17.7354 24.1629 17.3757 24.1629H12.7492C12.3895 24.1629 12.0977 24.4548 12.0977 24.8145C12.0977 25.1742 12.3895 25.4661 12.7492 25.4661H17.3757C17.7354 25.4661 18.0272 25.1742 18.0272 24.8145Z" fill="#F20F38"/>
<path d="M15.1807 30.2443H8.18674C7.82701 30.2443 7.53516 30.5362 7.53516 30.8959C7.53516 31.2557 7.82701 31.5475 8.18674 31.5475H15.1807C15.5404 31.5475 15.8322 31.2557 15.8322 30.8959C15.8322 30.5362 15.5404 30.2443 15.1807 30.2443Z" fill="#F20F38"/>
<path d="M18.1789 31.5475H19.4388C19.7986 31.5475 20.0904 31.2557 20.0904 30.8959C20.0904 30.5362 19.7986 30.2443 19.4388 30.2443H18.1789C17.8192 30.2443 17.5273 30.5362 17.5273 30.8959C17.5273 31.2557 17.8192 31.5475 18.1789 31.5475Z" fill="#F20F38"/>
<path d="M14.0947 34.8054H8.18674C7.82701 34.8054 7.53516 35.0973 7.53516 35.457C7.53516 35.8167 7.82701 36.1086 8.18674 36.1086H14.0947C14.4544 36.1086 14.7463 35.8167 14.7463 35.457C14.7463 35.0973 14.4544 34.8054 14.0947 34.8054Z" fill="#F20F38"/>
<path d="M16.4414 35.457C16.4414 35.8167 16.7333 36.1086 17.093 36.1086H25.9547C26.3144 36.1086 26.6063 35.8167 26.6063 35.457C26.6063 35.0973 26.3144 34.8054 25.9547 34.8054H17.093C16.7333 34.8054 16.4414 35.0973 16.4414 35.457Z" fill="#F20F38"/>
<path d="M38.212 17.8774C38.212 17.4294 38.0118 17.0052 37.6661 16.7202C37.3208 16.4355 36.8656 16.3201 36.4261 16.4054L29.6417 17.5601L29.6218 17.5639C28.9235 17.7073 28.4217 18.3207 28.42 19.0334V27.134C27.4728 26.656 26.3236 26.8655 25.6054 27.6465C24.8876 28.4279 24.7765 29.5911 25.3326 30.4942C25.8888 31.3978 26.9773 31.8215 27.9983 31.5327C29.019 31.2433 29.7232 30.3114 29.7232 29.2504V22.0435L36.9089 20.7747V26.046C35.9345 25.5615 34.756 25.8003 34.0471 26.6254C33.3379 27.4505 33.2793 28.6514 33.905 29.5419C34.5303 30.4318 35.6799 30.7839 36.6968 30.3966C37.7132 30.0093 38.3372 28.9815 38.212 27.9006V17.8774ZM27.351 30.319C26.7605 30.319 26.282 29.8405 26.282 29.25C26.282 28.6599 26.7609 28.1814 27.351 28.1814C27.9415 28.1814 28.42 28.6599 28.42 29.2504C28.4192 29.8405 27.9411 30.3186 27.351 30.319ZM29.7232 20.7204V19.0334C29.7232 18.9426 29.7855 18.8637 29.8738 18.8425L36.6531 17.6886L36.673 17.6852C36.7307 17.6734 36.7905 17.6882 36.8363 17.7255C36.8817 17.7629 36.9084 17.8184 36.9084 17.8774V19.4508L29.7232 20.7204ZM35.8555 29.2394C35.288 29.2402 34.8192 28.7969 34.7874 28.2302C34.756 27.6635 35.1726 27.171 35.7368 27.1082C36.3005 27.0454 36.8155 27.4344 36.9089 27.9943V28.139C36.9093 28.1793 36.9131 28.2192 36.9203 28.2586C36.8745 28.8126 36.4117 29.239 35.8555 29.2394Z" fill="#F20F38"/>
</svg>
