<svg width="48" height="48" viewBox="0 0 48 48" fill="none" xmlns="http://www.w3.org/2000/svg">
<g clip-path="url(#clip0)">
<path d="M42.6854 23.8303H42.3501C42.3412 22.925 41.7169 22.1422 40.8363 21.9321V20.3918C40.8324 15.6195 36.9606 11.754 32.1883 11.758C31.3684 11.7587 30.5529 11.8761 29.7661 12.1065V4.57143C29.7633 2.0479 27.7182 0.00288199 25.1947 0H9.29409C6.77056 0.00288199 4.72554 2.0479 4.72266 4.57143V39.354C4.72554 41.8776 6.77056 43.9226 9.29409 43.9255H21.2196V47.4037C21.2196 47.7331 21.4865 48 21.8158 48H41.3961C41.7255 48 41.9924 47.7331 41.9924 47.4037V40.3677C41.9924 40.3512 41.9917 40.3346 41.9903 40.318C41.8574 38.7831 40.9389 37.4266 39.5632 36.7331C39.5526 36.7278 39.5416 36.7227 39.5306 36.718L35.4271 34.9667V34.6947C36.391 34.7493 37.4643 34.7508 37.5218 34.7508C37.7181 34.7508 37.9019 34.6542 38.0132 34.4924L38.224 34.1858L38.2884 34.3488C38.3835 34.5894 38.6229 34.7413 38.8811 34.7247C39.8163 34.6748 40.7459 34.5494 41.6609 34.3495C41.9807 34.2709 42.1762 33.9478 42.0975 33.6281C42.0943 33.6154 42.0908 33.6027 42.0868 33.5902L40.2904 27.9289V27.0329H40.3808C41.4682 27.032 42.3496 26.1508 42.351 25.0634V25.023H42.6854C43.0147 25.023 43.2817 24.7561 43.2817 24.4267C43.2817 24.0974 43.0147 23.8305 42.6854 23.8305V23.8303ZM39.6438 20.3911V21.8768H38.7792C38.4499 21.8768 38.1829 22.1437 38.1829 22.473V24.1271C37.7144 24.0248 37.2583 23.8716 36.8231 23.67C35.6435 23.1155 34.8873 22.2801 34.568 21.1855C35.1605 20.6958 35.6735 20.117 36.0885 19.4699C36.2665 19.1927 36.1861 18.8238 35.9089 18.6458C35.6318 18.4678 35.2628 18.5482 35.0848 18.8253C32.9432 22.1592 28.3981 22.4343 24.7841 22.0213L24.7722 21.1433C25.0617 21.1646 25.4304 21.1822 25.8635 21.1822C26.758 21.1822 27.6511 21.1085 28.5334 20.9617C31.8334 20.4098 34.5752 18.8475 36.4621 16.4436C36.663 16.1828 36.6144 15.8083 36.3536 15.6074C36.0961 15.409 35.7271 15.4534 35.524 15.7073C33.8072 17.8946 31.4018 19.2645 28.3749 19.7791C27.1871 19.9794 25.9793 20.0357 24.778 19.9464C24.8059 19.4633 24.8809 18.984 25.0019 18.5154C25.2396 18.533 25.5574 18.5485 25.9409 18.5485C26.8871 18.5475 27.8312 18.4572 28.7604 18.2788C31.7311 17.7073 34.2671 16.2571 36.1267 14.074C38.312 15.4304 39.6419 17.819 39.6438 20.3911ZM32.8142 40.873H31.9548C31.6254 40.873 31.3585 41.14 31.3585 41.4693C31.3585 41.7987 31.6254 42.0656 31.9548 42.0656H32.8142V43.1781H31.9548C31.6254 43.1781 31.3585 43.4451 31.3585 43.7744C31.3585 44.1038 31.6254 44.3707 31.9548 44.3707H32.8142V46.8075H29.9296V38.639C30.8796 38.8294 31.8551 38.8565 32.8142 38.7191V40.873ZM27.5144 36.3786L28.3539 36.0209C30.4223 36.9512 32.79 36.9512 34.8585 36.0209L35.6972 36.3786C33.2178 38.0242 29.9939 38.0243 27.5144 36.3789V36.3786ZM26.6738 31.9609C26.3534 31.8846 26.0319 32.0825 25.9556 32.4029V32.403L25.6764 33.5757C24.6524 33.565 23.6307 33.4773 22.6198 33.3132L24.2245 28.2562C24.8375 30.0843 26.1059 31.6206 27.7848 32.5686V33.499C27.4849 33.5249 27.1917 33.5438 26.9069 33.5564L27.1156 32.6794C27.1918 32.3591 26.9941 32.0376 26.6738 31.9612V31.9609ZM34.2345 34.992C32.5543 35.7034 30.6576 35.7034 28.9774 34.992V33.1156C30.6778 33.7228 32.5367 33.7188 34.2345 33.1041V34.992ZM35.3967 30.9405C35.3964 31.1498 35.2269 31.3194 35.0176 31.3196H32.1365C31.9272 31.3194 31.7577 31.1498 31.7574 30.9405V30.8429C31.7577 30.6336 31.9272 30.4641 32.1365 30.4639H35.0176C35.2269 30.4641 35.3964 30.6336 35.3967 30.8429V30.9405ZM35.0176 29.271H32.1365C31.2689 29.272 30.5658 29.975 30.5648 30.8425V30.9401C30.5658 31.5581 30.9286 32.1183 31.492 32.372C27.9036 32.3159 25.0228 29.3933 25.0183 25.8044V25.7936C25.0183 25.5039 24.8102 25.2561 24.5249 25.2062C23.8564 25.0875 23.4106 24.4494 23.5291 23.7809C23.5337 23.7548 23.5392 23.7289 23.5455 23.7033C23.6105 23.4224 23.8288 23.2025 24.1093 23.1356C24.1235 23.1386 24.1375 23.1417 24.1521 23.1436C25.1801 23.2845 26.2162 23.3572 27.2538 23.3615C29.7941 23.3615 31.9103 22.8671 33.5499 21.8968C34.408 24.1318 36.6675 25.084 38.1825 25.3507V26.4355C38.1827 26.5019 38.194 26.5677 38.2157 26.6304C38.1163 27.9091 37.5731 29.0104 36.4573 30.2144C36.2069 29.6424 35.642 29.2727 35.0176 29.2722V29.271ZM39.0978 28.2281V29.2363C39.0971 29.8214 38.623 30.2956 38.0378 30.2962H37.9583C38.452 29.676 38.8373 28.9768 39.0978 28.2281ZM35.0322 13.511C33.3669 15.3783 31.1997 16.5854 28.5759 17.0985C27.5344 17.3017 26.4729 17.3834 25.4126 17.3421C26.1926 15.6152 27.598 14.248 29.3459 13.516C29.3698 13.5085 29.3933 13.4994 29.416 13.4888C31.2193 12.7631 33.2347 12.771 35.0322 13.5106V13.511ZM9.29409 1.19255H25.1947C27.0599 1.19463 28.5715 2.70619 28.5736 4.57143V5.96273H27.1823C26.8529 5.96273 26.586 6.22966 26.586 6.55901C26.586 6.88835 26.8529 7.15528 27.1823 7.15528H28.5736V12.5545C25.4928 13.9865 23.5358 17.0895 23.5708 20.4866L23.588 22.0509C22.9859 22.2809 22.5363 22.7937 22.3872 23.4208C22.1199 24.5125 22.6387 25.6447 23.64 26.1551L21.2809 33.5901C21.1813 33.9039 21.355 34.2391 21.6688 34.3388C21.6814 34.3428 21.694 34.3463 21.7067 34.3494C21.7971 34.3716 23.4617 34.7721 25.9287 34.7721C26.5067 34.7721 27.1287 34.75 27.7848 34.696V34.9667L26.3438 35.5817V35.5776H5.9152V7.15528H22.114C22.4433 7.15528 22.7102 6.88835 22.7102 6.55901C22.7102 6.22966 22.4433 5.96273 22.114 5.96273H5.9152V4.57143C5.91729 2.70619 7.42884 1.19463 9.29409 1.19255ZM9.29409 42.7329C7.42884 42.7308 5.91729 41.2193 5.9152 39.354V36.7702H23.5807C22.2418 37.4742 21.3528 38.8109 21.2216 40.318C21.2202 40.3344 21.2196 40.351 21.2196 40.3677V42.7329H9.29409ZM22.4121 40.3936C22.5161 39.2882 23.178 38.3127 24.1667 37.8076L26.2408 36.9224C26.9883 37.5237 27.8323 37.9936 28.7371 38.3125V46.8075H22.4121V40.3936ZM40.7999 40.3936V46.8075H34.0067V38.463C35.087 38.1509 36.0945 37.6272 36.9707 36.9226L39.0452 37.808C40.0338 38.3131 40.6956 39.2884 40.7999 40.3936ZM39.2369 33.5025L38.9222 32.7063C38.8012 32.4 38.4547 32.2498 38.1485 32.371C38.0383 32.4145 37.9435 32.49 37.8763 32.5876L37.2105 33.5562C36.8054 33.5519 36.0747 33.5388 35.4277 33.5002V32.5535C35.5008 32.5118 35.5735 32.4692 35.6454 32.4249C35.6927 32.3958 35.7356 32.3601 35.773 32.3191C36.1033 32.1368 36.3575 31.8423 36.4894 31.4888H38.0388C38.766 31.4885 39.4482 31.1368 39.8704 30.5447L40.7489 33.3136C40.381 33.3758 39.8655 33.4489 39.2369 33.5025ZM41.1589 25.0632C41.1584 25.4922 40.8107 25.8399 40.3817 25.8404H39.3751V23.0693H40.3812C40.8102 23.0698 41.1579 23.4175 41.1584 23.8466L41.1589 25.0632Z" fill="#F20F38"/>
<path d="M27.8775 24.7041C27.5482 24.7041 27.2812 24.971 27.2812 25.3004V26.4522C27.2812 26.7815 27.5482 27.0485 27.8775 27.0485C28.2069 27.0485 28.4738 26.7815 28.4738 26.4522V25.3004C28.4738 24.971 28.2069 24.7041 27.8775 24.7041Z" fill="#F20F38"/>
<path d="M35.2799 24.7041C34.9505 24.7041 34.6836 24.971 34.6836 25.3004V26.4522C34.6836 26.7815 34.9505 27.0485 35.2799 27.0485C35.6092 27.0485 35.8761 26.7815 35.8761 26.4522V25.3004C35.8761 24.971 35.6092 24.7041 35.2799 24.7041Z" fill="#F20F38"/>
<path d="M24.0689 7.15525H25.1736C25.503 7.15525 25.7699 6.88832 25.7699 6.55898C25.7699 6.22964 25.503 5.96271 25.1736 5.96271H24.0689C23.7396 5.96271 23.4727 6.22964 23.4727 6.55898C23.4727 6.88832 23.7396 7.15525 24.0689 7.15525Z" fill="#F20F38"/>
<path d="M17.2432 37.6646C16.0906 37.6646 15.1562 38.599 15.1562 39.7516C15.1562 40.9042 16.0906 41.8385 17.2432 41.8385C18.3958 41.8385 19.3302 40.9042 19.3302 39.7516C19.3289 38.5996 18.3952 37.6659 17.2432 37.6646ZM17.2432 40.646C16.7492 40.646 16.3488 40.2456 16.3488 39.7516C16.3488 39.2576 16.7492 38.8572 17.2432 38.8572C17.7372 38.8572 18.1376 39.2576 18.1376 39.7516C18.137 40.2453 17.7369 40.6454 17.2432 40.646Z" fill="#F20F38"/>
<path d="M8.58846 25.0435H15.8508C16.1801 25.0435 16.447 24.7766 16.447 24.4472C16.447 24.1179 16.1801 23.851 15.8508 23.851H8.58846C8.25912 23.851 7.99219 24.1179 7.99219 24.4472C7.99219 24.7766 8.25912 25.0435 8.58846 25.0435Z" fill="#F20F38"/>
<path d="M21.1256 25.0435C21.4549 25.0435 21.7218 24.7766 21.7218 24.4472C21.7218 24.1179 21.4549 23.851 21.1256 23.851H18.4049C18.0755 23.851 17.8086 24.1179 17.8086 24.4472C17.8086 24.7766 18.0755 25.0435 18.4049 25.0435H21.1256Z" fill="#F20F38"/>
<path d="M8.58846 28.4223H9.70379C10.0331 28.4223 10.3001 28.1554 10.3001 27.8261C10.3001 27.4967 10.0331 27.2298 9.70379 27.2298H8.58846C8.25912 27.2298 7.99219 27.4967 7.99219 27.8261C7.99219 28.1554 8.25912 28.4223 8.58846 28.4223Z" fill="#F20F38"/>
<path d="M21.3854 27.2298H12.0181C11.6888 27.2298 11.4219 27.4967 11.4219 27.8261C11.4219 28.1554 11.6888 28.4223 12.0181 28.4223H21.3854C21.7147 28.4223 21.9817 28.1554 21.9817 27.8261C21.9817 27.4967 21.7147 27.2298 21.3854 27.2298Z" fill="#F20F38"/>
<path d="M17.8383 30.2112H8.58846C8.25912 30.2112 7.99219 30.4781 7.99219 30.8075C7.99219 31.1368 8.25912 31.4037 8.58846 31.4037H17.8383C18.1677 31.4037 18.4346 31.1368 18.4346 30.8075C18.4346 30.4781 18.1677 30.2112 17.8383 30.2112Z" fill="#F20F38"/>
<path d="M20.3924 30.2112H20.1314C19.8021 30.2112 19.5352 30.4781 19.5352 30.8075C19.5352 31.1368 19.8021 31.4037 20.1314 31.4037H20.3924C20.7217 31.4037 20.9887 31.1368 20.9887 30.8075C20.9887 30.4781 20.7217 30.2112 20.3924 30.2112Z" fill="#F20F38"/>
<path d="M12.7386 21.4248C14.453 21.4178 16.0333 20.4962 16.8837 19.0076C17.6745 17.6273 17.6816 16.0098 16.9026 14.6803C16.8932 14.6644 16.8833 14.649 16.8727 14.634L13.2234 9.54923C13.1114 9.3933 12.9312 9.30088 12.7393 9.30078C12.5474 9.30088 12.3672 9.3934 12.2553 9.54923L8.60581 14.6201C8.59468 14.6356 8.58434 14.6516 8.5747 14.6681C7.79488 16.006 7.80382 17.6304 8.59846 19.0135C9.44934 20.4985 11.0271 21.4175 12.7386 21.4248ZM9.59036 15.2919L12.7377 10.9186L15.8867 15.306C16.4419 16.2714 16.4285 17.4029 15.8487 18.4146C14.8815 20.1321 12.7051 20.7402 10.9876 19.7729C10.4206 19.4536 9.9517 18.9853 9.6316 18.4187C9.04844 17.4036 9.03383 16.2656 9.59036 15.2919Z" fill="#F20F38"/>
<path d="M12.7096 19.5267C14.2581 19.5283 15.5156 18.276 15.5206 16.7275C15.5206 16.3982 15.2537 16.1312 14.9243 16.1312C14.595 16.1312 14.328 16.3982 14.328 16.7275C14.3237 17.6176 13.5997 18.3363 12.7096 18.3342C12.3802 18.3342 12.1133 18.6011 12.1133 18.9304C12.1133 19.2598 12.3802 19.5267 12.7096 19.5267Z" fill="#F20F38"/>
<path d="M24.8957 12.472H18.4361C18.1068 12.472 17.8398 12.739 17.8398 13.0683C17.8398 13.3977 18.1068 13.6646 18.4361 13.6646H24.8957C25.2251 13.6646 25.492 13.3977 25.492 13.0683C25.492 12.739 25.2251 12.472 24.8957 12.472Z" fill="#F20F38"/>
<path d="M22.9066 15.9503H19.4283C19.099 15.9503 18.832 16.2173 18.832 16.5466C18.832 16.8759 19.099 17.1429 19.4283 17.1429H22.9066C23.2359 17.1429 23.5028 16.8759 23.5028 16.5466C23.5028 16.2173 23.2359 15.9503 22.9066 15.9503Z" fill="#F20F38"/>
<path d="M21.9128 19.3292H19.4283C19.099 19.3292 18.832 19.5962 18.832 19.9255C18.832 20.2548 19.099 20.5218 19.4283 20.5218H21.9128C22.2421 20.5218 22.5091 20.2548 22.5091 19.9255C22.5091 19.5962 22.2421 19.3292 21.9128 19.3292Z" fill="#F20F38"/>
</g>
<defs>
<clipPath id="clip0">
<rect width="48" height="48" fill="white"/>
</clipPath>
</defs>
</svg>
