<svg width="56" height="56" viewBox="0 0 56 56" fill="none" xmlns="http://www.w3.org/2000/svg">
<path d="M51.0234 22.7114H43.5302V10.1991C43.5295 9.58127 43.2837 8.98893 42.8469 8.55204C42.41 8.11515 41.8177 7.86938 41.1998 7.86866H31.7844C31.554 6.72971 30.9372 5.70536 30.0383 4.96903C29.1393 4.23271 28.0136 3.82966 26.8516 3.82812H9.35156C8.01765 3.82963 6.73881 4.36019 5.79559 5.30341C4.85238 6.24662 4.32182 7.52547 4.32031 8.85938V47.1406C4.32182 48.4745 4.85238 49.7534 5.79559 50.6966C6.73881 51.6398 8.01765 52.1704 9.35156 52.1719H26.8516C28.1855 52.1704 29.4643 51.6398 30.4075 50.6966C31.3507 49.7534 31.8813 48.4745 31.8828 47.1406V41.7169H47.3776C47.4632 41.7169 47.5479 41.7002 47.627 41.6676C48.7517 41.5032 49.7799 40.94 50.5239 40.0806C51.2678 39.2212 51.6781 38.123 51.6797 36.9864V23.3676C51.6797 23.1936 51.6105 23.0267 51.4875 22.9036C51.3644 22.7805 51.1975 22.7114 51.0234 22.7114ZM26.8516 50.8594H9.35156C8.36563 50.8583 7.42039 50.4661 6.72322 49.769C6.02606 49.0718 5.63391 48.1266 5.63281 47.1406V44.2969H30.5703V47.1406C30.5692 48.1266 30.1771 49.0718 29.4799 49.769C28.7827 50.4661 27.8375 50.8583 26.8516 50.8594ZM30.5703 42.9844H5.63281V11.7031H10.3359C10.51 11.7031 10.6769 11.634 10.8 11.5109C10.923 11.3878 10.9922 11.2209 10.9922 11.0469C10.9922 10.8728 10.923 10.7059 10.8 10.5828C10.6769 10.4598 10.51 10.3906 10.3359 10.3906H5.63281V8.85938C5.63391 7.87344 6.02606 6.9282 6.72322 6.23104C7.42039 5.53387 8.36563 5.14173 9.35156 5.14062H26.8516C27.6648 5.14174 28.4554 5.409 29.1025 5.90159C29.7496 6.39419 30.2176 7.08505 30.4352 7.86866H19.885C19.2672 7.86938 18.6749 8.11515 18.238 8.55204C17.8011 8.98893 17.5554 9.58127 17.5547 10.1991V10.3906H15.9141C15.74 10.3906 15.5731 10.4598 15.45 10.5828C15.327 10.7059 15.2578 10.8728 15.2578 11.0469C15.2578 11.2209 15.327 11.3878 15.45 11.5109C15.5731 11.634 15.74 11.7031 15.9141 11.7031H17.5547V36.0383C17.5564 37.5438 18.1552 38.9872 19.2198 40.0518C20.2843 41.1164 21.7277 41.7152 23.2332 41.7169H30.5703V42.9844ZM23.2332 40.4044C22.0757 40.4031 20.9659 39.9427 20.1474 39.1242C19.3289 38.3056 18.8685 37.1959 18.8672 36.0383V10.1991C18.8675 9.92924 18.9748 9.6705 19.1656 9.47967C19.3564 9.28883 19.6152 9.18147 19.885 9.18116H41.1998C41.4697 9.18147 41.7284 9.28883 41.9192 9.47967C42.11 9.6705 42.2174 9.92924 42.2177 10.1991V36.9859C42.2175 37.6253 42.3473 38.2581 42.5993 38.8457C42.8512 39.4334 43.22 39.9637 43.6833 40.4044H23.2332ZM50.3672 36.9859C50.3672 37.4348 50.2788 37.8794 50.107 38.2941C49.9352 38.7089 49.6834 39.0857 49.3659 39.4032C49.0485 39.7206 48.6716 39.9724 48.2569 40.1442C47.8421 40.316 47.3976 40.4044 46.9487 40.4044C46.4997 40.4044 46.0552 40.316 45.6405 40.1442C45.2257 39.9724 44.8489 39.7206 44.5314 39.4032C44.214 39.0857 43.9622 38.7089 43.7904 38.2941C43.6186 37.8794 43.5302 37.4348 43.5302 36.9859V24.0239H50.3672V36.9859Z" fill="#F20F38"/>
<path d="M38.2159 30.4146H31.5195C31.3455 30.4146 31.1786 30.4837 31.0555 30.6068C30.9324 30.7298 30.8633 30.8968 30.8633 31.0708V37.7673C30.8633 37.9413 30.9324 38.1083 31.0555 38.2313C31.1786 38.3544 31.3455 38.4235 31.5195 38.4235H38.2159C38.39 38.4235 38.5569 38.3544 38.6799 38.2313C38.803 38.1083 38.8722 37.9413 38.8722 37.7673V31.0708C38.8722 30.8968 38.803 30.7298 38.6799 30.6068C38.5569 30.4837 38.39 30.4146 38.2159 30.4146ZM37.5597 37.111H32.1758V31.7271H37.5597V37.111Z" fill="#F20F38"/>
<path d="M38.2165 18.1935H21.7266C21.5525 18.1935 21.3856 18.2626 21.2625 18.3857C21.1395 18.5088 21.0703 18.6757 21.0703 18.8497C21.0703 19.0238 21.1395 19.1907 21.2625 19.3138C21.3856 19.4368 21.5525 19.506 21.7266 19.506H38.2165C38.3905 19.506 38.5575 19.4368 38.6805 19.3138C38.8036 19.1907 38.8727 19.0238 38.8727 18.8497C38.8727 18.6757 38.8036 18.5088 38.6805 18.3857C38.5575 18.2626 38.3905 18.1935 38.2165 18.1935Z" fill="#F20F38"/>
<path d="M38.2165 26.2291H21.7266C21.5525 26.2291 21.3856 26.2983 21.2625 26.4213C21.1395 26.5444 21.0703 26.7113 21.0703 26.8854C21.0703 27.0594 21.1395 27.2263 21.2625 27.3494C21.3856 27.4725 21.5525 27.5416 21.7266 27.5416H38.2165C38.3905 27.5416 38.5575 27.4725 38.6805 27.3494C38.8036 27.2263 38.8727 27.0594 38.8727 26.8854C38.8727 26.7113 38.8036 26.5444 38.6805 26.4213C38.5575 26.2983 38.3905 26.2291 38.2165 26.2291Z" fill="#F20F38"/>
<path d="M28.4229 37.1108H21.7266C21.5525 37.1108 21.3856 37.18 21.2625 37.3031C21.1395 37.4261 21.0703 37.593 21.0703 37.7671C21.0703 37.9411 21.1395 38.1081 21.2625 38.2311C21.3856 38.3542 21.5525 38.4233 21.7266 38.4233H28.4229C28.597 38.4233 28.7639 38.3542 28.887 38.2311C29.01 38.1081 29.0792 37.9411 29.0792 37.7671C29.0792 37.593 29.01 37.4261 28.887 37.3031C28.7639 37.18 28.597 37.1108 28.4229 37.1108Z" fill="#F20F38"/>
<path d="M28.4229 30.4146H21.7266C21.5525 30.4146 21.3856 30.4837 21.2625 30.6068C21.1395 30.7298 21.0703 30.8968 21.0703 31.0708C21.0703 31.2448 21.1395 31.4118 21.2625 31.5348C21.3856 31.6579 21.5525 31.7271 21.7266 31.7271H28.4229C28.597 31.7271 28.7639 31.6579 28.887 31.5348C29.01 31.4118 29.0792 31.2448 29.0792 31.0708C29.0792 30.8968 29.01 30.7298 28.887 30.6068C28.7639 30.4837 28.597 30.4146 28.4229 30.4146Z" fill="#F20F38"/>
<path d="M28.4229 33.7627H21.7266C21.5525 33.7627 21.3856 33.8318 21.2625 33.9549C21.1395 34.078 21.0703 34.2449 21.0703 34.4189C21.0703 34.593 21.1395 34.7599 21.2625 34.883C21.3856 35.0061 21.5525 35.0752 21.7266 35.0752H28.4229C28.597 35.0752 28.7639 35.0061 28.887 34.883C29.01 34.7599 29.0792 34.593 29.0792 34.4189C29.0792 34.2449 29.01 34.078 28.887 33.9549C28.7639 33.8318 28.597 33.7627 28.4229 33.7627Z" fill="#F20F38"/>
<path d="M38.2165 22.0439H21.7266C21.5525 22.0439 21.3856 22.1131 21.2625 22.2362C21.1395 22.3592 21.0703 22.5261 21.0703 22.7002C21.0703 22.8742 21.1395 23.0412 21.2625 23.1642C21.3856 23.2873 21.5525 23.3564 21.7266 23.3564H38.2165C38.3905 23.3564 38.5575 23.2873 38.6805 23.1642C38.8036 23.0412 38.8727 22.8742 38.8727 22.7002C38.8727 22.5261 38.8036 22.3592 38.6805 22.2362C38.5575 22.1131 38.3905 22.0439 38.2165 22.0439Z" fill="#F20F38"/>
<path d="M21.3274 16.0125V13.0436L22.9153 16.0125C22.9682 16.1114 23.0488 16.1927 23.1472 16.2464C23.2456 16.3002 23.3575 16.3242 23.4693 16.3154C23.7056 16.3154 23.9493 16.2119 23.9493 16.0125V11.2119C23.9493 11.0051 23.7056 10.9166 23.4693 10.9166C23.2255 10.9166 22.9892 11.0052 22.9892 11.2119V14.1811L21.5638 11.4261C21.3347 10.9904 21.1944 10.9165 20.8472 10.9165C20.6035 10.9165 20.3672 11.0125 20.3672 11.2193V16.0125C20.3672 16.2119 20.6035 16.3154 20.8472 16.3154C21.0836 16.3156 21.3274 16.2121 21.3274 16.0125Z" fill="#F20F38"/>
<path d="M25.6241 16.3156H28.2535C28.4603 16.3156 28.5563 16.1013 28.5563 15.902C28.5563 15.673 28.4455 15.4735 28.2535 15.4735H26.1633V13.9891H27.286C27.4928 13.9891 27.5888 13.7897 27.5888 13.6198C27.5888 13.4203 27.478 13.2358 27.286 13.2358H26.1633V11.7585H28.2535C28.4455 11.7585 28.5563 11.559 28.5563 11.3302C28.5563 11.1307 28.4603 10.9165 28.2535 10.9165H25.6241C25.41 10.9165 25.2031 11.0199 25.2031 11.2193V16.0125C25.2031 16.2121 25.41 16.3156 25.6241 16.3156Z" fill="#F20F38"/>
<path d="M30.5865 16.0344C30.6529 16.256 30.9335 16.3595 31.2142 16.3595C31.4876 16.3595 31.7755 16.256 31.8272 16.0344L32.3073 14.0403L32.78 16.0344C32.8317 16.256 33.1197 16.3595 33.3925 16.3595C33.6732 16.3595 33.9465 16.256 34.0203 16.0344L35.4827 11.3887C35.4918 11.3601 35.4968 11.3302 35.4974 11.3002C35.4974 11.086 35.1577 10.9161 34.8844 10.9161C34.7367 10.9161 34.6037 10.9678 34.5672 11.1082L33.4003 15.1113L32.7725 12.541C32.728 12.3565 32.5139 12.2752 32.3071 12.2752C32.0929 12.2752 31.8788 12.3565 31.8345 12.541L31.2066 15.1113L30.0396 11.1082C30.0028 10.9678 29.8698 10.9161 29.7224 10.9161C29.449 10.9161 29.1094 11.086 29.1094 11.3002C29.1101 11.3302 29.1151 11.3601 29.1241 11.3887L30.5865 16.0344Z" fill="#F20F38"/>
<path d="M37.2064 12.268C37.2064 11.9136 37.5092 11.6993 38.041 11.6993C38.6615 11.6993 38.8314 11.9799 39.0603 11.9799C39.3262 11.9799 39.4443 11.6402 39.4443 11.4703C39.4443 10.9829 38.4768 10.8796 38.041 10.8796C37.1916 10.8796 36.2463 11.2563 36.2463 12.3569C36.2463 14.1069 38.6171 13.7678 38.6171 14.8754C38.6171 15.3185 38.2331 15.518 37.7899 15.518C37.0365 15.518 36.8371 14.9493 36.5344 14.9493C36.3053 14.9493 36.1133 15.2594 36.1133 15.4663C36.1133 15.8946 36.8519 16.3821 37.8195 16.3821C38.8388 16.3821 39.5774 15.8352 39.5774 14.7794C39.5773 12.8663 37.2064 13.1838 37.2064 12.268Z" fill="#F20F38"/>
<path d="M13.7073 10.3906H12.4922C12.3181 10.3906 12.1512 10.4598 12.0281 10.5828C11.9051 10.7059 11.8359 10.8728 11.8359 11.0469C11.8359 11.2209 11.9051 11.3878 12.0281 11.5109C12.1512 11.634 12.3181 11.7031 12.4922 11.7031H13.7073C13.8814 11.7031 14.0483 11.634 14.1714 11.5109C14.2945 11.3878 14.3636 11.2209 14.3636 11.0469C14.3636 10.8728 14.2945 10.7059 14.1714 10.5828C14.0483 10.4598 13.8814 10.3906 13.7073 10.3906Z" fill="#F20F38"/>
<path d="M18.1016 45.2813C17.6473 45.2812 17.2032 45.416 16.8255 45.6683C16.4478 45.9207 16.1534 46.2795 15.9795 46.6992C15.8057 47.1189 15.7602 47.5807 15.8488 48.0262C15.9374 48.4718 16.1562 48.881 16.4774 49.2023C16.7987 49.5235 17.2079 49.7423 17.6535 49.8309C18.099 49.9195 18.5608 49.874 18.9805 49.7002C19.4002 49.5263 19.759 49.2319 20.0113 48.8542C20.2637 48.4765 20.3984 48.0324 20.3984 47.5781C20.3977 46.9692 20.1555 46.3854 19.7249 45.9548C19.2943 45.5242 18.7105 45.2819 18.1016 45.2813ZM18.1016 48.5625C17.9069 48.5625 17.7166 48.5048 17.5547 48.3966C17.3928 48.2884 17.2666 48.1347 17.1921 47.9548C17.1176 47.775 17.0981 47.577 17.1361 47.3861C17.1741 47.1951 17.2678 47.0197 17.4055 46.8821C17.5432 46.7444 17.7186 46.6507 17.9095 46.6127C18.1005 46.5747 18.2984 46.5942 18.4783 46.6687C18.6581 46.7432 18.8119 46.8694 18.92 47.0312C19.0282 47.1931 19.0859 47.3834 19.0859 47.5781C19.0856 47.8391 18.9818 48.0893 18.7973 48.2739C18.6128 48.4584 18.3625 48.5622 18.1016 48.5625Z" fill="#F20F38"/>
</svg>
