<svg width="56" height="56" viewBox="0 0 56 56" fill="none" xmlns="http://www.w3.org/2000/svg">
<path d="M24.6836 11.7031H25.8995C26.0736 11.7031 26.2405 11.634 26.3636 11.5109C26.4866 11.3878 26.5558 11.2209 26.5558 11.0469C26.5558 10.8728 26.4866 10.7059 26.3636 10.5828C26.2405 10.4598 26.0736 10.3906 25.8995 10.3906H24.6836C24.5095 10.3906 24.3426 10.4598 24.2196 10.5828C24.0965 10.7059 24.0273 10.8728 24.0273 11.0469C24.0273 11.2209 24.0965 11.3878 24.2196 11.5109C24.3426 11.634 24.5095 11.7031 24.6836 11.7031Z" fill="#F20F38"/>
<path d="M17.1719 45.2813C16.7176 45.2812 16.2735 45.416 15.8958 45.6683C15.5181 45.9207 15.2237 46.2795 15.0498 46.6992C14.876 47.1189 14.8305 47.5807 14.9191 48.0262C15.0078 48.4718 15.2265 48.881 15.5477 49.2023C15.869 49.5235 16.2782 49.7423 16.7238 49.8309C17.1693 49.9195 17.6312 49.874 18.0509 49.7002C18.4706 49.5263 18.8293 49.2319 19.0817 48.8542C19.334 48.4765 19.4688 48.0324 19.4688 47.5781C19.4681 46.9692 19.2258 46.3854 18.7952 45.9548C18.3646 45.5242 17.7808 45.2819 17.1719 45.2813ZM17.1719 48.5625C16.9772 48.5625 16.7869 48.5048 16.625 48.3966C16.4631 48.2884 16.3369 48.1347 16.2624 47.9548C16.1879 47.775 16.1684 47.577 16.2064 47.3861C16.2444 47.1951 16.3382 47.0197 16.4758 46.8821C16.6135 46.7444 16.7889 46.6507 16.9798 46.6127C17.1708 46.5747 17.3687 46.5942 17.5486 46.6687C17.7285 46.7432 17.8822 46.8694 17.9904 47.0312C18.0985 47.1931 18.1563 47.3834 18.1563 47.5781C18.156 47.8391 18.0522 48.0893 17.8676 48.2739C17.6831 48.4584 17.4329 48.5622 17.1719 48.5625Z" fill="#F20F38"/>
<path d="M42.6562 6.88373C40.1357 6.88318 37.709 7.83925 35.8661 9.55882C34.0233 11.2784 32.9018 13.6333 32.7282 16.1478H30.9531V8.85938C30.9516 7.52548 30.421 6.24665 29.4778 5.30344C28.5346 4.36023 27.2558 3.82966 25.9219 3.82812H8.42188C7.08798 3.82966 5.80915 4.36023 4.86594 5.30344C3.92273 6.24665 3.39216 7.52548 3.39062 8.85938V47.1406C3.39216 48.4745 3.92273 49.7533 4.86594 50.6966C5.80915 51.6398 7.08798 52.1703 8.42188 52.1719H25.9219C27.2558 52.1703 28.5346 51.6398 29.4778 50.6966C30.421 49.7533 30.9516 48.4745 30.9531 47.1406V38.1788H39.5573C40.0614 38.1789 40.5603 38.0773 41.0241 37.8799C41.4879 37.6826 41.9071 37.3936 42.2565 37.0303C42.3349 36.9782 42.3989 36.9071 42.4424 36.8236C43.0051 36.1505 43.3131 35.3009 43.3125 34.4236V26.7682C45.8891 26.5971 48.2984 25.4313 50.0315 23.5169C51.7646 21.6026 52.6859 19.0896 52.6007 16.5087C52.5155 13.9277 51.4306 11.481 49.575 9.68505C47.7195 7.88914 45.2386 6.88469 42.6562 6.88384V6.88373ZM35.4211 23.6728C35.635 23.8988 35.8574 24.1134 36.0883 24.3165L30.0945 29.3998C29.71 29.7278 29.2213 29.9081 28.7159 29.9083C28.2105 29.9085 27.7215 29.7287 27.3368 29.401L15.4827 19.3632C15.6057 18.8232 15.9082 18.3409 16.3409 17.9952C16.7736 17.6495 17.3107 17.4609 17.8645 17.4601H32.725C32.8661 19.7832 33.8206 21.9825 35.4211 23.6723V23.6728ZM25.9219 50.8594H8.42188C7.43594 50.8583 6.4907 50.4661 5.79354 49.769C5.09637 49.0718 4.70423 48.1266 4.70312 47.1406V44.2969H29.6406V47.1406C29.6395 48.1266 29.2474 49.0718 28.5502 49.769C27.8531 50.4661 26.9078 50.8583 25.9219 50.8594ZM29.6406 42.9844H4.70312V11.7031H22.5312C22.7053 11.7031 22.8722 11.634 22.9953 11.5109C23.1184 11.3878 23.1875 11.2209 23.1875 11.0469C23.1875 10.8728 23.1184 10.7059 22.9953 10.5828C22.8722 10.4598 22.7053 10.3906 22.5312 10.3906H4.70312V8.85938C4.70423 7.87344 5.09637 6.9282 5.79354 6.23104C6.4907 5.53387 7.43594 5.14173 8.42188 5.14062H25.9219C26.9078 5.14173 27.8531 5.53387 28.5502 6.23104C29.2474 6.9282 29.6395 7.87344 29.6406 8.85938V10.3906H28.1094C27.9353 10.3906 27.7684 10.4598 27.6453 10.5828C27.5223 10.7059 27.4531 10.8728 27.4531 11.0469C27.4531 11.2209 27.5223 11.3878 27.6453 11.5109C27.7684 11.634 27.9353 11.7031 28.1094 11.7031H29.6406V16.1476H17.8645C16.9544 16.1488 16.0755 16.4802 15.3911 17.0802C14.7067 17.6802 14.2631 18.508 14.1427 19.4102C14.1123 19.5028 14.1029 19.601 14.1152 19.6977C14.1116 19.7656 14.1094 19.834 14.1094 19.9028V34.4236C14.1086 35.3002 14.4159 36.1492 14.9777 36.8222C15.0068 36.8747 15.043 36.923 15.0853 36.9656C15.1093 36.988 15.1349 37.0086 15.1619 37.0273C15.5114 37.3915 15.931 37.6812 16.3954 37.8791C16.8597 38.077 17.3593 38.1789 17.8641 38.1788H29.6406V42.9844ZM17.8645 36.8663C17.3802 36.8668 16.9068 36.7226 16.5051 36.4521L22.9546 29.8554C23.0156 29.794 23.0639 29.7211 23.0966 29.6409C23.1293 29.5607 23.1458 29.4748 23.1451 29.3882C23.1445 29.3016 23.1267 29.216 23.0928 29.1363C23.0589 29.0566 23.0096 28.9844 22.9477 28.9239C22.8858 28.8633 22.8125 28.8156 22.732 28.7836C22.6516 28.7515 22.5656 28.7356 22.479 28.7369C22.3924 28.7382 22.307 28.7567 22.2275 28.7912C22.1481 28.8256 22.0763 28.8755 22.0162 28.9379L15.6489 35.4504C15.4992 35.1288 15.4216 34.7783 15.4219 34.4236V21.0316L26.4883 30.4021C27.1099 30.9313 27.8997 31.2218 28.7161 31.2214C29.5325 31.2211 30.322 30.93 30.9432 30.4002L37.1511 25.1351C38.5947 26.0984 40.2678 26.662 42 26.7687V34.4236C42.0002 34.7801 41.9217 35.1323 41.7703 35.455L35.3638 28.9362C35.2418 28.8121 35.0755 28.7415 34.9014 28.74C34.7274 28.7385 34.5599 28.8062 34.4357 28.9282C34.3116 29.0501 34.241 29.2165 34.2395 29.3905C34.238 29.5645 34.3056 29.7321 34.4276 29.8562L40.9125 36.454C40.5116 36.723 40.0396 36.8664 39.5569 36.8658L17.8645 36.8663ZM42.6562 25.4779C40.3646 25.4779 38.1668 24.5676 36.5464 22.9471C34.926 21.3267 34.0156 19.1289 34.0156 16.8373C34.0156 14.5457 34.926 12.3479 36.5464 10.7275C38.1668 9.10702 40.3646 8.19667 42.6562 8.19667C44.9479 8.19667 47.1457 9.10702 48.7661 10.7275C50.3865 12.3479 51.2969 14.5457 51.2969 16.8373C51.2969 19.1289 50.3865 21.3267 48.7661 22.9471C47.1457 24.5676 44.9479 25.4779 42.6562 25.4779Z" fill="#F20F38"/>
<path d="M46.5649 13.5197L41.3223 18.7622L38.7428 16.1828C38.6192 16.0625 38.4532 15.9957 38.2807 15.9969C38.1082 15.9981 37.9431 16.0671 37.8211 16.1891C37.6991 16.3111 37.6301 16.4762 37.6289 16.6487C37.6278 16.8212 37.6946 16.9872 37.8149 17.1108L40.8584 20.1543C40.9814 20.2773 41.1483 20.3465 41.3223 20.3465C41.4963 20.3465 41.6632 20.2773 41.7863 20.1543L47.4928 14.4478C47.5551 14.3872 47.6048 14.3148 47.6389 14.2348C47.6729 14.1548 47.6908 14.0689 47.6914 13.982C47.692 13.895 47.6753 13.8088 47.6423 13.7284C47.6093 13.648 47.5607 13.5749 47.4992 13.5135C47.4378 13.452 47.3647 13.4033 47.2843 13.3703C47.2038 13.3373 47.1177 13.3206 47.0307 13.3212C46.9438 13.3218 46.8579 13.3397 46.7779 13.3737C46.6979 13.4078 46.6255 13.4574 46.5649 13.5197Z" fill="#F20F38"/>
</svg>
