<svg width="56" height="56" viewBox="0 0 56 56" fill="none" xmlns="http://www.w3.org/2000/svg">
<path d="M28.2257 27.3821C31.9903 27.3821 35.053 24.2919 35.053 20.4933C35.053 16.6947 31.9905 13.6046 28.2257 13.6046C24.4609 13.6046 21.3984 16.6949 21.3984 20.4933C21.3984 24.2916 24.4612 27.3821 28.2257 27.3821ZM28.2257 15.1359C31.146 15.1359 33.5218 17.5392 33.5218 20.4933C33.5218 23.4474 31.1459 25.8509 28.2257 25.8509C25.3055 25.8509 22.9297 23.4475 22.9297 20.4933C22.9297 17.539 25.3054 15.1359 28.2257 15.1359Z" fill="#F20F38"/>
<path d="M45.6575 31.6157C45.596 31.4834 45.4981 31.3714 45.3752 31.2928C45.2523 31.2142 45.1096 31.1722 44.9637 31.1718H39.6185C40.7807 29.8238 41.6984 28.2829 42.33 26.6188C43.0532 24.7021 43.3588 22.6531 43.2261 20.6088C42.9712 16.8665 41.3558 13.3468 38.6845 10.7135C35.8915 7.97488 32.1359 6.44086 28.2243 6.44086C24.3127 6.44086 20.5571 7.97488 17.7641 10.7135C15.093 13.3472 13.4778 16.8672 13.2231 20.6097C13.0902 22.6537 13.3957 24.7025 14.1191 26.6188C14.7506 28.2829 15.6681 29.8238 16.8303 31.1718H11.0356C10.8897 31.1722 10.747 31.2142 10.6241 31.2928C10.5013 31.3714 10.4033 31.4834 10.3418 31.6157L2.47766 48.4684C2.42336 48.5844 2.39937 48.7123 2.40795 48.8402C2.41653 48.968 2.45739 49.0915 2.5267 49.1993C2.59602 49.307 2.69154 49.3954 2.80431 49.4562C2.91708 49.517 3.04343 49.5482 3.17154 49.5468H52.8278C52.9562 49.5481 53.0828 49.5168 53.1958 49.4558C53.3088 49.3948 53.4044 49.3061 53.4738 49.198C53.5431 49.09 53.5839 48.966 53.5923 48.8379C53.6007 48.7098 53.5764 48.5816 53.5217 48.4654L45.6575 31.6157ZM44.4761 32.7031L48.2002 40.6875H30.5854L38.2016 32.7031H44.4761ZM15.5545 26.0872C14.9068 24.3735 14.6327 22.5413 14.7504 20.7131C14.9801 17.3435 16.4347 14.1744 18.8399 11.8034C21.3463 9.34773 24.7154 7.97236 28.2243 7.97236C31.7332 7.97236 35.1023 9.34773 37.6087 11.8034C40.014 14.1745 41.4686 17.3438 41.6983 20.7135C41.8161 22.5418 41.5419 24.3742 40.8942 26.088C40.2583 27.8024 39.2163 29.4239 37.7969 30.9114L37.5463 31.1718H37.5153V31.1925L28.2056 40.9434L18.9215 31.2193V31.1718H18.9024L18.6518 30.9112C17.2325 29.4239 16.1902 27.8015 15.5545 26.0872ZM25.8635 40.6875H18.1437L19.6998 34.2291L25.8635 40.6875ZM11.5232 32.7031H18.2471L18.4421 32.9094L16.5684 40.6875H7.79908L11.5232 32.7031ZM4.37368 48.0156L7.08443 42.2187H13.6278L11.894 48.0156H4.37368ZM13.4925 48.0156L15.2264 42.2187H27.3248L27.6706 42.581C27.742 42.6559 27.828 42.7155 27.9232 42.7562C28.0184 42.797 28.1209 42.818 28.2244 42.818C28.328 42.818 28.4305 42.797 28.5257 42.7562C28.6209 42.7155 28.7068 42.6559 28.7783 42.581L29.1239 42.2187H35.9604L37.6943 48.0156H13.4925ZM39.2924 48.0156L37.559 42.2187H48.9149L51.6256 48.0156H39.2924Z" fill="#F20F38"/>
</svg>
