<svg width="56" height="56" viewBox="0 0 56 56" fill="none" xmlns="http://www.w3.org/2000/svg">
<path d="M30.0039 25.2377C30.0039 28.3007 32.4384 30.7927 35.4308 30.7927C38.4232 30.7927 40.8577 28.3007 40.8577 25.2377C40.8577 22.1746 38.4233 19.6825 35.4308 19.6825C32.4383 19.6825 30.0039 22.1745 30.0039 25.2377ZM39.5452 25.2377C39.5452 27.577 37.6995 29.4802 35.4308 29.4802C33.162 29.4802 31.3164 27.5771 31.3164 25.2377C31.3164 22.8982 33.1621 20.995 35.4308 20.995C37.6994 20.995 39.5452 22.8982 39.5452 25.2377Z" fill="#F20F38"/>
<path d="M31.2148 3.82812H13.7148C12.3809 3.82963 11.1021 4.36019 10.1589 5.30341C9.21566 6.24662 8.6851 7.52547 8.68359 8.85938V47.1406C8.6851 48.4745 9.21566 49.7534 10.1589 50.6966C11.1021 51.6398 12.3809 52.1704 13.7148 52.1719H31.2148C32.5487 52.1703 33.8276 51.6398 34.7708 50.6966C35.714 49.7533 36.2446 48.4745 36.2461 47.1406V42.5782L43.8805 34.4462C45.064 33.2129 45.9843 31.7518 46.5854 30.1516C47.1568 28.6112 47.3977 26.9678 47.2926 25.3282C47.0958 22.3347 45.8221 19.5136 43.707 17.3863C41.7185 15.3794 39.0654 14.168 36.2464 13.9798V8.85938C36.2449 7.52542 35.7143 6.24654 34.771 5.30332C33.8277 4.3601 32.5488 3.82957 31.2148 3.82812ZM13.7148 5.14062H31.2148C32.2008 5.14173 33.146 5.53387 33.8432 6.23104C34.5403 6.9282 34.9325 7.87344 34.9336 8.85938V10.3906H33.4023C33.2283 10.3906 33.0614 10.4598 32.9383 10.5828C32.8152 10.7059 32.7461 10.8728 32.7461 11.0469C32.7461 11.2209 32.8152 11.3878 32.9383 11.5109C33.0614 11.634 33.2283 11.7031 33.4023 11.7031H34.9336V13.9626C32.002 14.0787 29.2236 15.3021 27.1585 17.386C25.043 19.5134 23.7691 22.3346 23.5722 25.3283C23.4672 26.9679 23.7081 28.6113 24.2795 30.1517C24.8806 31.7518 25.8008 33.213 26.9843 34.4462L34.9336 42.9134V42.9844H9.99609V11.7031H27.8242C27.9983 11.7031 28.1652 11.634 28.2883 11.5109C28.4113 11.3878 28.4805 11.2209 28.4805 11.0469C28.4805 10.8728 28.4113 10.7059 28.2883 10.5828C28.1652 10.4598 27.9983 10.3906 27.8242 10.3906H9.99609V8.85938C9.99719 7.87344 10.3893 6.9282 11.0865 6.23104C11.7837 5.53387 12.7289 5.14173 13.7148 5.14062ZM31.2148 50.8594H13.7148C12.7289 50.8583 11.7837 50.4661 11.0865 49.769C10.3893 49.0718 9.99719 48.1266 9.99609 47.1406V44.2969H34.9336V47.1406C34.9325 48.1266 34.5403 49.0718 33.8432 49.769C33.146 50.4661 32.2008 50.8583 31.2148 50.8594ZM45.9833 25.4161C46.0759 26.8731 45.861 28.3333 45.3527 29.7019C44.812 31.1352 43.9857 32.4437 42.9239 33.5478L35.4325 41.5272L27.9411 33.5478C26.8793 32.4437 26.053 31.1352 25.5125 29.7019C25.0041 28.3333 24.7892 26.8731 24.8816 25.4161C25.0574 22.7387 26.1965 20.2155 28.0882 18.3127C29.0517 17.3463 30.1964 16.5795 31.4567 16.0563C32.717 15.5332 34.0682 15.2638 35.4328 15.2638C36.7974 15.2638 38.1486 15.5332 39.4089 16.0563C40.6692 16.5795 41.8139 17.3463 42.7773 18.3127C44.6688 20.2155 45.8077 22.7388 45.9833 25.4161Z" fill="#F20F38"/>
<path d="M29.9766 11.7031H31.1928C31.3669 11.7031 31.5338 11.634 31.6569 11.5109C31.7799 11.3878 31.8491 11.2209 31.8491 11.0469C31.8491 10.8728 31.7799 10.7059 31.6569 10.5828C31.5338 10.4598 31.3669 10.3906 31.1928 10.3906H29.9766C29.8025 10.3906 29.6356 10.4598 29.5125 10.5828C29.3895 10.7059 29.3203 10.8728 29.3203 11.0469C29.3203 11.2209 29.3895 11.3878 29.5125 11.5109C29.6356 11.634 29.8025 11.7031 29.9766 11.7031Z" fill="#F20F38"/>
<path d="M22.4648 45.2813C22.0106 45.2812 21.5665 45.416 21.1888 45.6683C20.8111 45.9207 20.5167 46.2795 20.3428 46.6992C20.169 47.1189 20.1235 47.5807 20.2121 48.0262C20.3007 48.4718 20.5195 48.881 20.8407 49.2023C21.1619 49.5235 21.5712 49.7423 22.0167 49.8309C22.4623 49.9195 22.9241 49.874 23.3438 49.7002C23.7635 49.5263 24.1222 49.2319 24.3746 48.8542C24.627 48.4765 24.7617 48.0324 24.7617 47.5781C24.761 46.9692 24.5188 46.3854 24.0882 45.9548C23.6576 45.5242 23.0738 45.2819 22.4648 45.2813ZM22.4648 48.5625C22.2702 48.5625 22.0798 48.5048 21.918 48.3966C21.7561 48.2884 21.6299 48.1347 21.5554 47.9548C21.4809 47.775 21.4614 47.577 21.4994 47.3861C21.5374 47.1951 21.6311 47.0197 21.7688 46.8821C21.9065 46.7444 22.0819 46.6507 22.2728 46.6127C22.4638 46.5747 22.6617 46.5942 22.8415 46.6687C23.0214 46.7432 23.1752 46.8694 23.2833 47.0312C23.3915 47.1931 23.4492 47.3834 23.4492 47.5781C23.4489 47.8391 23.3451 48.0893 23.1606 48.2739C22.976 48.4584 22.7258 48.5622 22.4648 48.5625Z" fill="#F20F38"/>
</svg>
