<svg width="48" height="48" viewBox="0 0 48 48" fill="none" xmlns="http://www.w3.org/2000/svg">
<g clip-path="url(#clip0)">
<path d="M12.3588 42.7969H17.1721C17.4952 42.7969 17.7574 42.5347 17.7574 42.2115C17.7574 41.888 17.4952 41.6261 17.1721 41.6261H12.3588C12.0356 41.6261 11.7734 41.888 11.7734 42.2115C11.7734 42.5347 12.0356 42.7969 12.3588 42.7969Z" fill="#F20F38"/>
<path d="M6.09337 48H23.4371C26.154 47.9969 28.3556 45.7953 28.3582 43.0785V33.4062C28.37 33.2893 28.3761 33.1703 28.3761 33.0503V28.0316C29.1593 28.0492 29.8529 28.5415 30.1273 29.2755L31.415 32.7523C31.79 33.753 32.6551 34.4893 33.7031 34.6993C34.0793 35.92 35.3064 36.6688 36.564 36.4451C37.8216 36.2214 38.7153 35.0953 38.6475 33.8197C38.5797 32.5442 37.572 31.5191 36.2976 31.4299C35.0232 31.3407 33.8826 32.2153 33.6376 33.4691C33.1178 33.2752 32.7073 32.8655 32.513 32.3457L31.2252 28.8689C30.7797 27.6768 29.649 26.88 28.3765 26.8609V25.3742H31.2146C31.9844 25.375 32.6082 25.9989 32.609 26.7687C32.6105 28.1848 33.758 29.3323 35.1742 29.3338H36.7313C37.0282 30.5812 38.2119 31.4085 39.4851 31.2591C40.7584 31.1098 41.7184 30.0309 41.7184 28.7485C41.7184 27.4665 40.7584 26.3872 39.4851 26.2378C38.2119 26.0884 37.0282 26.9158 36.7313 28.1631H35.1742C34.4043 28.1623 33.7805 27.5385 33.7797 26.7687C33.7782 25.3525 32.6307 24.205 31.2146 24.2035H28.3765V22.878H41.8647C42.1319 23.9977 43.1212 24.7957 44.2717 24.8197C45.4226 24.8434 46.4444 24.0873 46.7572 22.9794C47.0705 21.872 46.596 20.6928 45.6033 20.1105C44.6105 19.5282 43.3495 19.6902 42.5358 20.5042C42.2047 20.835 41.9722 21.2515 41.8647 21.7073H28.3765V20.3815H31.2146C32.6307 20.38 33.7782 19.2321 33.7797 17.8163C33.7805 17.0465 34.4043 16.4226 35.1742 16.4215H36.7313C37.0282 17.6688 38.2119 18.4966 39.4851 18.3468C40.7584 18.1974 41.7184 17.1185 41.7184 15.8361C41.7184 14.5541 40.7584 13.4752 39.4851 13.3255C38.2119 13.1761 37.0282 14.0038 36.7313 15.2508H35.1742C33.758 15.2527 32.6105 16.4002 32.609 17.8163C32.6082 18.5861 31.9844 19.21 31.2146 19.2107H28.3765V17.7241C29.649 17.705 30.7793 16.9082 31.2252 15.7161L32.513 12.2393C32.7073 11.7195 33.1178 11.3098 33.638 11.1166C33.8834 12.3662 35.0213 13.2374 36.2919 13.1479C37.5621 13.0587 38.5667 12.0366 38.6345 10.7645C38.702 9.49276 37.8114 8.37005 36.5575 8.14634C35.3037 7.92264 34.0797 8.66806 33.7035 9.88491C32.6555 10.0949 31.79 10.8316 31.415 11.8327L30.1273 15.3095C29.8529 16.0434 29.1593 16.5358 28.3761 16.5534V12.2774C28.3761 12.1673 28.37 12.0572 28.3582 11.9474V4.92149C28.3556 2.20465 26.154 0.00304878 23.4371 0H6.09337C3.37652 0.00304878 1.17492 2.20465 1.17188 4.92149V43.0785C1.17492 45.7953 3.37652 47.9969 6.09337 48ZM35.1604 32.9924C35.6189 32.5339 36.3369 32.463 36.8758 32.8232C37.4146 33.1833 37.6242 33.8739 37.3761 34.4726C37.1284 35.0713 36.492 35.4116 35.8563 35.2851C35.2207 35.1589 34.7626 34.601 34.7626 33.9527C34.7618 33.5922 34.9047 33.2466 35.1604 32.9924ZM38.2317 27.7881C38.6898 27.33 39.4082 27.2591 39.947 27.6193C40.4855 27.9794 40.6951 28.67 40.447 29.2687C40.1989 29.8674 39.5625 30.2077 38.9268 30.0812C38.2912 29.9546 37.8335 29.3967 37.8335 28.7485C37.8327 28.388 37.976 28.0423 38.2317 27.7881ZM43.3632 21.3319C43.8937 20.8014 44.7542 20.8014 45.2847 21.3319C45.8152 21.8624 45.8152 22.7226 45.2847 23.253C44.7542 23.7835 43.8937 23.7835 43.3632 23.253C42.8335 22.7222 42.8335 21.8628 43.3632 21.3319ZM38.2317 14.8758C38.7622 14.3453 39.6223 14.3453 40.1528 14.8758C40.6833 15.4062 40.6833 16.2664 40.1528 16.7969C39.6223 17.3274 38.7622 17.3274 38.2317 16.7969C37.7012 16.2664 37.7012 15.4062 38.2317 14.8758ZM35.1604 9.67149C35.6185 9.21303 36.3369 9.14253 36.8758 9.50229C37.4146 9.86242 37.6242 10.553 37.3761 11.1521C37.1281 11.7508 36.4916 12.0911 35.8559 11.9646C35.2203 11.838 34.7626 11.2801 34.7626 10.6322C34.7614 10.2717 34.9047 9.92569 35.1604 9.67149ZM23.7576 32.0614C23.4345 32.0614 23.1723 32.3236 23.1723 32.6467C23.1723 33.9943 22.08 35.0865 20.7325 35.0865C19.3849 35.0865 18.2927 33.9943 18.2927 32.6467V31.891C18.4665 31.9108 18.6414 31.9211 18.8163 31.9215C19.1399 31.9215 19.4017 31.6593 19.4017 31.3361C19.4017 31.0126 19.1399 30.7508 18.8163 30.7508C16.912 30.7508 15.3681 29.2069 15.3681 27.3026C15.3681 25.3979 16.912 23.8544 18.8163 23.8544C19.1399 23.8544 19.4017 23.5922 19.4017 23.2691C19.4017 22.9455 19.1399 22.6837 18.8163 22.6837C18.0995 22.6829 17.3922 22.8506 16.7515 23.1726C16.1784 22.7142 15.8582 22.0095 15.8902 21.2763C15.9223 20.5427 16.303 19.8689 16.9143 19.4623C16.9733 19.4234 17.0343 19.388 17.096 19.3544C17.1094 19.3788 17.1216 19.4043 17.1357 19.4284C17.2976 19.7085 17.6559 19.8041 17.9356 19.6421C18.2157 19.4802 18.3114 19.122 18.1494 18.8418C17.3335 17.428 17.6208 15.6353 18.838 14.5473C20.0549 13.4592 21.8681 13.3735 23.1825 14.3422C23.4425 14.5343 23.8091 14.479 24.0011 14.2191C24.1932 13.9588 24.138 13.5926 23.878 13.4005C23.7752 13.3243 23.67 13.2534 23.5625 13.1867C23.197 12.5027 23.2755 11.6665 23.7618 11.0625C24.2481 10.4585 25.048 10.2031 25.7946 10.4135C26.5408 10.6242 27.0892 11.2603 27.1879 12.0293V33.3392C27.088 34.1833 26.5556 34.9143 25.7828 35.2683C25.0099 35.6227 24.1086 35.5484 23.404 35.0732C24.0088 34.4101 24.3438 33.5446 24.343 32.6471C24.343 32.3236 24.0808 32.0614 23.7576 32.0614ZM25.2698 9.17111C24.3857 9.16806 23.5423 9.54306 22.9524 10.2016C22.3628 10.8605 22.0831 11.7401 22.1837 12.6185C20.6117 12.2511 18.9619 12.7313 17.8331 13.8853C16.7043 15.0393 16.2599 16.6989 16.6616 18.2622C16.5252 18.3289 16.3929 18.404 16.2664 18.4878C15.3956 19.0663 14.8323 20.0061 14.7329 21.0465C14.633 22.0869 15.008 23.117 15.753 23.8498C14.5514 24.9143 13.9889 26.5267 14.2683 28.1075C14.5473 29.6883 15.628 31.0103 17.1216 31.5983V32.6467C17.1216 33.9196 17.7915 35.0983 18.8849 35.7492C19.9783 36.4002 21.3338 36.4272 22.4527 35.8205C23.8331 36.976 25.8548 36.9352 27.1879 35.7252V37.8319H2.34261V7.28468H27.1879V9.83651C26.6422 9.40511 25.9661 9.17073 25.2702 9.17111H25.2698ZM6.09337 1.17073H23.4371C25.5076 1.17302 27.1852 2.85099 27.1875 4.92149V6.11395H2.34261V4.92149C2.34489 2.85099 4.02287 1.17302 6.09337 1.17073ZM2.34261 39.0027H27.1879V43.0785C27.1856 45.1494 25.5076 46.827 23.4371 46.8293H6.09337C4.02287 46.827 2.34489 45.149 2.34261 43.0785V39.0027Z" fill="#F20F38"/>
<path d="M25.0453 24.3708C25.1771 24.4143 25.3017 24.4779 25.4149 24.5591C25.6771 24.7481 26.043 24.689 26.2324 24.4265C26.4214 24.1639 26.3616 23.798 26.099 23.609C25.7099 23.3293 25.2495 23.165 24.7709 23.1357C24.8334 22.4829 24.6383 21.8316 24.2278 21.3205C24.0255 21.0682 23.6569 21.0278 23.4046 21.2298C23.1527 21.4322 23.112 21.8007 23.3143 22.053C23.6135 22.4268 23.6943 22.9306 23.527 23.3796C22.5357 23.8506 21.961 24.9066 22.1036 25.995C22.1417 26.2858 22.3894 26.5034 22.6832 26.5038C22.7088 26.5038 22.7347 26.5023 22.7602 26.4989C23.0807 26.4566 23.3063 26.1623 23.264 25.8418C23.2373 25.6387 23.2572 25.4318 23.3219 25.237C23.5598 24.5229 24.3303 24.1353 25.0453 24.3708Z" fill="#F20F38"/>
<path d="M19.7337 20.952C19.616 20.8369 19.5306 20.6921 19.4868 20.5331C19.7669 20.0553 19.8469 19.4867 19.7101 18.9501C19.6297 18.6368 19.3107 18.4482 18.9975 18.5286C18.6846 18.609 18.4959 18.9283 18.5764 19.2412C18.6854 19.6696 18.4796 20.1158 18.0832 20.311C17.8024 20.4554 17.6869 20.7965 17.8222 21.0819C17.9571 21.3674 18.2943 21.4943 18.584 21.3685C18.6762 21.5225 18.7875 21.6639 18.9155 21.7892C19.1469 22.0152 19.5177 22.011 19.7437 21.7797C19.9696 21.5488 19.9655 21.178 19.7341 20.952H19.7337Z" fill="#F20F38"/>
<path d="M21.989 16.3872C22.1247 16.3525 22.2664 16.3491 22.4036 16.3773C22.6948 16.4363 22.9402 16.6303 23.0652 16.8994C23.1898 17.1688 23.1792 17.4813 23.0363 17.7416C22.88 18.0248 22.9829 18.3807 23.2661 18.537C23.5488 18.6932 23.9052 18.5907 24.0614 18.3075C24.2318 17.9981 24.3213 17.6505 24.3225 17.2972C24.5008 17.2809 24.6765 17.242 24.8453 17.1814C25.1433 17.0747 25.4132 16.9009 25.6342 16.6741C25.7824 16.5248 25.8388 16.3079 25.7828 16.1052C25.7264 15.9028 25.566 15.7462 25.3621 15.6943C25.1586 15.6429 24.9429 15.7046 24.7969 15.8559C24.699 15.9562 24.5797 16.0328 24.4478 16.0796C24.2931 16.1357 24.1262 16.1494 23.9646 16.1197C23.4688 15.3799 22.5603 15.0328 21.6975 15.2538C21.3846 15.3342 21.1959 15.6532 21.2764 15.9665C21.3568 16.2793 21.6757 16.468 21.989 16.3876V16.3872Z" fill="#F20F38"/>
<path d="M23.2078 29.0358C22.6815 29.4032 21.9978 29.4585 21.4193 29.1799C21.2711 28.7877 21.0413 28.4318 20.7451 28.1357C20.5165 27.9074 20.1457 27.9078 19.9174 28.1364C19.6887 28.3651 19.6891 28.7359 19.9178 28.9642C20.1274 29.1734 20.2813 29.4318 20.3656 29.7153C20.3698 29.7332 20.3747 29.7511 20.3808 29.7687C20.5272 30.3232 20.398 30.9139 20.0336 31.3567C19.8278 31.6063 19.8633 31.9752 20.1129 32.181C20.3625 32.3864 20.7314 32.351 20.9368 32.1014C21.3191 31.6368 21.5508 31.0667 21.6003 30.4668C22.3926 30.6284 23.2162 30.4577 23.8789 29.9947C24.1426 29.8087 24.2063 29.4444 24.021 29.1803C23.8362 28.9162 23.4723 28.8514 23.2074 29.0354L23.2078 29.0358Z" fill="#F20F38"/>
</g>
<defs>
<clipPath id="clip0">
<rect width="48" height="48" fill="white"/>
</clipPath>
</defs>
</svg>
