<svg width="56" height="56" viewBox="0 0 56 56" fill="none" xmlns="http://www.w3.org/2000/svg">
<path d="M33.1055 11.7031H34.3213C34.4953 11.7031 34.6623 11.634 34.7853 11.5109C34.9084 11.3878 34.9775 11.2209 34.9775 11.0469C34.9775 10.8728 34.9084 10.7059 34.7853 10.5828C34.6623 10.4598 34.4953 10.3906 34.3213 10.3906H33.1055C32.9314 10.3906 32.7645 10.4598 32.6414 10.5828C32.5184 10.7059 32.4492 10.8728 32.4492 11.0469C32.4492 11.2209 32.5184 11.3878 32.6414 11.5109C32.7645 11.634 32.9314 11.7031 33.1055 11.7031Z" fill="#F20F38"/>
<path d="M25.5938 45.2813C25.1395 45.2812 24.6954 45.416 24.3177 45.6683C23.94 45.9207 23.6456 46.2795 23.4717 46.6991C23.2979 47.1188 23.2524 47.5807 23.341 48.0262C23.4296 48.4718 23.6484 48.881 23.9696 49.2023C24.2908 49.5235 24.7001 49.7422 25.1457 49.8309C25.5912 49.9195 26.053 49.874 26.4727 49.7002C26.8924 49.5263 27.2511 49.2319 27.5035 48.8542C27.7559 48.4765 27.8906 48.0324 27.8906 47.5781C27.89 46.9692 27.6478 46.3853 27.2172 45.9547C26.7865 45.5241 26.2027 45.2819 25.5938 45.2813ZM25.5938 48.5625C25.3991 48.5625 25.2087 48.5048 25.0469 48.3966C24.885 48.2884 24.7588 48.1347 24.6843 47.9548C24.6098 47.775 24.5903 47.577 24.6283 47.3861C24.6663 47.1951 24.76 47.0197 24.8977 46.8821C25.0354 46.7444 25.2108 46.6506 25.4017 46.6127C25.5927 46.5747 25.7906 46.5942 25.9705 46.6687C26.1503 46.7432 26.3041 46.8694 26.4122 47.0312C26.5204 47.1931 26.5781 47.3834 26.5781 47.5781C26.5778 47.8391 26.474 48.0893 26.2895 48.2738C26.1049 48.4584 25.8547 48.5622 25.5938 48.5625Z" fill="#F20F38"/>
<path d="M41.1754 35.1165C41.974 35.1156 42.7396 34.798 43.3043 34.2333C43.869 33.6686 44.1866 32.903 44.1875 32.1044V21.5773C44.1866 20.7787 43.869 20.0131 43.3043 19.4484C42.7396 18.8837 41.974 18.5661 41.1754 18.5652H39.375V8.85938C39.3735 7.52548 38.8429 6.24665 37.8997 5.30344C36.9565 4.36023 35.6777 3.82966 34.3438 3.82812H16.8438C15.5099 3.82966 14.231 4.36023 13.2878 5.30344C12.3446 6.24665 11.814 7.52548 11.8125 8.85938V47.1406C11.814 48.4745 12.3446 49.7533 13.2878 50.6966C14.231 51.6398 15.5099 52.1703 16.8438 52.1719H34.3438C35.6777 52.1703 36.9565 51.6398 37.8997 50.6966C38.8429 49.7533 39.3735 48.4745 39.375 47.1406V35.1165H41.1754ZM42.875 21.5773V32.1044C42.8745 32.555 42.6953 32.987 42.3766 33.3056C42.058 33.6242 41.626 33.8035 41.1754 33.804H38.8032C38.7472 33.796 38.6903 33.796 38.6343 33.804H34.2969C34.1839 33.804 34.0729 33.8332 33.9745 33.8888C33.8761 33.9444 33.7937 34.0244 33.7353 34.1212L31.3925 37.9985L29.05 34.1208C28.9916 34.0241 28.9092 33.944 28.8108 33.8885C28.7124 33.8329 28.6013 33.8037 28.4882 33.8037H24.0121C23.5615 33.8031 23.1296 33.624 22.811 33.3054C22.4924 32.9869 22.3131 32.5549 22.3125 32.1044V21.5773C22.313 21.1267 22.4923 20.6947 22.8109 20.3761C23.1295 20.0575 23.5615 19.8782 24.0121 19.8777H38.6313C38.6893 19.8864 38.7482 19.8864 38.8062 19.8777H41.1756C41.6262 19.8783 42.0581 20.0575 42.3767 20.3762C42.6953 20.6948 42.8745 21.1267 42.875 21.5773ZM34.3438 50.8594H16.8438C15.8578 50.8583 14.9126 50.4661 14.2154 49.769C13.5182 49.0718 13.1261 48.1266 13.125 47.1406V44.2969H38.0625V47.1406C38.0614 48.1266 37.6693 49.0718 36.9721 49.769C36.2749 50.4661 35.3297 50.8583 34.3438 50.8594ZM38.0625 42.9844H13.125V11.7031H30.9531C31.1272 11.7031 31.2941 11.634 31.4172 11.5109C31.5402 11.3878 31.6094 11.2209 31.6094 11.0469C31.6094 10.8728 31.5402 10.7059 31.4172 10.5828C31.2941 10.4598 31.1272 10.3906 30.9531 10.3906H13.125V8.85938C13.1261 7.87344 13.5182 6.9282 14.2154 6.23104C14.9126 5.53387 15.8578 5.14173 16.8438 5.14062H34.3438C35.3297 5.14173 36.2749 5.53387 36.9721 6.23104C37.6693 6.9282 38.0614 7.87344 38.0625 8.85938V10.3906H36.5312C36.3572 10.3906 36.1903 10.4598 36.0672 10.5828C35.9441 10.7059 35.875 10.8728 35.875 11.0469C35.875 11.2209 35.9441 11.3878 36.0672 11.5109C36.1903 11.634 36.3572 11.7031 36.5312 11.7031H38.0625V18.5652H24.0121C23.2135 18.5661 22.4479 18.8837 21.8832 19.4484C21.3185 20.0131 21.0009 20.7787 21 21.5773V32.1044C21.0009 32.903 21.3185 33.6686 21.8832 34.2333C22.4479 34.798 23.2135 35.1156 24.0121 35.1165H28.1179L30.5586 39.1562C30.5612 39.1606 30.5639 39.1649 30.5666 39.1692C30.655 39.3081 30.777 39.4224 30.9214 39.5016C31.0657 39.5808 31.2277 39.6224 31.3924 39.6224C31.557 39.6224 31.719 39.5808 31.8634 39.5016C32.0077 39.4224 32.1297 39.3081 32.2182 39.1692C32.2209 39.165 32.2235 39.1606 32.2261 39.1564L34.6668 35.1169H38.0625V42.9844Z" fill="#F20F38"/>
<path d="M36.3566 26.3729L31.7812 23.0917C31.6832 23.0212 31.5676 22.9792 31.4472 22.9703C31.3267 22.9613 31.2062 22.9857 31.0988 23.0409C30.9914 23.096 30.9012 23.1797 30.8383 23.2828C30.7754 23.3858 30.7421 23.5042 30.7422 23.625V30.1875C30.7421 30.3082 30.7754 30.4266 30.8383 30.5297C30.9012 30.6328 30.9914 30.7165 31.0988 30.7716C31.2062 30.8267 31.3267 30.8512 31.4472 30.8422C31.5676 30.8332 31.6832 30.7912 31.7812 30.7208L36.3566 27.4395C36.4413 27.3788 36.5104 27.2987 36.558 27.206C36.6056 27.1132 36.6305 27.0105 36.6305 26.9062C36.6305 26.802 36.6056 26.6992 36.558 26.6065C36.5104 26.5137 36.4413 26.4337 36.3566 26.3729ZM32.055 28.9092V24.9032L34.8481 26.9062L32.055 28.9092Z" fill="#F20F38"/>
</svg>
