<svg width="56" height="56" viewBox="0 0 56 56" fill="none" xmlns="http://www.w3.org/2000/svg">
<path d="M12.9687 52.1719H30.4688C31.8027 52.1704 33.0815 51.6398 34.0247 50.6966C34.9679 49.7534 35.4985 48.4745 35.5 47.1406V41.2344H36.7041C36.8673 41.2344 37.0246 41.1736 37.1454 41.064C37.2661 40.9543 37.3417 40.8035 37.3574 40.6411L37.5762 38.3735C38.5237 38.1218 39.4317 37.7398 40.2741 37.2381L42.0151 38.6799C42.141 38.7841 42.3012 38.8376 42.4644 38.83C42.6277 38.8223 42.7821 38.754 42.8977 38.6385L45.499 36.0372C45.6145 35.9216 45.6827 35.7672 45.6904 35.6039C45.698 35.4407 45.6445 35.2805 45.5403 35.1547L44.0951 33.4097C44.5951 32.5673 44.9781 31.6608 45.2335 30.7151L47.4692 30.497C47.6315 30.4812 47.782 30.4055 47.8915 30.2848C48.0011 30.164 48.0617 30.0069 48.0617 29.8438V26.156C48.0617 25.9929 48.0009 25.8356 47.8912 25.7148C47.7815 25.5941 47.6308 25.5185 47.4684 25.5029L45.2008 25.2841C44.9492 24.3365 44.5671 23.4285 44.0655 22.586L45.5072 20.8451C45.6109 20.7198 45.6644 20.5605 45.6574 20.3979C45.6503 20.2354 45.583 20.0813 45.4688 19.9655L42.9004 17.3643C42.7851 17.2474 42.6301 17.1779 42.4661 17.1697C42.3021 17.1615 42.1409 17.2151 42.0145 17.3199L40.2695 18.7649C39.4273 18.2651 38.521 17.8821 37.5755 17.6267L37.3567 15.3587C37.341 15.1964 37.2655 15.0458 37.1449 14.9362C37.0242 14.8266 36.8671 14.7658 36.7041 14.7656H35.5V8.85938C35.4985 7.52547 34.9679 6.24662 34.0247 5.30341C33.0815 4.36019 31.8027 3.82963 30.4688 3.82812H12.9687C11.6349 3.82966 10.356 4.36023 9.41281 5.30344C8.4696 6.24665 7.93903 7.52548 7.9375 8.85938V47.1406C7.93903 48.4745 8.4696 49.7533 9.41281 50.6966C10.356 51.6398 11.6349 52.1703 12.9687 52.1719ZM36.3143 18.2177C36.3276 18.3563 36.3847 18.487 36.4772 18.5909C36.5697 18.6949 36.6929 18.7668 36.8289 18.7962C37.9475 19.0451 39.0118 19.4943 39.9704 20.1222C40.0876 20.1978 40.2259 20.2341 40.3651 20.2258C40.5043 20.2175 40.6373 20.1651 40.7448 20.0761L42.3889 18.7141L44.1177 20.465L42.7512 22.1156C42.6612 22.2243 42.6086 22.3592 42.6013 22.5001C42.594 22.6411 42.6323 22.7806 42.7105 22.8981C43.3414 23.8515 43.7891 24.914 44.031 26.0312C44.0605 26.1672 44.1325 26.2902 44.2364 26.3826C44.3404 26.475 44.4711 26.532 44.6095 26.5453L46.7492 26.7516V29.2481L44.6417 29.4547C44.5033 29.4682 44.3729 29.5252 44.2691 29.6176C44.1652 29.71 44.0934 29.8329 44.064 29.9688C43.8151 31.0873 43.3659 32.1516 42.7381 33.1102C42.6625 33.2274 42.6262 33.3657 42.6345 33.5049C42.6428 33.6441 42.6952 33.7771 42.7842 33.8845L44.1482 35.5317L42.3918 37.288L40.7448 35.924C40.636 35.834 40.5012 35.7814 40.3602 35.7741C40.2192 35.7668 40.0796 35.8051 39.9622 35.8834C39.0087 36.5142 37.9462 36.9619 36.8289 37.2039C36.693 37.2334 36.5699 37.3053 36.4775 37.4093C36.3851 37.5133 36.3282 37.6439 36.3148 37.7824L36.1081 39.9219H33.6124L33.4061 37.7823C33.3928 37.6438 33.3358 37.5132 33.2434 37.4092C33.151 37.3052 33.028 37.2333 32.8921 37.2038C31.7735 36.9549 30.7092 36.5057 29.7506 35.8778C29.6334 35.8022 29.4951 35.7659 29.3559 35.7742C29.2166 35.7825 29.0836 35.8349 28.9762 35.9239L27.329 37.2879L25.5723 35.5316L26.9364 33.8844C27.0264 33.7757 27.0789 33.6408 27.0863 33.4999C27.0936 33.3589 27.0552 33.2194 26.977 33.1019C26.3462 32.1485 25.8984 31.086 25.6565 29.9688C25.627 29.8328 25.555 29.7098 25.4511 29.6174C25.3471 29.525 25.2164 29.468 25.078 29.4547L22.9384 29.2484V26.7521L25.078 26.5459C25.2164 26.5325 25.3471 26.4756 25.4511 26.3832C25.555 26.2908 25.627 26.1677 25.6565 26.0318C25.9053 24.9131 26.3545 23.8486 26.9824 22.8899C27.058 22.7727 27.0943 22.6345 27.0861 22.4952C27.0778 22.356 27.0254 22.2231 26.9365 22.1156L25.5724 20.4684L27.3287 18.7121L28.9759 20.0761C29.0846 20.1661 29.2195 20.2187 29.3605 20.226C29.5014 20.2333 29.641 20.195 29.7585 20.1167C30.7119 19.4859 31.7744 19.0381 32.8917 18.7962C33.0277 18.7667 33.1507 18.6948 33.2431 18.5908C33.3355 18.4868 33.3925 18.3562 33.4058 18.2177L33.6124 16.0781H36.1081L36.3143 18.2177ZM12.9687 5.14062H30.4688C31.4547 5.14173 32.3999 5.53387 33.0971 6.23104C33.7943 6.9282 34.1864 7.87344 34.1875 8.85938V10.3906H32.6562C32.4822 10.3906 32.3153 10.4598 32.1922 10.5828C32.0691 10.7059 32 10.8728 32 11.0469C32 11.2209 32.0691 11.3878 32.1922 11.5109C32.3153 11.634 32.4822 11.7031 32.6562 11.7031H34.1875V14.7656H33.0163C32.8532 14.7656 32.6959 14.8264 32.5751 14.9361C32.4544 15.0458 32.3788 15.1965 32.3631 15.3589L32.1444 17.6265C31.1968 17.8782 30.2888 18.2602 29.4464 18.7619L27.7055 17.3201C27.5796 17.2158 27.4194 17.1623 27.2561 17.17C27.0929 17.1777 26.9384 17.246 26.8228 17.3615L24.2216 19.9628C24.106 20.0784 24.0378 20.2328 24.0301 20.3961C24.0225 20.5593 24.076 20.7195 24.1802 20.8453L25.6253 22.5903C25.1255 23.4325 24.7425 24.3388 24.4869 25.2842L22.219 25.503C22.0566 25.5186 21.9059 25.5942 21.7962 25.715C21.6866 25.8357 21.6258 25.993 21.6258 26.1562V29.844C21.6258 30.0071 21.6865 30.1644 21.7962 30.2852C21.9059 30.406 22.0566 30.4816 22.219 30.4972L24.4866 30.716C24.7383 31.6636 25.1205 32.5716 25.6221 33.4141L24.1803 35.155C24.0761 35.2808 24.0226 35.441 24.0303 35.6043C24.0379 35.7675 24.1062 35.922 24.2217 36.0375L26.823 38.6388C26.9385 38.7544 27.093 38.8227 27.2563 38.8303C27.4195 38.838 27.5797 38.7845 27.7056 38.6803L29.4506 37.2352C30.2929 37.735 31.1993 38.1178 32.1449 38.3731L32.3637 40.6411C32.3793 40.8034 32.4548 40.9541 32.5755 41.0637C32.6961 41.1734 32.8533 41.2342 33.0163 41.2344H34.1875V42.9844H9.25V11.7031H27.0781C27.2522 11.7031 27.4191 11.634 27.5422 11.5109C27.6652 11.3878 27.7344 11.2209 27.7344 11.0469C27.7344 10.8728 27.6652 10.7059 27.5422 10.5828C27.4191 10.4598 27.2522 10.3906 27.0781 10.3906H9.25V8.85938C9.25113 7.87345 9.64329 6.92822 10.3404 6.23107C11.0376 5.53391 11.9828 5.14175 12.9687 5.14062ZM9.25 44.2969H34.1875V47.1406C34.1864 48.1266 33.7943 49.0718 33.0971 49.769C32.3999 50.4661 31.4547 50.8583 30.4688 50.8594H12.9687C11.9828 50.8582 11.0376 50.4661 10.3404 49.7689C9.64329 49.0718 9.25113 48.1266 9.25 47.1406V44.2969Z" fill="#F20F38"/>
<path d="M29.2344 11.7031H30.4501C30.6241 11.7031 30.791 11.634 30.9141 11.5109C31.0372 11.3878 31.1063 11.2209 31.1063 11.0469C31.1063 10.8728 31.0372 10.7059 30.9141 10.5828C30.791 10.4598 30.6241 10.3906 30.4501 10.3906H29.2344C29.0603 10.3906 28.8934 10.4598 28.7703 10.5828C28.6473 10.7059 28.5781 10.8728 28.5781 11.0469C28.5781 11.2209 28.6473 11.3878 28.7703 11.5109C28.8934 11.634 29.0603 11.7031 29.2344 11.7031Z" fill="#F20F38"/>
<path d="M21.7188 49.875C22.173 49.875 22.6171 49.7403 22.9948 49.4879C23.3725 49.2355 23.6669 48.8768 23.8408 48.4571C24.0146 48.0374 24.0601 47.5756 23.9715 47.13C23.8829 46.6845 23.6641 46.2752 23.3429 45.954C23.0217 45.6328 22.6124 45.414 22.1668 45.3254C21.7213 45.2368 21.2595 45.2822 20.8398 45.4561C20.4201 45.6299 20.0614 45.9243 19.809 46.3021C19.5566 46.6798 19.4219 47.1239 19.4219 47.5781C19.4225 48.1871 19.6647 48.7709 20.0954 49.2015C20.526 49.6321 21.1098 49.8743 21.7188 49.875ZM21.7188 46.5938C21.9134 46.5938 22.1038 46.6515 22.2656 46.7597C22.4275 46.8678 22.5537 47.0216 22.6282 47.2014C22.7027 47.3813 22.7222 47.5792 22.6842 47.7702C22.6462 47.9611 22.5525 48.1365 22.4148 48.2742C22.2771 48.4119 22.1017 48.5056 21.9108 48.5436C21.7198 48.5816 21.5219 48.5621 21.342 48.4876C21.1622 48.4131 21.0084 48.2869 20.9003 48.125C20.7921 47.9631 20.7344 47.7728 20.7344 47.5781C20.7347 47.3171 20.8385 47.0669 21.023 46.8824C21.2076 46.6978 21.4578 46.594 21.7188 46.5938Z" fill="#F20F38"/>
<path d="M27.0234 28C27.0234 29.5498 27.483 31.0649 28.3441 32.3536C29.2052 33.6423 30.429 34.6466 31.8609 35.2398C33.2928 35.8329 34.8684 35.9881 36.3885 35.6857C37.9086 35.3833 39.3049 34.637 40.4008 33.5411C41.4967 32.4451 42.2431 31.0489 42.5454 29.5288C42.8478 28.0087 42.6926 26.4331 42.0995 25.0012C41.5064 23.5693 40.502 22.3454 39.2133 21.4843C37.9247 20.6233 36.4096 20.1637 34.8597 20.1637C32.7821 20.166 30.7903 20.9924 29.3212 22.4615C27.8521 23.9306 27.0258 25.9224 27.0234 28ZM34.8597 21.4762C36.15 21.4762 37.4113 21.8588 38.4841 22.5757C39.557 23.2925 40.3931 24.3114 40.8869 25.5034C41.3807 26.6955 41.5099 28.0072 41.2581 29.2727C41.0064 30.5382 40.3851 31.7006 39.4727 32.613C38.5604 33.5254 37.3979 34.1467 36.1324 34.3984C34.867 34.6501 33.5552 34.5209 32.3632 34.0272C31.1711 33.5334 30.1522 32.6972 29.4354 31.6244C28.7186 30.5516 28.3359 29.2903 28.3359 28C28.3379 26.2704 29.0258 24.6121 30.2489 23.3891C31.4719 22.1661 33.1301 21.4781 34.8597 21.4762Z" fill="#F20F38"/>
<path d="M33.5336 30.3374C33.6562 30.4571 33.8208 30.5241 33.9921 30.5241C34.1634 30.5241 34.3279 30.4571 34.4505 30.3374L38.2769 26.6016C38.3392 26.5416 38.389 26.4698 38.4235 26.3904C38.4579 26.311 38.4763 26.2256 38.4776 26.1391C38.4789 26.0526 38.4631 25.9666 38.4311 25.8863C38.3991 25.8059 38.3515 25.7326 38.291 25.6707C38.2306 25.6088 38.1585 25.5594 38.0789 25.5255C37.9993 25.4915 37.9137 25.4737 37.8272 25.4729C37.7407 25.4722 37.6549 25.4885 37.5747 25.5211C37.4945 25.5536 37.4215 25.6017 37.36 25.6625L33.992 28.9507L32.3266 27.3247C32.2018 27.2044 32.0345 27.1383 31.8611 27.141C31.6878 27.1436 31.5226 27.2147 31.4015 27.3387C31.2804 27.4628 31.2133 27.6297 31.2149 27.803C31.2164 27.9764 31.2865 28.1421 31.4098 28.2639L33.5336 30.3374Z" fill="#F20F38"/>
<path d="M19.5786 25.9219H18.6719C18.4978 25.9219 18.3309 25.991 18.2078 26.1141C18.0848 26.2372 18.0156 26.4041 18.0156 26.5781C18.0156 26.7522 18.0848 26.9191 18.2078 27.0422C18.3309 27.1652 18.4978 27.2344 18.6719 27.2344H19.5786C19.7526 27.2344 19.9196 27.1652 20.0426 27.0422C20.1657 26.9191 20.2348 26.7522 20.2348 26.5781C20.2348 26.4041 20.1657 26.2372 20.0426 26.1141C19.9196 25.991 19.7526 25.9219 19.5786 25.9219Z" fill="#F20F38"/>
<path d="M11.8125 27.2344H15.7694C15.9434 27.2344 16.1103 27.1652 16.2334 27.0422C16.3565 26.9191 16.4256 26.7522 16.4256 26.5781C16.4256 26.4041 16.3565 26.2372 16.2334 26.1141C16.1103 25.991 15.9434 25.9219 15.7694 25.9219H11.8125C11.6385 25.9219 11.4715 25.991 11.3485 26.1141C11.2254 26.2372 11.1562 26.4041 11.1562 26.5781C11.1562 26.7522 11.2254 26.9191 11.3485 27.0422C11.4715 27.1652 11.6385 27.2344 11.8125 27.2344Z" fill="#F20F38"/>
<path d="M19.5786 31.3906H15.3906C15.2166 31.3906 15.0497 31.4598 14.9266 31.5828C14.8035 31.7059 14.7344 31.8728 14.7344 32.0469C14.7344 32.2209 14.8035 32.3878 14.9266 32.5109C15.0497 32.634 15.2166 32.7031 15.3906 32.7031H19.5786C19.7526 32.7031 19.9196 32.634 20.0426 32.5109C20.1657 32.3878 20.2348 32.2209 20.2348 32.0469C20.2348 31.8728 20.1657 31.7059 20.0426 31.5828C19.9196 31.4598 19.7526 31.3906 19.5786 31.3906Z" fill="#F20F38"/>
<path d="M11.8125 32.7031H12.4881C12.6622 32.7031 12.8291 32.634 12.9521 32.5109C13.0752 32.3878 13.1444 32.2209 13.1444 32.0469C13.1444 31.8728 13.0752 31.7059 12.9521 31.5828C12.8291 31.4598 12.6622 31.3906 12.4881 31.3906H11.8125C11.6385 31.3906 11.4715 31.4598 11.3485 31.5828C11.2254 31.7059 11.1562 31.8728 11.1562 32.0469C11.1562 32.2209 11.2254 32.3878 11.3485 32.5109C11.4715 32.634 11.6385 32.7031 11.8125 32.7031Z" fill="#F20F38"/>
<path d="M19.1406 37.5156C19.1406 37.6897 19.2098 37.8566 19.3328 37.9797C19.4559 38.1027 19.6228 38.1719 19.7969 38.1719H22.8594C23.0334 38.1719 23.2003 38.1027 23.3234 37.9797C23.4465 37.8566 23.5156 37.6897 23.5156 37.5156C23.5156 37.3416 23.4465 37.1747 23.3234 37.0516C23.2003 36.9285 23.0334 36.8594 22.8594 36.8594H19.7969C19.6228 36.8594 19.4559 36.9285 19.3328 37.0516C19.2098 37.1747 19.1406 37.3416 19.1406 37.5156Z" fill="#F20F38"/>
<path d="M16.8631 36.8594H11.8125C11.6385 36.8594 11.4715 36.9285 11.3485 37.0516C11.2254 37.1747 11.1562 37.3416 11.1562 37.5156C11.1562 37.6897 11.2254 37.8566 11.3485 37.9797C11.4715 38.1027 11.6385 38.1719 11.8125 38.1719H16.8631C17.0372 38.1719 17.2041 38.1027 17.3271 37.9797C17.4502 37.8566 17.5194 37.6897 17.5194 37.5156C17.5194 37.3416 17.4502 37.1747 17.3271 37.0516C17.2041 36.9285 17.0372 36.8594 16.8631 36.8594Z" fill="#F20F38"/>
<path d="M16.5156 21.3281H20.6719C20.8459 21.3281 21.0128 21.259 21.1359 21.1359C21.259 21.0128 21.3281 20.8459 21.3281 20.6719C21.3281 20.4978 21.259 20.3309 21.1359 20.2078C21.0128 20.0848 20.8459 20.0156 20.6719 20.0156H16.5156C16.3416 20.0156 16.1747 20.0848 16.0516 20.2078C15.9285 20.3309 15.8594 20.4978 15.8594 20.6719C15.8594 20.8459 15.9285 21.0128 16.0516 21.1359C16.1747 21.259 16.3416 21.3281 16.5156 21.3281Z" fill="#F20F38"/>
<path d="M11.8125 21.3281H13.5819C13.7559 21.3281 13.9228 21.259 14.0459 21.1359C14.169 21.0128 14.2381 20.8459 14.2381 20.6719C14.2381 20.4978 14.169 20.3309 14.0459 20.2078C13.9228 20.0848 13.7559 20.0156 13.5819 20.0156H11.8125C11.6385 20.0156 11.4715 20.0848 11.3485 20.2078C11.2254 20.3309 11.1562 20.4978 11.1562 20.6719C11.1562 20.8459 11.2254 21.0128 11.3485 21.1359C11.4715 21.259 11.6385 21.3281 11.8125 21.3281Z" fill="#F20F38"/>
</svg>
