<svg width="48" height="48" viewBox="0 0 48 48" fill="none" xmlns="http://www.w3.org/2000/svg">
<path d="M34.5138 21.4836C34.1354 21.2973 33.9392 20.8717 34.0432 20.4633C34.1236 20.1501 33.935 19.8312 33.6219 19.7508C33.3091 19.6704 32.9902 19.859 32.9098 20.1718C32.7761 20.6949 32.8534 21.2496 33.1243 21.7163C33.082 21.8653 33.0016 22.0009 32.8908 22.1091C32.6599 22.3351 32.6557 22.7058 32.8816 22.937C33.1075 23.1679 33.4779 23.1721 33.7091 22.9462C33.831 22.8266 33.9373 22.6924 34.0261 22.5461C34.3168 22.6673 34.6509 22.5362 34.7824 22.2497C34.9138 21.9636 34.7949 21.6249 34.5138 21.4832V21.4836Z" fill="#F20F38"/>
<path d="M30.7134 17.7018C31.0266 17.7822 31.3455 17.5936 31.4259 17.2808C31.5063 16.9677 31.3181 16.6488 31.0049 16.5684C30.1621 16.3524 29.2752 16.6895 28.7887 17.4108C28.6363 17.4374 28.4797 17.4237 28.3345 17.3715C28.2084 17.3266 28.0945 17.2534 28.0012 17.1582C27.8556 17.0054 27.6392 16.9425 27.4346 16.994C27.23 17.0454 27.0693 17.2027 27.0132 17.4062C26.9572 17.6096 27.0148 17.8272 27.1641 17.9761C27.3805 18.1983 27.6449 18.3678 27.9372 18.4726C28.0975 18.5301 28.2648 18.5678 28.4343 18.5842C28.4374 18.9252 28.525 19.2601 28.6896 19.5588C28.8466 19.84 29.2013 19.9417 29.4832 19.7862C29.7651 19.6308 29.8688 19.2768 29.7149 18.9938C29.5785 18.7457 29.5682 18.4474 29.687 18.1906C29.8063 17.9335 30.0402 17.7487 30.318 17.6923C30.4486 17.6653 30.5839 17.6687 30.7134 17.7018Z" fill="#F20F38"/>
<path d="M32.3103 30.6418C32.3914 30.3683 32.5396 30.1191 32.7419 29.9176C32.9705 29.689 32.9709 29.3186 32.7423 29.0897C32.5141 28.8611 32.1434 28.8607 31.9148 29.0893C31.6268 29.3769 31.4031 29.7221 31.2584 30.1023C30.7029 30.3675 30.0479 30.3138 29.5431 29.9614C29.3717 29.8387 29.148 29.8177 28.9572 29.9061C28.7659 29.9941 28.6371 30.1785 28.6192 30.3881C28.6017 30.598 28.6981 30.8011 28.8718 30.92C29.2269 31.1691 29.6342 31.3345 30.0628 31.4027C30.4 31.4579 30.7444 31.4518 31.0793 31.3848C31.1319 31.9643 31.3574 32.5144 31.727 32.964C31.8596 33.1267 32.0691 33.2059 32.2764 33.1716C32.4832 33.1377 32.6562 32.9952 32.7294 32.7983C32.8025 32.6017 32.7648 32.3807 32.6303 32.2195C32.2798 31.7936 32.1556 31.2248 32.2962 30.6914C32.3011 30.675 32.3057 30.6582 32.3103 30.6418Z" fill="#F20F38"/>
<path d="M15.112 22.1091C15.0012 22.0009 14.9208 21.8653 14.8789 21.7163C15.1498 21.2492 15.2267 20.6949 15.0934 20.1718C15.013 19.859 14.6941 19.67 14.3809 19.7508C14.0677 19.8312 13.8791 20.1501 13.9595 20.4629C14.0639 20.8717 13.8677 21.2973 13.4894 21.4836C13.196 21.618 13.0673 21.9651 13.2017 22.2589C13.3366 22.5522 13.6837 22.681 13.9771 22.5465C14.0658 22.6924 14.1721 22.8269 14.294 22.9466C14.5249 23.1725 14.8956 23.1683 15.1216 22.937C15.3475 22.7058 15.3433 22.3355 15.112 22.1095V22.1091Z" fill="#F20F38"/>
<path d="M17.2896 17.7018C17.4191 17.6687 17.5544 17.6653 17.6851 17.6923C17.9628 17.7483 18.1971 17.9335 18.316 18.1903C18.4352 18.4474 18.4249 18.7458 18.2885 18.9938C18.1861 19.177 18.1899 19.4011 18.2981 19.5809C18.4063 19.7607 18.6025 19.8685 18.812 19.864C19.022 19.8594 19.2132 19.7428 19.3134 19.5588C19.478 19.2601 19.5656 18.9248 19.5687 18.5838C20.0506 18.5373 20.5006 18.3221 20.8389 17.9761C20.9883 17.8272 21.0458 17.6093 20.9902 17.4062C20.9341 17.2027 20.773 17.0454 20.5684 16.994C20.3638 16.9425 20.1474 17.005 20.0019 17.1578C19.7969 17.3666 19.5024 17.461 19.2144 17.4108C18.7278 16.6899 17.8409 16.3527 16.9981 16.5684C16.6853 16.6488 16.4967 16.9677 16.5771 17.2808C16.6575 17.594 16.9764 17.7826 17.2896 17.7018Z" fill="#F20F38"/>
<path d="M18.4603 29.961C17.9555 30.3134 17.3002 30.3675 16.7447 30.1024C16.6 29.7221 16.3763 29.3766 16.0887 29.0889C15.8597 28.8607 15.4894 28.8607 15.2608 29.0897C15.0326 29.3183 15.0329 29.689 15.2615 29.9172C15.4635 30.1191 15.6117 30.3683 15.6924 30.6418C15.6966 30.6586 15.7012 30.6754 15.7065 30.6914C15.8471 31.2248 15.7229 31.7936 15.3724 32.2195C15.2383 32.3807 15.2002 32.6017 15.2733 32.7982C15.3465 32.9952 15.5195 33.1377 15.7267 33.172C15.9336 33.2059 16.1431 33.1267 16.2757 32.964C16.6453 32.5148 16.8708 31.9643 16.9234 31.3848C17.6919 31.5368 18.4893 31.3691 19.1313 30.92C19.3046 30.8011 19.401 30.598 19.3835 30.3885C19.366 30.1785 19.2368 29.9945 19.0459 29.9061C18.8547 29.8177 18.631 29.8391 18.46 29.9614L18.4603 29.961Z" fill="#F20F38"/>
<path d="M42.9442 24.6142C43.2414 25.8806 44.4404 26.7233 45.7327 26.574C47.025 26.4243 48 25.3301 48 24.029C48 22.7283 47.025 21.6337 45.7327 21.4843C44.4404 21.3346 43.2414 22.1773 42.9442 23.4438H37.6709C37.893 22.641 37.813 21.7849 37.4457 21.0374H38.0637C39.4966 21.0359 40.6579 19.8746 40.6594 18.4417C40.6602 17.655 41.2979 17.0172 42.0847 17.0164H42.5007C42.6082 17.4801 42.844 17.9041 43.1812 18.2406C44.0057 19.0669 45.2843 19.2315 46.2912 18.641C47.2982 18.0501 47.7782 16.8538 47.4593 15.7306C47.1401 14.6078 46.1022 13.8428 44.9353 13.8698C43.7683 13.8969 42.7671 14.7095 42.5004 15.846H42.0847C40.6518 15.8476 39.4905 17.0088 39.489 18.4417C39.4879 19.2285 38.8505 19.8659 38.0637 19.867H36.4956C36.4274 19.8133 36.3569 19.7615 36.2837 19.7127C36.1633 19.6335 36.0384 19.5622 35.9092 19.499C36.2921 17.98 35.8585 16.3707 34.7643 15.2498C33.6697 14.1285 32.0715 13.6569 30.5437 14.0036C30.6569 12.8892 30.1467 11.8033 29.2171 11.1793C28.2875 10.5548 27.0896 10.4935 26.101 11.0193C25.1123 11.5454 24.4939 12.5733 24.4924 13.6934V18.8802C24.1648 18.8555 23.8352 18.8555 23.5076 18.8802V13.6934C23.5129 12.5687 22.8957 11.5336 21.904 11.0033C20.9122 10.4729 19.7087 10.5346 18.7764 11.1633C17.8441 11.7923 17.3359 12.8853 17.4563 14.0036C15.9281 13.6542 14.3279 14.1251 13.233 15.2471C12.1376 16.3688 11.7052 17.9796 12.0911 19.499C11.962 19.5622 11.837 19.6335 11.7166 19.7127C11.6431 19.7615 11.573 19.8137 11.5044 19.867H9.93626C9.14951 19.8663 8.51173 19.2285 8.51097 18.4417C8.50944 17.0088 7.34818 15.8476 5.91527 15.846H5.49923C5.23216 14.713 4.2332 13.9037 3.06927 13.8774C1.90572 13.8512 0.871327 14.6147 0.552819 15.7344C0.234691 16.8538 0.713216 18.047 1.71675 18.6368C2.72028 19.2266 3.99546 19.0635 4.81878 18.2406C5.15596 17.9045 5.39179 17.4801 5.49923 17.0164H5.91527C6.70202 17.0172 7.3398 17.655 7.34056 18.4417C7.34209 19.8746 8.50335 21.0359 9.93626 21.0374H10.5542C10.1873 21.7849 10.1069 22.641 10.3291 23.4438H5.05576C4.75858 22.1773 3.5596 21.3346 2.26728 21.4843C0.974957 21.6337 0 22.7283 0 24.029C0 25.3301 0.974957 26.4243 2.26728 26.574C3.5596 26.7233 4.75858 25.8806 5.05576 24.6142H10.9196C11.0068 24.7269 11.1017 24.8344 11.2031 24.935C10.5771 25.4946 10.1199 26.2174 9.88216 27.0224C8.47096 27.0529 7.34209 28.205 7.34056 29.6166C7.33942 30.4033 6.70202 31.0407 5.91527 31.0419H5.49923C5.39179 30.5778 5.15596 30.1538 4.81878 29.8174C3.99431 28.991 2.71571 28.8264 1.70875 29.4169C0.701786 30.0079 0.221737 31.2042 0.540627 32.327C0.859898 33.4501 1.89734 34.2152 3.0647 34.1881C4.23167 34.1611 5.23254 33.3488 5.49923 32.2123H5.91527C7.34818 32.2104 8.50944 31.0491 8.51097 29.6166C8.51211 28.9209 9.01464 28.3273 9.7008 28.2119C9.7008 28.2382 9.6989 28.2641 9.6989 28.2904C9.70119 30.1351 10.8266 31.792 12.54 32.4748V33.4825C12.5396 34.723 13.1911 35.8721 14.2559 36.5083C15.3204 37.1442 16.6413 37.1739 17.7332 36.5857C18.784 37.4585 20.2451 37.6452 21.4814 37.0646C22.7181 36.4836 23.5076 35.2404 23.5072 33.8742V31.7139C23.671 31.7265 23.8352 31.7341 23.9998 31.7341C24.164 31.7341 24.3286 31.7265 24.4924 31.7139V33.8749C24.4917 35.2412 25.2811 36.4843 26.5178 37.0653C27.7545 37.646 29.2152 37.4593 30.2663 36.5864C31.3583 37.1751 32.6795 37.1457 33.7444 36.5095C34.8093 35.8732 35.4612 34.7238 35.4604 33.4833V32.4755C37.1737 31.7928 38.2988 30.1359 38.3014 28.2911C38.3014 28.2648 38.2999 28.2389 38.2992 28.2126C38.9853 28.3281 39.4882 28.9217 39.4894 29.6173C39.4913 31.0499 40.6522 32.2104 42.0847 32.2123H42.5007C42.7678 33.3465 43.7675 34.1569 44.9322 34.1831C46.0973 34.2098 47.1328 33.4459 47.4513 32.3251C47.7698 31.2042 47.2909 30.0098 46.2863 29.4196C45.2812 28.8298 44.0049 28.9933 43.1812 29.8174C42.8444 30.1538 42.6086 30.5778 42.5007 31.0419H42.0847C41.2979 31.0407 40.6605 30.4033 40.6594 29.6166C40.6579 28.2046 39.529 27.0529 38.1178 27.022C37.8805 26.217 37.4229 25.4943 36.7973 24.935C36.8983 24.834 36.9931 24.7269 37.0808 24.6138L42.9442 24.6142ZM44.4529 23.0472C44.9951 22.5046 45.8744 22.5046 46.417 23.0472C46.9591 23.5893 46.9591 24.4686 46.417 25.0112C45.8744 25.5533 44.9951 25.5533 44.4529 25.0108C43.9115 24.4682 43.9115 23.5897 44.4529 23.0472ZM44.0091 15.4494C44.5516 14.9069 45.4306 14.9069 45.9731 15.4494C46.5152 15.9916 46.5152 16.8709 45.9731 17.4131C45.4306 17.9556 44.5516 17.9556 44.0091 17.4131C43.4677 16.8705 43.4677 15.9923 44.0087 15.4494H44.0091ZM3.99127 17.4131C3.44912 17.9548 2.57055 17.9548 2.0284 17.4127C1.48663 16.8705 1.48663 15.992 2.0284 15.4498C2.57055 14.908 3.44912 14.9077 3.99127 15.4494C4.53266 15.992 4.53266 16.8705 3.99127 17.4131ZM3.54779 25.0112C3.00564 25.5533 2.12631 25.5533 1.58416 25.0112C1.04163 24.469 1.04163 23.5897 1.58416 23.0475C2.12631 22.505 3.00564 22.505 3.54779 23.0475C3.8103 23.3066 3.95812 23.6602 3.95812 24.0293C3.95812 24.3981 3.8103 24.7517 3.54779 25.0108V25.0112ZM3.99127 32.6089C3.44912 33.1507 2.57055 33.1507 2.0284 32.6085C1.48663 32.0664 1.48663 31.1878 2.0284 30.6456C2.57055 30.1035 3.44912 30.1035 3.99127 30.6453C4.53266 31.1878 4.53266 32.066 3.99127 32.6085V32.6089ZM44.0087 30.6453C44.5509 30.1027 45.4302 30.1027 45.9727 30.6453C46.5149 31.1874 46.5149 32.0667 45.9727 32.6089C45.4302 33.1514 44.5509 33.1514 44.0087 32.6089C43.4673 32.0664 43.4673 31.1878 44.0087 30.6453ZM19.9834 36.2287C19.5216 36.2279 19.0698 36.0919 18.6846 35.837C19.2671 35.1916 19.5894 34.3527 19.5887 33.4833C19.5887 33.1598 19.3266 32.8981 19.0035 32.8981C18.6804 32.8981 18.4183 33.1598 18.4183 33.4833C18.4236 34.3275 17.9763 35.1105 17.246 35.5341C16.5152 35.9582 15.6138 35.9582 14.883 35.5341C14.1527 35.1105 13.7054 34.3275 13.7107 33.4833V32.767C13.8742 32.7853 14.0388 32.7944 14.203 32.7948C14.5264 32.7948 14.7882 32.5327 14.7882 32.2096C14.7882 31.8862 14.5264 31.6244 14.203 31.6244C13.0078 31.6309 11.9006 30.9969 11.301 29.9629C10.7017 28.9285 10.7017 27.653 11.301 26.6186C11.9006 25.5846 13.0078 24.9506 14.203 24.9571C14.5264 24.9571 14.7882 24.6953 14.7882 24.3719C14.7882 24.0488 14.5264 23.7867 14.203 23.7867C13.5081 23.7863 12.8226 23.9474 12.2009 24.2579C11.6507 23.8152 11.3444 23.1367 11.3768 22.4311C11.4092 21.7259 11.7761 21.0782 12.3643 20.6873C12.4165 20.653 12.4702 20.621 12.5247 20.5909C12.5354 20.6103 12.5449 20.6298 12.5556 20.6488C12.7175 20.9288 13.0756 21.0241 13.3553 20.8622C13.6349 20.7002 13.7305 20.3425 13.5686 20.0625C12.7804 18.6955 13.0581 16.9631 14.2346 15.9112C15.4111 14.8593 17.164 14.7766 18.4347 15.7127C18.6027 15.8396 18.8259 15.8662 19.0191 15.7828C19.2126 15.6994 19.346 15.5188 19.3688 15.3092C19.3921 15.1001 19.3006 14.8947 19.13 14.7713C19.0309 14.6981 18.9296 14.6295 18.8259 14.5651C18.4632 13.8797 18.5627 13.0419 19.0755 12.4605C19.5883 11.8791 20.4074 11.6761 21.1325 11.95C21.8575 12.2243 22.3371 12.9185 22.3371 13.6938V19.0784C19.5212 19.8316 17.5626 22.3823 17.5626 25.2973C17.5626 28.2119 19.5212 30.763 22.3371 31.5162V33.8753C22.3356 35.1745 21.2826 36.2272 19.9834 36.2287ZM23.0294 30.4742C20.356 29.9728 18.504 27.5185 18.7554 24.81C19.0073 22.1019 21.2799 20.0305 23.9998 20.0305C26.7197 20.0305 28.9923 22.1019 29.2438 24.81C29.4956 27.5185 27.6436 29.9728 24.9702 30.4742C24.3286 30.5931 23.6706 30.5931 23.0294 30.4742ZM33.797 23.7867C33.4739 23.7867 33.2118 24.0488 33.2118 24.3719C33.2118 24.6949 33.4739 24.9571 33.797 24.9571C34.9922 24.9506 36.0993 25.5846 36.699 26.6186C37.2987 27.6526 37.2987 28.9285 36.699 29.9625C36.0993 30.9965 34.9922 31.6305 33.797 31.624C33.4739 31.624 33.2118 31.8862 33.2118 32.2092C33.2118 32.5327 33.4739 32.7944 33.797 32.7944C33.9616 32.7944 34.1258 32.7853 34.2896 32.767V33.4829C34.2949 34.3275 33.8473 35.1101 33.1169 35.5341C32.3866 35.9578 31.4848 35.9578 30.7544 35.5341C30.0236 35.1101 29.5764 34.3275 29.5817 33.4829C29.5817 33.1598 29.3196 32.8977 28.9965 32.8977C28.6734 32.8977 28.4113 33.1598 28.4113 33.4829C28.4109 34.3527 28.7328 35.1916 29.3154 35.837C28.593 36.3159 27.6661 36.3586 26.9026 35.9483C26.1391 35.5383 25.6628 34.7417 25.6628 33.8749V31.5158C28.4787 30.763 30.4374 28.2119 30.4374 25.2969C30.4374 22.3823 28.4787 19.8312 25.6628 19.0784V13.6934C25.6628 12.9181 26.1425 12.2236 26.8675 11.9493C27.5925 11.6753 28.4121 11.8784 28.9249 12.4598C29.4377 13.0416 29.5367 13.8797 29.174 14.5648C29.0704 14.6291 28.9691 14.6977 28.87 14.7709C28.6993 14.8943 28.6083 15.0997 28.6311 15.3088C28.654 15.5184 28.7873 15.6994 28.9809 15.7828C29.174 15.8662 29.3973 15.8392 29.5653 15.7123C30.8359 14.7766 32.5885 14.8596 33.7646 15.9116C34.9411 16.9631 35.2192 18.6955 34.4313 20.0625C34.2694 20.3421 34.365 20.7002 34.6447 20.8622C34.9243 21.0241 35.2825 20.9285 35.4444 20.6484C35.4551 20.6298 35.4646 20.6096 35.4753 20.5905C35.5301 20.6206 35.5835 20.6526 35.636 20.6873C36.2254 21.077 36.5931 21.7251 36.6255 22.4307C36.6575 23.1367 36.3508 23.8156 35.7991 24.2576C35.1773 23.9474 34.4919 23.7863 33.797 23.7867Z" fill="#F20F38"/>
<path d="M25.3459 27.5813C25.3436 27.5516 25.3379 27.5223 25.3288 27.4937L23.6345 21.9724C23.5556 21.7091 23.2307 21.5864 22.8973 21.5864C22.5723 21.5864 22.2477 21.7091 22.1685 21.9724L20.4746 27.4937C20.4662 27.5223 20.4605 27.5516 20.457 27.5813C20.457 27.8625 20.8696 28.0553 21.1767 28.0553C21.3699 28.0553 21.5189 27.9939 21.5631 27.8271L21.8964 26.6597H23.9065L24.2403 27.8271C24.2841 27.9939 24.4335 28.0553 24.6266 28.0553C24.9337 28.0553 25.3459 27.8533 25.3459 27.5813ZM22.1334 25.7644L22.8973 23.0696L23.6608 25.7644H22.1334Z" fill="#F20F38"/>
<path d="M26.5235 28.0553C26.8046 28.0553 27.0942 27.9326 27.0942 27.6956V21.9906C27.0942 21.7449 26.8046 21.6394 26.5235 21.6394C26.2339 21.6394 25.9531 21.7449 25.9531 21.9906V27.6964C25.9531 27.9326 26.2335 28.0553 26.5235 28.0553Z" fill="#F20F38"/>
</svg>
