<svg width="55" height="55" viewBox="0 0 55 55" fill="none" xmlns="http://www.w3.org/2000/svg">
<path d="M53.3887 0H1.61133C0.721321 0 0 0.721321 0 1.61133V8.05664C0 8.94665 0.721321 9.66797 1.61133 9.66797V42.4316C1.61133 43.3216 2.33265 44.043 3.22266 44.043H42.8613V45.609C40.9856 46.2745 39.6387 48.0654 39.6387 50.166C39.6387 52.8314 41.8073 55 44.4727 55C47.1381 55 49.3066 52.8314 49.3066 50.166C49.3066 48.0654 47.9597 46.2745 46.084 45.609V44.043H51.7773C52.6674 44.043 53.3887 43.3216 53.3887 42.4316V9.66797C54.2787 9.66797 55 8.94665 55 8.05664V1.61133C55 0.721321 54.2787 0 53.3887 0ZM44.4727 51.7773C43.5843 51.7773 42.8613 51.0543 42.8613 50.166C42.8613 49.2777 43.5843 48.5547 44.4727 48.5547C45.361 48.5547 46.084 49.2777 46.084 50.166C46.084 51.0543 45.361 51.7773 44.4727 51.7773ZM3.22266 3.22266H51.7773V6.44531H3.22266V3.22266ZM50.166 40.8203H4.83398V9.66797H50.166V40.8203Z" fill="#F20F38"/>
<path d="M12.8906 37.5977C15.556 37.5977 17.7246 35.4291 17.7246 32.7637C17.7246 31.8804 17.4854 31.0525 17.07 30.3391L19.7585 27.1803C20.2948 27.3859 20.8764 27.5 21.4844 27.5C22.773 27.5 23.9446 26.9923 24.8119 26.1673L28.724 28.1584C28.6972 28.3652 28.6816 28.5755 28.6816 28.7891C28.6816 31.4545 30.8502 33.623 33.5156 33.623C36.181 33.623 38.3496 31.4545 38.3496 28.7891C38.3496 27.8286 38.0668 26.9335 37.5821 26.1803L40.587 22.3114C41.0658 22.4709 41.5777 22.5586 42.1094 22.5586C44.7748 22.5586 46.9434 20.39 46.9434 17.7246C46.9434 15.0592 44.7748 12.8906 42.1094 12.8906C39.444 12.8906 37.2754 15.0592 37.2754 17.7246C37.2754 18.6851 37.5582 19.5802 38.0429 20.3334L35.038 24.2022C34.5592 24.0428 34.0473 23.9551 33.5156 23.9551C32.227 23.9551 31.0554 24.4628 30.1881 25.2878L26.276 23.2967C26.3028 23.0898 26.3184 22.88 26.3184 22.666C26.3184 20.0006 24.1498 17.832 21.4844 17.832C18.819 17.832 16.6504 20.0006 16.6504 22.666C16.6504 23.5493 16.8896 24.3772 17.305 25.0906L14.6165 28.2494C14.0802 28.0438 13.4986 27.9297 12.8906 27.9297C10.2252 27.9297 8.05664 30.0983 8.05664 32.7637C8.05664 35.4291 10.2252 37.5977 12.8906 37.5977ZM42.1094 16.1133C42.9977 16.1133 43.7207 16.8363 43.7207 17.7246C43.7207 18.6129 42.9977 19.3359 42.1094 19.3359C41.221 19.3359 40.498 18.6129 40.498 17.7246C40.498 16.8363 41.221 16.1133 42.1094 16.1133ZM33.5156 27.1777C34.404 27.1777 35.127 27.9007 35.127 28.7891C35.127 29.6774 34.404 30.4004 33.5156 30.4004C32.6273 30.4004 31.9043 29.6774 31.9043 28.7891C31.9043 27.9007 32.6273 27.1777 33.5156 27.1777ZM21.4844 21.0547C22.3727 21.0547 23.0957 21.7777 23.0957 22.666C23.0957 23.5543 22.3727 24.2773 21.4844 24.2773C20.596 24.2773 19.873 23.5543 19.873 22.666C19.873 21.7777 20.596 21.0547 21.4844 21.0547ZM12.8906 31.1523C13.779 31.1523 14.502 31.8753 14.502 32.7637C14.502 33.652 13.779 34.375 12.8906 34.375C12.0023 34.375 11.2793 33.652 11.2793 32.7637C11.2793 31.8753 12.0023 31.1523 12.8906 31.1523Z" fill="#F20F38"/>
</svg>
