<svg width="55" height="55" viewBox="0 0 55 55" fill="none" xmlns="http://www.w3.org/2000/svg">
<g clip-path="url(#clip0)">
<path d="M53.5829 5.97292L49.0259 1.41546C47.1414 -0.469038 44.0744 -0.469038 42.1899 1.41546C40.566 3.03938 29.2342 14.3711 27.4999 16.1054L17.5269 6.13237C17.3691 5.97418 17.1812 5.85249 16.9638 5.76688L2.18867 0.106256C1.59533 -0.121176 0.922685 0.021913 0.473275 0.471742C0.0234461 0.921571 -0.119643 1.5938 0.107789 2.18755L5.76842 16.9627C5.76968 16.9656 5.77094 16.9685 5.77219 16.9715C5.84689 17.1628 5.96648 17.3584 6.13348 17.5258L16.1065 27.4988C13.9828 29.6225 3.05182 40.5535 1.41699 42.1884C-0.472121 44.0775 -0.472541 47.1352 1.41699 49.0243L5.97403 53.5818C7.85853 55.4663 10.9255 55.4667 12.8104 53.5818L27.4999 38.8923L42.1899 53.5818C44.0744 55.4663 47.1414 55.4667 49.0259 53.5818L53.5833 49.0247C55.4724 47.1352 55.4729 44.0779 53.5833 42.1884L38.8934 27.4988L53.5833 12.8089C55.4724 10.9198 55.4724 7.86245 53.5829 5.97292ZM4.40928 4.40817L13.4927 7.88805L7.88916 13.4912L4.40928 4.40817ZM10.5315 51.3033C9.90332 51.9314 8.88113 51.9314 8.25297 51.3033L3.69551 46.7458C3.06567 46.116 3.06567 45.0971 3.69551 44.4673L4.64552 43.5173L8.0633 46.9355C8.69231 47.5645 9.71282 47.5645 10.3418 46.9355C10.9712 46.306 10.9712 45.286 10.3418 44.6565L6.92404 41.2388L9.20256 38.9598L10.3422 40.0995C10.9712 40.7285 11.9913 40.7285 12.6208 40.0995C13.2502 39.4701 13.2502 38.45 12.6208 37.8206L11.4815 36.6813L13.76 34.4028L17.1782 37.821C17.8072 38.45 18.8273 38.45 19.4567 37.821C20.0862 37.1916 20.0862 36.1715 19.4567 35.542L16.0385 32.1243L18.385 29.7773L25.2214 36.6137L10.5315 51.3033ZM9.55168 16.3861L11.8302 14.1076L42.1538 44.4308L39.8753 46.7097L9.55168 16.3861ZM51.3044 44.4673C51.9342 45.0971 51.9342 46.116 51.3044 46.7458L46.7473 51.3033C46.1192 51.9314 45.097 51.9314 44.4684 51.3033L42.1538 48.9882C42.7715 48.3706 48.2861 42.856 48.9898 42.1523L51.3044 44.4673ZM46.7113 39.8737L44.4323 42.1523L14.1091 11.8291L16.3877 9.55015L46.7113 39.8737ZM51.3044 10.5304L36.6149 25.2199L29.7789 18.3839L31.9894 16.173L35.4076 19.5912C36.0366 20.2206 37.0571 20.2206 37.6861 19.5912C38.3156 18.9617 38.3156 17.9416 37.6861 17.3126L34.2684 13.8944L36.5469 11.6159L37.6861 12.7552C38.3156 13.3842 39.3357 13.3842 39.9651 12.7552C40.5941 12.1258 40.5941 11.1057 39.9651 10.4762L38.8258 9.33698L41.1043 7.05846L44.5221 10.4762C45.1515 11.1057 46.1716 11.1057 46.8011 10.4762C47.4301 9.84724 47.4301 8.82715 46.8011 8.19772L43.3829 4.77995L44.4684 3.69398C45.097 3.06581 46.1192 3.06581 46.7473 3.69398L51.3048 8.25143C51.9342 8.88128 51.9342 9.90053 51.3044 10.5304Z" fill="#F20F38"/>
</g>
<defs>
<clipPath id="clip0">
<rect width="55.0002" height="55" fill="white"/>
</clipPath>
</defs>
</svg>
