<svg width="55" height="55" viewBox="0 0 55 55" fill="none" xmlns="http://www.w3.org/2000/svg">
<path d="M44.4782 38.6971C43.3536 35.558 41.0432 33.0936 38.1621 31.8477C38.1621 31.3379 38.1621 6.99334 38.1621 5.68708C38.1621 0.640336 24.2547 0 19.1883 0C14.126 0 0.214844 0.639077 0.214844 5.68708V43.5798C0.214844 47.7504 9.75401 48.7818 13.9137 49.0818C15.0647 52.6481 18.3125 55.105 21.9666 54.9959C22.0354 55.0001 46.2977 55.0043 46.5994 54.99C51.1858 55.1923 54.8902 51.3339 54.8902 46.6405C54.8902 40.9614 49.5946 36.9226 44.4782 38.6971ZM46.6959 51.6658C46.6959 51.6658 21.7836 51.6788 21.9854 51.6683C19.1505 51.8156 16.8002 49.3403 16.8002 46.2813C16.8002 42.3482 20.5575 39.7353 23.8271 41.3869C24.7591 41.8598 25.8862 41.3621 26.1741 40.3685C27.2218 36.7572 30.2876 34.2781 33.8501 34.2781C37.7362 34.2781 41.0625 37.2742 41.7612 41.4011C41.9685 42.6239 43.3935 43.1942 44.385 42.4628C47.4176 40.2296 51.566 42.6025 51.566 46.6405C51.566 49.5979 49.2555 51.8404 46.6959 51.6658ZM3.53905 43.3595V34.8056C8.63279 36.8882 18.1119 37.1978 24.094 36.7946C23.9123 37.1139 23.7462 37.4429 23.593 37.7811C18.5823 36.5793 13.8176 40.4226 13.4936 45.7144C11.2688 45.5302 5.095 44.7937 3.53905 43.3595ZM34.5328 5.68708C29.4257 8.82749 8.89169 8.78595 3.84286 5.68708C8.90176 2.58191 29.4349 2.55253 34.5328 5.68708ZM3.53905 21.8214C10.5974 24.6987 27.8681 24.6706 34.8375 21.8201V30.9846C34.3285 30.9846 30.7974 30.5179 27.2999 33.1489C17.8845 34.3524 5.72274 33.0558 3.53905 31.0467V30.9846C3.53905 29.9372 3.53905 22.7806 3.53905 21.8214ZM3.53905 9.22529C10.5227 12.0812 27.8085 12.098 34.8375 9.22403V18.0616C30.9556 21.6309 7.02733 21.2927 3.53905 18.0616C3.53905 16.2052 3.53905 10.9625 3.53905 9.22529Z" fill="#F20F38"/>
</svg>
