<svg width="46" height="40" viewBox="0 0 46 40" fill="none" xmlns="http://www.w3.org/2000/svg">
<path d="M0.00978022 28.9198C0.00978022 34.9675 4.91216 39.8699 10.9598 39.8699C17.0076 39.8699 21.91 34.9675 21.91 28.9198C21.91 22.872 17.0076 17.9697 10.9598 17.9697C9.71693 17.9697 8.52719 18.1864 7.41342 18.5682C9.87765 4.43521 20.8987 -4.67898 10.6822 2.82218C-0.646297 11.1401 -0.00235259 28.5851 0.0103235 28.9048C0.0103235 28.9098 0.00978022 28.9142 0.00978022 28.9198Z" fill="#BDBDBD"/>
<path d="M24.1001 28.9198C24.1001 34.9675 29.0025 39.8699 35.0503 39.8699C41.098 39.8699 46.0004 34.9675 46.0004 28.9198C46.0004 22.872 41.0979 17.9697 35.0502 17.9697C33.8072 17.9697 32.6175 18.1864 31.5038 18.5682C33.968 4.43521 44.989 -4.67898 34.7726 2.82218C23.4441 11.1401 24.0879 28.5851 24.1007 28.9048C24.1007 28.9098 24.1001 28.9142 24.1001 28.9198Z" fill="#BDBDBD"/>
</svg>
