<svg width="56" height="56" viewBox="0 0 56 56" fill="none" xmlns="http://www.w3.org/2000/svg">
<path d="M12.9707 52.1719H30.4707C31.8046 52.1704 33.0835 51.6398 34.0267 50.6966C34.9699 49.7534 35.5004 48.4745 35.502 47.1406V41.2344H36.7061C36.8692 41.2344 37.0265 41.1736 37.1473 41.064C37.2681 40.9543 37.3437 40.8035 37.3594 40.6411L37.5781 38.3735C38.5257 38.1218 39.4337 37.7398 40.2761 37.2381L42.0171 38.6799C42.143 38.7841 42.3032 38.8376 42.4664 38.83C42.6296 38.8223 42.7841 38.754 42.8996 38.6385L45.5009 36.0372C45.6164 35.9216 45.6847 35.7672 45.6923 35.6039C45.7 35.4407 45.6465 35.2805 45.5422 35.1547L44.0971 33.4097C44.597 32.5673 44.98 31.6608 45.2355 30.7151L47.4712 30.497C47.6334 30.4812 47.784 30.4055 47.8935 30.2848C48.003 30.164 48.0637 30.0069 48.0637 29.8438V26.156C48.0637 25.9929 48.0029 25.8356 47.8932 25.7148C47.7835 25.5941 47.6327 25.5185 47.4703 25.5029L45.2027 25.2841C44.9511 24.3365 44.569 23.4285 44.0674 22.586L45.5091 20.8451C45.6129 20.7198 45.6664 20.5605 45.6593 20.3979C45.6522 20.2354 45.585 20.0813 45.4707 19.9655L42.9024 17.3643C42.787 17.2474 42.6321 17.1779 42.468 17.1697C42.304 17.1615 42.1429 17.2151 42.0164 17.3199L40.2715 18.7649C39.4292 18.2651 38.5229 17.8821 37.5775 17.6267L37.3587 15.3587C37.343 15.1964 37.2675 15.0458 37.1468 14.9362C37.0262 14.8266 36.8691 14.7658 36.7061 14.7656H35.502V8.85938C35.5004 7.52547 34.9699 6.24662 34.0267 5.30341C33.0835 4.36019 31.8046 3.82963 30.4707 3.82812H12.9707C11.6368 3.82966 10.358 4.36023 9.41477 5.30344C8.47156 6.24665 7.94099 7.52548 7.93945 8.85938V47.1406C7.94099 48.4745 8.47156 49.7533 9.41477 50.6966C10.358 51.6398 11.6368 52.1703 12.9707 52.1719ZM36.3162 18.2177C36.3296 18.3563 36.3866 18.487 36.4791 18.5909C36.5717 18.6949 36.6948 18.7668 36.8309 18.7962C37.9494 19.0451 39.0137 19.4943 39.9723 20.1222C40.0895 20.1978 40.2278 20.2341 40.3671 20.2258C40.5063 20.2175 40.6393 20.1651 40.7467 20.0761L42.3908 18.7141L44.1196 20.465L42.7532 22.1156C42.6632 22.2243 42.6106 22.3592 42.6032 22.5001C42.5959 22.6411 42.6342 22.7806 42.7125 22.8981C43.3433 23.8515 43.7911 24.914 44.033 26.0312C44.0625 26.1672 44.1344 26.2902 44.2384 26.3826C44.3424 26.475 44.473 26.532 44.6115 26.5453L46.7512 26.7516V29.2481L44.6436 29.4547C44.5053 29.4682 44.3748 29.5252 44.271 29.6176C44.1672 29.71 44.0954 29.8329 44.0659 29.9688C43.8171 31.0873 43.3679 32.1516 42.7401 33.1102C42.6645 33.2274 42.6282 33.3657 42.6365 33.5049C42.6447 33.6441 42.6972 33.7771 42.7861 33.8845L44.1501 35.5317L42.3938 37.288L40.7467 35.924C40.638 35.834 40.5031 35.7814 40.3621 35.7741C40.2212 35.7668 40.0816 35.8051 39.9641 35.8834C39.0107 36.5142 37.9482 36.9619 36.8309 37.2039C36.6949 37.2334 36.5719 37.3053 36.4795 37.4093C36.3871 37.5133 36.3301 37.6439 36.3168 37.7824L36.1101 39.9219H33.6144L33.4081 37.7823C33.3948 37.6438 33.3378 37.5132 33.2454 37.4092C33.153 37.3052 33.0299 37.2333 32.894 37.2038C31.7755 36.9549 30.7112 36.5057 29.7525 35.8778C29.6353 35.8022 29.4971 35.7659 29.3578 35.7742C29.2186 35.7825 29.0856 35.8349 28.9782 35.9239L27.331 37.2879L25.5742 35.5316L26.9383 33.8844C27.0283 33.7757 27.0809 33.6408 27.0882 33.4999C27.0955 33.3589 27.0572 33.2194 26.9789 33.1019C26.3481 32.1485 25.9003 31.086 25.6584 29.9688C25.6289 29.8328 25.557 29.7098 25.453 29.6174C25.349 29.525 25.2184 29.468 25.0799 29.4547L22.9403 29.2484V26.7521L25.0799 26.5459C25.2184 26.5325 25.349 26.4756 25.453 26.3832C25.557 26.2908 25.6289 26.1677 25.6584 26.0318C25.9073 24.9131 26.3565 23.8486 26.9844 22.8899C27.06 22.7727 27.0963 22.6345 27.088 22.4952C27.0798 22.356 27.0274 22.2231 26.9384 22.1156L25.5743 20.4684L27.3307 18.7121L28.9778 20.0761C29.0866 20.1661 29.2214 20.2187 29.3624 20.226C29.5034 20.2333 29.643 20.195 29.7604 20.1167C30.7139 19.4859 31.7764 19.0381 32.8937 18.7962C33.0296 18.7667 33.1527 18.6948 33.2451 18.5908C33.3375 18.4868 33.3944 18.3562 33.4077 18.2177L33.6144 16.0781H36.1101L36.3162 18.2177ZM12.9707 5.14062H30.4707C31.4566 5.14173 32.4019 5.53387 33.099 6.23104C33.7962 6.9282 34.1884 7.87344 34.1895 8.85938V10.3906H32.6582C32.4842 10.3906 32.3172 10.4598 32.1942 10.5828C32.0711 10.7059 32.002 10.8728 32.002 11.0469C32.002 11.2209 32.0711 11.3878 32.1942 11.5109C32.3172 11.634 32.4842 11.7031 32.6582 11.7031H34.1895V14.7656H33.0183C32.8551 14.7656 32.6978 14.8264 32.5771 14.9361C32.4563 15.0458 32.3807 15.1965 32.3651 15.3589L32.1463 17.6265C31.1987 17.8782 30.2907 18.2602 29.4484 18.7619L27.7075 17.3201C27.5816 17.2158 27.4213 17.1623 27.2581 17.17C27.0949 17.1777 26.9403 17.246 26.8248 17.3615L24.2235 19.9628C24.108 20.0784 24.0397 20.2328 24.0321 20.3961C24.0244 20.5593 24.078 20.7195 24.1822 20.8453L25.6273 22.5903C25.1274 23.4325 24.7445 24.3388 24.4889 25.2842L22.221 25.503C22.0586 25.5186 21.9079 25.5942 21.7982 25.715C21.6885 25.8357 21.6277 25.993 21.6277 26.1562V29.844C21.6277 30.0071 21.6885 30.1644 21.7982 30.2852C21.9078 30.406 22.0586 30.4816 22.221 30.4972L24.4885 30.716C24.7403 31.6636 25.1225 32.5716 25.6241 33.4141L24.1823 35.155C24.0781 35.2808 24.0246 35.441 24.0322 35.6043C24.0399 35.7675 24.1081 35.922 24.2236 36.0375L26.8249 38.6388C26.9405 38.7544 27.095 38.8227 27.2582 38.8303C27.4215 38.838 27.5817 38.7845 27.7076 38.6803L29.4525 37.2352C30.2949 37.735 31.2013 38.1178 32.1469 38.3731L32.3656 40.6411C32.3813 40.8034 32.4568 40.9541 32.5774 41.0637C32.6981 41.1734 32.8552 41.2342 33.0183 41.2344H34.1895V42.9844H9.25195V11.7031H27.0801C27.2541 11.7031 27.421 11.634 27.5441 11.5109C27.6672 11.3878 27.7363 11.2209 27.7363 11.0469C27.7363 10.8728 27.6672 10.7059 27.5441 10.5828C27.421 10.4598 27.2541 10.3906 27.0801 10.3906H9.25195V8.85938C9.25308 7.87345 9.64524 6.92822 10.3424 6.23107C11.0396 5.53391 11.9848 5.14175 12.9707 5.14062ZM9.25195 44.2969H34.1895V47.1406C34.1884 48.1266 33.7962 49.0718 33.099 49.769C32.4019 50.4661 31.4566 50.8583 30.4707 50.8594H12.9707C11.9848 50.8582 11.0396 50.4661 10.3424 49.7689C9.64524 49.0718 9.25308 48.1266 9.25195 47.1406V44.2969Z" fill="#F20F38"/>
<path d="M29.2324 11.7031H30.4481C30.6222 11.7031 30.7891 11.634 30.9122 11.5109C31.0352 11.3878 31.1044 11.2209 31.1044 11.0469C31.1044 10.8728 31.0352 10.7059 30.9122 10.5828C30.7891 10.4598 30.6222 10.3906 30.4481 10.3906H29.2324C29.0584 10.3906 28.8915 10.4598 28.7684 10.5828C28.6453 10.7059 28.5762 10.8728 28.5762 11.0469C28.5762 11.2209 28.6453 11.3878 28.7684 11.5109C28.8915 11.634 29.0584 11.7031 29.2324 11.7031Z" fill="#F20F38"/>
<path d="M21.7207 49.875C22.175 49.875 22.6191 49.7403 22.9968 49.4879C23.3745 49.2355 23.6689 48.8768 23.8427 48.4571C24.0166 48.0374 24.0621 47.5756 23.9734 47.13C23.8848 46.6845 23.6661 46.2752 23.3448 45.954C23.0236 45.6328 22.6144 45.414 22.1688 45.3254C21.7233 45.2368 21.2614 45.2822 20.8417 45.4561C20.422 45.6299 20.0633 45.9243 19.8109 46.3021C19.5585 46.6798 19.4238 47.1239 19.4238 47.5781C19.4245 48.1871 19.6667 48.7709 20.0973 49.2015C20.5279 49.6321 21.1117 49.8743 21.7207 49.875ZM21.7207 46.5938C21.9154 46.5938 22.1057 46.6515 22.2676 46.7597C22.4295 46.8678 22.5556 47.0216 22.6301 47.2014C22.7047 47.3813 22.7241 47.5792 22.6862 47.7702C22.6482 47.9611 22.5544 48.1365 22.4168 48.2742C22.2791 48.4119 22.1037 48.5056 21.9127 48.5436C21.7218 48.5816 21.5239 48.5621 21.344 48.4876C21.1641 48.4131 21.0104 48.2869 20.9022 48.125C20.7941 47.9631 20.7363 47.7728 20.7363 47.5781C20.7366 47.3171 20.8404 47.0669 21.025 46.8824C21.2095 46.6978 21.4597 46.594 21.7207 46.5938Z" fill="#F20F38"/>
<path d="M27.0234 28C27.0234 29.5498 27.483 31.0649 28.3441 32.3536C29.2052 33.6423 30.429 34.6466 31.8609 35.2398C33.2928 35.8329 34.8684 35.9881 36.3885 35.6857C37.9086 35.3833 39.3049 34.637 40.4008 33.5411C41.4967 32.4451 42.2431 31.0489 42.5454 29.5288C42.8478 28.0087 42.6926 26.4331 42.0995 25.0012C41.5064 23.5693 40.502 22.3454 39.2133 21.4843C37.9247 20.6233 36.4096 20.1637 34.8597 20.1637C32.7821 20.166 30.7903 20.9924 29.3212 22.4615C27.8521 23.9306 27.0258 25.9224 27.0234 28ZM34.8597 21.4762C36.15 21.4762 37.4113 21.8588 38.4841 22.5757C39.557 23.2925 40.3931 24.3114 40.8869 25.5034C41.3807 26.6955 41.5099 28.0072 41.2581 29.2727C41.0064 30.5382 40.3851 31.7006 39.4727 32.613C38.5604 33.5254 37.3979 34.1467 36.1324 34.3984C34.867 34.6501 33.5552 34.5209 32.3632 34.0272C31.1711 33.5334 30.1522 32.6972 29.4354 31.6244C28.7186 30.5516 28.3359 29.2903 28.3359 28C28.3379 26.2704 29.0258 24.6121 30.2489 23.3891C31.4719 22.1661 33.1301 21.4781 34.8597 21.4762Z" fill="#F20F38"/>
<path d="M33.5336 30.3374C33.6562 30.4571 33.8208 30.5241 33.9921 30.5241C34.1634 30.5241 34.3279 30.4571 34.4505 30.3374L38.2769 26.6016C38.3392 26.5416 38.389 26.4698 38.4235 26.3904C38.4579 26.311 38.4763 26.2256 38.4776 26.1391C38.4789 26.0526 38.4631 25.9666 38.4311 25.8863C38.3991 25.8059 38.3515 25.7326 38.291 25.6707C38.2306 25.6088 38.1585 25.5594 38.0789 25.5255C37.9993 25.4915 37.9137 25.4737 37.8272 25.4729C37.7407 25.4722 37.6549 25.4885 37.5747 25.5211C37.4945 25.5536 37.4215 25.6017 37.36 25.6625L33.992 28.9507L32.3266 27.3247C32.2018 27.2044 32.0345 27.1383 31.8611 27.141C31.6878 27.1436 31.5226 27.2147 31.4015 27.3387C31.2804 27.4628 31.2133 27.6297 31.2149 27.803C31.2164 27.9764 31.2865 28.1421 31.4098 28.2639L33.5336 30.3374Z" fill="#F20F38"/>
<path d="M19.5766 25.9219H18.6699C18.4959 25.9219 18.329 25.991 18.2059 26.1141C18.0828 26.2372 18.0137 26.4041 18.0137 26.5781C18.0137 26.7522 18.0828 26.9191 18.2059 27.0422C18.329 27.1652 18.4959 27.2344 18.6699 27.2344H19.5766C19.7507 27.2344 19.9176 27.1652 20.0407 27.0422C20.1637 26.9191 20.2329 26.7522 20.2329 26.5781C20.2329 26.4041 20.1637 26.2372 20.0407 26.1141C19.9176 25.991 19.7507 25.9219 19.5766 25.9219Z" fill="#F20F38"/>
<path d="M11.8125 27.2344H15.7694C15.9434 27.2344 16.1103 27.1652 16.2334 27.0422C16.3565 26.9191 16.4256 26.7522 16.4256 26.5781C16.4256 26.4041 16.3565 26.2372 16.2334 26.1141C16.1103 25.991 15.9434 25.9219 15.7694 25.9219H11.8125C11.6385 25.9219 11.4715 25.991 11.3485 26.1141C11.2254 26.2372 11.1562 26.4041 11.1562 26.5781C11.1562 26.7522 11.2254 26.9191 11.3485 27.0422C11.4715 27.1652 11.6385 27.2344 11.8125 27.2344Z" fill="#F20F38"/>
<path d="M19.5766 31.3906H15.3887C15.2146 31.3906 15.0477 31.4598 14.9246 31.5828C14.8016 31.7059 14.7324 31.8728 14.7324 32.0469C14.7324 32.2209 14.8016 32.3878 14.9246 32.5109C15.0477 32.634 15.2146 32.7031 15.3887 32.7031H19.5766C19.7507 32.7031 19.9176 32.634 20.0407 32.5109C20.1637 32.3878 20.2329 32.2209 20.2329 32.0469C20.2329 31.8728 20.1637 31.7059 20.0407 31.5828C19.9176 31.4598 19.7507 31.3906 19.5766 31.3906Z" fill="#F20F38"/>
<path d="M11.8125 32.7031H12.4881C12.6622 32.7031 12.8291 32.634 12.9521 32.5109C13.0752 32.3878 13.1444 32.2209 13.1444 32.0469C13.1444 31.8728 13.0752 31.7059 12.9521 31.5828C12.8291 31.4598 12.6622 31.3906 12.4881 31.3906H11.8125C11.6385 31.3906 11.4715 31.4598 11.3485 31.5828C11.2254 31.7059 11.1562 31.8728 11.1562 32.0469C11.1562 32.2209 11.2254 32.3878 11.3485 32.5109C11.4715 32.634 11.6385 32.7031 11.8125 32.7031Z" fill="#F20F38"/>
<path d="M19.1406 37.5156C19.1406 37.6897 19.2098 37.8566 19.3328 37.9797C19.4559 38.1027 19.6228 38.1719 19.7969 38.1719H22.8594C23.0334 38.1719 23.2003 38.1027 23.3234 37.9797C23.4465 37.8566 23.5156 37.6897 23.5156 37.5156C23.5156 37.3416 23.4465 37.1747 23.3234 37.0516C23.2003 36.9285 23.0334 36.8594 22.8594 36.8594H19.7969C19.6228 36.8594 19.4559 36.9285 19.3328 37.0516C19.2098 37.1747 19.1406 37.3416 19.1406 37.5156Z" fill="#F20F38"/>
<path d="M16.8631 36.8594H11.8125C11.6385 36.8594 11.4715 36.9285 11.3485 37.0516C11.2254 37.1747 11.1562 37.3416 11.1562 37.5156C11.1562 37.6897 11.2254 37.8566 11.3485 37.9797C11.4715 38.1027 11.6385 38.1719 11.8125 38.1719H16.8631C17.0372 38.1719 17.2041 38.1027 17.3271 37.9797C17.4502 37.8566 17.5194 37.6897 17.5194 37.5156C17.5194 37.3416 17.4502 37.1747 17.3271 37.0516C17.2041 36.9285 17.0372 36.8594 16.8631 36.8594Z" fill="#F20F38"/>
<path d="M16.5156 21.3281H20.6719C20.8459 21.3281 21.0128 21.259 21.1359 21.1359C21.259 21.0128 21.3281 20.8459 21.3281 20.6719C21.3281 20.4978 21.259 20.3309 21.1359 20.2078C21.0128 20.0848 20.8459 20.0156 20.6719 20.0156H16.5156C16.3416 20.0156 16.1747 20.0848 16.0516 20.2078C15.9285 20.3309 15.8594 20.4978 15.8594 20.6719C15.8594 20.8459 15.9285 21.0128 16.0516 21.1359C16.1747 21.259 16.3416 21.3281 16.5156 21.3281Z" fill="#F20F38"/>
<path d="M11.8125 21.3281H13.5819C13.7559 21.3281 13.9228 21.259 14.0459 21.1359C14.169 21.0128 14.2381 20.8459 14.2381 20.6719C14.2381 20.4978 14.169 20.3309 14.0459 20.2078C13.9228 20.0848 13.7559 20.0156 13.5819 20.0156H11.8125C11.6385 20.0156 11.4715 20.0848 11.3485 20.2078C11.2254 20.3309 11.1562 20.4978 11.1562 20.6719C11.1562 20.8459 11.2254 21.0128 11.3485 21.1359C11.4715 21.259 11.6385 21.3281 11.8125 21.3281Z" fill="#F20F38"/>
</svg>
