<svg width="48" height="48" viewBox="0 0 48 48" fill="none" xmlns="http://www.w3.org/2000/svg">
<g clip-path="url(#clip0)">
<path d="M12.3569 42.7969H17.1701C17.4933 42.7969 17.7555 42.5347 17.7555 42.2115C17.7555 41.888 17.4933 41.6261 17.1701 41.6261H12.3569C12.0337 41.6261 11.7715 41.888 11.7715 42.2115C11.7715 42.5347 12.0337 42.7969 12.3569 42.7969Z" fill="#F20F38"/>
<path d="M6.09142 48H23.4352C26.152 47.9969 28.3536 45.7953 28.3563 43.0785V33.4062C28.3681 33.2893 28.3742 33.1703 28.3742 33.0503V28.0316C29.1573 28.0492 29.8509 28.5415 30.1253 29.2755L31.4131 32.7523C31.7881 33.753 32.6532 34.4893 33.7012 34.6993C34.0773 35.92 35.3045 36.6688 36.5621 36.4451C37.8197 36.2214 38.7134 35.0953 38.6455 33.8197C38.5777 32.5442 37.5701 31.5191 36.2957 31.4299C35.0213 31.3407 33.8807 32.2153 33.6356 33.4691C33.1158 33.2752 32.7054 32.8655 32.511 32.3457L31.2233 28.8689C30.7778 27.6768 29.6471 26.88 28.3746 26.8609V25.3742H31.2126C31.9824 25.375 32.6063 25.9989 32.607 26.7687C32.6086 28.1848 33.7561 29.3323 35.1722 29.3338H36.7294C37.0262 30.5812 38.2099 31.4085 39.4832 31.2591C40.7564 31.1098 41.7164 30.0309 41.7164 28.7485C41.7164 27.4665 40.7564 26.3872 39.4832 26.2378C38.2099 26.0884 37.0262 26.9158 36.7294 28.1631H35.1722C34.4024 28.1623 33.7785 27.5385 33.7778 26.7687C33.7762 25.3525 32.6288 24.205 31.2126 24.2035H28.3746V22.878H41.8628C42.1299 23.9977 43.1192 24.7957 44.2698 24.8197C45.4207 24.8434 46.4424 24.0873 46.7553 22.9794C47.0686 21.872 46.5941 20.6928 45.6013 20.1105C44.6086 19.5282 43.3475 19.6902 42.5339 20.5042C42.2027 20.835 41.9702 21.2515 41.8628 21.7073H28.3746V20.3815H31.2126C32.6288 20.38 33.7762 19.2321 33.7778 17.8163C33.7785 17.0465 34.4024 16.4226 35.1722 16.4215H36.7294C37.0262 17.6688 38.2099 18.4966 39.4832 18.3468C40.7564 18.1974 41.7164 17.1185 41.7164 15.8361C41.7164 14.5541 40.7564 13.4752 39.4832 13.3255C38.2099 13.1761 37.0262 14.0038 36.7294 15.2508H35.1722C33.7561 15.2527 32.6086 16.4002 32.607 17.8163C32.6063 18.5861 31.9824 19.21 31.2126 19.2107H28.3746V17.7241C29.6471 17.705 30.7774 16.9082 31.2233 15.7161L32.511 12.2393C32.7054 11.7195 33.1158 11.3098 33.636 11.1166C33.8814 12.3662 35.0194 13.2374 36.29 13.1479C37.5602 13.0587 38.5647 12.0366 38.6326 10.7645C38.7 9.49276 37.8094 8.37005 36.5556 8.14634C35.3018 7.92264 34.0777 8.66806 33.7016 9.88491C32.6535 10.0949 31.7881 10.8316 31.4131 11.8327L30.1253 15.3095C29.8509 16.0434 29.1573 16.5358 28.3742 16.5534V12.2774C28.3742 12.1673 28.3681 12.0572 28.3563 11.9474V4.92149C28.3536 2.20465 26.152 0.00304878 23.4352 0H6.09142C3.37457 0.00304878 1.17297 2.20465 1.16992 4.92149V43.0785C1.17297 45.7953 3.37457 47.9969 6.09142 48ZM35.1585 32.9924C35.617 32.5339 36.3349 32.463 36.8738 32.8232C37.4127 33.1833 37.6223 33.8739 37.3742 34.4726C37.1265 35.0713 36.49 35.4116 35.8544 35.2851C35.2187 35.1589 34.7606 34.601 34.7606 33.9527C34.7599 33.5922 34.9028 33.2466 35.1585 32.9924ZM38.2298 27.7881C38.6878 27.33 39.4062 27.2591 39.9451 27.6193C40.4836 27.9794 40.6932 28.67 40.4451 29.2687C40.197 29.8674 39.5605 30.2077 38.9249 30.0812C38.2892 29.9546 37.8315 29.3967 37.8315 28.7485C37.8307 28.388 37.974 28.0423 38.2298 27.7881ZM43.3612 21.3319C43.8917 20.8014 44.7522 20.8014 45.2827 21.3319C45.8132 21.8624 45.8132 22.7226 45.2827 23.253C44.7522 23.7835 43.8917 23.7835 43.3612 23.253C42.8315 22.7222 42.8315 21.8628 43.3612 21.3319ZM38.2298 14.8758C38.7602 14.3453 39.6204 14.3453 40.1509 14.8758C40.6814 15.4062 40.6814 16.2664 40.1509 16.7969C39.6204 17.3274 38.7602 17.3274 38.2298 16.7969C37.6993 16.2664 37.6993 15.4062 38.2298 14.8758ZM35.1585 9.67149C35.6166 9.21303 36.3349 9.14253 36.8738 9.50229C37.4127 9.86242 37.6223 10.553 37.3742 11.1521C37.1261 11.7508 36.4897 12.0911 35.854 11.9646C35.2183 11.838 34.7606 11.2801 34.7606 10.6322C34.7595 10.2717 34.9028 9.92569 35.1585 9.67149ZM23.7557 32.0614C23.4325 32.0614 23.1703 32.3236 23.1703 32.6467C23.1703 33.9943 22.0781 35.0865 20.7305 35.0865C19.383 35.0865 18.2907 33.9943 18.2907 32.6467V31.891C18.4645 31.9108 18.6394 31.9211 18.8144 31.9215C19.1379 31.9215 19.3997 31.6593 19.3997 31.3361C19.3997 31.0126 19.1379 30.7508 18.8144 30.7508C16.91 30.7508 15.3662 29.2069 15.3662 27.3026C15.3662 25.3979 16.91 23.8544 18.8144 23.8544C19.1379 23.8544 19.3997 23.5922 19.3997 23.2691C19.3997 22.9455 19.1379 22.6837 18.8144 22.6837C18.0975 22.6829 17.3902 22.8506 16.7496 23.1726C16.1764 22.7142 15.8563 22.0095 15.8883 21.2763C15.9203 20.5427 16.301 19.8689 16.9123 19.4623C16.9714 19.4234 17.0323 19.388 17.0941 19.3544C17.1074 19.3788 17.1196 19.4043 17.1337 19.4284C17.2957 19.7085 17.6539 19.8041 17.9336 19.6421C18.2137 19.4802 18.3094 19.122 18.1474 18.8418C17.3315 17.428 17.6189 15.6353 18.8361 14.5473C20.0529 13.4592 21.8662 13.3735 23.1806 14.3422C23.4405 14.5343 23.8071 14.479 23.9992 14.2191C24.1913 13.9588 24.136 13.5926 23.8761 13.4005C23.7732 13.3243 23.668 13.2534 23.5605 13.1867C23.1951 12.5027 23.2736 11.6665 23.7599 11.0625C24.2461 10.4585 25.0461 10.2031 25.7926 10.4135C26.5388 10.6242 27.0872 11.2603 27.1859 12.0293V33.3392C27.0861 34.1833 26.5537 34.9143 25.7808 35.2683C25.008 35.6227 24.1067 35.5484 23.402 35.0732C24.0068 34.4101 24.3418 33.5446 24.341 32.6471C24.341 32.3236 24.0788 32.0614 23.7557 32.0614ZM25.2679 9.17111C24.3837 9.16806 23.5403 9.54306 22.9504 10.2016C22.3609 10.8605 22.0811 11.7401 22.1817 12.6185C20.6097 12.2511 18.9599 12.7313 17.8311 13.8853C16.7023 15.0393 16.258 16.6989 16.6596 18.2622C16.5232 18.3289 16.391 18.404 16.2644 18.4878C15.3936 19.0663 14.8304 20.0061 14.7309 21.0465C14.6311 22.0869 15.0061 23.117 15.7511 23.8498C14.5495 24.9143 13.987 26.5267 14.2663 28.1075C14.5453 29.6883 15.6261 31.0103 17.1196 31.5983V32.6467C17.1196 33.9196 17.7896 35.0983 18.883 35.7492C19.9763 36.4002 21.3319 36.4272 22.4508 35.8205C23.8311 36.976 25.8528 36.9352 27.1859 35.7252V37.8319H2.34065V7.28468H27.1859V9.83651C26.6402 9.40511 25.9641 9.17073 25.2682 9.17111H25.2679ZM6.09142 1.17073H23.4352C25.5057 1.17302 27.1833 2.85099 27.1855 4.92149V6.11395H2.34065V4.92149C2.34294 2.85099 4.02091 1.17302 6.09142 1.17073ZM2.34065 39.0027H27.1859V43.0785C27.1836 45.1494 25.5057 46.827 23.4352 46.8293H6.09142C4.02091 46.827 2.34294 45.149 2.34065 43.0785V39.0027Z" fill="#F20F38"/>
<path d="M25.0433 24.3708C25.1752 24.4143 25.2998 24.4779 25.413 24.5591C25.6752 24.7481 26.041 24.689 26.2304 24.4265C26.4195 24.1639 26.3596 23.798 26.097 23.609C25.7079 23.3293 25.2476 23.165 24.7689 23.1357C24.8314 22.4829 24.6363 21.8316 24.2259 21.3205C24.0235 21.0682 23.655 21.0278 23.4027 21.2298C23.1508 21.4322 23.11 21.8007 23.3124 22.053C23.6115 22.4268 23.6923 22.9306 23.525 23.3796C22.5338 23.8506 21.9591 24.9066 22.1016 25.995C22.1397 26.2858 22.3874 26.5034 22.6813 26.5038C22.7068 26.5038 22.7327 26.5023 22.7583 26.4989C23.0788 26.4566 23.3044 26.1623 23.2621 25.8418C23.2354 25.6387 23.2552 25.4318 23.32 25.237C23.5578 24.5229 24.3284 24.1353 25.0433 24.3708Z" fill="#F20F38"/>
<path d="M19.7357 20.952C19.6179 20.8369 19.5326 20.6921 19.4887 20.5331C19.7689 20.0553 19.8489 19.4867 19.7121 18.9501C19.6317 18.6368 19.3127 18.4482 18.9994 18.5286C18.6865 18.609 18.4979 18.9283 18.5783 19.2412C18.6873 19.6696 18.4815 20.1158 18.0852 20.311C17.8043 20.4554 17.6888 20.7965 17.8241 21.0819C17.959 21.3674 18.2963 21.4943 18.5859 21.3685C18.6782 21.5225 18.7894 21.6639 18.9175 21.7892C19.1488 22.0152 19.5196 22.011 19.7456 21.7797C19.9716 21.5488 19.9674 21.178 19.7361 20.952H19.7357Z" fill="#F20F38"/>
<path d="M21.987 16.3872C22.1227 16.3525 22.2645 16.3491 22.4017 16.3773C22.6928 16.4363 22.9383 16.6303 23.0633 16.8994C23.1879 17.1688 23.1772 17.4813 23.0343 17.7416C22.8781 18.0248 22.9809 18.3807 23.2641 18.537C23.5469 18.6932 23.9032 18.5907 24.0595 18.3075C24.2298 17.9981 24.3194 17.6505 24.3205 17.2972C24.4989 17.2809 24.6745 17.242 24.8434 17.1814C25.1414 17.0747 25.4112 16.9009 25.6322 16.6741C25.7805 16.5248 25.8369 16.3079 25.7809 16.1052C25.7245 15.9028 25.564 15.7462 25.3601 15.6943C25.1566 15.6429 24.9409 15.7046 24.795 15.8559C24.697 15.9562 24.5777 16.0328 24.4459 16.0796C24.2912 16.1357 24.1242 16.1494 23.9627 16.1197C23.4668 15.3799 22.5583 15.0328 21.6955 15.2538C21.3826 15.3342 21.194 15.6532 21.2744 15.9665C21.3548 16.2793 21.6738 16.468 21.987 16.3876V16.3872Z" fill="#F20F38"/>
<path d="M23.2058 29.0358C22.6795 29.4032 21.9959 29.4585 21.4173 29.1799C21.2691 28.7877 21.0393 28.4318 20.7432 28.1357C20.5145 27.9074 20.1437 27.9078 19.9154 28.1364C19.6868 28.3651 19.6872 28.7359 19.9158 28.9642C20.1254 29.1734 20.2794 29.4318 20.3636 29.7153C20.3678 29.7332 20.3728 29.7511 20.3789 29.7687C20.5252 30.3232 20.396 30.9139 20.0317 31.3567C19.8259 31.6063 19.8613 31.9752 20.1109 32.181C20.3606 32.3864 20.7295 32.351 20.9349 32.1014C21.3171 31.6368 21.5488 31.0667 21.5984 30.4668C22.3907 30.6284 23.2142 30.4577 23.8769 29.9947C24.1407 29.8087 24.2043 29.4444 24.0191 29.1803C23.8343 28.9162 23.4703 28.8514 23.2055 29.0354L23.2058 29.0358Z" fill="#F20F38"/>
</g>
<defs>
<clipPath id="clip0">
<rect width="48" height="48" fill="white"/>
</clipPath>
</defs>
</svg>
