<svg width="56" height="56" viewBox="0 0 56 56" fill="none" xmlns="http://www.w3.org/2000/svg">
<path d="M48.7266 19.5763H34.1797V8.85938C34.1782 7.52548 33.6476 6.24665 32.7044 5.30344C31.7612 4.36023 30.4823 3.82966 29.1484 3.82812H11.6484C10.3145 3.82966 9.03571 4.36023 8.0925 5.30344C7.14929 6.24665 6.61872 7.52548 6.61719 8.85938V47.1406C6.61872 48.4745 7.14929 49.7533 8.0925 50.6966C9.03571 51.6398 10.3145 52.1703 11.6484 52.1719H29.1484C30.4823 52.1703 31.7612 51.6398 32.7044 50.6966C33.6476 49.7533 34.1782 48.4745 34.1797 47.1406V40.585C34.5549 40.446 34.8897 40.2159 35.1539 39.9155C35.4182 39.615 35.6037 39.2537 35.6938 38.8638H39.5908C39.7203 39.4299 40.0502 39.93 40.5195 40.272C40.9889 40.6139 41.566 40.7746 42.1446 40.7244C42.7231 40.6742 43.264 40.4164 43.6674 39.9987C44.0707 39.581 44.3095 39.0315 44.3395 38.4515C44.3695 37.8716 44.1888 37.3004 43.8306 36.8432C43.4725 36.3861 42.9612 36.0739 42.3909 35.9642C41.8206 35.8545 41.23 35.9548 40.7278 36.2465C40.2257 36.5382 39.846 37.0016 39.6587 37.5513H35.6258C35.464 37.0759 35.1574 36.6631 34.7491 36.3708C34.3407 36.0784 33.8511 35.9212 33.3489 35.9212C32.8467 35.9212 32.3571 36.0784 31.9488 36.3708C31.5405 36.6631 31.2339 37.0759 31.072 37.5513H30.7164C30.2722 37.5531 29.842 37.3958 29.5036 37.108C29.1652 36.8201 28.941 36.4207 28.8716 35.9819L28.1716 30.7332H43.518C44.1793 30.733 44.8241 30.5268 45.3629 30.1433C45.9016 29.7598 46.3075 29.2179 46.5242 28.5931L49.3466 20.4474C49.3809 20.3486 49.391 20.2429 49.3762 20.1393C49.3613 20.0358 49.3219 19.9372 49.2612 19.852C49.2005 19.7667 49.1203 19.6972 49.0273 19.6493C48.9343 19.6013 48.8312 19.5763 48.7266 19.5763ZM29.1484 50.8594H11.6484C10.6625 50.8583 9.71726 50.4661 9.0201 49.769C8.32294 49.0718 7.93079 48.1266 7.92969 47.1406V44.2969H32.8672V47.1406C32.8661 48.1266 32.4739 49.0718 31.7768 49.769C31.0796 50.4661 30.1344 50.8583 29.1484 50.8594ZM41.9355 37.2337C42.1518 37.2337 42.3633 37.2978 42.5431 37.418C42.723 37.5382 42.8632 37.709 42.946 37.9088C43.0287 38.1087 43.0504 38.3286 43.0082 38.5408C42.966 38.753 42.8618 38.9478 42.7089 39.1008C42.5559 39.2538 42.361 39.3579 42.1488 39.4001C41.9367 39.4423 41.7168 39.4207 41.5169 39.3379C41.3171 39.2551 41.1462 39.1149 41.0261 38.9351C40.9059 38.7552 40.8417 38.5437 40.8417 38.3274C40.8419 38.0374 40.9573 37.7593 41.1623 37.5543C41.3674 37.3492 41.6455 37.2339 41.9355 37.2337ZM33.3489 37.2337C33.5652 37.2337 33.7767 37.2978 33.9565 37.418C34.1364 37.5382 34.2766 37.709 34.3594 37.9088C34.4422 38.1087 34.4638 38.3286 34.4216 38.5408C34.3794 38.753 34.2752 38.9478 34.1223 39.1008C33.9693 39.2538 33.7744 39.3579 33.5623 39.4001C33.3501 39.4423 33.1302 39.4207 32.9303 39.3379C32.7305 39.2551 32.5596 39.1149 32.4395 38.9351C32.3193 38.7552 32.2551 38.5437 32.2551 38.3274C32.2554 38.0375 32.3706 37.7595 32.5756 37.5544C32.7806 37.3494 33.0585 37.234 33.3484 37.2337H33.3489ZM30.7164 38.8633H31.0041C31.1078 39.3134 31.3385 39.7242 31.6687 40.047C31.999 40.3698 32.4149 40.591 32.8672 40.6844V42.9844H7.92969V11.7031H25.7578C25.9319 11.7031 26.0988 11.634 26.2219 11.5109C26.3449 11.3878 26.4141 11.2209 26.4141 11.0469C26.4141 10.8728 26.3449 10.7059 26.2219 10.5828C26.0988 10.4598 25.9319 10.3906 25.7578 10.3906H7.92969V8.85938C7.93079 7.87344 8.32294 6.9282 9.0201 6.23104C9.71726 5.53387 10.6625 5.14173 11.6484 5.14062H29.1484C30.1344 5.14173 31.0796 5.53387 31.7768 6.23104C32.4739 6.9282 32.8661 7.87344 32.8672 8.85938V10.3906H31.3359C31.1619 10.3906 30.995 10.4598 30.8719 10.5828C30.7488 10.7059 30.6797 10.8728 30.6797 11.0469C30.6797 11.2209 30.7488 11.3878 30.8719 11.5109C30.995 11.634 31.1619 11.7031 31.3359 11.7031H32.8672V19.5763H26.6839L26.4693 17.967C26.4685 17.9617 26.4678 17.9561 26.4669 17.9512C26.3513 17.2016 25.9705 16.5184 25.3938 16.0259C24.8172 15.5333 24.0828 15.264 23.3244 15.267H20.2891C20.115 15.267 19.9481 15.3361 19.825 15.4592C19.702 15.5823 19.6328 15.7492 19.6328 15.9233C19.6328 16.0973 19.702 16.2642 19.825 16.3873C19.9481 16.5104 20.115 16.5795 20.2891 16.5795H23.3244C23.7687 16.5777 24.199 16.735 24.5374 17.0229C24.8758 17.3108 25.1 17.7103 25.1695 18.1491L27.5717 36.1637L27.574 36.1796C27.6896 36.9292 28.0703 37.6124 28.647 38.105C29.2237 38.5976 29.958 38.8668 30.7164 38.8638V38.8633ZM45.2841 28.163C45.1568 28.53 44.9183 28.8483 44.6018 29.0736C44.2853 29.2989 43.9065 29.42 43.518 29.4202H27.9967L26.8592 20.8883H47.8045L45.2841 28.163Z" fill="#F20F38"/>
<path d="M27.9102 11.7031H29.1261C29.3001 11.7031 29.467 11.634 29.5901 11.5109C29.7132 11.3878 29.7823 11.2209 29.7823 11.0469C29.7823 10.8728 29.7132 10.7059 29.5901 10.5828C29.467 10.4598 29.3001 10.3906 29.1261 10.3906H27.9102C27.7361 10.3906 27.5692 10.4598 27.4461 10.5828C27.323 10.7059 27.2539 10.8728 27.2539 11.0469C27.2539 11.2209 27.323 11.3878 27.4461 11.5109C27.5692 11.634 27.7361 11.7031 27.9102 11.7031Z" fill="#F20F38"/>
<path d="M20.3984 45.2813C19.9442 45.2812 19.5001 45.416 19.1224 45.6683C18.7446 45.9207 18.4502 46.2795 18.2764 46.6991C18.1026 47.1188 18.0571 47.5807 18.1457 48.0262C18.2343 48.4718 18.4531 48.881 18.7743 49.2023C19.0955 49.5235 19.5048 49.7422 19.9503 49.8309C20.3959 49.9195 20.8577 49.874 21.2774 49.7002C21.6971 49.5263 22.0558 49.2319 22.3082 48.8542C22.5606 48.4765 22.6953 48.0324 22.6953 47.5781C22.6946 46.9692 22.4524 46.3854 22.0218 45.9548C21.5912 45.5242 21.0074 45.2819 20.3984 45.2813ZM20.3984 48.5625C20.2037 48.5625 20.0134 48.5048 19.8515 48.3966C19.6897 48.2884 19.5635 48.1347 19.489 47.9548C19.4145 47.775 19.395 47.577 19.433 47.3861C19.471 47.1951 19.5647 47.0197 19.7024 46.8821C19.84 46.7444 20.0154 46.6506 20.2064 46.6127C20.3973 46.5747 20.5953 46.5942 20.7751 46.6687C20.955 46.7432 21.1088 46.8694 21.2169 47.0312C21.3251 47.1931 21.3828 47.3834 21.3828 47.5781C21.3825 47.8391 21.2787 48.0893 21.0942 48.2739C20.9096 48.4584 20.6594 48.5622 20.3984 48.5625Z" fill="#F20F38"/>
<path d="M24.5552 26.5781C24.5552 26.4041 24.486 26.2372 24.3629 26.1141C24.2399 25.991 24.073 25.9219 23.8989 25.9219H16.8672C16.6931 25.9219 16.5262 25.991 16.4031 26.1141C16.2801 26.2372 16.2109 26.4041 16.2109 26.5781C16.2109 26.7522 16.2801 26.9191 16.4031 27.0422C16.5262 27.1652 16.6931 27.2344 16.8672 27.2344H23.8989C24.073 27.2344 24.2399 27.1652 24.3629 27.0422C24.486 26.9191 24.5552 26.7522 24.5552 26.5781Z" fill="#F20F38"/>
<path d="M12.8516 27.2344H13.9647C14.1387 27.2344 14.3056 27.1652 14.4287 27.0422C14.5518 26.9191 14.6209 26.7522 14.6209 26.5781C14.6209 26.4041 14.5518 26.2372 14.4287 26.1141C14.3056 25.991 14.1387 25.9219 13.9647 25.9219H12.8516C12.6775 25.9219 12.5106 25.991 12.3875 26.1141C12.2645 26.2372 12.1953 26.4041 12.1953 26.5781C12.1953 26.7522 12.2645 26.9191 12.3875 27.0422C12.5106 27.1652 12.6775 27.2344 12.8516 27.2344Z" fill="#F20F38"/>
<path d="M24.9927 30.2969H18.6172C18.4431 30.2969 18.2762 30.366 18.1531 30.4891C18.0301 30.6122 17.9609 30.7791 17.9609 30.9531C17.9609 31.1272 18.0301 31.2941 18.1531 31.4172C18.2762 31.5402 18.4431 31.6094 18.6172 31.6094H24.9927C25.1667 31.6094 25.3336 31.5402 25.4567 31.4172C25.5798 31.2941 25.6489 31.1272 25.6489 30.9531C25.6489 30.7791 25.5798 30.6122 25.4567 30.4891C25.3336 30.366 25.1667 30.2969 24.9927 30.2969Z" fill="#F20F38"/>
<path d="M15.7147 30.2969H12.8516C12.6775 30.2969 12.5106 30.366 12.3875 30.4891C12.2645 30.6122 12.1953 30.7791 12.1953 30.9531C12.1953 31.1272 12.2645 31.2941 12.3875 31.4172C12.5106 31.5402 12.6775 31.6094 12.8516 31.6094H15.7147C15.8887 31.6094 16.0556 31.5402 16.1787 31.4172C16.3018 31.2941 16.3709 31.1272 16.3709 30.9531C16.3709 30.7791 16.3018 30.6122 16.1787 30.4891C16.0556 30.366 15.8887 30.2969 15.7147 30.2969Z" fill="#F20F38"/>
<path d="M21.9297 22.4219H22.8047C22.9787 22.4219 23.1457 22.3527 23.2687 22.2297C23.3918 22.1066 23.4609 21.9397 23.4609 21.7656C23.4609 21.5916 23.3918 21.4247 23.2687 21.3016C23.1457 21.1785 22.9787 21.1094 22.8047 21.1094H21.9297C21.7556 21.1094 21.5887 21.1785 21.4656 21.3016C21.3426 21.4247 21.2734 21.5916 21.2734 21.7656C21.2734 21.9397 21.3426 22.1066 21.4656 22.2297C21.5887 22.3527 21.7556 22.4219 21.9297 22.4219Z" fill="#F20F38"/>
<path d="M12.8516 22.4219H18.9959C19.17 22.4219 19.3369 22.3527 19.46 22.2297C19.583 22.1066 19.6522 21.9397 19.6522 21.7656C19.6522 21.5916 19.583 21.4247 19.46 21.3016C19.3369 21.1785 19.17 21.1094 18.9959 21.1094H12.8516C12.6775 21.1094 12.5106 21.1785 12.3875 21.3016C12.2645 21.4247 12.1953 21.5916 12.1953 21.7656C12.1953 21.9397 12.2645 22.1066 12.3875 22.2297C12.5106 22.3527 12.6775 22.4219 12.8516 22.4219Z" fill="#F20F38"/>
</svg>
