<svg width="56" height="56" viewBox="0 0 56 56" fill="none" xmlns="http://www.w3.org/2000/svg">
<path d="M31.0703 28.2007C31.0703 29.4208 31.4321 30.6135 32.1099 31.6279C32.7878 32.6424 33.7512 33.433 34.8784 33.8999C36.0056 34.3668 37.2459 34.489 38.4425 34.2509C39.6391 34.0129 40.7383 33.4254 41.601 32.5627C42.4637 31.7 43.0513 30.6008 43.2893 29.4042C43.5273 28.2076 43.4051 26.9672 42.9382 25.8401C42.4713 24.7129 41.6807 23.7494 40.6662 23.0716C39.6518 22.3938 38.4591 22.032 37.2391 22.032C35.6036 22.0339 34.0357 22.6845 32.8792 23.8409C31.7228 24.9974 31.0723 26.5653 31.0703 28.2007ZM37.2391 23.3445C38.1995 23.3445 39.1384 23.6293 39.937 24.1629C40.7357 24.6965 41.3581 25.455 41.7257 26.3423C42.0932 27.2297 42.1894 28.2061 42.002 29.1481C41.8146 30.0902 41.3521 30.9555 40.6729 31.6346C39.9938 32.3138 39.1285 32.7763 38.1865 32.9637C37.2444 33.151 36.268 33.0549 35.3807 32.6873C34.4933 32.3198 33.7349 31.6973 33.2012 30.8987C32.6676 30.1001 32.3828 29.1612 32.3828 28.2007C32.3843 26.9132 32.8964 25.6788 33.8068 24.7683C34.7172 23.8578 35.9515 23.3456 37.2391 23.344V23.3445Z" fill="#F20F38"/>
<path d="M33.9719 28.504L36.05 30.5821C36.1712 30.7034 36.335 30.7724 36.5064 30.7745C36.6778 30.7765 36.8432 30.7114 36.9673 30.5931L40.6304 27.094C40.6931 27.0345 40.7435 26.9633 40.7786 26.8843C40.8137 26.8054 40.8329 26.7203 40.835 26.6339C40.8372 26.5476 40.8222 26.4616 40.7911 26.3811C40.7599 26.3005 40.7132 26.2268 40.6535 26.1644C40.5938 26.1019 40.5224 26.0518 40.4433 26.017C40.3642 25.9822 40.2791 25.9634 40.1927 25.9616C40.1063 25.9598 40.0204 25.975 39.94 26.0065C39.8595 26.0379 39.7861 26.085 39.7238 26.1449L36.5244 29.201L34.9 27.5765C34.8393 27.5142 34.7669 27.4646 34.6869 27.4305C34.607 27.3964 34.521 27.3786 34.4341 27.378C34.3472 27.3774 34.261 27.3941 34.1806 27.4271C34.1002 27.4601 34.0271 27.5088 33.9656 27.5702C33.9042 27.6317 33.8555 27.7048 33.8225 27.7852C33.7895 27.8656 33.7729 27.9518 33.7735 28.0387C33.774 28.1257 33.7919 28.2116 33.826 28.2916C33.8601 28.3715 33.9097 28.4439 33.972 28.5046L33.9719 28.504Z" fill="#F20F38"/>
<path d="M31.8828 3.82812H14.3828C13.0489 3.82966 11.7701 4.36023 10.8269 5.30344C9.88367 6.24665 9.3531 7.52548 9.35156 8.85938V47.1406C9.3531 48.4745 9.88367 49.7533 10.8269 50.6966C11.7701 51.6398 13.0489 52.1703 14.3828 52.1719H31.8828C33.2167 52.1703 34.4955 51.6398 35.4387 50.6966C36.382 49.7533 36.9125 48.4745 36.9141 47.1406V39.7435H43.787C44.5456 39.7426 45.2729 39.4409 45.8094 38.9045C46.3458 38.3681 46.6476 37.6408 46.6484 36.8821V19.3266C46.6476 18.5679 46.3458 17.8406 45.8094 17.3042C45.2729 16.7678 44.5456 16.466 43.787 16.4652H41.4661V15.3824C41.4661 15.2083 41.397 15.0414 41.2739 14.9184C41.1509 14.7953 40.9839 14.7261 40.8099 14.7261H36.9141V8.85938C36.9125 7.52548 36.382 6.24665 35.4387 5.30344C34.4955 4.36023 33.2167 3.82966 31.8828 3.82812ZM31.8828 50.8594H14.3828C13.3969 50.8583 12.4516 50.4661 11.7545 49.769C11.0573 49.0718 10.6652 48.1266 10.6641 47.1406V44.2969H35.6016V47.1406C35.6005 48.1266 35.2083 49.0718 34.5112 49.769C33.814 50.4661 32.8687 50.8583 31.8828 50.8594ZM35.6016 42.9844H10.6641V11.7031H28.4922C28.6662 11.7031 28.8332 11.634 28.9562 11.5109C29.0793 11.3878 29.1484 11.2209 29.1484 11.0469C29.1484 10.8728 29.0793 10.7059 28.9562 10.5828C28.8332 10.4598 28.6662 10.3906 28.4922 10.3906H10.6641V8.85938C10.6652 7.87344 11.0573 6.9282 11.7545 6.23104C12.4516 5.53387 13.3969 5.14173 14.3828 5.14062H31.8828C32.8687 5.14173 33.814 5.53387 34.5112 6.23104C35.2083 6.9282 35.6005 7.87344 35.6016 8.85938V10.3906H34.0703C33.8963 10.3906 33.7293 10.4598 33.6063 10.5828C33.4832 10.7059 33.4141 10.8728 33.4141 11.0469C33.4141 11.2209 33.4832 11.3878 33.6063 11.5109C33.7293 11.634 33.8963 11.7031 34.0703 11.7031H35.6016V14.7253H33.6745C33.5004 14.7253 33.3335 14.7944 33.2104 14.9175C33.0874 15.0405 33.0182 15.2075 33.0182 15.3815V16.4643H30.6974C29.9386 16.4652 29.2112 16.767 28.6747 17.3036C28.1382 17.8402 27.8366 18.5678 27.8359 19.3266V36.8821C27.8368 37.6408 28.1386 38.3681 28.675 38.9045C29.2115 39.4409 29.9388 39.7426 30.6974 39.7435H35.6016V42.9844ZM41.4661 18.7669V17.7772H43.787C44.1977 17.7776 44.5915 17.941 44.8819 18.2315C45.1723 18.522 45.3356 18.9158 45.3359 19.3266V36.8821C45.3354 37.2928 45.1721 37.6865 44.8817 37.9768C44.5913 38.2672 44.1976 38.4305 43.787 38.431H30.6974C30.2868 38.4305 29.8931 38.2672 29.6027 37.9768C29.3123 37.6865 29.1489 37.2928 29.1484 36.8821V19.3266C29.1489 18.9159 29.3123 18.5222 29.6027 18.2319C29.8931 17.9415 30.2868 17.7782 30.6974 17.7777H33.0182V18.7674C33.0182 18.9415 33.0874 19.1084 33.2104 19.2315C33.3335 19.3545 33.5004 19.4237 33.6745 19.4237H40.8099C40.8961 19.4237 40.9815 19.4067 41.0612 19.3737C41.1408 19.3407 41.2132 19.2923 41.2741 19.2313C41.3351 19.1703 41.3834 19.0979 41.4163 19.0182C41.4493 18.9385 41.4662 18.8531 41.4661 18.7669ZM40.1536 18.1106H34.3307V16.0378H40.1536V18.1106Z" fill="#F20F38"/>
<path d="M30.6445 11.7031H31.8605C32.0345 11.7031 32.2014 11.634 32.3245 11.5109C32.4476 11.3878 32.5167 11.2209 32.5167 11.0469C32.5167 10.8728 32.4476 10.7059 32.3245 10.5828C32.2014 10.4598 32.0345 10.3906 31.8605 10.3906H30.6445C30.4705 10.3906 30.3036 10.4598 30.1805 10.5828C30.0574 10.7059 29.9883 10.8728 29.9883 11.0469C29.9883 11.2209 30.0574 11.3878 30.1805 11.5109C30.3036 11.634 30.4705 11.7031 30.6445 11.7031Z" fill="#F20F38"/>
<path d="M23.1328 45.2813C22.6785 45.2812 22.2345 45.416 21.8567 45.6683C21.479 45.9207 21.1846 46.2795 21.0108 46.6992C20.8369 47.1189 20.7914 47.5807 20.8801 48.0262C20.9687 48.4718 21.1875 48.881 21.5087 49.2023C21.8299 49.5235 22.2392 49.7423 22.6847 49.8309C23.1303 49.9195 23.5921 49.874 24.0118 49.7002C24.4315 49.5263 24.7902 49.2319 25.0426 48.8542C25.295 48.4765 25.4297 48.0324 25.4297 47.5781C25.429 46.9692 25.1868 46.3854 24.7562 45.9548C24.3256 45.5242 23.7418 45.2819 23.1328 45.2813ZM23.1328 48.5625C22.9381 48.5625 22.7478 48.5048 22.5859 48.3966C22.424 48.2884 22.2979 48.1347 22.2234 47.9548C22.1489 47.775 22.1294 47.577 22.1674 47.3861C22.2053 47.1951 22.2991 47.0197 22.4368 46.8821C22.5744 46.7444 22.7498 46.6507 22.9408 46.6127C23.1317 46.5747 23.3296 46.5942 23.5095 46.6687C23.6894 46.7432 23.8431 46.8694 23.9513 47.0312C24.0595 47.1931 24.1172 47.3834 24.1172 47.5781C24.1169 47.8391 24.0131 48.0893 23.8286 48.2739C23.644 48.4584 23.3938 48.5622 23.1328 48.5625Z" fill="#F20F38"/>
<path d="M24.7739 25.9219H22.4453C22.2713 25.9219 22.1043 25.991 21.9813 26.1141C21.8582 26.2372 21.7891 26.4041 21.7891 26.5781C21.7891 26.7522 21.8582 26.9191 21.9813 27.0422C22.1043 27.1652 22.2713 27.2344 22.4453 27.2344H24.7739C24.948 27.2344 25.1149 27.1652 25.2379 27.0422C25.361 26.9191 25.4302 26.7522 25.4302 26.5781C25.4302 26.4041 25.361 26.2372 25.2379 26.1141C25.1149 25.991 24.948 25.9219 24.7739 25.9219Z" fill="#F20F38"/>
<path d="M13.3984 27.2344H19.5428C19.7168 27.2344 19.8838 27.1652 20.0068 27.0422C20.1299 26.9191 20.199 26.7522 20.199 26.5781C20.199 26.4041 20.1299 26.2372 20.0068 26.1141C19.8838 25.991 19.7168 25.9219 19.5428 25.9219H13.3984C13.2244 25.9219 13.0575 25.991 12.9344 26.1141C12.8113 26.2372 12.7422 26.4041 12.7422 26.5781C12.7422 26.7522 12.8113 26.9191 12.9344 27.0422C13.0575 27.1652 13.2244 27.2344 13.3984 27.2344Z" fill="#F20F38"/>
<path d="M24.7739 31.3906H18.0703C17.8963 31.3906 17.7293 31.4598 17.6063 31.5828C17.4832 31.7059 17.4141 31.8728 17.4141 32.0469C17.4141 32.2209 17.4832 32.3878 17.6063 32.5109C17.7293 32.634 17.8963 32.7031 18.0703 32.7031H24.7739C24.948 32.7031 25.1149 32.634 25.2379 32.5109C25.361 32.3878 25.4302 32.2209 25.4302 32.0469C25.4302 31.8728 25.361 31.7059 25.2379 31.5828C25.1149 31.4598 24.948 31.3906 24.7739 31.3906Z" fill="#F20F38"/>
<path d="M13.3984 32.7031H15.1678C15.3418 32.7031 15.5088 32.634 15.6318 32.5109C15.7549 32.3878 15.824 32.2209 15.824 32.0469C15.824 31.8728 15.7549 31.7059 15.6318 31.5828C15.5088 31.4598 15.3418 31.3906 15.1678 31.3906H13.3984C13.2244 31.3906 13.0575 31.4598 12.9344 31.5828C12.8113 31.7059 12.7422 31.8728 12.7422 32.0469C12.7422 32.2209 12.8113 32.3878 12.9344 32.5109C13.0575 32.634 13.2244 32.7031 13.3984 32.7031Z" fill="#F20F38"/>
<path d="M24.4453 36.8594H22.4766C22.3025 36.8594 22.1356 36.9285 22.0125 37.0516C21.8895 37.1747 21.8203 37.3416 21.8203 37.5156C21.8203 37.6897 21.8895 37.8566 22.0125 37.9797C22.1356 38.1027 22.3025 38.1719 22.4766 38.1719H24.4453C24.6194 38.1719 24.7863 38.1027 24.9094 37.9797C25.0324 37.8566 25.1016 37.6897 25.1016 37.5156C25.1016 37.3416 25.0324 37.1747 24.9094 37.0516C24.7863 36.9285 24.6194 36.8594 24.4453 36.8594Z" fill="#F20F38"/>
<path d="M19.5428 36.8594H13.3984C13.2244 36.8594 13.0575 36.9285 12.9344 37.0516C12.8113 37.1747 12.7422 37.3416 12.7422 37.5156C12.7422 37.6897 12.8113 37.8566 12.9344 37.9797C13.0575 38.1027 13.2244 38.1719 13.3984 38.1719H19.5428C19.7168 38.1719 19.8838 38.1027 20.0068 37.9797C20.1299 37.8566 20.199 37.6897 20.199 37.5156C20.199 37.3416 20.1299 37.1747 20.0068 37.0516C19.8838 36.9285 19.7168 36.8594 19.5428 36.8594Z" fill="#F20F38"/>
<path d="M24.7734 20.0156H18.1016C17.9275 20.0156 17.7606 20.0848 17.6375 20.2078C17.5145 20.3309 17.4453 20.4978 17.4453 20.6719C17.4453 20.8459 17.5145 21.0128 17.6375 21.1359C17.7606 21.259 17.9275 21.3281 18.1016 21.3281H24.7734C24.9475 21.3281 25.1144 21.259 25.2375 21.1359C25.3605 21.0128 25.4297 20.8459 25.4297 20.6719C25.4297 20.4978 25.3605 20.3309 25.2375 20.2078C25.1144 20.0848 24.9475 20.0156 24.7734 20.0156Z" fill="#F20F38"/>
<path d="M13.3984 21.3281H15.1678C15.3418 21.3281 15.5088 21.259 15.6318 21.1359C15.7549 21.0128 15.824 20.8459 15.824 20.6719C15.824 20.4978 15.7549 20.3309 15.6318 20.2078C15.5088 20.0848 15.3418 20.0156 15.1678 20.0156H13.3984C13.2244 20.0156 13.0575 20.0848 12.9344 20.2078C12.8113 20.3309 12.7422 20.4978 12.7422 20.6719C12.7422 20.8459 12.8113 21.0128 12.9344 21.1359C13.0575 21.259 13.2244 21.3281 13.3984 21.3281Z" fill="#F20F38"/>
</svg>
