<svg width="285" height="49" viewBox="0 0 285 49" fill="none" xmlns="http://www.w3.org/2000/svg">
<path d="M0.000609638 24.3818C-0.0943901 37.9168 10.9256 48.9522 24.5581 48.9994C38.1905 49.0937 49.3055 38.1526 49.353 24.6176C49.448 11.0826 38.428 0.0471601 24.7956 0H24.6531C11.1156 0 0.0481095 10.894 0.000609638 24.3818Z" fill="#BDBDBD"/>
<path d="M40.8507 21.1748L26.1732 6.69662C25.7932 6.27217 25.2707 6.03638 24.6532 6.03638C24.0357 6.03638 23.5132 6.27217 23.1332 6.69662L8.45572 21.1748C7.88572 21.7407 7.55322 22.5424 7.55322 23.3913C7.55322 25.1362 8.97822 26.551 10.6882 26.551H12.6832C12.6832 26.551 12.6832 37.5393 12.6832 37.5865C12.6832 38.7183 13.5857 39.6615 14.7257 39.6615H34.4857C35.6257 39.6615 36.5282 38.7183 36.5282 37.5865C36.5282 37.5393 36.5282 26.551 36.5282 26.551H38.5707C40.3282 26.551 41.7056 25.1362 41.7056 23.3913C41.7531 22.4953 41.4207 21.7407 40.8507 21.1748ZM32.7282 22.7311V35.7473H16.6257V22.7311H12.3982L24.7007 10.5638L37.0032 22.7311H32.7282Z" fill="white"/>
<path d="M65.6454 19.0999C63.9829 19.0999 62.7004 19.5243 61.4179 20.1846V32.399C61.4179 32.7292 61.1329 33.0121 60.8004 33.0121H57.9979C57.6654 33.0121 57.3804 32.7292 57.3804 32.399V16.5061C57.3804 16.1759 57.6654 15.893 57.9979 15.893H60.6579C60.9904 15.893 61.2754 16.1759 61.2754 16.5061V17.1192C62.7479 15.9873 64.4104 15.6572 65.6454 15.6572C65.9779 15.6572 66.2629 15.9401 66.2629 16.2703V18.4396C66.2629 18.8169 65.9779 19.0999 65.6454 19.0999ZM80.9878 25.8909H71.0128V25.9853C71.0128 27.7302 71.7253 29.8524 74.6703 29.8524C76.9028 29.8524 78.9928 29.6637 80.2753 29.5694H80.3703C80.6553 29.5694 80.9403 29.7109 80.9403 30.041V32.0218C80.9403 32.4934 80.8453 32.7292 80.2753 32.8235C78.2803 33.2008 77.0928 33.3422 74.3378 33.3422C71.2978 33.3422 66.9279 31.6916 66.9279 25.7023V23.4386C66.9279 18.6754 69.5878 15.7043 74.2903 15.7043C78.9928 15.7043 81.5578 18.9112 81.5578 23.4386V25.1364C81.6053 25.608 81.4153 25.8909 80.9878 25.8909ZM77.5203 22.8727C77.5203 20.5147 76.1903 19.147 74.2903 19.147C72.3903 19.147 71.0128 20.4675 71.0128 22.8727V23.0142H77.5203V22.8727ZM95.6653 33.0593H93.0528C92.7203 33.0593 92.4353 32.7763 92.4353 32.4462V31.9746C91.0103 32.8235 89.5853 33.2951 88.1128 33.2951C85.5953 33.2951 82.8403 32.3047 82.8403 28.2018V28.1075C82.8403 24.6648 84.9778 22.8255 90.2978 22.8255H92.2453V21.505C92.2453 19.5243 91.3428 19.0527 89.5378 19.0527C87.5903 19.0527 85.5478 19.1942 84.5503 19.2885H84.4078C84.1228 19.2885 83.8853 19.1942 83.8853 18.7698V16.8362C83.8853 16.5061 84.0753 16.3174 84.4553 16.1759C85.6903 15.9401 87.4478 15.7043 89.5853 15.7043C93.9078 15.7043 96.3303 17.6379 96.3303 21.505V32.4462C96.2828 32.7763 95.9978 33.0593 95.6653 33.0593ZM92.2453 25.5136H90.2978C87.4953 25.5136 86.9253 26.4097 86.9253 28.1075V28.2018C86.9253 29.7109 87.5903 30.0882 89.1103 30.0882C90.2028 30.0882 91.3428 29.7109 92.2453 29.2393V25.5136ZM101.888 33.0593H99.0378C98.7053 33.0593 98.4203 32.7763 98.4203 32.4462V10.5639C98.4203 10.2338 98.7053 9.95081 99.0378 9.95081H101.888C102.22 9.95081 102.458 10.2338 102.458 10.5639V32.4462C102.458 32.7292 102.22 33.0593 101.888 33.0593ZM118.323 25.8909H108.348V25.9853C108.348 27.7302 109.06 29.8524 112.005 29.8524C114.238 29.8524 116.328 29.6637 117.658 29.5694H117.753C118.038 29.5694 118.323 29.7109 118.323 30.041V32.0218C118.323 32.4934 118.228 32.7292 117.658 32.8235C115.663 33.2008 114.475 33.3422 111.72 33.3422C108.68 33.3422 104.31 31.6916 104.31 25.7023V23.4386C104.31 18.6754 106.97 15.7043 111.625 15.7043C116.328 15.7043 118.94 18.9112 118.94 23.4386V25.1364C118.94 25.608 118.75 25.8909 118.323 25.8909ZM114.855 22.8727C114.855 20.5147 113.525 19.147 111.625 19.147C109.725 19.147 108.348 20.4675 108.348 22.8727V23.0142H114.855V22.8727ZM126.588 33.2951C125.4 33.2951 122.835 33.1536 121.078 32.682C120.698 32.5877 120.508 32.3519 120.508 31.9746V30.1354C120.508 29.8996 120.745 29.6637 121.03 29.6637H121.173C122.645 29.8524 125.4 29.9939 126.303 29.9939C128.203 29.9939 128.488 29.3336 128.488 28.5319C128.488 27.966 128.108 27.5887 127.158 26.9756L122.978 24.429C121.458 23.5329 120.413 22.0238 120.413 20.2317C120.413 17.2135 122.36 15.6572 126.255 15.6572C128.725 15.6572 130.15 15.9401 131.718 16.2703C132.098 16.3646 132.24 16.6004 132.24 16.9777V18.7226C132.24 19.0999 132.05 19.2885 131.765 19.2885H131.623C130.768 19.147 128.298 18.9112 126.54 18.9112C125.068 18.9112 124.45 19.2414 124.45 20.1846C124.45 20.6562 124.925 20.9863 125.685 21.4107L129.675 23.863C132.24 25.4193 132.62 26.9285 132.62 28.4847C132.573 31.1729 130.625 33.2951 126.588 33.2951ZM143.593 33.0593C142.88 33.2008 142.168 33.2951 141.503 33.2951C138.035 33.2951 136.658 32.5405 136.658 28.4847V18.9584L133.76 18.534C133.428 18.4868 133.143 18.251 133.143 17.9209V16.5532C133.143 16.2231 133.428 15.9401 133.76 15.9401H136.658V11.8844C136.658 11.5543 136.943 11.3656 137.275 11.2713L140.125 10.7997H140.268C140.553 10.7997 140.743 10.9412 140.743 11.2713V15.9401H143.498C143.83 15.9401 144.115 16.2231 144.115 16.5532V18.3453C144.115 18.6754 143.83 18.9584 143.498 18.9584H140.743V28.4847C140.743 29.9939 140.838 30.1825 141.93 30.1825H143.545C143.925 30.1825 144.21 30.324 144.21 30.6541V32.5877C144.21 32.8235 144.02 33.0121 143.593 33.0593ZM158.033 33.0593H155.42C155.088 33.0593 154.803 32.7763 154.803 32.4462V31.9746C153.378 32.8235 151.953 33.2951 150.48 33.2951C147.963 33.2951 145.208 32.3047 145.208 28.2018V28.1075C145.208 24.6648 147.345 22.8255 152.665 22.8255H154.613V21.505C154.613 19.5243 153.71 19.0527 151.905 19.0527C149.958 19.0527 147.915 19.1942 146.918 19.2885H146.775C146.49 19.2885 146.205 19.1942 146.205 18.7698V16.8362C146.205 16.5061 146.395 16.3174 146.775 16.1759C148.01 15.9401 149.768 15.7043 151.905 15.7043C156.275 15.7043 158.65 17.6379 158.65 21.505V32.4462C158.65 32.7763 158.365 33.0593 158.033 33.0593ZM154.613 25.5136H152.665C149.863 25.5136 149.293 26.4097 149.293 28.1075V28.2018C149.293 29.7109 149.958 30.0882 151.478 30.0882C152.57 30.0882 153.71 29.7109 154.613 29.2393V25.5136ZM169.575 33.0593C168.815 33.2008 168.15 33.2951 167.485 33.2951C164.018 33.2951 162.593 32.5405 162.593 28.4847V18.9584L159.695 18.534C159.363 18.4868 159.078 18.251 159.078 17.9209V16.5532C159.078 16.2231 159.363 15.9401 159.695 15.9401H162.593V11.8844C162.593 11.5543 162.878 11.3656 163.21 11.2713L166.06 10.7997H166.203C166.488 10.7997 166.678 10.9412 166.678 11.2713V15.9401H169.433C169.765 15.9401 170.05 16.2231 170.05 16.5532V18.3453C170.05 18.6754 169.765 18.9584 169.433 18.9584H166.678V28.4847C166.678 29.9939 166.773 30.1825 167.865 30.1825H169.48C169.908 30.1825 170.145 30.324 170.145 30.6541V32.5877C170.145 32.8235 169.955 33.0121 169.575 33.0593ZM185.25 25.8909H175.275V25.9853C175.275 27.7302 176.035 29.8524 178.933 29.8524C181.165 29.8524 183.255 29.6637 184.585 29.5694H184.68C184.965 29.5694 185.25 29.7109 185.25 30.041V32.0218C185.25 32.4934 185.155 32.7292 184.585 32.8235C182.59 33.2008 181.403 33.3422 178.648 33.3422C175.56 33.3422 171.238 31.6916 171.238 25.7023V23.4386C171.238 18.6754 173.898 15.7043 178.6 15.7043C183.303 15.7043 185.868 18.9112 185.868 23.4386V25.1364C185.868 25.608 185.678 25.8909 185.25 25.8909ZM181.783 22.8727C181.783 20.5147 180.453 19.147 178.553 19.147C176.653 19.147 175.275 20.4675 175.275 22.8727V23.0142H181.783V22.8727ZM190.38 33.0593H187.673C187.34 33.0593 187.055 32.7763 187.055 32.4462V29.0035C187.055 28.6734 187.34 28.4376 187.673 28.4376H190.38C190.713 28.4376 190.998 28.6734 190.998 29.0035V32.4462C190.998 32.7763 190.713 33.0593 190.38 33.0593ZM203.015 32.8706C202.303 33.0593 200.925 33.2479 199.073 33.2479C195.083 33.2479 192.09 30.7956 192.09 25.8438V23.0142C192.09 18.0624 195.083 15.61 199.073 15.61C200.925 15.61 202.303 15.8458 203.015 15.9873C203.538 16.1288 203.633 16.3174 203.633 16.789V18.7698C203.633 19.0527 203.395 19.2414 203.063 19.2414H202.968C201.733 19.0999 201.02 19.0056 199.025 19.0056C197.6 19.0056 196.08 19.8073 196.08 22.967V25.7966C196.08 28.9563 197.6 29.7581 199.025 29.7581C201.02 29.7581 201.733 29.7109 202.968 29.5694H203.063C203.395 29.5694 203.633 29.7109 203.633 29.9939V31.9746C203.633 32.5877 203.538 32.7763 203.015 32.8706ZM212.42 33.2951C207.623 33.2951 205.105 30.041 205.105 25.7023V23.25C205.105 18.9112 207.623 15.6572 212.42 15.6572C217.218 15.6572 219.735 18.8641 219.735 23.25V25.7023C219.735 30.041 217.218 33.2951 212.42 33.2951ZM215.698 23.25C215.698 20.7505 214.558 19.147 212.42 19.147C210.283 19.147 209.143 20.7505 209.143 23.25V25.7023C209.143 28.2018 210.283 29.8052 212.42 29.8052C214.558 29.8052 215.698 28.2018 215.698 25.7023V23.25ZM242.867 33.0593H240.065C239.732 33.0593 239.447 32.7763 239.447 32.4462V22.1181C239.447 19.7601 238.972 19.147 237.262 19.147C236.693 19.147 235.505 19.3357 234.412 19.9016C234.507 20.5618 234.555 21.3164 234.555 22.1181V32.4462C234.555 32.7763 234.27 33.0593 233.938 33.0593H231.135C230.802 33.0593 230.518 32.7763 230.518 32.4462V22.1181C230.518 19.7601 230.137 19.147 228.38 19.147C227.715 19.147 226.812 19.4772 225.577 20.1374V32.399C225.577 32.7292 225.293 33.0121 224.96 33.0121H222.158C221.825 33.0121 221.54 32.7292 221.54 32.399V16.5061C221.54 16.1759 221.825 15.893 222.158 15.893H224.818C225.15 15.893 225.435 16.1759 225.435 16.5061V17.1192C226.717 16.3174 228 15.6572 229.805 15.6572C231.562 15.6572 232.702 16.1759 233.367 17.0248C234.935 16.1759 236.312 15.6572 238.402 15.6572C242.582 15.6572 243.485 18.4868 243.485 22.071V32.399C243.485 32.7292 243.2 33.0593 242.867 33.0593ZM248.567 33.0593H245.86C245.527 33.0593 245.242 32.7763 245.242 32.4462V29.0035C245.242 28.6734 245.527 28.4376 245.86 28.4376H248.567C248.9 28.4376 249.185 28.6734 249.185 29.0035V32.4462C249.185 32.7763 248.9 33.0593 248.567 33.0593ZM263.435 33.0593H260.822C260.49 33.0593 260.205 32.7763 260.205 32.4462V31.9746C258.78 32.8235 257.355 33.2951 255.882 33.2951C253.317 33.2951 250.562 32.3047 250.562 28.2018V28.1075C250.562 24.6648 252.7 22.8255 258.02 22.8255H259.92V21.505C259.92 19.5243 259.017 19.0527 257.212 19.0527C255.265 19.0527 253.222 19.1942 252.225 19.2885H252.082C251.797 19.2885 251.512 19.1942 251.512 18.7698V16.8362C251.512 16.5061 251.702 16.3174 252.082 16.1759C253.317 15.9401 255.075 15.7043 257.212 15.7043C261.535 15.7043 263.957 17.6379 263.957 21.505V32.4462C264.052 32.7763 263.767 33.0593 263.435 33.0593ZM260.015 25.5136H258.115C255.312 25.5136 254.695 26.4097 254.695 28.1075V28.2018C254.695 29.7109 255.36 30.0882 256.88 30.0882C257.972 30.0882 259.112 29.7109 260.015 29.2393V25.5136Z" fill="#BDBDBD"/>
<path d="M279.585 33.0594H276.783C276.45 33.0594 276.165 32.7764 276.165 32.4463V31.7389C274.55 32.7764 273.315 33.248 271.368 33.248C269.848 33.248 268.47 32.8707 267.615 31.9747C266.475 30.8428 266.095 28.9564 266.095 26.4569V16.5533C266.095 16.2232 266.38 15.8931 266.713 15.8931H269.515C269.848 15.8931 270.133 16.176 270.133 16.5533V26.4569C270.133 27.9661 270.275 28.8621 270.845 29.3809C271.273 29.7581 271.795 29.9468 272.745 29.9468C273.885 29.9468 275.358 29.1922 276.213 28.7206V16.5533C276.213 16.2232 276.498 15.8931 276.83 15.8931H279.633C279.965 15.8931 280.25 16.176 280.25 16.5533V32.4463C280.203 32.7764 279.918 33.0594 279.585 33.0594Z" fill="#BDBDBD"/>
<path d="M283.1 14.9027C282.008 14.9027 281.2 14.0538 281.2 12.9691C281.2 11.8844 282.008 11.0355 283.1 11.0355C284.193 11.0355 285 11.8844 285 12.9691C285 14.0538 284.193 14.9027 283.1 14.9027ZM283.1 11.3656C282.15 11.3656 281.533 12.0259 281.533 12.9691C281.533 13.8651 282.15 14.5725 283.1 14.5725C284.05 14.5725 284.668 13.9123 284.668 12.9691C284.62 12.0259 284.003 11.3656 283.1 11.3656ZM283.528 13.9594L283.195 13.2049H282.815V13.9594H282.483V11.9316H283.243C283.623 11.9316 283.955 12.1674 283.955 12.5446C283.955 12.8276 283.813 13.0162 283.575 13.1106L283.955 13.9123H283.528V13.9594ZM283.148 12.2617H282.768V12.8748H283.148C283.338 12.8748 283.48 12.7804 283.48 12.5446C283.528 12.356 283.338 12.2617 283.148 12.2617Z" fill="#313F49"/>
</svg>
