<svg width="139" height="49" viewBox="0 0 139 49" fill="none" xmlns="http://www.w3.org/2000/svg">
<path d="M35.4296 17.9471H19.8118V22.5623H30.8881C30.341 29.0339 24.934 31.794 19.8306 31.794C13.301 31.794 7.60312 26.6779 7.60312 19.5069C7.60312 12.5214 13.0346 7.1416 19.845 7.1416C25.0991 7.1416 28.1951 10.4769 28.1951 10.4769L31.4402 7.13059C31.4402 7.13059 27.2753 2.51318 19.6792 2.51318C10.0064 2.51318 2.52344 10.643 2.52344 19.4244C2.52344 28.0292 9.56234 36.4196 19.9257 36.4196C29.0404 36.4196 35.7124 30.2016 35.7124 21.0065C35.7124 19.0669 35.4296 17.9456 35.4296 17.9456V17.9471Z" fill="#BDBDBD"/>
<path d="M48.2227 14.6047C41.8143 14.6047 37.2217 19.5942 37.2217 25.4131C37.2217 31.3181 41.6764 36.4001 48.298 36.4001C54.2924 36.4001 59.2034 31.8375 59.2034 25.5401C59.2034 18.322 53.4908 14.6047 48.2227 14.6047ZM48.2864 18.8852C51.4376 18.8852 54.424 21.4226 54.424 25.5109C54.424 29.5127 51.4504 32.1223 48.272 32.1223C44.7793 32.1223 42.0241 29.3366 42.0241 25.4791C42.0241 21.7045 44.7452 18.8852 48.2864 18.8852Z" fill="#BDBDBD"/>
<path d="M72.1485 14.6047C65.7401 14.6047 61.1475 19.5942 61.1475 25.4131C61.1475 31.3181 65.6022 36.4001 72.2237 36.4001C78.2182 36.4001 83.1289 31.8375 83.1289 25.5401C83.1292 18.322 77.4166 14.6047 72.1485 14.6047ZM72.2122 18.8852C75.3639 18.8852 78.3501 21.4226 78.3501 25.5109C78.3501 29.5127 75.3764 32.1223 72.1978 32.1223C68.7054 32.1223 65.9501 29.3366 65.9501 25.4791C65.9501 21.7045 68.671 18.8852 72.2122 18.8852Z" fill="#BDBDBD"/>
<path d="M95.6152 14.616C89.733 14.616 85.1094 19.7464 85.1094 25.5049C85.1094 32.0643 90.4697 36.414 95.5138 36.414C98.6326 36.414 100.291 35.1812 101.515 33.7661V35.9149C101.515 39.6744 99.2232 41.9263 95.7632 41.9263C92.4205 41.9263 90.7441 39.4512 90.1614 38.0466L85.9559 39.7977C87.4478 42.9394 90.4512 46.2157 95.7983 46.2157C101.647 46.2157 106.104 42.5473 106.104 34.8534V15.2714H101.516V17.1174C100.105 15.6035 98.1756 14.6162 95.6152 14.616ZM96.041 18.8881C98.9248 18.8881 101.886 21.3405 101.886 25.5281C101.886 29.785 98.9313 32.1309 95.9773 32.1309C92.8412 32.1309 89.9236 29.5952 89.9236 25.5686C89.9236 21.3848 92.9539 18.8881 96.041 18.8881Z" fill="#BDBDBD"/>
<path d="M126.504 14.5902C120.955 14.5902 116.297 18.9865 116.297 25.4734C116.297 32.3377 121.489 36.4086 127.037 36.4086C131.667 36.4086 134.509 33.8861 136.205 31.6261L132.422 29.1194C131.44 30.6364 129.799 32.1192 127.06 32.1192C123.984 32.1192 122.569 30.4416 121.693 28.8164L136.366 22.7533L135.604 20.9764C134.187 17.4968 130.88 14.5907 126.505 14.5907L126.504 14.5902ZM126.695 18.7815C128.695 18.7815 130.133 19.84 130.745 21.1092L120.946 25.188C120.523 22.0302 123.527 18.7815 126.695 18.7815Z" fill="#BDBDBD"/>
<path d="M109.302 35.7615H114.122V3.64014H109.302V35.7615Z" fill="#BDBDBD"/>
</svg>
