<svg width="118" height="80" viewBox="0 0 118 80" fill="none" xmlns="http://www.w3.org/2000/svg">
<path d="M59.7279 0C44.7246 0 32.5625 12.1581 32.5625 27.1563C32.5625 42.1544 44.725 54.3133 59.7279 54.3133C74.7296 54.3133 86.8913 42.1544 86.8913 27.1563C86.8913 12.1581 74.73 0 59.7279 0Z" fill="#BDBDBD"/>
<path d="M49.2387 37.9801C51.081 39.8539 53.3528 41.2063 55.809 41.916C56.5547 42.1328 57.3188 42.2897 58.093 42.3841C58.5921 42.4451 59.0968 42.4792 59.6035 42.4872C60.9631 42.5065 62.3147 42.3291 63.6116 41.9726C65.4519 41.4652 67.1865 40.5969 68.6922 39.412C69.1223 39.0748 69.5315 38.7123 69.9197 38.3257C70.9778 37.2748 71.8463 36.0738 72.508 34.7752C73.5235 32.785 74.06 30.5611 74.06 28.2903C74.06 28.1173 74.0567 27.9435 74.0495 27.7697C74.0021 26.4065 73.7957 25.1131 73.4303 23.9044C73.0561 22.6709 72.5197 21.5256 71.8194 20.4856C71.7487 20.38 71.676 20.2764 71.603 20.1737C70.6469 18.8438 69.4122 17.6949 67.9012 16.762C66.3228 15.7858 64.4569 15.0171 62.2757 14.5558C62.2701 14.4486 62.2585 14.3403 62.2585 14.2275C62.2585 9.47629 65.3017 5.43041 69.5716 3.91586C69.9707 3.77376 70.1426 3.65695 70.1611 3.56543C70.1619 3.55981 70.1582 3.53211 70.1558 3.52488C70.1137 3.39442 69.7382 3.32417 69.321 3.31454C68.6758 3.29969 67.8972 3.33501 67.0207 3.43175C66.008 3.54415 64.8624 3.73964 63.643 4.03669C63.1989 4.14588 62.7427 4.26791 62.2797 4.40439C61.5642 4.61594 60.8318 4.86281 60.0918 5.14661C57.6087 6.10278 55.0433 7.48807 52.7778 9.43053C49.3797 12.3047 46.4806 16.4678 45.268 21.394C44.964 22.6275 44.7664 23.9084 44.6918 25.2291C44.6869 25.3234 44.6825 25.415 44.6789 25.5085C44.6412 26.4297 44.6709 27.3514 44.7689 28.2618C44.866 29.1546 45.0282 30.0377 45.2575 30.8987C45.2868 31.0159 45.3202 31.1315 45.3531 31.2475C45.79 32.7637 46.4348 34.2144 47.2901 35.5443C47.8502 36.4118 48.4987 37.2291 49.2387 37.9801Z" fill="white"/>
<path d="M4.55299 65.5791L8.03469 74.7599L11.402 65.5791H15.7638L10.0628 79.6552H5.93066L0 65.5791H4.55299Z" fill="#BDBDBD"/>
<path d="M23.1873 79.9999C18.6724 79.9999 15.8408 76.8255 15.8408 72.6179C15.8408 68.4098 18.6724 65.2346 23.1873 65.2346C27.7403 65.2346 30.5719 68.4094 30.5719 72.6179C30.5715 76.8255 27.7403 79.9999 23.1873 79.9999ZM23.1873 68.448C21.0062 68.448 19.9349 70.3615 19.9349 72.656C19.9349 74.9124 21.0062 76.787 23.1873 76.787C25.3684 76.787 26.4397 74.9124 26.4397 72.656C26.4393 70.3611 25.368 68.448 23.1873 68.448Z" fill="#BDBDBD"/>
<path d="M46.2588 59.8417V79.3879C44.5755 79.7323 42.6241 79.9997 40.2518 79.9997C35.3925 79.9997 32.2549 77.4366 32.2549 72.5405C32.2549 68.4096 35.0865 65.2347 39.3331 65.2347C40.5574 65.2347 41.7435 65.5025 42.3944 65.7702V59.8413H46.2588V59.8417ZM42.3944 69.0988C41.7821 68.7544 40.8256 68.4481 39.6395 68.4481C37.5351 68.4481 36.3493 70.246 36.3493 72.5409C36.3493 75.3336 38.1478 76.749 40.3285 76.749C41.0938 76.749 41.8588 76.7105 42.3948 76.5961V69.0988H42.3944Z" fill="#BDBDBD"/>
<path d="M48.0576 72.9234C48.0576 68.4858 51.3486 65.2351 56.0546 65.2351C58.3887 65.2351 60.7605 65.8095 62.0997 66.3454V79.6556H58.6565L58.3891 78.4317C57.5852 79.3501 56.4372 80 54.6006 80C50.8884 80 48.0576 77.2844 48.0576 72.9234ZM58.1972 68.8306C57.7759 68.7162 56.9343 68.5625 55.9779 68.5625C54.1031 68.5625 52.1517 70.0172 52.1517 72.7705C52.1517 75.4865 53.6823 76.7871 55.4041 76.7871C56.7043 76.7871 57.7378 76.0979 58.1972 75.3336V68.8306Z" fill="#BDBDBD"/>
<path d="M69.5609 59.4976C70.5937 59.4976 71.8561 59.689 72.5447 59.8416V63.2075C71.9328 63.1316 70.8997 63.0549 70.364 63.0549C69.4453 63.0549 69.1016 63.2075 68.7952 63.4756C68.527 63.7429 68.4519 64.1259 68.4519 64.7381V65.5794H72.0091V68.9843H68.4519V79.6555H64.5859V64.4322C64.5859 62.7868 65.1224 61.5633 66.0025 60.7215C66.8438 59.9182 68.1447 59.4976 69.5609 59.4976Z" fill="#BDBDBD"/>
<path d="M79.7377 79.9999C75.1847 79.9999 72.3535 76.8255 72.3535 72.6179C72.3535 68.4098 75.1847 65.2346 79.7377 65.2346C84.2911 65.2346 87.085 68.4094 87.085 72.6179C87.085 76.8255 84.2911 79.9999 79.7377 79.9999ZM79.7377 68.448C77.557 68.448 76.4857 70.3615 76.4857 72.656C76.4857 74.9124 77.557 76.787 79.7377 76.787C81.9197 76.787 82.991 74.9124 82.991 72.656C82.991 70.3611 81.9197 68.448 79.7377 68.448Z" fill="#BDBDBD"/>
<path d="M98.8316 71.9286C98.8316 69.8256 97.7603 68.7538 95.6169 68.7538C94.5456 68.7538 93.3599 68.9449 92.7476 69.0983V79.6551H88.8828V66.3449C90.6423 65.7324 93.1688 65.2346 95.6547 65.2346C100.131 65.2346 102.733 67.4537 102.733 71.1639V79.6551H98.8312V71.9286H98.8316Z" fill="#BDBDBD"/>
<path d="M104.531 72.5408C104.531 68.0662 107.362 65.1969 111.457 65.1969C115.589 65.1969 118 68.4098 118 72.3497C118 72.8852 117.961 73.6118 117.922 73.9177H108.472C108.664 75.9067 109.965 76.9777 112.528 76.9777C114.71 76.9777 116.469 76.5185 117.464 76.2134V78.776C116.201 79.3878 114.556 79.9618 112.375 79.9618C107.401 79.9618 104.531 77.3225 104.531 72.5408ZM114.441 71.0877C114.327 69.6342 113.294 68.448 111.457 68.448C109.619 68.448 108.702 69.4431 108.548 71.0877H114.441Z" fill="#BDBDBD"/>
</svg>
