<svg width="705" height="821" viewBox="0 0 705 821" fill="none" xmlns="http://www.w3.org/2000/svg">
<rect width="705" height="821" fill="#009FFC"/>
<g clip-path="url(#clip0)">
<path opacity="0.1" d="M278.916 617.956C386.591 617.956 473.878 606.527 473.878 592.429C473.878 578.331 386.591 566.901 278.916 566.901C171.241 566.901 83.9531 578.331 83.9531 592.429C83.9531 606.527 171.241 617.956 278.916 617.956Z" fill="#6C63FF"/>
<path d="M618.903 187H98.0685C95.8053 187 93.9707 188.964 93.9707 191.386V491.477C93.9707 493.9 95.8053 495.864 98.0685 495.864H618.903C621.166 495.864 623 493.9 623 491.477V191.386C623 188.964 621.166 187 618.903 187Z" fill="#E8EAF2"/>
<path d="M622.995 191.386V206.214H93.9648V191.386C93.9648 190.81 94.071 190.239 94.2773 189.707C94.4835 189.174 94.7859 188.69 95.1669 188.283C95.548 187.875 96.0004 187.552 96.4982 187.332C96.996 187.112 97.5294 186.999 98.068 187H618.897C619.435 186.999 619.968 187.112 620.466 187.332C620.963 187.553 621.415 187.876 621.796 188.283C622.177 188.691 622.478 189.174 622.684 189.707C622.89 190.239 622.995 190.81 622.995 191.386Z" fill="#65617D"/>
<path opacity="0.8" d="M102.133 200.349C104.062 200.349 105.626 198.675 105.626 196.61C105.626 194.545 104.062 192.872 102.133 192.872C100.204 192.872 98.6406 194.545 98.6406 196.61C98.6406 198.675 100.204 200.349 102.133 200.349Z" fill="#FA5959"/>
<path opacity="0.8" d="M111.545 200.349C113.474 200.349 115.038 198.675 115.038 196.61C115.038 194.545 113.474 192.872 111.545 192.872C109.616 192.872 108.053 194.545 108.053 196.61C108.053 198.675 109.616 200.349 111.545 200.349Z" fill="#FED253"/>
<path opacity="0.8" d="M120.961 200.349C122.89 200.349 124.454 198.675 124.454 196.61C124.454 194.545 122.89 192.872 120.961 192.872C119.032 192.872 117.469 194.545 117.469 196.61C117.469 198.675 119.032 200.349 120.961 200.349Z" fill="#8CCF4D"/>
<path opacity="0.2" d="M370.743 226.174H121.567C119.303 226.174 117.469 228.138 117.469 230.561V349.717C117.469 352.14 119.303 354.104 121.567 354.104H370.743C373.006 354.104 374.841 352.14 374.841 349.717V230.561C374.841 228.138 373.006 226.174 370.743 226.174Z" fill="#6C63FF"/>
<path d="M373.828 393.112H118.481C117.922 393.112 117.469 393.597 117.469 394.196V400.807C117.469 401.405 117.922 401.89 118.481 401.89H373.828C374.387 401.89 374.841 401.405 374.841 400.807V394.196C374.841 393.597 374.387 393.112 373.828 393.112Z" fill="white"/>
<path d="M373.828 411.644H118.481C117.922 411.644 117.469 412.129 117.469 412.728V419.339C117.469 419.937 117.922 420.423 118.481 420.423H373.828C374.387 420.423 374.841 419.937 374.841 419.339V412.728C374.841 412.129 374.387 411.644 373.828 411.644Z" fill="white"/>
<path d="M373.828 430.17H118.481C117.922 430.17 117.469 430.655 117.469 431.254V437.865C117.469 438.464 117.922 438.949 118.481 438.949H373.828C374.387 438.949 374.841 438.464 374.841 437.865V431.254C374.841 430.655 374.387 430.17 373.828 430.17Z" fill="white"/>
<path d="M373.828 448.702H118.481C117.922 448.702 117.469 449.188 117.469 449.786V456.397C117.469 456.996 117.922 457.481 118.481 457.481H373.828C374.387 457.481 374.841 456.996 374.841 456.397V449.786C374.841 449.188 374.387 448.702 373.828 448.702Z" fill="white"/>
<path d="M373.828 467.229H118.481C117.922 467.229 117.469 467.714 117.469 468.312V474.924C117.469 475.522 117.922 476.007 118.481 476.007H373.828C374.387 476.007 374.841 475.522 374.841 474.924V468.312C374.841 467.714 374.387 467.229 373.828 467.229Z" fill="white"/>
<path d="M589.231 226.174H408.844C406.581 226.174 404.746 228.138 404.746 230.561V471.621C404.746 474.043 406.581 476.007 408.844 476.007H589.231C591.495 476.007 593.329 474.043 593.329 471.621V230.561C593.329 228.138 591.495 226.174 589.231 226.174Z" fill="white"/>
<path opacity="0.2" d="M448.226 254.958H416.237C415.678 254.958 415.225 255.444 415.225 256.042V262.653C415.225 263.252 415.678 263.737 416.237 263.737H448.226C448.785 263.737 449.239 263.252 449.239 262.653V256.042C449.239 255.444 448.785 254.958 448.226 254.958Z" fill="#6C63FF"/>
<path d="M583.362 271.535H416.237C415.678 271.535 415.225 272.021 415.225 272.619V279.23C415.225 279.829 415.678 280.314 416.237 280.314H583.362C583.921 280.314 584.374 279.829 584.374 279.23V272.619C584.374 272.021 583.921 271.535 583.362 271.535Z" fill="#E8EAF2"/>
<path d="M583.362 288.118H416.237C415.678 288.118 415.225 288.603 415.225 289.202V295.813C415.225 296.411 415.678 296.897 416.237 296.897H583.362C583.921 296.897 584.374 296.411 584.374 295.813V289.202C584.374 288.603 583.921 288.118 583.362 288.118Z" fill="#E8EAF2"/>
<path opacity="0.2" d="M448.226 321.271H416.237C415.678 321.271 415.225 321.757 415.225 322.355V328.966C415.225 329.565 415.678 330.05 416.237 330.05H448.226C448.785 330.05 449.239 329.565 449.239 328.966V322.355C449.239 321.757 448.785 321.271 448.226 321.271Z" fill="#6C63FF"/>
<path d="M583.362 337.854H416.237C415.678 337.854 415.225 338.339 415.225 338.938V345.549C415.225 346.147 415.678 346.633 416.237 346.633H583.362C583.921 346.633 584.374 346.147 584.374 345.549V338.938C584.374 338.339 583.921 337.854 583.362 337.854Z" fill="#E8EAF2"/>
<path d="M583.362 354.431H416.237C415.678 354.431 415.225 354.916 415.225 355.514V362.126C415.225 362.724 415.678 363.209 416.237 363.209H583.362C583.921 363.209 584.374 362.724 584.374 362.126V355.514C584.374 354.916 583.921 354.431 583.362 354.431Z" fill="#E8EAF2"/>
<path opacity="0.2" d="M448.226 387.59H416.237C415.678 387.59 415.225 388.075 415.225 388.674V395.285C415.225 395.884 415.678 396.369 416.237 396.369H448.226C448.785 396.369 449.239 395.884 449.239 395.285V388.674C449.239 388.075 448.785 387.59 448.226 387.59Z" fill="#6C63FF"/>
<path d="M583.362 404.167H416.237C415.678 404.167 415.225 404.652 415.225 405.251V411.862C415.225 412.46 415.678 412.946 416.237 412.946H583.362C583.921 412.946 584.374 412.46 584.374 411.862V405.251C584.374 404.652 583.921 404.167 583.362 404.167Z" fill="#E8EAF2"/>
<path d="M583.362 420.744H416.237C415.678 420.744 415.225 421.229 415.225 421.827V428.439C415.225 429.037 415.678 429.522 416.237 429.522H583.362C583.921 429.522 584.374 429.037 584.374 428.439V421.827C584.374 421.229 583.921 420.744 583.362 420.744Z" fill="#E8EAF2"/>
<path d="M580.935 453.903H548.946C548.387 453.903 547.934 454.388 547.934 454.987V461.598C547.934 462.196 548.387 462.682 548.946 462.682H580.935C581.495 462.682 581.948 462.196 581.948 461.598V454.987C581.948 454.388 581.495 453.903 580.935 453.903Z" fill="#009FFC"/>
<path d="M373.83 363.209H341.841C341.281 363.209 340.828 363.695 340.828 364.293V370.904C340.828 371.503 341.281 371.988 341.841 371.988H373.83C374.389 371.988 374.842 371.503 374.842 370.904V364.293C374.842 363.695 374.389 363.209 373.83 363.209Z" fill="#009FFC"/>
<path d="M353.801 379.465C354.306 380.205 354.911 380.86 355.596 381.409C356.046 381.805 356.501 382.206 356.978 382.556L357.396 382.854C357.379 382.879 357.365 382.906 357.353 382.934C357.24 383.152 357.197 383.404 357.23 383.651C357.332 383.949 357.52 384.206 357.765 384.385C358.88 385.493 359.632 386.957 359.908 388.559C360.074 389.488 359.49 390.48 359.528 391.426C359.612 392.351 359.842 393.255 360.208 394.098C360.936 396.088 361.713 398.146 363.175 399.597C363.52 402.792 364.67 405.826 366.502 408.376C368.039 410.486 370.091 412.074 372.11 413.639C372.75 414.188 373.448 414.656 374.189 415.033C374.854 415.293 375.541 415.485 376.24 415.606C382.171 416.894 388.194 417.634 394.243 417.819C394.415 421.673 394.488 425.53 394.463 429.39C394.496 430.025 394.412 430.66 394.217 431.26C393.917 431.824 393.557 432.349 393.145 432.825C391.758 434.798 391.688 437.464 391.806 439.929C391.942 442.815 392.255 445.689 392.744 448.53C393.37 452.166 392.797 456.185 394.002 459.643C394.479 461.007 394.956 462.378 395.427 463.742C395.587 464.125 395.683 464.534 395.711 464.952C395.711 465.853 395.176 466.615 394.747 467.395C394.152 468.529 393.863 469.817 393.911 471.116C393.906 471.263 393.942 471.409 394.013 471.535C394.168 471.758 394.485 471.741 394.747 471.695C395.813 471.532 396.885 471.427 397.961 471.38C397.764 471.637 397.585 471.91 397.425 472.194C397.168 472.676 396.941 473.176 396.745 473.691C396.36 474.549 396.057 475.446 395.84 476.369C395.801 476.502 395.77 476.638 395.749 476.776C395.69 477.051 395.636 477.349 395.593 477.607C395.364 479.235 395.271 480.881 395.315 482.527C395.165 485.594 395.02 488.794 394.742 489.734C394.351 491.059 394.838 493.175 395.32 495.199C395.345 496.595 395.581 497.977 396.017 499.293C396.055 500.744 396.211 502.188 396.483 503.61C398.136 513.591 399.9 523.555 401.775 533.501C401.941 534.362 402.102 535.222 402.31 536.07C403.007 538.835 404.227 541.417 405.894 543.656C407.36 545.641 408.617 547.793 409.644 550.072C409.536 550.611 409.424 551.156 409.301 551.695C408.229 556.454 406.858 561.145 406.371 566.03C406.178 567.968 406.124 569.964 405.407 571.764C405.042 572.676 404.507 573.541 404.432 574.533C404.389 575.161 404.527 575.788 404.828 576.328L404.474 576.638L404.276 576.81C402.916 577.957 401.095 578.203 399.418 578.673C397.741 579.144 395.942 580.084 395.422 581.867C395.388 581.978 395.361 582.091 395.342 582.205C395.036 583.845 395.963 585.588 397.27 586.552C398.663 587.578 400.398 587.894 402.091 588.129C403.784 588.364 405.498 588.53 407.014 589.338C408.326 590.032 409.429 591.173 410.817 591.678L411.068 591.752C410.752 591.953 410.442 592.148 410.115 592.326C408.678 593.121 407.126 593.651 405.524 593.891C403.917 594.126 401.978 594.241 401.148 595.749C400.468 596.993 400.961 598.679 401.941 599.665C402.921 600.651 404.282 601.087 405.594 601.385C408.599 602.016 411.642 602.42 414.7 602.595L417.668 602.842C420.566 603.077 423.469 603.318 426.383 603.329C429.975 603.342 433.56 603.008 437.096 602.332C437.236 602.344 437.376 602.323 437.507 602.268C437.638 602.213 437.755 602.127 437.85 602.017C437.945 601.906 438.014 601.773 438.053 601.629C438.093 601.485 438.101 601.333 438.076 601.185C438.013 597.289 437.571 593.411 436.758 589.614C436.512 588.467 435.06 590.032 434.252 591.013C434.139 590.439 434.021 589.866 433.882 589.333L434.519 589.012C435.006 588.813 435.417 588.445 435.687 587.968C435.817 587.583 435.859 587.17 435.81 586.764C435.693 584.264 435.548 581.672 434.439 579.476C433.716 578.162 432.813 576.972 431.761 575.944C431.508 568.081 430.612 560.257 429.083 552.561C428.263 548.645 427.245 544.683 425.129 541.368C424.862 540.956 424.594 540.543 424.288 540.124C424.06 536.357 423.634 532.607 423.014 528.891C422.89 528.401 422.89 527.885 423.014 527.395C423.216 526.974 423.476 526.587 423.785 526.248C425.06 524.488 424.54 521.988 424.39 519.763C424.181 516.575 424.883 513.404 425.585 510.29L428.172 498.771C428.383 497.679 428.688 496.61 429.083 495.577C429.763 494.178 430.542 492.836 431.413 491.563C433.829 487.488 434.966 482.693 434.659 477.877C435.152 478.066 435.639 478.255 436.121 478.45C436.485 475.233 435.216 471.569 436.121 468.559C437.68 467.344 438.937 465.74 439.785 463.886C440.497 462.166 440.696 460.273 441.44 458.588C441.858 457.636 442.447 456.764 442.694 455.721C443.058 454.195 442.597 452.59 442.619 451.013C442.667 447.573 444.986 444.402 444.488 441.019C444.247 439.413 443.374 437.917 443.417 436.288C443.489 435.405 443.697 434.541 444.033 433.731C445.8 428.737 447.531 423.41 446.631 418.163C446.4 416.816 445.993 415.48 446.063 414.115C446.138 412.55 446.829 411.03 446.598 409.477C446.512 408.886 446.289 408.329 445.95 407.854C446.582 406.815 447.12 405.715 447.557 404.568C447.847 403.911 447.992 403.191 447.98 402.464C447.919 401.969 447.765 401.493 447.527 401.063C447.29 400.634 446.974 400.26 446.598 399.964C445.843 399.385 445.035 398.888 444.188 398.479C443.922 398.352 443.684 398.169 443.486 397.94C443.335 397.681 443.203 397.411 443.09 397.131C442.619 396.254 441.59 395.985 440.787 395.451C437.867 393.542 438.146 388.628 435.655 386.117C434.807 385.303 433.725 384.824 432.588 384.76C431.451 384.695 430.328 385.048 429.404 385.761C429.169 386.018 428.859 386.182 428.525 386.225C428.203 386.156 427.907 385.986 427.674 385.738C427.054 385.291 426.315 385.072 425.569 385.113C425.111 383.157 424.912 381.142 424.979 379.127H425.204C425.499 379.137 425.793 379.1 426.078 379.018C427.358 378.622 428.086 377.2 428.611 375.881C429.064 374.766 429.44 373.616 429.736 372.441C429.763 372.326 429.784 372.217 429.811 372.103C432.264 373.949 435.114 375.881 435.8 375.474C437.053 374.735 430.175 369.494 430.175 369.494C430.984 368.725 431.434 367.338 431.638 366.111C432.124 363.673 432.142 361.154 431.691 358.708C431.156 356.294 429.8 353.995 427.743 352.865C426.833 352.361 425.729 352.017 425.065 351.243C424.964 351.128 424.876 351.001 424.803 350.864C424.766 350.799 424.732 350.732 424.701 350.664C424.631 350.45 424.533 350.247 424.412 350.062C424.037 349.591 423.34 349.735 422.805 349.809H422.617H422.467H422.312C420.271 349.855 418.294 348.634 416.232 348.634C413.972 348.634 412.043 350.039 410.056 351.002C409.654 351.197 409.274 351.375 408.915 351.575C407.667 352.2 406.687 352.86 406.06 354.362C405.664 354.86 405.38 355.448 405.23 356.082C405.168 356.372 405.132 356.668 405.123 356.965C403.407 358.783 402.171 361.055 401.541 363.549C400.91 366.044 400.907 368.673 401.532 371.169C402.157 373.665 403.388 375.94 405.099 377.762C406.811 379.585 408.942 380.891 411.277 381.547C411.326 381.69 411.379 381.833 411.422 381.982C411.831 383.3 412.032 384.682 412.017 386.071C412.017 386.168 412.017 386.266 412.017 386.369C410.977 386.632 409.981 387.065 409.065 387.653C407.896 388.393 407.012 389.553 406.569 390.927C406.542 391.036 406.515 391.139 406.494 391.237C405.767 390.981 405.009 390.842 404.244 390.824C403.899 390.772 403.548 390.8 403.214 390.907C402.88 391.014 402.572 391.197 402.31 391.443C402.135 391.676 402.01 391.949 401.946 392.24C401.684 392.498 401.636 392.951 401.448 393.295C400.875 394.373 399.38 394.018 398.234 394.316C397.013 394.637 396.049 395.864 394.795 395.87C394.317 395.791 393.831 395.772 393.349 395.813C392.878 395.939 392.508 396.633 392.867 396.959C392.585 396.928 392.301 396.981 392.045 397.113C391.79 397.245 391.574 397.449 391.421 397.705C391.072 398.186 390.847 398.76 390.462 399.213C390.297 398.966 390.068 398.775 389.804 398.665C389.539 398.555 389.25 398.53 388.973 398.594C388.418 398.724 387.886 398.949 387.398 399.259C387.18 399.383 386.945 399.471 386.701 399.517C386.417 399.536 386.132 399.509 385.855 399.436C384.51 399.196 383.128 399.396 381.891 400.01C380.82 400.583 379.749 399.545 378.549 399.465C378.109 399.491 377.676 399.346 377.327 399.058C377.102 398.757 376.944 398.403 376.867 398.026C376.597 397.198 376.133 396.458 375.52 395.877C374.906 395.295 374.164 394.892 373.364 394.706C373.676 393.651 373.602 392.508 373.158 391.509C372.713 390.509 371.931 389.728 370.969 389.322C371.047 388.565 370.951 387.8 370.69 387.093C370.429 386.385 370.01 385.757 369.469 385.262C369.205 385.073 368.954 384.862 368.719 384.631C368.401 384.229 368.164 383.761 368.023 383.255C367.666 382.254 367.309 381.25 366.952 380.245C366.486 380.142 366.116 379.935 365.672 379.855C365.672 379.752 365.672 379.649 365.672 379.545C365.658 378.516 365.495 377.494 365.19 376.518C364.643 374.933 363.878 373.444 362.918 372.103C361.906 370.583 360.776 369.092 359.271 368.175C358.767 367.887 358.249 367.63 357.717 367.407L354.98 366.197C354.823 366.118 354.654 366.071 354.482 366.059C353.743 366.059 353.609 367.275 354.026 367.928C354.862 369.242 356.737 369.609 357.267 371.099C356.822 371.116 356.393 371.283 356.042 371.576C355.69 371.87 355.435 372.275 355.312 372.734C355.291 372.976 355.2 373.205 355.05 373.387C354.809 373.599 354.428 373.479 354.155 373.639C353.668 373.915 353.882 374.695 353.828 375.285C353.71 375.797 353.544 376.295 353.33 376.77C353.215 377.228 353.197 377.709 353.279 378.175C353.361 378.642 353.539 379.083 353.801 379.465ZM419.419 584.895L419.355 583.989C419.414 584.149 419.468 584.316 419.526 584.476C420.009 585.829 420.544 587.167 421.133 588.49L421.032 588.438C420.617 588.234 420.177 588.099 419.725 588.037C419.607 588.037 419.484 588.008 419.36 588.002C419.519 586.975 419.539 585.928 419.419 584.895Z" fill="url(#paint0_linear)"/>
<path d="M412 387.24C411.947 389.379 411.272 391.455 411.165 393.588C417.057 393.903 422.858 390.847 428.681 391.782C427.074 390.635 426.185 388.622 425.67 386.621C425.017 384.039 424.823 381.349 425.097 378.691C425.112 378.543 425.135 378.395 425.167 378.25C425.386 377.206 425.944 375.727 425.794 374.901C425.595 373.811 424.637 374.029 423.774 374.092C421.14 374.304 418.519 374.666 415.921 375.176C415.241 375.302 408.647 377.063 408.551 376.896C409.707 378.886 410.663 381 411.406 383.204C411.811 384.505 412.012 385.869 412 387.24Z" fill="#EE8E9E"/>
<path d="M353.801 380.629C354.304 381.37 354.909 382.026 355.595 382.573C356.045 382.963 356.501 383.364 356.977 383.72C357.833 384.423 358.852 384.865 359.923 384.998C361.322 385.101 364.3 384.218 365.173 382.934C365.538 382.288 365.712 381.538 365.671 380.784C365.657 379.76 365.494 378.744 365.189 377.774C364.642 376.194 363.877 374.711 362.918 373.376C361.905 371.868 360.775 370.382 359.27 369.471C358.768 369.182 358.249 368.927 357.717 368.708L354.979 367.493C354.823 367.413 354.654 367.367 354.481 367.355C353.742 367.355 353.608 368.565 354.026 369.213C354.862 370.52 356.736 370.887 357.267 372.372C356.822 372.384 356.392 372.549 356.041 372.84C355.689 373.132 355.433 373.537 355.312 373.995C355.291 374.237 355.199 374.466 355.049 374.649C354.808 374.855 354.428 374.74 354.154 374.895C353.667 375.17 353.881 375.95 353.828 376.535C353.708 377.045 353.541 377.54 353.33 378.014C353.223 378.46 353.209 378.926 353.291 379.378C353.372 379.83 353.547 380.258 353.801 380.629Z" fill="#EE8E9E"/>
<path d="M434.952 595.13C434.497 594.648 433.758 594.728 433.126 594.837C429.72 595.405 426.278 595.694 422.831 595.703C422.402 593.455 423.65 591.265 424.052 589.012C424.107 588.42 424.245 587.84 424.459 587.291C424.946 586.294 426.066 585.841 427.062 585.611C428.91 585.193 431.803 584.465 432.837 586.454C434.074 588.88 434.47 592.429 434.952 595.13Z" fill="#65617D"/>
<path d="M397.313 586.603C398.706 587.624 400.441 587.939 402.134 588.174C403.827 588.41 405.541 588.576 407.057 589.373C408.369 590.067 409.472 591.202 410.86 591.701C412.151 592.082 413.511 592.106 414.813 591.77C416.372 591.454 418.027 590.846 418.873 589.407C419.623 588.123 419.543 586.5 419.441 584.992C419.318 583.272 419.205 581.552 419.087 579.872C419.09 579.438 418.987 579.011 418.787 578.633C417.663 576.873 414.92 579.367 413.431 579.367C411.106 579.367 408.61 578.014 406.933 576.363C406.786 576.2 406.616 576.063 406.43 575.955C405.766 575.64 405.107 576.225 404.518 576.741L404.319 576.913C402.959 578.06 401.138 578.301 399.461 578.765C397.784 579.23 395.985 580.17 395.465 581.942C395.431 582.054 395.404 582.169 395.385 582.286C395.079 583.914 396.006 585.652 397.313 586.603Z" fill="#3F3D56"/>
<path opacity="0.05" d="M397.313 586.603C398.706 587.624 400.441 587.939 402.134 588.174C403.827 588.41 405.541 588.576 407.057 589.373C408.369 590.067 409.472 591.202 410.86 591.701C412.151 592.082 413.511 592.106 414.813 591.77C416.372 591.454 418.027 590.846 418.873 589.407C419.623 588.123 419.543 586.5 419.441 584.992C419.318 583.272 419.205 581.552 419.087 579.872C419.09 579.438 418.987 579.011 418.787 578.633C417.663 576.873 414.92 579.367 413.431 579.367C411.106 579.367 408.61 578.014 406.933 576.363C406.786 576.2 406.616 576.063 406.43 575.955C405.766 575.64 405.107 576.225 404.518 576.741L404.319 576.913C402.959 578.06 401.138 578.301 399.461 578.765C397.784 579.23 395.985 580.17 395.465 581.942C395.431 582.054 395.404 582.169 395.385 582.286C395.079 583.914 396.006 585.652 397.313 586.603Z" fill="black"/>
<path d="M397.313 587.177C398.706 588.197 400.441 588.513 402.134 588.748C403.827 588.983 405.541 589.149 407.057 589.946C408.369 590.64 409.472 591.775 410.86 592.274C412.151 592.655 413.511 592.679 414.813 592.343C416.471 591.966 417.927 590.913 418.873 589.407C419.623 588.123 419.543 586.5 419.441 584.992C419.318 583.272 419.205 581.552 419.087 579.872C419.09 579.438 418.987 579.011 418.787 578.633C417.663 576.873 414.92 579.367 413.431 579.367C411.106 579.367 408.61 578.014 406.933 576.363C406.786 576.2 406.616 576.063 406.43 575.955C405.766 575.64 405.107 576.225 404.518 576.741C404.899 578.017 405.439 579.232 406.125 580.353C406.686 581.298 407.437 582.096 408.323 582.692C409.208 583.287 410.207 583.663 411.245 583.794C412.285 583.874 413.351 583.656 414.358 583.943C415.365 584.229 416.297 585.33 415.965 586.374C415.632 587.418 414.384 587.618 413.372 587.676C411.959 587.849 410.527 587.74 409.151 587.354C408.326 587.062 407.544 586.575 406.773 586.208C403.361 584.7 399.059 585.543 396.247 582.991C395.98 582.729 395.691 582.492 395.385 582.286C394.645 583.937 396.006 586.225 397.313 587.177Z" fill="#E8EAF2"/>
<path opacity="0.05" d="M397.313 587.177C398.706 588.197 400.441 588.513 402.134 588.748C403.827 588.983 405.541 589.149 407.057 589.946C408.369 590.64 409.472 591.775 410.86 592.274C412.151 592.655 413.511 592.679 414.813 592.343C416.471 591.966 417.927 590.913 418.873 589.407C419.623 588.123 419.543 586.5 419.441 584.992C419.318 583.272 419.205 581.552 419.087 579.872C419.09 579.438 418.987 579.011 418.787 578.633C417.663 576.873 414.92 579.367 413.431 579.367C411.106 579.367 408.61 578.014 406.933 576.363C406.786 576.2 406.616 576.063 406.43 575.955C405.766 575.64 405.107 576.225 404.518 576.741C404.899 578.017 405.439 579.232 406.125 580.353C406.686 581.298 407.437 582.096 408.323 582.692C409.208 583.287 410.207 583.663 411.245 583.794C412.285 583.874 413.351 583.656 414.358 583.943C415.365 584.229 416.297 585.33 415.965 586.374C415.632 587.418 414.384 587.618 413.372 587.676C411.959 587.849 410.527 587.74 409.151 587.354C408.326 587.062 407.544 586.575 406.773 586.208C403.361 584.7 399.059 585.543 396.247 582.991C395.98 582.729 395.691 582.492 395.385 582.286C394.645 583.937 396.006 586.225 397.313 587.177Z" fill="black"/>
<path d="M434.288 475.566C435.373 481.272 434.342 487.207 431.411 492.114C430.54 493.386 429.761 494.728 429.081 496.128C428.687 497.154 428.382 498.218 428.171 499.304L425.583 510.772C424.882 513.869 424.18 517.022 424.389 520.193C424.539 522.406 425.058 524.895 423.784 526.644C423.476 526.984 423.216 527.37 423.012 527.79C422.889 528.279 422.889 528.793 423.012 529.281C424.319 537.601 425.289 546.3 422.927 554.35C420.784 561.649 420.661 569.734 418.839 577.125C418.691 578.065 418.3 578.941 417.709 579.654C417.221 580.09 416.636 580.386 416.011 580.514C413.333 581.202 410.494 580.399 407.976 579.155C406.219 578.283 404.323 576.753 404.473 574.683C404.548 573.702 405.084 572.836 405.448 571.93C406.166 570.153 406.219 568.163 406.412 566.236C406.9 561.403 408.292 556.73 409.342 551.999C410.392 547.269 411.11 542.326 410.221 537.555C408.402 527.689 405.487 518.091 401.538 508.966C401.367 508.481 401.096 508.044 400.745 507.687C400.341 507.436 399.958 507.148 399.599 506.827C399.317 506.378 399.134 505.866 399.063 505.331C398.672 503.823 397.51 502.71 396.728 501.38C394.756 498.031 395.383 493.742 395.458 489.786C395.528 485.944 395.008 482.062 395.597 478.267C396.187 474.471 398.217 470.589 401.634 469.402C403.327 468.828 405.159 468.949 406.932 469.132C416.359 470.13 425.476 471.953 434.288 475.566Z" fill="#303D5C"/>
<path opacity="0.05" d="M434.288 475.566C435.373 481.272 434.342 487.207 431.411 492.114C430.54 493.386 429.761 494.728 429.081 496.128C428.687 497.154 428.382 498.218 428.171 499.304L425.583 510.772C424.882 513.869 424.18 517.022 424.389 520.193C424.539 522.406 425.058 524.895 423.784 526.644C423.476 526.984 423.216 527.37 423.012 527.79C422.889 528.279 422.889 528.793 423.012 529.281C424.319 537.601 425.289 546.3 422.927 554.35C420.784 561.649 420.661 569.734 418.839 577.125C418.691 578.065 418.3 578.941 417.709 579.654C417.221 580.09 416.636 580.386 416.011 580.514C413.333 581.202 410.494 580.399 407.976 579.155C406.219 578.283 404.323 576.753 404.473 574.683C404.548 573.702 405.084 572.836 405.448 571.93C406.166 570.153 406.219 568.163 406.412 566.236C406.9 561.403 408.292 556.73 409.342 551.999C410.392 547.269 411.11 542.326 410.221 537.555C408.402 527.689 405.487 518.091 401.538 508.966C401.367 508.481 401.096 508.044 400.745 507.687C400.341 507.436 399.958 507.148 399.599 506.827C399.317 506.378 399.134 505.866 399.063 505.331C398.672 503.823 397.51 502.71 396.728 501.38C394.756 498.031 395.383 493.742 395.458 489.786C395.528 485.944 395.008 482.062 395.597 478.267C396.187 474.471 398.217 470.589 401.634 469.402C403.327 468.828 405.159 468.949 406.932 469.132C416.359 470.13 425.476 471.953 434.288 475.566Z" fill="black"/>
<path d="M396.059 499.683C396.09 501.178 396.248 502.667 396.53 504.132C398.183 514.071 399.947 523.981 401.822 533.863C401.988 534.723 402.149 535.583 402.358 536.42C403.054 539.173 404.274 541.742 405.941 543.966C413.741 554.373 414.415 569.482 418.642 582.033C418.931 582.882 419.215 583.754 419.52 584.574C420.284 586.7 421.155 588.781 422.129 590.806C422.243 591.101 422.427 591.358 422.665 591.552C422.929 591.69 423.223 591.749 423.516 591.724C427.323 591.748 431.084 590.834 434.508 589.052C434.994 588.855 435.406 588.49 435.676 588.014C435.805 587.631 435.847 587.22 435.799 586.815C435.681 584.327 435.536 581.752 434.428 579.562C433.703 578.256 432.8 577.074 431.749 576.053C431.497 568.231 430.601 560.449 429.071 552.796C428.251 548.897 427.234 544.958 425.118 541.661C423.559 539.23 421.32 536.827 421.593 533.891C421.716 532.601 422.22 530.996 421.24 530.239C420.811 529.906 420.168 529.866 419.89 529.39C419.772 529.168 419.708 528.918 419.702 528.662C419.5 526.649 419.616 524.613 420.045 522.641C420.404 521.353 420.685 520.041 420.886 518.714C420.982 518.048 420.95 517.368 420.791 516.717C420.633 516.065 420.352 515.455 419.965 514.923C419.911 512.24 419.965 509.459 419.933 506.781C419.833 505.257 419.95 503.726 420.281 502.24C420.474 501.54 420.763 500.87 420.908 500.153C421.443 497.578 420.126 494.493 421.679 492.452C422.327 491.609 423.329 491.185 424.175 490.571C425.839 489.275 427.047 487.417 427.603 485.296C428.152 483.19 428.478 481.024 428.573 478.84C428.618 478.377 428.618 477.91 428.573 477.447C428.543 477.208 428.484 476.975 428.396 476.753C427.914 475.606 426.612 475.136 425.455 474.838C418.104 472.952 410.57 472.009 403.011 472.028C400.215 469.992 398.64 470.721 397.457 472.882C396.801 474.198 396.272 475.581 395.876 477.011C395.341 478.765 395.303 488.565 394.773 490.325C394.103 492.613 396.085 497.286 396.059 499.683Z" fill="#303D5C"/>
<path d="M446.619 410.497C446.823 412.04 446.132 413.553 446.083 415.084C446.014 416.449 446.421 417.773 446.651 419.098C447.551 424.322 445.821 429.614 444.053 434.58C443.718 435.386 443.51 436.246 443.437 437.126C443.389 438.748 444.262 440.233 444.509 441.833C445.007 445.199 442.687 448.364 442.639 451.77C442.639 453.341 443.078 454.935 442.714 456.455C442.38 457.439 441.96 458.387 441.461 459.287C440.716 460.961 440.518 462.865 439.805 464.557C438.525 467.619 435.772 469.614 433.147 471.437C431.658 470.904 430.046 470.291 429.226 468.84C428.865 468.128 428.633 467.35 428.541 466.546C427.973 463.06 428.005 459.499 428.005 455.961C427.956 452.919 428.107 449.876 428.455 446.856C428.991 443.008 430.153 439.304 430.989 435.526C432.06 430.755 432.596 425.83 434.202 421.254C435.643 417.24 437.893 413.628 440.255 410.176C441.161 408.857 441.862 406.971 443.625 407.275C444.374 407.414 445.064 407.799 445.601 408.376C446.137 408.953 446.493 409.694 446.619 410.497Z" fill="#3F3D56"/>
<path opacity="0.05" d="M446.619 410.497C446.823 412.04 446.132 413.553 446.083 415.084C446.014 416.449 446.421 417.773 446.651 419.098C447.551 424.322 445.821 429.614 444.053 434.58C443.718 435.386 443.51 436.246 443.437 437.126C443.389 438.748 444.262 440.233 444.509 441.833C445.007 445.199 442.687 448.364 442.639 451.77C442.639 453.341 443.078 454.935 442.714 456.455C442.38 457.439 441.96 458.387 441.461 459.287C440.716 460.961 440.518 462.865 439.805 464.557C438.525 467.619 435.772 469.614 433.147 471.437C431.658 470.904 430.046 470.291 429.226 468.84C428.865 468.128 428.633 467.35 428.541 466.546C427.973 463.06 428.005 459.499 428.005 455.961C427.956 452.919 428.107 449.876 428.455 446.856C428.991 443.008 430.153 439.304 430.989 435.526C432.06 430.755 432.596 425.83 434.202 421.254C435.643 417.24 437.893 413.628 440.255 410.176C441.161 408.857 441.862 406.971 443.625 407.275C444.374 407.414 445.064 407.799 445.601 408.376C446.137 408.953 446.493 409.694 446.619 410.497Z" fill="black"/>
<path opacity="0.1" d="M408.551 376.873C409.707 378.863 410.663 380.977 411.406 383.181C412.466 383.46 413.554 383.601 414.647 383.599C418.889 383.599 421.894 381.019 424.385 377.756C424.599 376.707 425.944 375.732 425.794 374.889C425.595 373.8 424.637 374.018 423.774 374.081C421.14 374.293 418.519 374.654 415.921 375.165C415.241 375.297 408.647 377.057 408.551 376.873Z" fill="black"/>
<path d="M414.646 383.198C422.152 383.198 428.236 376.685 428.236 368.651C428.236 360.617 422.152 354.104 414.646 354.104C407.141 354.104 401.057 360.617 401.057 368.651C401.057 376.685 407.141 383.198 414.646 383.198Z" fill="#EE8E9E"/>
<path opacity="0.1" d="M397.457 472.882C399.809 472.733 402.176 472.831 404.538 472.934C406.015 472.951 407.487 473.112 408.936 473.416C410.72 473.851 412.391 474.723 414.148 475.268C416.971 476.145 419.944 476.185 422.863 476.489C424.782 476.691 426.689 477.01 428.573 477.447C428.543 477.208 428.484 476.975 428.397 476.753C427.914 475.606 426.613 475.136 425.456 474.838C418.105 472.952 410.571 472.009 403.012 472.028C400.232 469.992 398.657 470.703 397.457 472.882Z" fill="black"/>
<path d="M406.734 392.464C407.329 393.198 408.121 394.006 409 393.771C409.318 393.652 409.616 393.48 409.884 393.261C411.448 392.183 413.371 391.931 415.214 391.633C418.93 391.031 422.601 390.148 426.2 388.989C427.243 388.582 428.337 388.345 429.446 388.284C431.749 388.284 433.79 389.935 435.236 391.856C436.683 393.777 437.7 396.025 439.12 397.969C440.127 399.356 441.327 400.577 442.27 402.017C444.653 405.646 445.162 410.382 444.546 414.769C443.93 419.155 442.296 423.29 440.673 427.384C439.809 429.755 438.751 432.04 437.513 434.213C438.049 437.544 437.77 441.357 436.292 444.345C435.81 445.319 435.22 446.265 435.06 447.355C434.986 448.091 435.015 448.835 435.145 449.562L435.836 454.832C436.045 456.437 436.254 458.043 436.527 459.631C437.025 462.55 437.706 465.715 436.442 468.353C434.931 471.512 436.522 475.56 436.12 479.086C431.869 477.327 427.415 476.195 422.879 475.721C419.96 475.411 416.987 475.371 414.164 474.494C412.407 473.92 410.736 473.077 408.952 472.641C407.503 472.338 406.031 472.176 404.554 472.16C401.297 472.022 398.019 471.879 394.794 472.395C394.532 472.435 394.216 472.458 394.061 472.234C393.99 472.11 393.954 471.967 393.959 471.822C393.911 470.528 394.2 469.245 394.794 468.117C395.207 467.343 395.775 466.581 395.759 465.686C395.73 465.27 395.634 464.863 395.475 464.482L394.05 460.382C392.845 456.942 393.418 452.928 392.791 449.327C392.302 446.501 391.989 443.643 391.854 440.772C391.736 438.318 391.805 435.663 393.193 433.702C393.606 433.231 393.965 432.71 394.264 432.148C394.459 431.552 394.543 430.921 394.51 430.291C394.543 425.382 394.418 420.476 394.136 415.572C395.341 413.278 396.594 410.881 397.805 408.565C399.208 405.864 400.628 403.112 401.195 400.084C401.57 398.077 401.56 396.019 401.828 393.995C401.817 393.675 401.877 393.357 402.002 393.066C402.128 392.775 402.315 392.52 402.55 392.321C402.785 392.123 403.06 391.986 403.353 391.922C403.646 391.858 403.949 391.869 404.238 391.954C405.089 391.988 405.931 392.16 406.734 392.464Z" fill="#3F3D56"/>
<path opacity="0.1" d="M356.977 383.725C357.833 384.429 358.851 384.871 359.923 385.004C361.321 385.107 364.299 384.224 365.172 382.94C365.537 382.294 365.711 381.544 365.67 380.79C365.482 380.722 365.285 380.681 365.086 380.669C363.567 380.484 362.029 380.55 360.528 380.864C359.774 381.026 359.064 381.368 358.451 381.864C357.838 382.361 357.338 382.999 356.987 383.731C356.987 383.731 356.982 383.72 356.977 383.725Z" fill="black"/>
<path d="M402.197 415.187C401.367 416.288 400.504 417.424 399.331 418.054C397.981 418.806 396.391 418.823 394.869 418.788C388.607 418.645 382.37 417.91 376.229 416.592C375.53 416.468 374.843 416.276 374.177 416.019C373.438 415.642 372.74 415.176 372.099 414.631C370.079 413.077 368.028 411.489 366.49 409.39C364.666 406.862 363.52 403.849 363.175 400.675C361.712 399.23 360.936 397.183 360.207 395.205C359.842 394.365 359.612 393.466 359.527 392.544C359.489 391.604 360.062 390.618 359.907 389.677C359.628 388.083 358.877 386.627 357.764 385.526C357.518 385.35 357.33 385.095 357.229 384.798C357.197 384.553 357.24 384.303 357.352 384.087C357.704 383.356 358.205 382.719 358.818 382.223C359.431 381.726 360.14 381.384 360.893 381.22C362.396 380.908 363.935 380.842 365.456 381.025C365.962 381.127 366.46 381.269 366.946 381.449L368.017 384.442C368.158 384.946 368.395 385.412 368.713 385.813C368.948 386.043 369.198 386.254 369.463 386.443C370 386.931 370.417 387.551 370.679 388.251C370.94 388.95 371.038 389.708 370.963 390.457C371.924 390.856 372.706 391.632 373.151 392.627C373.596 393.622 373.67 394.761 373.357 395.812C374.156 395.996 374.898 396.396 375.511 396.975C376.125 397.553 376.589 398.29 376.861 399.115C376.938 399.491 377.095 399.842 377.321 400.142C377.671 400.428 378.103 400.572 378.543 400.549C379.742 400.623 380.792 401.638 381.885 401.088C383.122 400.474 384.504 400.274 385.849 400.514C386.126 400.581 386.411 400.608 386.695 400.595C386.939 400.548 387.174 400.461 387.392 400.337C387.881 400.029 388.413 399.805 388.966 399.671C389.244 399.61 389.532 399.635 389.797 399.745C390.061 399.855 390.29 400.045 390.455 400.291C390.841 399.843 391.066 399.27 391.414 398.788C391.569 398.535 391.785 398.331 392.04 398.201C392.295 398.07 392.579 398.018 392.861 398.049C392.502 397.705 392.861 397.017 393.343 396.902C393.825 396.864 394.31 396.883 394.789 396.959C396.042 396.959 397.007 395.732 398.228 395.411C399.353 395.119 400.847 395.468 401.442 394.396C401.645 394.018 401.688 393.502 402.036 393.249C402.27 393.124 402.538 393.092 402.792 393.158C403.59 393.266 404.365 393.518 405.084 393.903C406.263 398.829 405.62 403.943 404.747 408.943C404.418 411.226 403.539 413.378 402.197 415.187Z" fill="#3F3D56"/>
<path opacity="0.1" d="M402.23 432.859L408.084 445.474C407.452 444.327 406.118 443.851 405.063 443.106C403.726 442.072 402.717 440.623 402.176 438.955C401.645 437.293 401.275 435.577 401.073 433.834C400.955 433.032 400.703 431.908 401.073 431.185C401.742 431.334 401.956 432.252 402.23 432.859Z" fill="black"/>
<path opacity="0.1" d="M419.071 443.57C420.395 444.97 422.007 445.996 423.464 447.234C426.855 450.101 429.276 454.115 431.638 457.997C432.307 459.013 432.867 460.105 433.309 461.254C433.031 461.506 432.618 461.254 432.345 460.984L427.749 456.661C427.185 456.169 426.671 455.613 426.217 455.004C425.419 453.857 425.065 452.418 424.342 451.214C423.552 450.058 422.61 449.031 421.546 448.163C420.475 447.194 415.654 442.808 416.822 441.099C417.679 441.564 418.375 442.831 419.071 443.57Z" fill="black"/>
<path d="M409.032 388.811C410.539 387.918 412.188 387.335 413.896 387.091C414.909 386.844 415.951 386.765 416.986 386.856C417.945 386.982 418.861 387.378 419.825 387.429C421.175 387.51 422.472 386.925 423.779 386.541C425.086 386.157 426.591 386.013 427.689 386.856C427.922 387.104 428.218 387.274 428.54 387.343C428.874 387.3 429.184 387.136 429.419 386.879C430.344 386.17 431.467 385.82 432.603 385.884C433.739 385.949 434.82 386.425 435.67 387.235C438.161 389.735 437.882 394.62 440.802 396.518C441.605 397.04 442.634 397.315 443.105 398.192C443.223 398.483 443.363 398.763 443.523 399.029C443.719 399.258 443.958 399.44 444.224 399.562C445.073 399.969 445.88 400.467 446.635 401.048C447.01 401.34 447.326 401.711 447.563 402.137C447.801 402.564 447.955 403.038 448.017 403.53C448.028 404.254 447.884 404.97 447.594 405.623C446.163 409.374 443.683 412.559 440.494 414.742C437.306 416.924 433.564 417.997 429.783 417.814C429.112 417.848 428.452 417.627 427.919 417.189C427.64 416.851 427.418 416.463 427.266 416.042C425.889 412.963 423.312 410.686 421.673 407.756C420.698 406.007 420.066 404.058 419.059 402.338C417.517 399.729 415.176 397.802 412.883 395.939C411.592 394.884 410.151 393.777 408.528 393.851C407.082 393.915 406.027 394.001 406.557 392.097C406.991 390.722 407.868 389.557 409.032 388.811Z" fill="#3F3D56"/>
<path opacity="0.05" d="M409.032 388.811C410.539 387.918 412.188 387.335 413.896 387.091C414.909 386.844 415.951 386.765 416.986 386.856C417.945 386.982 418.861 387.378 419.825 387.429C421.175 387.51 422.472 386.925 423.779 386.541C425.086 386.157 426.591 386.013 427.689 386.856C427.922 387.104 428.218 387.274 428.54 387.343C428.874 387.3 429.184 387.136 429.419 386.879C430.344 386.17 431.467 385.82 432.603 385.884C433.739 385.949 434.82 386.425 435.67 387.235C438.161 389.735 437.882 394.62 440.802 396.518C441.605 397.04 442.634 397.315 443.105 398.192C443.223 398.483 443.363 398.763 443.523 399.029C443.719 399.258 443.958 399.44 444.224 399.562C445.073 399.969 445.88 400.467 446.635 401.048C447.01 401.34 447.326 401.711 447.563 402.137C447.801 402.564 447.955 403.038 448.017 403.53C448.028 404.254 447.884 404.97 447.594 405.623C446.163 409.374 443.683 412.559 440.494 414.742C437.306 416.924 433.564 417.997 429.783 417.814C429.112 417.848 428.452 417.627 427.919 417.189C427.64 416.851 427.418 416.463 427.266 416.042C425.889 412.963 423.312 410.686 421.673 407.756C420.698 406.007 420.066 404.058 419.059 402.338C417.517 399.729 415.176 397.802 412.883 395.939C411.592 394.884 410.151 393.777 408.528 393.851C407.082 393.915 406.027 394.001 406.557 392.097C406.991 390.722 407.868 389.557 409.032 388.811Z" fill="black"/>
<path d="M401.955 599.665C402.941 600.651 404.296 601.082 405.609 601.385C408.614 602.014 411.657 602.416 414.715 602.59L417.682 602.83C420.58 603.065 423.483 603.306 426.397 603.318C429.989 603.332 433.575 603 437.111 602.326C437.251 602.341 437.393 602.321 437.524 602.267C437.656 602.213 437.774 602.127 437.87 602.016C437.965 601.904 438.034 601.771 438.073 601.625C438.111 601.48 438.117 601.327 438.091 601.179C438.028 597.304 437.586 593.447 436.773 589.671C436.436 588.117 433.838 591.598 433.72 591.741C433.452 592.147 433.098 592.481 432.688 592.715C432.278 592.949 431.822 593.077 431.358 593.088C428.369 593.26 425.021 591.317 422.642 589.585C422.136 589.181 421.598 588.822 421.036 588.513C420.62 588.313 420.18 588.18 419.729 588.117C418.19 587.962 416.643 588.297 415.283 589.08C413.499 590.027 411.929 591.374 410.162 592.366C408.724 593.158 407.172 593.683 405.571 593.92C403.964 594.161 402.025 594.275 401.195 595.772C400.482 597.01 400.975 598.685 401.955 599.665Z" fill="#3F3D56"/>
<path d="M401.956 600.239C402.941 601.225 404.297 601.655 405.609 601.959C408.614 602.587 411.657 602.99 414.715 603.163L417.683 603.404C420.581 603.639 423.484 603.88 426.398 603.891C429.989 603.905 433.575 603.573 437.111 602.899C437.273 602.893 437.433 602.852 437.579 602.777C437.726 602.702 437.856 602.595 437.963 602.463C438.242 602.067 438.466 601.628 438.627 601.162C438.562 597.291 437.588 593.427 436.773 589.654C436.436 588.1 433.838 591.58 433.72 591.724C433.452 592.13 433.099 592.464 432.688 592.698C432.278 592.932 431.823 593.059 431.358 593.071C428.369 593.243 425.021 591.299 422.643 589.568C422.136 589.163 421.598 588.805 421.036 588.495C420.621 588.296 420.18 588.163 419.729 588.1C420.115 590.393 423.2 593.18 424.791 594.029C428.005 595.749 431.84 594.889 435.434 595.09C435.698 595.077 435.96 595.145 436.19 595.284C436.618 595.588 436.645 596.242 436.634 596.793C436.602 597.71 436.495 598.788 435.75 599.258C435.378 599.447 434.968 599.538 434.556 599.522C425.7 599.935 416.827 599.601 408.019 598.524C406.538 598.422 405.08 598.075 403.697 597.498C402.793 597.048 401.949 596.469 401.19 595.778C400.033 596.718 400.976 599.258 401.956 600.239Z" fill="#E8EAF2"/>
<path d="M409.358 368.49C409.406 369.993 408.448 372.911 411.078 372.097C412.642 371.615 413.086 369.626 415.074 370.067C417.061 370.509 417.516 373.135 418.191 374.849C418.742 376.212 419.593 377.411 420.671 378.343C421.75 379.276 423.023 379.915 424.383 380.205C424.945 380.348 425.53 380.348 426.092 380.205C427.372 379.815 428.101 378.399 428.626 377.086C429.079 375.97 429.455 374.82 429.751 373.645C429.953 372.822 430.089 371.982 430.158 371.134C430.2 370.561 430.2 369.986 430.158 369.414C429.922 365.973 428.101 362.871 425.771 360.514C423.441 358.158 420.618 356.455 417.822 354.781C416.91 354.173 415.924 353.704 414.891 353.387C413.873 353.164 412.828 353.117 411.795 353.25C410.436 353.311 409.1 353.647 407.858 354.242C407.349 354.509 406.881 354.859 406.471 355.279C405.889 355.86 405.472 356.606 405.271 357.43C404.768 359.637 406.08 361.627 407.151 363.376C408.11 364.907 409.289 366.552 409.358 368.49Z" fill="#3F3D56"/>
<path opacity="0.1" d="M365.135 400.778C365.697 399.259 368.054 395.073 367.374 393.628C366.666 394.706 366.063 395.859 365.574 397.068C365.129 398.238 365.494 399.809 365.135 400.778Z" fill="black"/>
<path opacity="0.1" d="M407.098 363.358C406.026 361.61 404.709 359.62 405.212 357.407C405.462 356.435 406 355.576 406.744 354.958C406.572 355.282 406.44 355.629 406.353 355.99C405.85 358.204 407.167 360.193 408.239 361.942C409.192 363.49 410.381 365.142 410.435 367.074C410.488 368.576 409.53 371.501 412.16 370.681C413.724 370.199 414.168 368.209 416.156 368.651C418.143 369.092 418.598 371.713 419.273 373.433C419.824 374.795 420.675 375.994 421.753 376.927C422.832 377.86 424.105 378.499 425.465 378.788C426.025 378.932 426.609 378.932 427.169 378.788C427.462 378.709 427.74 378.573 427.988 378.387C427.59 379.248 426.892 379.907 426.044 380.222C425.484 380.365 424.9 380.365 424.34 380.222C422.981 379.932 421.707 379.293 420.628 378.36C419.55 377.428 418.699 376.229 418.148 374.866C417.473 373.146 417.034 370.537 415.031 370.084C413.027 369.631 412.599 371.632 411.035 372.114C408.405 372.934 409.364 370.01 409.31 368.507C409.24 366.558 408.051 364.907 407.098 363.358Z" fill="black"/>
<path opacity="0.1" d="M406.514 360.371C406.762 360.796 407.032 361.206 407.323 361.598C407.879 362.349 408.501 363.041 409.182 363.662C409.583 364.035 410.001 364.385 410.436 364.712C411.247 365.326 412.101 365.872 412.991 366.346C415.599 367.651 418.316 368.694 421.106 369.459L426.532 371.151C427.202 371.69 428.418 372.665 429.746 373.668C429.948 372.845 430.084 372.005 430.153 371.157C430.195 370.584 430.195 370.009 430.153 369.436C429.917 365.996 428.096 362.894 425.766 360.537C423.436 358.181 420.613 356.478 417.817 354.803C416.905 354.196 415.919 353.727 414.887 353.41C413.868 353.186 412.823 353.14 411.791 353.273C410.432 353.334 409.096 353.67 407.854 354.264C407.344 354.532 406.876 354.882 406.466 355.302C406.16 355.787 405.926 356.319 405.77 356.879C405.438 358.032 405.909 359.31 406.514 360.371Z" fill="black"/>
<path d="M406.515 359.975C406.763 360.403 407.033 360.814 407.324 361.208C407.878 361.959 408.501 362.649 409.183 363.267C409.582 363.642 410.001 363.995 410.436 364.322C411.249 364.93 412.103 365.472 412.991 365.944C415.601 367.248 418.318 368.29 421.106 369.058L426.533 370.75C428.429 372.28 434.766 377.303 435.832 376.678C437.085 375.939 430.207 370.727 430.207 370.727L429.891 370.985C430.898 370.302 431.423 368.731 431.653 367.372C432.14 364.948 432.158 362.442 431.707 360.01C431.171 357.607 429.816 355.319 427.759 354.196C426.849 353.691 425.745 353.353 425.081 352.579C424.98 352.466 424.892 352.341 424.818 352.206C424.781 352.141 424.747 352.074 424.717 352.005C424.646 351.791 424.549 351.589 424.427 351.403C424.052 350.939 423.356 351.082 422.82 351.157H422.633H422.328C420.287 351.203 418.31 350.01 416.248 350.01C413.988 350.01 412.059 351.409 410.072 352.367L408.931 352.94C407.49 353.657 406.408 354.419 405.813 356.461C405.438 357.636 405.91 358.92 406.515 359.975Z" fill="#303D5C"/>
<path opacity="0.1" d="M422.295 351.191C422.215 351.342 422.171 351.511 422.166 351.684C422.167 351.833 422.198 351.98 422.257 352.114C422.316 352.249 422.402 352.368 422.509 352.463C422.759 352.658 423.057 352.772 423.366 352.79C423.588 352.824 423.811 352.843 424.035 352.848C424.336 352.873 424.638 352.818 424.914 352.687C424.968 352.654 425.02 352.618 425.069 352.578C424.968 352.465 424.88 352.34 424.807 352.206C424.759 352.246 424.705 352.234 424.501 352.206C424.139 352.184 423.779 352.119 423.43 352.011C423.283 351.965 423.143 351.893 423.018 351.799C422.834 351.63 422.698 351.41 422.627 351.162L422.295 351.191Z" fill="black"/>
<path opacity="0.1" d="M430.056 370.669C429.767 370.858 429.447 370.985 429.113 371.042C428.694 371.172 428.253 371.204 427.821 371.135C427.389 371.066 426.976 370.897 426.611 370.641" fill="black"/>
<path d="M202.639 420.056C201.739 413.605 196.27 398.565 196.27 398.565C196.174 398.112 196.066 397.67 195.943 397.223C192.06 382.934 186.682 381.667 186.682 381.667L167.43 377.275C167.584 377.384 167.719 377.522 167.827 377.682L167.521 377.733C166.639 376.619 166.056 375.27 165.834 373.829C165.796 373.616 165.764 373.393 165.738 373.169C167.12 371.726 168.198 369.984 168.899 368.059C169.601 366.134 169.91 364.07 169.805 362.007C169.701 359.943 169.185 357.928 168.293 356.095C167.401 354.262 166.154 352.655 164.634 351.38C164.436 351.214 164.232 351.048 164.018 350.893C164.929 349.861 164.955 348.422 164.281 346.988C162.759 343.611 159.46 341.478 156.074 340.44C153.482 339.643 150.67 339.385 148.104 340.256C146.666 340.828 145.272 341.52 143.936 342.326C141.376 343.697 138.58 344.775 136.635 347.022C136.386 347.255 136.191 347.547 136.064 347.874C135.938 348.201 135.884 348.556 135.907 348.909C136.08 349.403 136.324 349.865 136.63 350.279C137.166 351.306 137.037 352.573 136.668 353.72C136.298 354.866 135.741 355.876 135.478 357.022C135.216 358.169 135.318 359.517 136.121 360.337C136.508 360.663 136.91 360.967 137.326 361.248C137.766 361.648 138.152 362.111 138.473 362.624L140.755 365.922C141.823 367.384 142.777 368.94 143.604 370.572C144.094 371.807 144.685 372.993 145.372 374.115C145.594 374.428 145.85 374.713 146.133 374.964L145.908 374.872C146.244 375.223 146.643 375.498 147.081 375.678C147.52 375.858 147.988 375.941 148.457 375.921H148.575C148.747 375.918 148.911 375.847 149.036 375.721V376.168C149.079 377.756 149.068 379.442 148.966 381.025L148.789 380.927C148.525 380.784 148.228 380.726 147.933 380.759C147.638 380.793 147.359 380.917 147.129 381.116L129.393 396.34C129.393 396.34 125.537 401.988 126.078 411.724L122.971 426.334C122.971 426.334 119.082 438.731 122.071 447.584C125.06 456.437 126.79 461.5 126.79 461.5C126.79 461.5 127.99 471.558 129.779 472.395C131.568 473.232 132.35 473.662 132.35 473.662L132.709 476.065C132.709 476.065 132.827 476.3 133.036 476.695C134.343 479.126 139.18 487.704 141.992 486.787C142.343 489.116 142.495 491.475 142.447 493.834L145.227 513.822C145.227 513.822 147.166 519.258 147.049 522.108C146.931 524.958 149.32 528.989 149.32 528.989C147.869 531.827 147.444 535.137 148.125 538.289C149.261 543.599 150.696 568.14 150.696 568.14L152.785 574.086L152.726 581.053C152.553 582.182 152.11 583.245 151.441 584.138C150.096 585.703 150.187 587.509 146.957 589.642C143.727 591.775 141.671 592.584 141.671 595.428C141.666 595.812 141.634 596.196 141.574 596.575C141.274 598.65 140.69 599.774 146.647 600.382C148.751 600.562 150.868 600.285 152.87 599.568C154.872 598.85 156.718 597.707 158.297 596.208C158.297 596.208 159.331 594.212 164.19 593.409C164.19 593.409 165.845 593.312 165.936 591.747C165.968 591.208 165.936 590.17 165.936 589.034C165.855 586.861 165.663 584.333 165.4 584.206C165.138 584.08 164.511 581.867 164.329 581.076H165.673C165.673 581.076 166.932 571.018 165.673 564.505C164.414 557.991 165.555 553.375 165.555 553.375L165.314 536.173C165.314 536.173 163.643 534.275 164.955 530.921C166.268 527.567 164.955 510.996 164.955 510.996C164.955 510.996 165.438 505.055 166.809 503.662C168.18 502.269 166.878 494.952 166.809 494.568L169.257 503.347C169.257 503.347 170.328 520.801 172.605 523.989L173.258 531.89C173.258 531.89 177.918 539.166 177.008 543.088C176.097 547.01 177.967 561.173 177.967 561.173V575.634C177.967 575.634 175.872 581.448 178.802 583.536L180.061 583.484C179.632 583.897 179.327 584.522 178.845 585.055C178.283 585.674 177.967 588.02 177.774 590.038C177.624 591.758 177.576 593.214 177.576 593.214C177.98 593.855 178.511 594.393 179.131 594.79C179.751 595.186 180.446 595.431 181.164 595.508C183.495 595.651 191.203 601.959 191.203 601.959C191.203 601.959 198.825 601.959 200.796 601.534L200.909 601.5C201.544 601.289 202.077 600.822 202.398 600.198C202.798 599.482 202.926 598.628 202.757 597.813C202.516 596.563 201.589 595.198 199.543 594.034C194.427 591.167 193.651 588.444 193.651 588.444L190.33 583.088H190.806C190.806 583.088 190.506 577.395 194.149 571.007L193.908 542.819C193.908 542.819 195.402 533.14 192.836 527.911C192.836 527.911 192.627 522.349 194.342 520.64C196.056 518.931 192.06 501.667 192.06 501.667C192.06 501.667 191.24 492.401 190.255 483.943C194.288 488.037 198.477 473.289 199.179 470.669H199.28L199.232 470.48L199.28 470.291C199.28 470.291 198.386 466.85 199.039 467.573C199.693 468.295 201.31 465.675 201.31 465.675C201.31 465.675 201.075 451.569 203.882 444.459C206.688 437.349 202.639 420.056 202.639 420.056ZM190.624 429.029V428.989C191.042 437.59 190.544 455.979 190.544 455.979C190.544 455.979 190.008 458.335 189.397 461.11L188.974 443.651L188.573 427.206L190.624 429.029ZM139.201 423.095C139.201 423.095 141.231 450.291 139.201 454.213C138.623 455.325 138.13 457.315 137.733 459.585C137.064 457.699 135.644 453.278 136.126 450.921C136.78 447.888 134.809 439.918 134.809 439.729C134.809 439.539 134.632 435.302 136.068 432.039C137.503 428.777 136.544 427.395 136.544 427.395C136.544 427.395 137.744 422.08 139.18 423.112L139.201 423.095Z" fill="url(#paint1_linear)"/>
<path d="M144.123 484.339C142.356 492.664 135.317 480.073 133.715 477.057C133.507 476.661 133.389 476.426 133.389 476.426L134.155 472.596L138.188 470.841C138.826 471.197 139.43 471.617 139.993 472.097C142.2 473.943 145.489 477.888 144.123 484.339Z" fill="#A1616A"/>
<path d="M198.729 470.703C198.729 470.703 198.729 470.767 198.686 470.887L198.627 471.093C197.941 473.691 193.833 488.33 189.874 484.281C185.536 479.826 187.646 469.585 187.646 469.585H187.673L196.779 468.582L198.584 470.572L198.729 470.703Z" fill="#A1616A"/>
<path d="M193.446 542.722L193.677 570.657C190.104 576.999 190.398 582.653 190.398 582.653L178.614 583.152C175.738 581.082 177.794 575.308 177.794 575.308V560.927C177.794 560.927 175.973 546.867 176.852 542.974C177.73 539.081 173.161 531.861 173.161 531.861L172.508 524.029C170.279 520.892 169.224 503.565 169.224 503.565L166.824 494.855C166.888 495.233 168.131 502.532 166.824 503.88C165.517 505.227 165.008 511.162 165.008 511.162C165.008 511.162 166.299 527.607 165.008 530.938C163.717 534.27 165.357 536.15 165.357 536.15L165.592 553.226C165.592 553.226 164.478 557.813 165.71 564.27C166.942 570.726 165.71 580.72 165.71 580.72H153.036L153.095 573.754L151.055 567.83C151.055 567.83 149.646 543.478 148.532 538.203C147.862 535.078 148.279 531.798 149.705 528.977C149.705 528.977 147.358 524.964 147.476 522.131C147.594 519.298 145.698 513.909 145.698 513.909L142.971 494.069C143.044 490.242 142.582 486.425 141.6 482.745C139.993 477.097 137.674 469.688 137.674 469.688L140.32 469.941L153.685 471.214C153.685 471.214 186.172 468.874 187.629 470.818C187.937 471.452 188.143 472.136 188.24 472.842C189.697 479.86 191.625 501.833 191.625 501.833C191.625 501.833 195.557 518.972 193.869 520.663C192.182 522.355 192.391 527.882 192.391 527.882C194.909 533.117 193.446 542.722 193.446 542.722Z" fill="#3F3D56"/>
<path d="M165.983 591.294C165.892 592.853 164.269 592.945 164.269 592.945C159.517 593.742 158.505 595.726 158.505 595.726C156.961 597.211 155.151 598.344 153.185 599.056C151.219 599.769 149.138 600.046 147.069 599.872C141.225 599.264 141.798 598.151 142.093 596.087C142.153 595.708 142.185 595.325 142.189 594.94C142.189 592.114 144.208 591.311 147.379 589.207C150.551 587.102 150.454 585.296 151.777 583.748C153.1 582.2 153.229 579.161 153.229 579.161C154.723 576.386 158.505 579.585 158.505 579.585C158.682 580.571 164.312 580.434 164.312 580.434C164.312 580.434 165.061 583.633 165.442 583.822C165.699 583.949 165.886 586.46 165.977 588.616C166.004 589.734 166.015 590.76 165.983 591.294Z" fill="#303D5C"/>
<path opacity="0.1" d="M165.983 591.294C165.892 592.853 164.269 592.945 164.269 592.945C159.517 593.742 158.505 595.726 158.505 595.726C156.961 597.211 155.151 598.344 153.185 599.056C151.219 599.769 149.138 600.046 147.069 599.872C141.225 599.264 141.798 598.151 142.093 596.087C144.701 596.781 149.699 597.75 152.607 596.053C156.657 593.702 159.571 592.039 159.571 592.039L165.999 588.599C166.004 589.734 166.015 590.76 165.983 591.294Z" fill="black"/>
<path d="M201.782 599.677C201.465 600.29 200.942 600.752 200.319 600.967L200.207 601.001C198.273 601.42 190.79 601.42 190.79 601.42C190.79 601.42 183.226 595.158 180.939 595.015C180.233 594.939 179.552 594.697 178.944 594.306C178.335 593.916 177.815 593.386 177.42 592.756C177.42 592.756 177.463 591.299 177.613 589.602C177.79 587.601 178.1 585.273 178.652 584.659C179.664 583.513 179.884 581.976 182.171 582.939C182.171 582.939 185.423 576.81 189.247 581.546L193.211 587.979C193.211 587.979 193.956 590.663 198.975 593.536C200.983 594.682 201.894 596.041 202.13 597.28C202.3 598.097 202.175 598.953 201.782 599.677Z" fill="#303D5C"/>
<path opacity="0.1" d="M201.782 599.677C201.332 600.078 200.839 600.52 200.319 600.967L200.207 601.001C198.273 601.42 190.79 601.42 190.79 601.42C190.79 601.42 183.226 595.158 180.939 595.015C180.233 594.939 179.552 594.697 178.944 594.306C178.335 593.916 177.815 593.386 177.42 592.756C177.42 592.756 177.463 591.299 177.613 589.602C179.937 590.353 183.467 591.666 184.416 593.088C185.862 595.25 190.27 598.249 190.27 598.249C190.27 598.249 198.482 597.406 202.13 597.286C202.298 598.101 202.174 598.955 201.782 599.677Z" fill="black"/>
<path d="M169.803 380.595L158.989 392.837C158.989 392.837 145.881 391.799 148.168 387.676C149.336 385.566 149.518 381.145 149.416 377.303C149.32 373.599 148.961 370.423 148.961 370.423C148.961 370.423 167.35 360.612 165.941 369.786C165.64 371.509 165.622 373.275 165.888 375.004C166.691 379.591 169.803 380.595 169.803 380.595Z" fill="#A1616A"/>
<path opacity="0.1" d="M165.942 369.786C165.641 371.509 165.623 373.275 165.888 375.004C163.435 377.659 160.028 377.074 156.246 377.074C153.75 377.074 151.072 377.114 149.063 375.847C148.967 372.137 148.945 370.446 148.945 370.446C148.945 370.446 167.35 360.612 165.942 369.786Z" fill="black"/>
<path d="M169.803 364.052C169.802 367.899 168.373 371.587 165.832 374.306C163.29 377.026 159.844 378.553 156.251 378.553C152.66 378.549 149.218 377.019 146.68 374.3C144.142 371.582 142.716 367.896 142.715 364.052C142.836 360.294 144.316 356.732 146.843 354.119C149.369 351.506 152.745 350.045 156.259 350.045C159.772 350.045 163.148 351.506 165.675 354.119C168.202 356.732 169.682 360.294 169.803 364.052Z" fill="#A1616A"/>
<path opacity="0.1" d="M188.241 472.865C184.872 481.466 163.167 481.638 163.167 481.638V472.269L161.855 472.177C162.422 474.861 161.056 481.403 161.056 481.403C143.915 483.995 139.727 473.542 139.727 473.542L140.321 469.964L153.686 471.237C153.686 471.237 186.173 468.897 187.63 470.841C187.938 471.475 188.144 472.159 188.241 472.865Z" fill="black"/>
<path d="M163.167 480.508V471.133L161.855 471.047C162.422 473.725 161.056 480.273 161.056 480.273C148.147 482.223 142.587 476.781 140.626 473.966C140.276 473.481 139.975 472.959 139.727 472.406L144.96 440.87L146.192 394.425L148.083 386.283L148.517 382.372V382.326H148.565L149.899 382.94L157.885 386.638L166.959 379.305L167.088 379.196L167.543 378.829L168.293 379.477L170.157 381.076L176.14 422.418C176.14 422.418 186.516 454.258 188.461 467.108C188.536 467.619 188.6 468.094 188.648 468.542C189.912 480.291 163.167 480.508 163.167 480.508Z" fill="#E1E7EF"/>
<path d="M158.859 388.392C159.285 388.392 159.631 388.023 159.631 387.567C159.631 387.111 159.285 386.741 158.859 386.741C158.433 386.741 158.088 387.111 158.088 387.567C158.088 388.023 158.433 388.392 158.859 388.392Z" fill="#67647E"/>
<path d="M159.213 395.927C159.639 395.927 159.984 395.557 159.984 395.101C159.984 394.645 159.639 394.276 159.213 394.276C158.787 394.276 158.441 394.645 158.441 395.101C158.441 395.557 158.787 395.927 159.213 395.927Z" fill="#67647E"/>
<path d="M159.984 408.117C160.41 408.117 160.756 407.747 160.756 407.292C160.756 406.836 160.41 406.466 159.984 406.466C159.558 406.466 159.213 406.836 159.213 407.292C159.213 407.747 159.558 408.117 159.984 408.117Z" fill="#67647E"/>
<path d="M161.26 421.253C161.686 421.253 162.031 420.884 162.031 420.428C162.031 419.972 161.686 419.603 161.26 419.603C160.834 419.603 160.488 419.972 160.488 420.428C160.488 420.884 160.834 421.253 161.26 421.253Z" fill="#67647E"/>
<path d="M162.031 433.593C162.457 433.593 162.802 433.223 162.802 432.767C162.802 432.312 162.457 431.942 162.031 431.942C161.605 431.942 161.26 432.312 161.26 432.767C161.26 433.223 161.605 433.593 162.031 433.593Z" fill="#67647E"/>
<path d="M162.803 446.729C163.229 446.729 163.574 446.36 163.574 445.904C163.574 445.448 163.229 445.078 162.803 445.078C162.377 445.078 162.031 445.448 162.031 445.904C162.031 446.36 162.377 446.729 162.803 446.729Z" fill="#67647E"/>
<path d="M162.49 459.722C162.916 459.722 163.261 459.353 163.261 458.897C163.261 458.441 162.916 458.072 162.49 458.072C162.064 458.072 161.719 458.441 161.719 458.897C161.719 459.353 162.064 459.722 162.49 459.722Z" fill="#67647E"/>
<path opacity="0.1" d="M149.031 445.474C149.031 445.474 148.168 457.556 146.588 461.07C145.008 464.585 144.301 474.442 144.301 474.442L140.626 473.995C140.276 473.51 139.975 472.987 139.727 472.435L144.96 440.898L146.192 394.454L148.083 386.311L148.517 382.401H148.57C148.774 382.295 148.997 382.24 149.224 382.24C149.45 382.24 149.674 382.295 149.877 382.401L150.054 382.498C150 382.659 149.947 382.825 149.904 382.992C148.468 387.797 147.933 396.65 147.933 396.65C147.933 396.65 149.99 412.848 150.22 420.382C150.45 427.917 149.031 445.474 149.031 445.474Z" fill="black"/>
<path opacity="0.1" d="M139.993 472.097C139.952 472.198 139.903 472.296 139.849 472.389C138.424 474.97 134.814 476.604 133.715 477.057C133.507 476.661 133.389 476.426 133.389 476.426L134.155 472.596L138.188 470.841C138.826 471.197 139.43 471.617 139.993 472.097Z" fill="black"/>
<path d="M130.223 410.446L126.88 412.579L123.833 427.085C123.833 427.085 120.019 439.385 122.949 448.175C125.879 456.965 127.582 461.988 127.582 461.988C127.582 461.988 128.755 471.971 130.518 472.785C132.28 473.599 133.04 474.041 133.04 474.041L133.378 476.437C133.378 476.437 138.151 474.717 139.843 471.65C141.536 468.582 138.601 460.996 138.601 460.996C138.601 460.996 136.078 454.528 136.72 451.518C137.363 448.507 135.435 440.623 135.435 440.405C135.435 440.187 135.258 436.007 136.661 432.773C138.065 429.54 137.133 428.186 137.133 428.186L136.254 418.955L130.223 410.446Z" fill="#303D5C"/>
<path opacity="0.1" d="M188.52 470.13C188.52 470.13 179.665 473.708 176.848 470.572C174.03 467.435 174.325 452.739 174.325 452.739C174.325 452.739 171.646 425.623 169.927 421.162C168.207 416.701 169.107 384.563 169.107 384.563C169.107 384.563 167.961 380.406 166.965 379.322C166.902 379.25 166.832 379.187 166.756 379.133L167.093 379.213L168.299 379.494L170.163 381.094L176.146 422.435C176.146 422.435 186.522 454.276 188.466 467.125L188.52 470.13Z" fill="black"/>
<path opacity="0.1" d="M198.728 471.093H198.626C197.518 471.248 187.672 472.521 187.635 470.325C187.634 470.072 187.646 469.819 187.672 469.568L196.778 468.565L198.584 470.554C198.616 470.68 198.643 470.795 198.669 470.881L198.728 471.093Z" fill="black"/>
<path d="M189.285 395.922L195.755 399.534C195.755 399.534 201.112 414.442 202.007 420.87C202.007 420.87 205.997 438.02 203.239 445.078C200.48 452.137 200.721 466.134 200.721 466.134C200.721 466.134 199.114 468.708 198.487 468.014C197.861 467.32 198.728 470.703 198.728 470.703C198.728 470.703 187.678 472.275 187.63 469.952C187.581 467.63 190.158 456.529 190.158 456.529C190.158 456.529 190.86 430.096 189.863 425.95C188.867 421.804 189.285 395.922 189.285 395.922Z" fill="#303D5C"/>
<path opacity="0.1" d="M169.985 424.069C169.985 424.069 166.353 433.611 165.164 434.241C163.975 434.872 165.395 437.378 165.395 437.378C165.395 437.378 172.042 427.458 169.985 424.069Z" fill="black"/>
<path opacity="0.1" d="M167.815 390.606C167.858 390.423 163.476 395.193 162.303 395.921C161.13 396.65 166.588 395.881 167.815 390.606Z" fill="black"/>
<path opacity="0.1" d="M155.619 423.318C155.619 423.318 148.934 427.945 149.812 429.775C150.69 431.604 155.619 423.318 155.619 423.318Z" fill="black"/>
<path opacity="0.1" d="M167.756 490.864C167.756 490.864 173.45 494.786 182.304 495.761L167.756 490.864Z" fill="black"/>
<path opacity="0.1" d="M154.092 500.285C154.092 500.285 159.373 507.401 161.768 507.567C164.162 507.733 154.092 500.285 154.092 500.285Z" fill="black"/>
<path opacity="0.1" d="M161.484 528.094C161.248 528.22 158.489 534.499 155.677 534.688C152.865 534.878 161.484 528.094 161.484 528.094Z" fill="black"/>
<path opacity="0.1" d="M185.938 541.844C185.938 541.844 191.171 540.589 192.333 544.608C192.333 544.608 191.98 543.352 185.938 541.844Z" fill="black"/>
<path opacity="0.1" d="M182.424 564.82C182.424 564.82 188.755 563.439 190.105 565.324C191.455 567.21 182.424 564.82 182.424 564.82Z" fill="black"/>
<path opacity="0.1" d="M164.495 568.02C164.495 568.083 158.067 569.401 158.297 570.284C158.527 571.167 165.18 571.035 165.411 569.653C165.455 569.482 165.467 569.302 165.444 569.125C165.422 568.949 165.366 568.779 165.281 568.626C165.195 568.473 165.081 568.34 164.946 568.236C164.811 568.132 164.657 568.058 164.495 568.02Z" fill="black"/>
<path opacity="0.1" d="M180.307 573.989C180.307 573.989 190.907 572.607 190.238 574.992C189.568 577.376 180.307 573.989 180.307 573.989Z" fill="black"/>
<path opacity="0.1" d="M124.809 434.241C124.868 434.431 131.772 435.434 132.726 437.819C132.726 437.819 125.923 434.431 124.868 434.431" fill="black"/>
<path opacity="0.1" d="M134.561 453.639C134.561 453.639 128.814 455.583 129.205 458.536C129.596 461.489 128.642 457.16 134.561 453.639Z" fill="black"/>
<path opacity="0.1" d="M131.885 468.581C131.885 468.581 133.979 465.503 135.972 466.07C137.964 466.638 131.885 468.581 131.885 468.581Z" fill="black"/>
<path opacity="0.1" d="M164.716 352.688C164.513 352.897 164.286 353.079 164.041 353.227C162.375 354.259 161.898 355.853 161.127 357.688C160.398 359.368 159.584 361.128 158.106 362.103C156.199 363.336 153.681 362.883 151.678 363.955C150.799 364.45 150.078 365.214 149.606 366.149C149.134 367.085 148.932 368.149 149.026 369.207C149.143 370.022 149.323 370.826 149.562 371.61C150.017 373.306 150.221 375.069 150.167 376.833C150.172 376.885 150.172 376.937 150.167 376.988C148.47 376.078 146.97 374.796 145.766 373.226C144.561 371.656 143.678 369.832 143.174 367.873C142.67 365.914 142.556 363.863 142.84 361.854C143.124 359.845 143.799 357.922 144.821 356.21C145.844 354.499 147.191 353.036 148.776 351.917C150.361 350.798 152.147 350.049 154.02 349.717C155.893 349.384 157.81 349.477 159.647 349.989C161.484 350.501 163.2 351.42 164.683 352.688H164.716Z" fill="black"/>
<path d="M164.361 348.324C162.872 344.976 159.637 342.854 156.326 341.822C153.787 341.036 151.029 340.778 148.506 341.644C147.095 342.212 145.729 342.899 144.419 343.697C141.907 345.056 139.143 346.134 137.252 348.364C137.008 348.597 136.817 348.887 136.693 349.211C136.57 349.535 136.517 349.884 136.539 350.234C136.707 350.723 136.946 351.182 137.246 351.593C137.782 352.613 137.643 353.886 137.284 355.033C136.925 356.18 136.373 357.172 136.116 358.313C135.859 359.454 135.961 360.784 136.748 361.598C137.126 361.921 137.52 362.224 137.927 362.504C138.361 362.9 138.741 363.36 139.057 363.869L141.291 367.143C142.341 368.597 143.278 370.141 144.092 371.759C144.572 372.983 145.153 374.159 145.828 375.274C146.572 376.334 147.735 377.183 148.972 377.068C149.067 377.071 149.161 377.05 149.247 377.006C149.332 376.962 149.407 376.897 149.465 376.816C149.511 376.712 149.533 376.598 149.529 376.483C149.577 374.719 149.373 372.958 148.924 371.26C148.671 370.478 148.481 369.674 148.356 368.857C148.264 367.796 148.47 366.73 148.947 365.794C149.424 364.859 150.151 364.096 151.034 363.605C153.027 362.533 155.544 362.992 157.462 361.759C158.94 360.801 159.755 359.024 160.483 357.338C161.281 355.503 161.726 353.898 163.397 352.877C165.068 351.856 165.186 350.084 164.361 348.324Z" fill="#303D5C"/>
<path opacity="0.1" d="M158.291 585.382C158.291 585.382 160.353 588.209 159.823 589.809C159.293 591.408 158.291 585.382 158.291 585.382Z" fill="black"/>
<path opacity="0.1" d="M186.328 592.429C186.328 592.429 186.789 588.639 188.637 588.604C190.485 588.57 190.571 588.398 191.979 588.977C193.388 589.556 194.711 590.462 194.293 590.6C193.876 590.737 191.861 588.427 189.81 589.602C188.525 590.355 187.352 591.308 186.328 592.429Z" fill="black"/>
<path opacity="0.1" d="M152.126 391.403L157.911 387.045C157.911 387.045 149.421 381.678 148.408 382.43C147.396 383.181 146.705 389.97 146.705 389.97L152.126 391.403Z" fill="black"/>
<path d="M152.083 391.116L157.89 386.667C157.89 386.667 149.399 381.3 148.387 382.08C147.375 382.86 146.684 389.993 146.684 389.993L152.083 391.116Z" fill="#E1E7EF"/>
<path opacity="0.03" d="M152.083 391.116L157.89 386.667C157.89 386.667 149.399 381.3 148.387 382.08C147.375 382.86 146.684 389.993 146.684 389.993L152.083 391.116Z" fill="black"/>
<path d="M149.351 382.103L149.175 382.011C148.918 381.875 148.631 381.82 148.346 381.852C148.062 381.885 147.792 382.003 147.568 382.194L130.164 397.309C130.164 397.309 126.382 402.911 126.907 412.579L137.128 428.152C137.128 428.152 138.301 422.877 139.71 423.88C139.71 423.88 141.702 450.875 139.71 454.769C137.717 458.662 136.833 473.226 136.833 473.226L143.577 474.041C143.577 474.041 144.284 464.184 145.864 460.669C147.444 457.154 148.312 445.078 148.312 445.078C148.312 445.078 149.737 427.521 149.501 419.987C149.266 412.452 147.214 396.26 147.214 396.26C147.214 396.26 147.803 386.764 149.351 382.103Z" fill="#303D5C"/>
<path opacity="0.1" d="M166.69 388.645L159.453 385.778C159.453 385.778 168.666 374.981 169.813 380.973L166.69 388.645Z" fill="black"/>
<path d="M166.69 388.267L159.453 385.4C159.453 385.4 168.666 374.597 169.813 380.589L166.69 388.267Z" fill="#E1E7EF"/>
<path opacity="0.03" d="M166.69 388.267L159.453 385.4C159.453 385.4 168.666 374.597 169.813 380.589L166.69 388.267Z" fill="black"/>
<path opacity="0.1" d="M166.455 379.087C166.559 379.066 166.666 379.088 166.755 379.15L166.455 379.087Z" fill="black"/>
<path d="M167.156 378.33L186.349 382.762C186.349 382.762 191.625 384.018 195.455 398.204C199.285 412.389 190.238 429.775 190.238 429.775L188.24 427.963L189.241 469.396C189.241 469.396 180.382 472.974 177.569 469.838C174.757 466.701 175.046 452.005 175.046 452.005C175.046 452.005 172.368 424.884 170.649 420.428C168.929 415.973 169.802 383.829 169.802 383.829C169.802 383.829 168.228 378.083 167.156 378.33Z" fill="#303D5C"/>
<path opacity="0.1" d="M184.71 404.763C184.437 405.033 184.121 417.567 185.294 427.126C186.014 432.938 187.126 438.687 188.621 444.327L186.88 406.094C186.88 406.094 185.53 403.915 184.71 404.763Z" fill="black"/>
<path opacity="0.1" d="M182.363 393.938C182.829 394.247 184.881 399.459 183.943 401.592C183.006 403.725 182.363 393.938 182.363 393.938Z" fill="black"/>
<path opacity="0.1" d="M164.248 348.324C163.309 346.335 161.84 344.689 160.027 343.594C161.371 344.621 162.459 345.988 163.192 347.573C164.012 349.333 163.776 351.099 162.164 352.097C160.552 353.095 160.021 354.717 159.25 356.558C158.521 358.238 157.713 359.998 156.229 360.973C154.322 362.206 151.804 361.753 149.801 362.825C148.922 363.32 148.2 364.084 147.728 365.019C147.256 365.955 147.055 367.019 147.15 368.078C147.267 368.892 147.447 369.696 147.685 370.48C148.14 372.177 148.344 373.939 148.29 375.704C148.297 375.819 148.275 375.933 148.226 376.036C148.169 376.117 148.094 376.183 148.008 376.227C147.923 376.27 147.828 376.292 147.733 376.289C147.236 376.327 146.738 376.228 146.287 376.002C146.615 376.35 147.006 376.621 147.437 376.8C147.867 376.978 148.327 377.06 148.789 377.04C148.861 377.049 148.934 377.04 149.003 377.015C149.072 376.989 149.135 376.947 149.186 376.892C149.238 376.837 149.277 376.77 149.301 376.696C149.325 376.622 149.333 376.544 149.324 376.466C149.377 374.702 149.175 372.94 148.724 371.243C148.471 370.461 148.281 369.657 148.157 368.84C148.062 367.782 148.264 366.718 148.736 365.782C149.208 364.847 149.929 364.083 150.808 363.588C152.795 362.516 155.313 362.974 157.236 361.742C158.72 360.784 159.529 359.006 160.257 357.321C161.06 355.486 161.505 353.88 163.171 352.86C164.837 351.839 165.067 350.084 164.248 348.324Z" fill="black"/>
</g>
<defs>
<linearGradient id="paint0_linear" x1="400.618" y1="603.318" x2="400.618" y2="348.691" gradientUnits="userSpaceOnUse">
<stop stop-color="#808080" stop-opacity="0.25"/>
<stop offset="0.54" stop-color="#808080" stop-opacity="0.12"/>
<stop offset="1" stop-color="#808080" stop-opacity="0.1"/>
</linearGradient>
<linearGradient id="paint1_linear" x1="142639" y1="205915" x2="142639" y2="85971.2" gradientUnits="userSpaceOnUse">
<stop stop-color="#808080" stop-opacity="0.25"/>
<stop offset="0.54" stop-color="#808080" stop-opacity="0.12"/>
<stop offset="1" stop-color="#808080" stop-opacity="0.1"/>
</linearGradient>
<clipPath id="clip0">
<rect width="540" height="447" fill="white" transform="translate(83 187)"/>
</clipPath>
</defs>
</svg>
