<svg width="50" height="50" viewBox="0 0 50 50" fill="none" xmlns="http://www.w3.org/2000/svg">
<path d="M25.5206 50C25.1102 50 24.7102 49.8375 24.4165 49.5417C24.0456 49.1729 23.8873 48.6417 23.9894 48.1312L25.3852 41.15C25.4456 40.8458 25.5956 40.5687 25.8123 40.3521L41.1706 24.9937C42.5498 23.6167 44.7914 23.6167 46.1706 24.9937L48.9644 27.7875C50.3435 29.1667 50.3435 31.4104 48.9644 32.7896L33.606 48.1479C33.3894 48.3667 33.1102 48.5146 32.8081 48.575L25.8269 49.9708C25.7248 49.9896 25.6227 50 25.5206 50ZM28.354 42.2271L27.5123 46.4458L31.7289 45.6021L46.7539 30.5792C46.8894 30.4417 46.8894 30.1333 46.7539 29.9958L43.9602 27.2042C43.8019 27.0458 43.5373 27.0438 43.3789 27.2042L28.354 42.2271Z" fill="#F20F38"/>
<path d="M8.33398 28.125H27.084V31.25H8.33398V28.125Z" fill="#F20F38"/>
<path d="M8.33398 34.375H25.0006V37.5H8.33398V34.375Z" fill="#F20F38"/>
<path d="M17.7077 14.5833C15.4098 14.5833 13.541 12.7146 13.541 10.4167C13.541 8.11875 15.4098 6.25 17.7077 6.25C20.0056 6.25 21.8743 8.11875 21.8743 10.4167C21.8743 12.7146 20.0056 14.5833 17.7077 14.5833ZM17.7077 9.375C17.1348 9.375 16.666 9.84167 16.666 10.4167C16.666 10.9917 17.1348 11.4583 17.7077 11.4583C18.2806 11.4583 18.7493 10.9917 18.7493 10.4167C18.7493 9.84167 18.2806 9.375 17.7077 9.375Z" fill="#F20F38"/>
<path d="M26.0417 25.0001H22.9167V22.3959C22.9167 20.9605 21.7479 19.7917 20.3125 19.7917H15.1042C13.6687 19.7917 12.5 20.9605 12.5 22.3959V25.0001H9.375V22.3959C9.375 19.2355 11.9437 16.6667 15.1042 16.6667H20.3125C23.4729 16.6667 26.0417 19.2355 26.0417 22.3959V25.0001Z" fill="#F20F38"/>
<path d="M20.8333 43.75H5.72917C2.56875 43.75 0 41.1812 0 38.0208V5.72916C0 2.56875 2.56875 0 5.72917 0H29.6875C32.8479 0 35.4167 2.56875 35.4167 5.72916V25H32.2917V5.72916C32.2917 4.29375 31.1229 3.125 29.6875 3.125H5.72917C4.29375 3.125 3.125 4.29375 3.125 5.72916V38.0208C3.125 39.4562 4.29375 40.625 5.72917 40.625H20.8333V43.75Z" fill="#F20F38"/>
</svg>
