<svg width="50" height="50" viewBox="0 0 50 50" fill="none" xmlns="http://www.w3.org/2000/svg">
<path d="M41.8182 23.7751C36.9011 20.5509 30.9052 17.6758 25 17.6758C19.0952 17.6758 13.0997 20.5505 8.18176 23.7751C3.65257 26.7448 0.579071 29.6791 0.450516 29.8027C0.162506 30.0789 0 30.4604 0 30.8594C0 31.2584 0.162506 31.6399 0.450516 31.916C0.579071 32.0396 3.65257 34.9739 8.18176 37.9436C13.0989 41.1678 19.0948 44.043 25 44.043C30.9048 44.043 36.9003 41.1682 41.8182 37.9436C46.3474 34.9739 49.4209 32.0396 49.5495 31.916C49.8375 31.6399 50 31.2584 50 30.8594C50 30.4604 49.8375 30.0789 49.5495 29.8027C49.4209 29.6791 46.3474 26.7448 41.8182 23.7751ZM13.8485 37.8834C9.31702 35.5152 5.49965 32.4471 3.65906 30.8586C5.49965 29.2686 9.3174 26.1974 13.8523 23.8289C12.5637 25.8652 11.8164 28.2764 11.8164 30.8594C11.8164 33.4396 12.5622 35.8486 13.8485 37.8834ZM25 41.1133C19.3451 41.1133 14.7461 36.5124 14.7461 30.8594C14.7461 25.2045 19.347 20.6055 25 20.6055C30.6549 20.6055 35.2539 25.2064 35.2539 30.8594C35.2539 36.5143 30.653 41.1133 25 41.1133ZM36.1477 37.8899C37.4363 35.8536 38.1836 33.4423 38.1836 30.8594C38.1836 28.2791 37.4378 25.8701 36.1515 23.8354C40.6826 26.2035 44.5 29.2717 46.3409 30.8601C44.5004 32.4501 40.6826 35.5213 36.1477 37.8899Z" fill="#F20F38"/>
<path d="M25 23.5352C20.9614 23.5352 17.6758 26.8208 17.6758 30.8594C17.6758 34.898 20.9614 38.1836 25 38.1836C29.0386 38.1836 32.3242 34.898 32.3242 30.8594C32.3242 26.8208 29.0386 23.5352 25 23.5352ZM25 35.2539C22.5769 35.2539 20.6055 33.2825 20.6055 30.8594C20.6055 28.4363 22.5769 26.4648 25 26.4648C27.4231 26.4648 29.3945 28.4363 29.3945 30.8594C29.3945 33.2825 27.4231 35.2539 25 35.2539Z" fill="#F20F38"/>
<path d="M26.4648 30.8594C26.4648 31.6685 25.8091 32.3242 25 32.3242C24.1909 32.3242 23.5352 31.6685 23.5352 30.8594C23.5352 30.0503 24.1909 29.3945 25 29.3945C25.8091 29.3945 26.4648 30.0503 26.4648 30.8594Z" fill="#F20F38"/>
<path d="M25 14.7461C25.8091 14.7461 26.4648 14.0903 26.4648 13.2812V7.42188C26.4648 6.61278 25.8091 5.95703 25 5.95703C24.1909 5.95703 23.5352 6.61278 23.5352 7.42188V13.2812C23.5352 14.0903 24.1909 14.7461 25 14.7461Z" fill="#F20F38"/>
<path d="M6.76711 14.5912L12.6265 17.5209C13.3509 17.8833 14.2306 17.5888 14.5918 16.8659C14.9534 16.1423 14.6601 15.2626 13.9368 14.9006L8.07746 11.9709C7.35381 11.6093 6.47376 11.9026 6.11213 12.6259C5.75011 13.3495 6.04346 14.2296 6.76711 14.5912Z" fill="#F20F38"/>
<path d="M37.3741 17.5209L43.2335 14.5912C43.9571 14.2296 44.2505 13.3495 43.8884 12.6259C43.5268 11.9026 42.6468 11.6093 41.9231 11.9709L36.0637 14.9006C35.3405 15.2626 35.0471 16.1423 35.4088 16.8659C35.7708 17.5896 36.6508 17.8829 37.3741 17.5209Z" fill="#F20F38"/>
</svg>
