<svg width="50" height="50" viewBox="0 0 50 50" fill="none" xmlns="http://www.w3.org/2000/svg">
<path d="M44.043 48.5352V10.2539C44.043 9.88007 43.8965 9.50432 43.6195 9.2247C43.6176 9.22241 43.6161 9.22012 43.6138 9.21822L34.8248 0.429153C34.5589 0.163269 34.1839 0 33.7891 0H7.42188C6.61278 0 5.95703 0.655746 5.95703 1.46484V48.5352C5.95703 49.3443 6.61278 50 7.42188 50H42.5781C43.3872 50 44.043 49.3443 44.043 48.5352ZM35.2539 5.00145L39.0415 8.78906H35.2539V5.00145ZM41.1133 47.0703H8.88672V2.92969H32.3242V10.2539C32.3242 11.063 32.98 11.7188 33.7891 11.7188H41.1133V47.0703Z" fill="#F20F38"/>
<path d="M11.8164 16.2109V22.0703C11.8164 22.8794 12.4722 23.5352 13.2812 23.5352H14.7461V35.5057C13.0409 36.1107 11.8164 37.7388 11.8164 39.6484C11.8164 42.0715 13.7878 44.043 16.2109 44.043C18.1206 44.043 19.7487 42.8181 20.3537 41.1133H29.6463C30.2513 42.8181 31.8794 44.043 33.7891 44.043C36.2122 44.043 38.1836 42.0715 38.1836 39.6484C38.1836 37.7388 36.9591 36.1107 35.2539 35.5057V30.8594C35.2539 30.0503 34.5982 29.3945 33.7891 29.3945H29.1428C28.7006 28.1479 27.7115 27.1587 26.4648 26.7166V23.5352H36.7188C37.5278 23.5352 38.1836 22.8794 38.1836 22.0703V16.2109C38.1836 15.4018 37.5278 14.7461 36.7188 14.7461H13.2812C12.4722 14.7461 11.8164 15.4018 11.8164 16.2109ZM16.2109 41.1133C15.4034 41.1133 14.7461 40.456 14.7461 39.6484C14.7461 38.8409 15.4034 38.1836 16.2109 38.1836C17.0185 38.1836 17.6758 38.8409 17.6758 39.6484C17.6758 40.456 17.0185 41.1133 16.2109 41.1133ZM33.7891 38.1836C34.5966 38.1836 35.2539 38.8409 35.2539 39.6484C35.2539 40.456 34.5966 41.1133 33.7891 41.1133C32.9815 41.1133 32.3242 40.456 32.3242 39.6484C32.3242 38.8409 32.9815 38.1836 33.7891 38.1836ZM29.1428 32.3242H32.3242V35.5057C31.0776 35.9478 30.0884 36.937 29.6463 38.1836H20.3537C19.9116 36.937 18.9224 35.9478 17.6758 35.5057V23.5352H23.5352V26.7166C21.83 27.3216 20.6055 28.9497 20.6055 30.8594C20.6055 33.2825 22.5769 35.2539 25 35.2539C26.9096 35.2539 28.5378 34.029 29.1428 32.3242ZM25 29.3945C25.8076 29.3945 26.4648 30.0518 26.4648 30.8594C26.4648 31.6669 25.8076 32.3242 25 32.3242C24.1924 32.3242 23.5352 31.6669 23.5352 30.8594C23.5352 30.0518 24.1924 29.3945 25 29.3945ZM14.7461 17.6758H35.2539V20.6055H14.7461V17.6758Z" fill="#F20F38"/>
</svg>
