<svg width="50" height="50" viewBox="0 0 50 50" fill="none" xmlns="http://www.w3.org/2000/svg">
<g clip-path="url(#clip0)">
<path d="M5.85938 21.9727V29.7424C5.85938 30.2177 6.09016 30.6637 6.4785 30.9383C6.86684 31.2126 7.36389 31.2817 7.8125 31.1234C8.12454 31.0131 8.45337 30.957 8.78906 30.957C10.4046 30.957 11.7188 32.2712 11.7188 33.8867C11.7188 35.5022 10.4046 36.8164 8.78906 36.8164C8.45337 36.8164 8.12454 36.7603 7.8125 36.6501C7.36427 36.4918 6.86684 36.5604 6.4785 36.8351C6.09016 37.1098 5.85938 37.5557 5.85938 38.031V42.6758C5.85938 43.4849 6.51512 44.1406 7.32422 44.1406H10.2539C10.2539 47.3717 12.8822 50 16.1133 50C19.3443 50 21.9727 47.3717 21.9727 44.1406H29.7424C30.2177 44.1406 30.6637 43.9098 30.9383 43.5215C31.2126 43.1335 31.282 42.6361 31.1234 42.1879C31.0131 41.8755 30.957 41.5466 30.957 41.2109C30.957 39.5954 32.2712 38.2812 33.8867 38.2812C35.5022 38.2812 36.8164 39.5954 36.8164 41.2109C36.8164 41.5466 36.7603 41.8755 36.6501 42.1875C36.4918 42.6361 36.5608 43.1332 36.8351 43.5215C37.1098 43.9098 37.5557 44.1406 38.031 44.1406H42.6758C43.4849 44.1406 44.1406 43.4849 44.1406 42.6758V39.7461C47.3717 39.7461 50 37.1178 50 33.8867C50 30.6557 47.3717 28.0273 44.1406 28.0273C44.1406 26.3054 44.1406 22.0123 44.1406 20.2576C44.1406 19.7823 43.9098 19.3363 43.5215 19.0617C43.1332 18.787 42.6361 18.718 42.1875 18.8766C41.8755 18.9869 41.5466 19.043 41.2109 19.043C39.5954 19.043 38.2812 17.7288 38.2812 16.1133C38.2812 14.4978 39.5954 13.1836 41.2109 13.1836C41.5466 13.1836 41.8755 13.2397 42.1875 13.3499C42.6357 13.5082 43.1332 13.4396 43.5215 13.1649C43.9098 12.8902 44.1406 12.4443 44.1406 11.9686V7.32422C44.1406 6.51512 43.4849 5.85938 42.6758 5.85938H39.7461C39.7461 2.62833 37.1178 0 33.8867 0C30.6557 0 28.0273 2.62833 28.0273 5.85938C26.3054 5.85938 22.0123 5.85938 20.2576 5.85938C19.7823 5.85938 19.3363 6.09016 19.0617 6.4785C18.7874 6.86646 18.718 7.36389 18.8766 7.81212C18.9869 8.12454 19.043 8.45337 19.043 8.78906C19.043 10.4046 17.7288 11.7188 16.1133 11.7188C14.4978 11.7188 13.1836 10.4046 13.1836 8.78906C13.1836 8.45337 13.2397 8.12454 13.3499 7.8125C13.5082 7.36389 13.4392 6.86684 13.1649 6.4785C12.8902 6.09016 12.4443 5.85938 11.969 5.85938H7.32422C6.51512 5.85938 5.85938 6.51512 5.85938 7.32422V10.2539C2.62833 10.2539 0 12.8822 0 16.1133C0 19.3443 2.62833 21.9727 5.85938 21.9727ZM26.4648 8.78906H29.7424C30.2177 8.78906 30.6637 8.55827 30.9383 8.16994C31.2126 7.78198 31.282 7.28455 31.1234 6.83632C31.0131 6.5239 30.957 6.19507 30.957 5.85938C30.957 4.24385 32.2712 2.92969 33.8867 2.92969C35.5022 2.92969 36.8164 4.24385 36.8164 5.85938C36.8164 6.19507 36.7603 6.5239 36.6501 6.83594C36.4918 7.28455 36.5608 7.7816 36.8351 8.16994C37.1098 8.55827 37.5557 8.78906 38.031 8.78906H41.2109V10.2539C37.9799 10.2539 35.3516 12.8822 35.3516 16.1133C35.3516 19.3443 37.9799 21.9727 41.2109 21.9727V23.5352H26.4648V8.78906ZM26.4648 26.4648H41.2109V29.7424C41.2109 30.2177 41.4417 30.6637 41.8301 30.9383C42.2184 31.2126 42.7155 31.2817 43.1641 31.1234C43.4761 31.0131 43.8049 30.957 44.1406 30.957C45.7561 30.957 47.0703 32.2716 47.0703 33.8867C47.0703 35.5022 45.7561 36.8164 44.1406 36.8164C43.8049 36.8164 43.4761 36.7607 43.1641 36.6501C42.7158 36.4918 42.2184 36.5608 41.8301 36.8355C41.4417 37.1101 41.2109 37.5557 41.2109 38.0314V41.2109H39.7461C39.7461 37.9799 37.1178 35.3516 33.8867 35.3516C30.6557 35.3516 28.0273 37.9799 28.0273 41.2109H26.4648V26.4648ZM23.5352 41.2109H20.2576C19.7823 41.2109 19.3363 41.4417 19.0617 41.8301C18.7874 42.218 18.718 42.7155 18.8766 43.1637C18.9869 43.4761 19.043 43.8049 19.043 44.1406C19.043 45.7558 17.7284 47.0703 16.1133 47.0703C14.4978 47.0703 13.1836 45.7558 13.1836 44.1406C13.1836 43.8046 13.2393 43.4761 13.3499 43.1637C13.5082 42.7155 13.4392 42.218 13.1645 41.8301C12.8899 41.4417 12.4443 41.2109 11.969 41.2109H8.78906V39.7461C12.0201 39.7461 14.6484 37.1178 14.6484 33.8867C14.6484 30.6557 12.0201 28.0273 8.78906 28.0273V26.4648H23.5352V41.2109ZM5.85938 13.1836C6.19507 13.1836 6.5239 13.2397 6.83594 13.3499C7.28416 13.5082 7.7816 13.4396 8.16994 13.1649C8.55827 12.8902 8.78906 12.4443 8.78906 11.969V8.78906H10.2539C10.2539 12.0201 12.8822 14.6484 16.1133 14.6484C19.3443 14.6484 21.9727 12.0201 21.9727 8.78906H23.5352V23.5352H8.78906V20.2576C8.78906 19.7823 8.55827 19.3363 8.16994 19.0617C7.7816 18.787 7.28455 18.718 6.83594 18.8766C6.5239 18.9869 6.19507 19.043 5.85938 19.043C4.24385 19.043 2.92969 17.7288 2.92969 16.1133C2.92969 14.4978 4.24385 13.1836 5.85938 13.1836Z" fill="#F20F38"/>
</g>
<defs>
<clipPath id="clip0">
<rect width="50" height="50" fill="white"/>
</clipPath>
</defs>
</svg>
