<svg width="50" height="50" viewBox="0 0 50 50" fill="none" xmlns="http://www.w3.org/2000/svg">
<g clip-path="url(#clip0)">
<path d="M45.6775 0H4.32236C1.93896 0 0 1.93896 0 4.32236V45.6776C0 48.061 1.93896 50 4.32236 50H45.6775C48.061 50 50 48.061 50 45.6776V4.32236C50 1.93896 48.061 0 45.6775 0V0ZM4.32236 2.92969H45.6775C46.4456 2.92969 47.0703 3.55439 47.0703 4.32236V8.7169H2.92969V4.32236C2.92969 3.55439 3.55439 2.92969 4.32236 2.92969ZM45.6775 47.0703H4.32236C3.55439 47.0703 2.92969 46.4456 2.92969 45.6776V11.6466H47.0703V45.6776C47.0703 46.4456 46.4456 47.0703 45.6775 47.0703Z" fill="#F20F38"/>
<path d="M6.35937 7.27607H8.36143C9.17041 7.27607 9.82627 6.62021 9.82627 5.81122C9.82627 5.00223 9.17041 4.34637 8.36143 4.34637H6.35937C5.55039 4.34637 4.89453 5.00223 4.89453 5.81122C4.89453 6.62021 5.55039 7.27607 6.35937 7.27607Z" fill="#F20F38"/>
<path d="M12.6094 7.27607H14.6114C15.4204 7.27607 16.0763 6.62021 16.0763 5.81122C16.0763 5.00223 15.4204 4.34637 14.6114 4.34637H12.6094C11.8004 4.34637 11.1445 5.00223 11.1445 5.81122C11.1445 6.62021 11.8004 7.27607 12.6094 7.27607Z" fill="#F20F38"/>
<path d="M18.8594 7.27607H20.8614C21.6704 7.27607 22.3263 6.62021 22.3263 5.81122C22.3263 5.00223 21.6704 4.34637 20.8614 4.34637H18.8594C18.0504 4.34637 17.3945 5.00223 17.3945 5.81122C17.3945 6.62021 18.0504 7.27607 18.8594 7.27607Z" fill="#F20F38"/>
<path d="M6.84961 27.7974H43.1712C43.9802 27.7974 44.636 27.1415 44.636 26.3325V15.5903C44.636 14.7813 43.9802 14.1255 43.1712 14.1255H6.84961C6.04063 14.1255 5.38477 14.7813 5.38477 15.5903V26.3325C5.38477 27.1415 6.04063 27.7974 6.84961 27.7974ZM8.31445 17.0552H41.7063V24.8677H8.31445V17.0552Z" fill="#F20F38"/>
<path d="M40.3091 31.7036C40.3091 30.8946 39.6532 30.2388 38.8442 30.2388H6.84961C6.04063 30.2388 5.38477 30.8946 5.38477 31.7036C5.38477 32.5126 6.04063 33.1685 6.84961 33.1685H38.8442C39.6533 33.1685 40.3091 32.5126 40.3091 31.7036Z" fill="#F20F38"/>
<path d="M6.84961 38.2466H19.9884C20.7974 38.2466 21.4532 37.5907 21.4532 36.7817C21.4532 35.9728 20.7974 35.3169 19.9884 35.3169H6.84961C6.04063 35.3169 5.38477 35.9728 5.38477 36.7817C5.38477 37.5907 6.04063 38.2466 6.84961 38.2466Z" fill="#F20F38"/>
<path d="M34.5017 40.3926H6.52148C5.7125 40.3926 5.05664 41.0484 5.05664 41.8574C5.05664 42.6664 5.7125 43.3223 6.52148 43.3223H34.5017C35.3106 43.3223 35.9665 42.6664 35.9665 41.8574C35.9665 41.0484 35.3106 40.3926 34.5017 40.3926Z" fill="#F20F38"/>
<path d="M43.189 40.3926H40.3105C39.5016 40.3926 38.8457 41.0484 38.8457 41.8574C38.8457 42.6664 39.5016 43.3223 40.3105 43.3223H43.189C43.9979 43.3223 44.6538 42.6664 44.6538 41.8574C44.6538 41.0484 43.9979 40.3926 43.189 40.3926Z" fill="#F20F38"/>
</g>
<defs>
<clipPath id="clip0">
<rect width="50" height="50" fill="white"/>
</clipPath>
</defs>
</svg>
