<svg width="50" height="50" viewBox="0 0 50 50" fill="none" xmlns="http://www.w3.org/2000/svg">
<path d="M40.2164 20.1087C41.1169 20.1087 41.8469 19.3787 41.8469 18.4782C41.8469 17.5777 41.1169 16.8477 40.2164 16.8477C39.3159 16.8477 38.5859 17.5777 38.5859 18.4782C38.5859 19.3787 39.3159 20.1087 40.2164 20.1087Z" fill="#F20F38"/>
<path d="M17.9352 20.1087C18.8356 20.1087 19.5656 19.3787 19.5656 18.4782C19.5656 17.5777 18.8356 16.8477 17.9352 16.8477C17.0347 16.8477 16.3047 17.5777 16.3047 18.4782C16.3047 19.3787 17.0347 20.1087 17.9352 20.1087Z" fill="#F20F38"/>
<path d="M8.15195 20.1087C9.05244 20.1087 9.78242 19.3787 9.78242 18.4782C9.78242 17.5777 9.05244 16.8477 8.15195 16.8477C7.25147 16.8477 6.52148 17.5777 6.52148 18.4782C6.52148 19.3787 7.25147 20.1087 8.15195 20.1087Z" fill="#F20F38"/>
<path d="M17.9352 33.1522C18.8356 33.1522 19.5656 32.4222 19.5656 31.5218C19.5656 30.6213 18.8356 29.8913 17.9352 29.8913C17.0347 29.8913 16.3047 30.6213 16.3047 31.5218C16.3047 32.4222 17.0347 33.1522 17.9352 33.1522Z" fill="#F20F38"/>
<path d="M8.15195 33.1522C9.05244 33.1522 9.78242 32.4222 9.78242 31.5218C9.78242 30.6213 9.05244 29.8913 8.15195 29.8913C7.25147 29.8913 6.52148 30.6213 6.52148 31.5218C6.52148 32.4222 7.25147 33.1522 8.15195 33.1522Z" fill="#F20F38"/>
<path d="M48.3695 10.3261H46.7391V5.43476C46.7391 4.53437 46.0091 3.80429 45.1086 3.80429C44.2081 3.80429 43.4781 4.53427 43.4781 5.43476V10.3261H36.9563V5.43476C36.9563 4.53437 36.2264 3.80429 35.3259 3.80429C34.4254 3.80429 33.6954 4.53427 33.6954 5.43476V10.3261H32.0649C31.1646 10.3261 30.4345 11.056 30.4345 11.9565V16.8478C30.4345 19.6798 31.6607 22.3709 33.7989 24.2309C34.7692 25.075 35.3258 26.4149 35.3258 27.9071V29.4157C35.3258 31.3148 36.7502 32.8863 38.5866 33.1208V39.1983C38.5866 41.2587 36.9105 42.9348 34.8502 42.9348H1.63047C0.72998 42.9348 0 43.6647 0 44.5652C0 45.4657 0.72998 46.1957 1.63047 46.1957H34.8506C38.709 46.1957 41.8479 43.0568 41.8479 39.1984V33.1209C43.6843 32.8864 45.1087 31.3149 45.1087 29.4158V27.9072C45.1087 26.4149 45.6652 25.0751 46.6355 24.231C48.7737 22.3709 50 19.6798 50 16.8478V11.9565C50 11.056 49.27 10.3261 48.3695 10.3261ZM46.7392 16.8478C46.7392 18.7359 45.9213 20.5302 44.4953 21.7707C42.8128 23.2343 41.8479 25.471 41.8479 27.9072V29.4158C41.8479 29.6781 41.6346 29.8914 41.3723 29.8914H39.0625C38.8002 29.8914 38.5869 29.6781 38.5869 29.4158V27.9072C38.5869 25.471 37.6219 23.2343 35.9395 21.7707C34.5135 20.5302 33.6956 18.7359 33.6956 16.8478V13.5869H46.7391V16.8478H46.7392Z" fill="#F20F38"/>
<path d="M21.1956 10.3261H4.89131C2.19424 10.3261 0 12.5203 0 15.2174V34.7826C0 37.4797 2.19424 39.6739 4.89131 39.6739H21.1956C23.8927 39.6739 26.0869 37.4797 26.0869 34.7826V15.2174C26.0869 12.5203 23.8927 10.3261 21.1956 10.3261ZM22.8261 34.7826C22.8261 35.6816 22.0946 36.4131 21.1956 36.4131H4.89131C3.99229 36.4131 3.26084 35.6816 3.26084 34.7826V26.6305H22.8261V34.7826ZM22.8261 23.3695H3.26084V15.2174C3.26084 14.3184 3.99229 13.5869 4.89131 13.5869H21.1956C22.0946 13.5869 22.8261 14.3184 22.8261 15.2174V23.3695Z" fill="#F20F38"/>
</svg>
