<svg width="50" height="50" viewBox="0 0 50 50" fill="none" xmlns="http://www.w3.org/2000/svg">
<path d="M39.6484 0H10.3516C7.92842 0 5.95703 1.97139 5.95703 4.39453V45.6055C5.95703 48.0286 7.92842 50 10.3516 50H39.6484C42.0716 50 44.043 48.0286 44.043 45.6055V4.39453C44.043 1.97139 42.0716 0 39.6484 0ZM41.1133 45.6055C41.1133 46.4132 40.4562 47.0703 39.6484 47.0703H10.3516C9.54385 47.0703 8.88672 46.4132 8.88672 45.6055V44.1406H41.1133V45.6055ZM41.1133 41.2109H8.88672V8.78906H41.1133V41.2109ZM41.1133 5.85938H8.88672V4.39453C8.88672 3.58682 9.54385 2.92969 10.3516 2.92969H39.6484C40.4562 2.92969 41.1133 3.58682 41.1133 4.39453V5.85938Z" fill="#F20F38"/>
<path d="M36.7188 26.4649H35.1588C35.2211 25.9669 35.2539 25.4767 35.2539 25C35.2539 23.7596 35.0344 22.6711 34.5988 21.7389L36.2475 20.217C36.842 19.6683 36.879 18.7415 36.3304 18.1471C35.7817 17.5527 34.855 17.5156 34.2604 18.0643L32.7295 19.4776C32.1307 19.0382 31.494 18.7208 30.8043 18.4704C31.0852 16.3936 30.2555 14.401 28.6896 13.1281L28.9655 12.8522C29.5376 12.2801 29.5376 11.3526 28.9655 10.7806C28.3936 10.2086 27.466 10.2085 26.8939 10.7806L25.802 11.8727C25.2573 11.7978 24.7434 11.7977 24.1981 11.8727L23.1062 10.7806C22.5343 10.2086 21.6067 10.2085 21.0346 10.7806C20.4625 11.3526 20.4625 12.2801 21.0346 12.8522L21.3105 13.1281C19.7467 14.3993 18.9146 16.3909 19.1958 18.4704C18.5065 18.7206 17.8697 19.0379 17.2706 19.4776L15.7396 18.0643C15.1451 17.5154 14.2184 17.5526 13.6698 18.1471C13.1211 18.7415 13.1581 19.6683 13.7525 20.217C14.8021 21.1859 15.1578 21.5141 15.4013 21.7389C14.9656 22.6711 14.7461 23.7596 14.7461 25C14.7461 25.4767 14.7788 25.9669 14.8412 26.4649H13.2812C12.4723 26.4649 11.8164 27.1207 11.8164 27.9297C11.8164 28.7387 12.4723 29.3945 13.2812 29.3945H15.5257C16.0074 30.8167 16.6981 32.2186 17.5589 33.481L15.2174 35.6424C14.6229 36.1911 14.5858 37.1179 15.1345 37.7123C15.6831 38.3067 16.6099 38.344 17.2044 37.7951L19.4462 35.7259C21.1331 37.3265 23.0443 38.1836 25 38.1836C26.9557 38.1836 28.8669 37.3265 30.5538 35.7259L32.7956 37.7951C33.3898 38.3439 34.3167 38.3068 34.8655 37.7123C35.4142 37.1179 35.3771 36.1911 34.7826 35.6424L32.4411 33.481C33.3019 32.2186 33.9926 30.8166 34.4743 29.3945H36.7188C37.5277 29.3945 38.1836 28.7387 38.1836 27.9297C38.1836 27.1207 37.5277 26.4649 36.7188 26.4649ZM23.5352 34.9587C20.3884 33.7138 17.6758 28.7852 17.6758 25C17.6758 22.5895 18.7168 20.915 23.5352 20.6443V34.9587ZM22.0743 17.8295C21.9888 16.1362 23.3403 14.7461 25 14.7461C26.6599 14.7461 28.0112 16.1364 27.9257 17.8295C27.0499 17.727 26.0808 17.6758 25 17.6758C23.9192 17.6758 22.9501 17.727 22.0743 17.8295ZM26.4648 34.9587V20.6443C31.2832 20.915 32.3242 22.5895 32.3242 25C32.3242 28.7881 29.6097 33.7146 26.4648 34.9587Z" fill="#F20F38"/>
</svg>
