<svg width="50" height="50" viewBox="0 0 50 50" fill="none" xmlns="http://www.w3.org/2000/svg">
<path d="M47.2756 25.7652L47.7445 25L47.2756 24.2344C47.1971 24.1066 45.3111 21.0625 41.647 18.0119C36.7738 13.9549 31.0327 11.8103 25.044 11.8103C19.0568 11.8103 13.3016 13.9538 8.40044 18.0088C4.71544 21.0579 2.80809 24.0997 2.72874 24.2279L2.25 25L2.72874 25.7721C2.80809 25.9003 4.71544 28.9421 8.40044 31.9912C13.3016 36.0462 19.0568 38.1897 25.044 38.1897C31.0327 38.1897 36.7738 36.0451 41.647 31.9881C45.3111 28.9375 47.1971 25.8934 47.2756 25.7652ZM39.6947 29.8008C35.3108 33.4232 30.3815 35.2596 25.044 35.2596C19.7045 35.2596 14.7592 33.4221 10.3456 29.7974C8.06284 27.9228 6.51521 26.0246 5.75723 25C6.51559 23.9746 8.06322 22.0768 10.3456 20.2023C14.7592 16.5779 19.7041 14.74 25.044 14.74C30.3815 14.74 35.3105 16.5768 39.6947 20.1988C41.9671 22.0764 43.5014 23.9773 44.2491 25C43.5006 26.0231 41.9667 27.924 39.6947 29.8008Z" fill="#F20F38"/>
<path d="M24.9993 16.198C20.1459 16.198 16.1973 20.1466 16.1973 25C16.1973 29.8535 20.1459 33.8021 24.9993 33.8021C29.8527 33.8021 33.8013 29.8535 33.8013 25C33.8013 20.1466 29.8527 16.198 24.9993 16.198ZM24.9993 30.8724C21.7614 30.8724 19.127 28.2379 19.127 25C19.127 21.7621 21.7614 19.1277 24.9993 19.1277C28.2372 19.1277 30.8716 21.7621 30.8716 25C30.8716 28.2379 28.2372 30.8724 24.9993 30.8724Z" fill="#F20F38"/>
<path d="M2.92969 2.92969H9.04541V0H0V8.93555H2.92969V2.92969Z" fill="#F20F38"/>
<path d="M40.9551 0V2.92969H47.0708V8.93555H50.0005V0H40.9551Z" fill="#F20F38"/>
<path d="M2.92969 41.0645H0V50H9.04541V47.0703H2.92969V41.0645Z" fill="#F20F38"/>
<path d="M47.0708 47.0703H40.9551V50H50.0005V41.0645H47.0708V47.0703Z" fill="#F20F38"/>
</svg>
