<svg width="50" height="50" viewBox="0 0 50 50" fill="none" xmlns="http://www.w3.org/2000/svg">
<path d="M45.1489 38.4304C46.3329 37.2766 47.0703 35.6666 47.0703 33.8867C47.0703 30.3866 44.2228 27.539 40.7227 27.539C37.2226 27.539 34.375 30.3866 34.375 33.8867C34.375 35.6666 35.1124 37.2766 36.2964 38.4304C34.9203 39.1806 33.754 40.269 32.9102 41.5833C32.0663 40.2689 30.9 39.1805 29.5238 38.4303C30.7079 37.2766 31.4452 35.6665 31.4452 33.8866C31.4452 30.3865 28.5977 27.5389 25.0976 27.5389C21.5975 27.5389 18.7499 30.3865 18.7499 33.8866C18.7499 35.6665 19.4873 37.2766 20.6714 38.4304C19.2953 39.1806 18.1291 40.269 17.2852 41.5833C16.4413 40.2689 15.275 39.1806 13.8988 38.4303C15.0829 37.2766 15.8202 35.6664 15.8202 33.8866C15.8202 30.3865 12.9728 27.5389 9.47256 27.5389C5.97236 27.5389 3.1249 30.3865 3.1249 33.8866C3.1249 35.6665 3.8623 37.2766 5.04629 38.4304C2.15889 40.0046 0.195312 43.0683 0.195312 46.582V48.5352C0.195312 49.3441 0.851172 50 1.66016 50H48.5352C49.3441 50 50 49.3441 50 48.5352V46.582C50 43.0683 48.0364 40.0046 45.1489 38.4304ZM37.3047 33.8867C37.3047 32.002 38.838 30.4687 40.7227 30.4687C42.6073 30.4687 44.1406 32.002 44.1406 33.8867C44.1406 35.7714 42.6073 37.3047 40.7227 37.3047C38.838 37.3047 37.3047 35.7714 37.3047 33.8867ZM25.0976 30.4687C26.9822 30.4687 28.5155 32.002 28.5155 33.8867C28.5155 35.7714 26.9822 37.3047 25.0976 37.3047C23.2129 37.3047 21.6796 35.7714 21.6796 33.8867C21.6796 32.002 23.2129 30.4687 25.0976 30.4687ZM9.47256 30.4687C11.3572 30.4687 12.8905 32.002 12.8905 33.8867C12.8905 35.7714 11.3572 37.3047 9.47256 37.3047C7.58789 37.3047 6.05459 35.7714 6.05459 33.8867C6.05459 32.002 7.58789 30.4687 9.47256 30.4687ZM3.125 46.582C3.125 43.0819 5.97256 40.2344 9.47266 40.2344C12.9728 40.2344 15.8203 43.0819 15.8203 46.582V47.0703H3.125V46.582ZM18.75 46.582C18.75 43.0819 21.5976 40.2344 25.0977 40.2344C28.5978 40.2344 31.4453 43.0819 31.4453 46.582V47.0703H18.75V46.582ZM47.0703 47.0703H34.375V46.582C34.375 43.0819 37.2226 40.2344 40.7227 40.2344C44.2228 40.2344 47.0703 43.0819 47.0703 46.582V47.0703Z" fill="#F20F38"/>
<path d="M1.46484 22.4609H26.8555C27.6645 22.4609 28.3203 21.8051 28.3203 20.9961V1.46484C28.3203 0.655859 27.6645 0 26.8555 0H1.46484C0.655859 0 0 0.655859 0 1.46484V20.9961C0 21.8051 0.655859 22.4609 1.46484 22.4609ZM2.92969 2.92969H25.3906V19.5312H2.92969V2.92969Z" fill="#F20F38"/>
<path d="M45.1489 10.8913C46.3329 9.7376 47.0703 8.12754 47.0703 6.34766C47.0703 2.84756 44.2228 0 40.7227 0C37.2226 0 34.375 2.84756 34.375 6.34766C34.375 8.12754 35.1124 9.7376 36.2964 10.8913C33.4089 12.4655 31.4453 15.5292 31.4453 19.043V20.9961C31.4453 21.8051 32.1012 22.4609 32.9102 22.4609H48.5352C49.3441 22.4609 50 21.8051 50 20.9961V19.043C50 15.5292 48.0364 12.4655 45.1489 10.8913ZM37.3047 6.34766C37.3047 4.46299 38.838 2.92969 40.7227 2.92969C42.6073 2.92969 44.1406 4.46299 44.1406 6.34766C44.1406 8.23232 42.6073 9.76562 40.7227 9.76562C38.838 9.76562 37.3047 8.23232 37.3047 6.34766ZM47.0703 19.5312H34.375V19.043C34.375 15.5429 37.2226 12.6953 40.7227 12.6953C44.2228 12.6953 47.0703 15.5429 47.0703 19.043V19.5312Z" fill="#F20F38"/>
<path d="M20.9961 5.85938H17.0899C16.2809 5.85938 15.625 6.51523 15.625 7.32422C15.625 8.1332 16.2809 8.78906 17.0899 8.78906H17.4597L14.1602 12.0886L12.2663 10.1947C11.6943 9.62266 10.7667 9.62266 10.1947 10.1947L6.28843 14.101C5.71636 14.673 5.71636 15.6005 6.28843 16.1726C6.57446 16.4586 6.94937 16.6016 7.32427 16.6016C7.69917 16.6016 8.07407 16.4586 8.36001 16.1725L11.2305 13.3021L13.1245 15.1959C13.6964 15.768 14.624 15.768 15.196 15.1959L19.5313 10.8606V11.2305C19.5313 12.0395 20.1872 12.6953 20.9961 12.6953C21.8051 12.6953 22.461 12.0395 22.461 11.2305V7.32422C22.461 6.51523 21.8051 5.85938 20.9961 5.85938Z" fill="#F20F38"/>
</svg>
