<svg width="50" height="50" viewBox="0 0 50 50" fill="none" xmlns="http://www.w3.org/2000/svg">
<path d="M47.0703 37.5977H45.2148V26.4648C45.2148 24.8178 43.8585 23.5352 42.3117 23.5352H26.4648V15.5273H35.9375C36.7465 15.5273 37.4023 14.8715 37.4023 14.0625V1.46484C37.4023 0.655859 36.7465 0 35.9375 0H14.0625C13.2535 0 12.5977 0.655859 12.5977 1.46484V14.0625C12.5977 14.8715 13.2535 15.5273 14.0625 15.5273H23.5352V23.5352H7.71484C6.09941 23.5352 4.78516 24.8494 4.78516 26.4648V37.5977H2.92969C1.31426 37.5977 0 38.9119 0 40.5273V47.0703C0 48.6857 1.31426 50 2.92969 50H9.47266C11.0881 50 12.4023 48.6857 12.4023 47.0703V40.5273C12.4023 38.9119 11.0881 37.5977 9.47266 37.5977H7.71484V26.4648H23.5352V37.5977H21.7773C20.1619 37.5977 18.8477 38.9119 18.8477 40.5273V47.0703C18.8477 48.6857 20.1619 50 21.7773 50H28.2227C29.8381 50 31.1523 48.6857 31.1523 47.0703V40.5273C31.1523 38.9119 29.8381 37.5977 28.2227 37.5977H26.4648V26.4648H42.2852V37.5977H40.5273C38.9119 37.5977 37.5977 38.9119 37.5977 40.5273V47.0703C37.5977 48.6857 38.9119 50 40.5273 50H47.0703C48.6857 50 50 48.6857 50 47.0703V40.5273C50 38.9119 48.6857 37.5977 47.0703 37.5977ZM15.5273 2.92969H34.4727V12.5977H15.5273V2.92969ZM9.47451 47.0702C9.46475 47.0719 8.79639 47.0703 2.92969 47.0703V40.5273H9.47266L9.47451 47.0702ZM28.2245 47.0702C28.2147 47.0719 27.6272 47.0703 21.7773 47.0703V40.5273H28.2227L28.2245 47.0702ZM47.0703 47.0703H40.5273V40.5273H47.0703C47.0722 47.212 47.0801 47.0703 47.0703 47.0703Z" fill="#F20F38"/>
<path d="M31.1523 7.8125C31.1523 7.00352 30.4965 6.34766 29.6875 6.34766H20.3125C19.5035 6.34766 18.8477 7.00352 18.8477 7.8125C18.8477 8.62148 19.5035 9.27734 20.3125 9.27734H29.6875C30.4965 9.27734 31.1523 8.62148 31.1523 7.8125Z" fill="#F20F38"/>
</svg>
