<svg width="55" height="55" viewBox="0 0 55 55" fill="none" xmlns="http://www.w3.org/2000/svg">
<path d="M53.3887 45.332H52.7441V43.7207C52.7441 39.3873 50.2873 35.6174 46.6938 33.7292C48.4226 32.2504 49.5215 30.0555 49.5215 27.6074C49.5215 23.165 45.9073 19.5508 41.4648 19.5508C37.0224 19.5508 33.4082 23.165 33.4082 27.6074C33.4082 30.0555 34.5071 32.2504 36.2359 33.7292C32.6424 35.6174 30.1855 39.3873 30.1855 43.7207V45.332H21.1419L20.0677 42.1094H27.5C28.3899 42.1094 29.1113 41.3879 29.1113 40.498V24.3848C29.1113 23.4949 28.3899 22.7734 27.5 22.7734H1.71875C0.828867 22.7734 0.107422 23.4949 0.107422 24.3848V40.498C0.107422 41.3879 0.828867 42.1094 1.71875 42.1094H9.15106L8.07684 45.332H1.61133C0.721445 45.332 0 46.0535 0 46.9434V53.3887C0 54.2786 0.721445 55 1.61133 55H53.3887C54.2786 55 55 54.2786 55 53.3887V46.9434C55 46.0535 54.2786 45.332 53.3887 45.332ZM36.6309 27.6074C36.6309 24.942 38.7994 22.7734 41.4648 22.7734C44.1303 22.7734 46.2988 24.942 46.2988 27.6074C46.2988 30.2729 44.1303 32.4414 41.4648 32.4414C38.7994 32.4414 36.6309 30.2729 36.6309 27.6074ZM33.4082 43.7207C33.4082 39.2783 37.0224 35.6641 41.4648 35.6641C45.9073 35.6641 49.5215 39.2783 49.5215 43.7207V45.332H33.4082V43.7207ZM3.33008 25.9961H25.8887V38.8867H3.33008V25.9961ZM12.5482 42.1094H16.6707L17.7449 45.332H11.4739L12.5482 42.1094ZM51.7773 51.7773H3.22266V48.5547H51.7773V51.7773Z" fill="#F20F38"/>
<path d="M12.4609 16.1133H25.9379L31.9773 20.1396C32.247 20.3193 32.5586 20.4102 32.8712 20.4102C33.1319 20.4102 33.3932 20.347 33.6314 20.2195C34.1553 19.9391 34.4824 19.3931 34.4824 18.7988V16.1133H36.0938C38.1669 16.1133 39.8535 14.4267 39.8535 12.3535V3.75977C39.8535 1.68663 38.1669 0 36.0938 0H12.4609C10.3878 0 8.70117 1.68663 8.70117 3.75977V12.3535C8.70117 14.4267 10.3878 16.1133 12.4609 16.1133ZM11.9238 3.75977C11.9238 3.4636 12.1648 3.22266 12.4609 3.22266H36.0938C36.3899 3.22266 36.6309 3.4636 36.6309 3.75977V12.3535C36.6309 12.6497 36.3899 12.8906 36.0938 12.8906H32.8711C31.9812 12.8906 31.2598 13.6121 31.2598 14.502V15.788L27.3195 13.1612C27.0548 12.9847 26.7439 12.8906 26.4258 12.8906H12.4609C12.1648 12.8906 11.9238 12.6497 11.9238 12.3535V3.75977Z" fill="#F20F38"/>
<path d="M16.7578 9.66797H31.7969C32.6868 9.66797 33.4082 8.94652 33.4082 8.05664C33.4082 7.16676 32.6868 6.44531 31.7969 6.44531H16.7578C15.8679 6.44531 15.1465 7.16676 15.1465 8.05664C15.1465 8.94652 15.8679 9.66797 16.7578 9.66797Z" fill="#F20F38"/>
</svg>
