<svg width="55" height="55" viewBox="0 0 55 55" fill="none" xmlns="http://www.w3.org/2000/svg">
<path d="M49.4635 0H5.53652C2.4837 0 0 2.4837 0 5.53652V49.4635C0 52.5163 2.4837 55 5.53652 55H49.4635C52.5163 55 55 52.5163 55 49.4635V5.53652C55 2.4837 52.5163 0 49.4635 0ZM5.53652 3.22266H49.4635C50.7393 3.22266 51.7773 4.26067 51.7773 5.53652V10.473H3.22266V5.53652C3.22266 4.26067 4.26067 3.22266 5.53652 3.22266ZM49.4635 51.7773H5.53652C4.26067 51.7773 3.22266 50.7393 3.22266 49.4635V13.6956H51.7773V49.4635C51.7773 50.7393 50.7393 51.7773 49.4635 51.7773Z" fill="#F20F38"/>
<path d="M6.97852 8.47925H10.4755C11.3654 8.47925 12.0869 7.7578 12.0869 6.86792C12.0869 5.97804 11.3654 5.25659 10.4755 5.25659H6.97852C6.08863 5.25659 5.36719 5.97804 5.36719 6.86792C5.36719 7.7578 6.08863 8.47925 6.97852 8.47925Z" fill="#F20F38"/>
<path d="M15.8945 8.47925H19.3915C20.2814 8.47925 21.0029 7.7578 21.0029 6.86792C21.0029 5.97804 20.2814 5.25659 19.3915 5.25659H15.8945C15.0046 5.25659 14.2832 5.97804 14.2832 6.86792C14.2832 7.7578 15.0046 8.47925 15.8945 8.47925Z" fill="#F20F38"/>
<path d="M32.748 8.47925H48.0806C48.9705 8.47925 49.6919 7.7578 49.6919 6.86792C49.6919 5.97804 48.9705 5.25659 48.0806 5.25659H32.748C31.8582 5.25659 31.1367 5.97804 31.1367 6.86792C31.1367 7.7578 31.8582 8.47925 32.748 8.47925Z" fill="#F20F38"/>
<path d="M43.22 41.8066H11.3145C10.4246 41.8066 9.70312 42.5281 9.70312 43.418C9.70312 44.3079 10.4246 45.0293 11.3145 45.0293H43.22C44.1099 45.0293 44.8314 44.3079 44.8314 43.418C44.8314 42.5281 44.1099 41.8066 43.22 41.8066Z" fill="#F20F38"/>
<path d="M14.8498 35.3396H11.3145C10.4246 35.3396 9.70312 36.061 9.70312 36.9509C9.70312 37.8408 10.4246 38.5622 11.3145 38.5622H14.8498C17.6877 38.5622 19.9965 36.2534 19.9965 33.4155C19.9965 30.5777 17.6877 28.2689 14.8498 28.2689C13.7889 28.2689 12.9258 27.4057 12.9258 26.3448C12.9258 25.2839 13.7889 24.4209 14.8498 24.4209H18.3852C19.2751 24.4209 19.9965 23.6995 19.9965 22.8096C19.9965 21.9197 19.2751 21.1982 18.3852 21.1982H14.8498C12.0119 21.1982 9.70312 23.507 9.70312 26.3448C9.70312 29.1827 12.0119 31.4915 14.8498 31.4915C15.9107 31.4915 16.7738 32.3546 16.7738 33.4155C16.7738 34.4764 15.9107 35.3396 14.8498 35.3396Z" fill="#F20F38"/>
<path d="M25.3705 38.5622H30.8051C31.695 38.5622 32.4164 37.8408 32.4164 36.9509C32.4164 36.061 31.695 35.3396 30.8051 35.3396H25.3705C25.3569 35.3396 25.3457 35.3284 25.3457 35.3149V31.4915H30.8051C31.695 31.4915 32.4164 30.7701 32.4164 29.8802C32.4164 28.9903 31.695 28.2689 30.8051 28.2689H25.3457V24.4456C25.3457 24.432 25.3569 24.4209 25.3705 24.4209H30.8051C31.695 24.4209 32.4164 23.6995 32.4164 22.8096C32.4164 21.9197 31.695 21.1982 30.8051 21.1982H25.3705C23.5799 21.1982 22.123 22.6551 22.123 24.4456V35.3149C22.123 37.1055 23.5799 38.5622 25.3705 38.5622Z" fill="#F20F38"/>
<path d="M41.6026 21.1982H37.7689C35.988 21.1982 34.5391 22.647 34.5391 24.428V35.3324C34.5391 37.1133 35.988 38.5622 37.7689 38.5622H41.6026C43.3835 38.5622 44.8324 37.1133 44.8324 35.3324V24.428C44.8324 22.647 43.3835 21.1982 41.6026 21.1982ZM41.6026 35.3396L37.7617 35.3324L37.7689 24.4209H41.6026L41.6098 24.428L41.6026 35.3396Z" fill="#F20F38"/>
</svg>
