<svg width="55" height="55" viewBox="0 0 55 55" fill="none" xmlns="http://www.w3.org/2000/svg">
<path d="M50.166 1.71875H4.83398C2.16858 1.71875 0 3.88733 0 6.55273V38.7793C0 41.4447 2.16858 43.6133 4.83398 43.6133H18.819L16.6705 50.0586H11.3867C10.4967 50.0586 9.77539 50.7799 9.77539 51.6699C9.77539 52.5599 10.4967 53.2812 11.3867 53.2812H43.6133C44.5033 53.2812 45.2246 52.5599 45.2246 51.6699C45.2246 50.7799 44.5033 50.0586 43.6133 50.0586H38.3295L36.181 43.6133H50.166C52.8314 43.6133 55 41.4447 55 38.7793V6.55273C55 3.88733 52.8314 1.71875 50.166 1.71875ZM20.0677 50.0586L22.2162 43.6133H32.7838L34.9323 50.0586H20.0677ZM51.7773 38.7793C51.7773 39.6676 51.0543 40.3906 50.166 40.3906C47.7318 40.3906 7.28077 40.3906 4.83398 40.3906C3.94566 40.3906 3.22266 39.6676 3.22266 38.7793V37.168H51.7773V38.7793ZM51.7773 33.9453H3.22266V6.55273C3.22266 5.66441 3.94566 4.94141 4.83398 4.94141H50.166C51.0543 4.94141 51.7773 5.66441 51.7773 6.55273V33.9453Z" fill="#F20F38"/>
<path d="M32.334 9.77539C32.334 10.6654 31.6127 11.3867 30.7227 11.3867C29.8326 11.3867 29.1113 10.6654 29.1113 9.77539C29.1113 8.88538 29.8326 8.16406 30.7227 8.16406C31.6127 8.16406 32.334 8.88538 32.334 9.77539Z" fill="#F20F38"/>
<path d="M25.8887 9.77539C25.8887 10.6654 25.1674 11.3867 24.2773 11.3867C23.3873 11.3867 22.666 10.6654 22.666 9.77539C22.666 8.88538 23.3873 8.16406 24.2773 8.16406C25.1674 8.16406 25.8887 8.88538 25.8887 9.77539Z" fill="#F20F38"/>
<path d="M38.7793 9.77539C38.7793 10.6654 38.058 11.3867 37.168 11.3867C36.278 11.3867 35.5566 10.6654 35.5566 9.77539C35.5566 8.88538 36.278 8.16406 37.168 8.16406C38.058 8.16406 38.7793 8.88538 38.7793 9.77539Z" fill="#F20F38"/>
<path d="M17.832 8.16406H8.16406C7.27406 8.16406 6.55273 8.88538 6.55273 9.77539V29.1113C6.55273 30.0013 7.27406 30.7227 8.16406 30.7227H17.832C18.722 30.7227 19.4434 30.0013 19.4434 29.1113V9.77539C19.4434 8.88538 18.722 8.16406 17.832 8.16406ZM16.2207 27.5H9.77539V24.2773H16.2207V27.5ZM16.2207 21.0547H9.77539V17.832H16.2207V21.0547ZM16.2207 14.6094H9.77539V11.3867H16.2207V14.6094Z" fill="#F20F38"/>
<path d="M41.53 24.7494C40.901 24.12 39.8805 24.12 39.2515 24.7494L37.4186 26.5819L32.0634 18.5496C31.7647 18.1014 31.2616 17.832 30.7228 17.832C30.184 17.832 29.6809 18.1014 29.3821 18.5496L22.9368 28.2175C22.4433 28.9577 22.6431 29.9585 23.3837 30.452C24.1209 30.9434 25.1221 30.7487 25.6181 30.0051L30.7228 22.3484L35.8274 30.0051C36.0951 30.4067 36.529 30.6673 37.0095 30.7147C37.4903 30.7625 37.9662 30.5922 38.3073 30.2506L40.3907 28.1676L42.4741 30.2506C43.1031 30.88 44.1236 30.88 44.7527 30.2506C45.3821 29.6216 45.3821 28.6015 44.7527 27.9721L41.53 24.7494Z" fill="#F20F38"/>
<path d="M43.6133 11.3867C40.9479 11.3867 38.7793 13.5553 38.7793 16.2207C38.7793 18.8861 40.9479 21.0547 43.6133 21.0547C46.2787 21.0547 48.4473 18.8861 48.4473 16.2207C48.4473 13.5553 46.2787 11.3867 43.6133 11.3867ZM43.6133 17.832C42.725 17.832 42.002 17.109 42.002 16.2207C42.002 15.3324 42.725 14.6094 43.6133 14.6094C44.5016 14.6094 45.2246 15.3324 45.2246 16.2207C45.2246 17.109 44.5016 17.832 43.6133 17.832Z" fill="#F20F38"/>
</svg>
